<?xml version="1.0" encoding="UTF-8" standalone="no"?>
<!-- Created with Inkscape (http://www.inkscape.org/) -->

<svg
   xmlns:dc="http://purl.org/dc/elements/1.1/"
   xmlns:cc="http://creativecommons.org/ns#"
   xmlns:rdf="http://www.w3.org/1999/02/22-rdf-syntax-ns#"
   xmlns:svg="http://www.w3.org/2000/svg"
   xmlns="http://www.w3.org/2000/svg"
   xmlns:sodipodi="http://sodipodi.sourceforge.net/DTD/sodipodi-0.dtd"
   xmlns:inkscape="http://www.inkscape.org/namespaces/inkscape"
   id="svg4155"
   version="1.1"
   inkscape:version="0.91 r13725"
   xml:space="preserve"
   width="393.3071"
   height="145.27559"
   viewBox="0 0 393.3071 145.27559"
   sodipodi:docname="0-All.svg"><metadata
     id="metadata4161"><rdf:RDF><cc:Work
         rdf:about=""><dc:format>image/svg+xml</dc:format><dc:type
           rdf:resource="http://purl.org/dc/dcmitype/StillImage" /><dc:title></dc:title></cc:Work></rdf:RDF></metadata><defs
     id="defs4159"><clipPath
       clipPathUnits="userSpaceOnUse"
       id="clipPath4171"><path
         d="m 15.59055,104.88189 283.46457,0 0,-95.53656 -283.46457,0 0,95.53656 z"
         id="path4173"
         inkscape:connector-curvature="0"
         style="clip-rule:evenodd" /></clipPath><clipPath
       clipPathUnits="userSpaceOnUse"
       id="clipPath4179"><path
         d="m 15.59055,104.88189 283.46457,0 0,-95.53656 -283.46457,0 0,95.53656 z"
         id="path4181"
         inkscape:connector-curvature="0"
         style="clip-rule:evenodd" /></clipPath><clipPath
       clipPathUnits="userSpaceOnUse"
       id="clipPath4331"><path
         d="m 115.91874,81.71231 181.74308,0 0,-34.62818 -181.74308,0 0,34.62818 z"
         id="path4333"
         inkscape:connector-curvature="0"
         style="clip-rule:evenodd" /></clipPath></defs><sodipodi:namedview
     pagecolor="#ffffff"
     bordercolor="#666666"
     borderopacity="1"
     objecttolerance="10"
     gridtolerance="10"
     guidetolerance="10"
     inkscape:pageopacity="0"
     inkscape:pageshadow="2"
     inkscape:window-width="1570"
     inkscape:window-height="929"
     id="namedview4157"
     showgrid="false"
     inkscape:zoom="2.9976576"
     inkscape:cx="103.24728"
     inkscape:cy="72.637794"
     inkscape:window-x="196"
     inkscape:window-y="31"
     inkscape:window-maximized="0"
     inkscape:current-layer="layer6" /><g
     id="g4163"
     inkscape:groupmode="layer"
     inkscape:label="105x35_transparent"
     transform="matrix(1.25,0,0,-1.25,0,145.27559)"
     style="display:none"><g
       id="g4183"><g
         transform="translate(15.59055,104.88189)"
         id="g4185"><path
           inkscape:connector-curvature="0"
           id="path4187"
           style="fill:#ffffff;fill-opacity:1;fill-rule:evenodd;stroke:none"
           d="m 21.02819,0 c -0.76816,-8.6e-4 -1.39055,-0.62327 -1.3914,-1.39131 l 0,-11.78361 -6.47733,-6.47346 -11.76815,0 C 0.62327,-19.64923 8.6e-4,-20.27171 0,-21.03966 l 0,-6.1836 c 8.6e-4,-0.76815 0.62327,-1.39047 1.39131,-1.39126 l 10.97202,0 0,-2.85217 -10.97202,0 C 0.62327,-31.46768 8.6e-4,-32.09 0,-32.85815 l 0,-6.18359 c 8.6e-4,-0.76796 0.62327,-1.39047 1.39131,-1.39126 l 10.97202,0 0,-2.85217 -10.97202,0 C 0.62327,-43.28597 8.6e-4,-43.90848 0,-44.67643 l 0,-6.1836 c 8.6e-4,-0.76815 0.62327,-1.39047 1.39131,-1.39126 l 10.97202,0 0,-2.85237 -10.97202,0 C 0.62327,-55.10445 8.6e-4,-55.72677 0,-56.49492 l 0,-6.1836 c 8.6e-4,-0.76795 0.62327,-1.39046 1.39131,-1.39126 l 10.97202,0 0,-2.85217 -10.97202,0 C 0.62327,-66.92274 8.6e-4,-67.54525 0,-68.31321 l 0,-6.18359 c 8.6e-4,-0.76815 0.62327,-1.39047 1.39131,-1.39146 l 11.76815,0 6.47733,-6.47329 0,-11.78365 c 8.5e-4,-0.76816 0.62324,-1.39047 1.3914,-1.39126 l 6.18359,0 c 0.76795,7.9e-4 1.39027,0.6231 1.39126,1.39126 l 0,10.97593 2.85217,0 0,-10.97593 c 7.9e-4,-0.76816 0.62331,-1.39047 1.39126,-1.39126 l 6.1836,0 c 0.76815,7.9e-4 1.39047,0.6231 1.39126,1.39126 l 0,10.97593 2.85613,0 0,-10.97593 c 7.9e-4,-0.76816 0.6233,-1.39047 1.39126,-1.39126 l 6.18359,0 c 0.76815,7.9e-4 1.39047,0.6231 1.39126,1.39126 l 0,10.97593 2.85237,0 0,-10.97593 c 7.9e-4,-0.76816 0.62311,-1.39047 1.39126,-1.39126 l 6.1836,0 c 0.76795,7.9e-4 1.39047,0.6231 1.39126,1.39126 l 0,10.97593 2.85217,0 0,-10.97593 c 7.9e-4,-0.76816 0.62331,-1.39047 1.39126,-1.39126 l 6.1836,0 c 0.76815,7.9e-4 1.39046,0.6231 1.39145,1.39126 l 0,11.76426 6.49268,6.49268 11.77198,0 c 0.76816,9.9e-4 1.39047,0.62331 1.39146,1.39146 l 0,6.18359 c -9.9e-4,0.76796 -0.6233,1.39047 -1.39146,1.39126 l -10.97573,0 0,2.85217 10.97573,0 c 0.76816,8e-4 1.39047,0.62331 1.39146,1.39126 l 0,6.1836 c -9.9e-4,0.76815 -0.6233,1.39047 -1.39146,1.39126 l -10.97573,0 0,2.85237 10.97573,0 c 0.76816,7.9e-4 1.39047,0.62311 1.39146,1.39126 l 0,6.1836 c -9.9e-4,0.76795 -0.6233,1.39046 -1.39146,1.39126 l -10.97573,0 0,2.85217 10.97573,0 c 0.76816,7.9e-4 1.39047,0.6233 1.39146,1.39126 l 0,6.18359 c -9.9e-4,0.76815 -0.6233,1.39047 -1.39146,1.39146 l -10.97573,0 0,2.85217 10.97573,0 c 0.76816,7.9e-4 1.39047,0.62311 1.39146,1.39126 l 0,6.1836 c -9.9e-4,0.76795 -0.6233,1.39043 -1.39146,1.39128 l -11.77198,0 -6.49268,6.49277 0,11.7643 C 75.87955,-0.62327 75.25724,-8.6e-4 74.48909,0 l -6.1836,0 c -0.76795,-8.6e-4 -1.39047,-0.62327 -1.39126,-1.39131 l 0,-10.97588 -2.85217,0 0,10.97588 C 64.06127,-0.62327 63.43875,-8.6e-4 62.6708,0 l -6.1836,0 c -0.76815,-8.6e-4 -1.39047,-0.62327 -1.39126,-1.39131 l 0,-10.97588 -2.85237,0 0,10.97588 C 52.24278,-0.62327 51.62046,-8.6e-4 50.85231,0 l -6.18359,0 c -0.76796,-8.6e-4 -1.39047,-0.62327 -1.39126,-1.39131 l 0,-10.97588 -2.85613,0 0,10.97588 C 40.42054,-0.62327 39.79822,-8.6e-4 39.03007,0 l -6.1836,0 C 32.07852,-8.6e-4 31.456,-0.62327 31.45521,-1.39131 l 0,-10.97588 -2.85217,0 0,10.97588 C 28.60205,-0.62327 27.97973,-8.6e-4 27.21178,0 l -6.18359,0 z m 83.33924,-21.77793 c -0.0647,-0.0018 -0.12921,-0.0085 -0.19312,-0.0194 l -4.08118,-0.70324 c -0.66763,-0.11556 -1.15539,-0.69455 -1.15559,-1.37207 l 0,-33.35283 c 7.9e-4,-0.76796 0.62331,-1.39027 1.39126,-1.39126 l 4.08117,0 c 0.76816,9.9e-4 1.39047,0.6233 1.39126,1.39126 l 0,17.89384 c 0.20975,0.04393 0.41198,0.08984 0.64943,0.12367 0.0259,0.0044 0.0516,0.0095 0.0772,0.01544 0.40565,0.08112 0.82534,0.14662 1.26007,0.20104 0.4096,0.05125 0.80357,0.07717 1.18646,0.07717 0.9589,0 1.69341,-0.13634 2.20274,-0.33995 0.0154,-0.0053 0.0309,-0.01049 0.0465,-0.01544 0.48855,-0.17591 0.81168,-0.42088 1.09365,-0.81544 0.28553,-0.39971 0.53486,-1.00204 0.68405,-1.84736 0.002,-0.01286 0.005,-0.02592 0.008,-0.03878 0.17829,-0.86571 0.27821,-1.98172 0.27821,-3.31975 l 0,-11.93444 c 9.9e-4,-0.76796 0.62331,-1.39027 1.39146,-1.39126 l 4.08118,0 c 0.76795,9.9e-4 1.39046,0.6233 1.39126,1.39126 l 0,12.81557 c 0,1.63702 -0.15197,3.15789 -0.47154,4.56419 -0.33045,1.45418 -0.93061,2.74809 -1.7971,3.83007 -0.85601,1.13521 -2.02149,2.00566 -3.40484,2.58168 -1.43143,0.62548 -3.11871,0.90429 -5.06283,0.90429 -0.94307,0 -1.89446,-0.10389 -2.84821,-0.29365 -0.26595,-0.0463 -0.50538,-0.1492 -0.76539,-0.20876 l 0,9.86289 c -3.9e-4,0.78497 -0.64922,1.41441 -1.4338,1.39126 l 0,0 z m 102.61386,0 c -0.0653,-0.0018 -0.13059,-0.0085 -0.19391,-0.0194 l -4.08217,-0.70324 c -0.66684,-0.11556 -1.15361,-0.69455 -1.15559,-1.37207 l 0,-33.35283 c 0.002,-0.76796 0.62331,-1.39027 1.39304,-1.39126 l 4.08019,0 c 0.76775,9.9e-4 1.39106,0.6233 1.39106,1.39126 l 0,8.08517 c 0.093,-0.08132 0.17017,-0.12426 0.26317,-0.20876 0.86472,-0.78022 1.71954,-1.64909 2.56644,-2.60858 l 0.0119,-0.01544 c 0.84294,-0.92882 1.65027,-1.91424 2.41209,-2.95665 0.008,-0.01167 0.0178,-0.02335 0.0257,-0.03482 0.78952,-1.01352 1.47021,-2.00468 2.05196,-2.97585 0.25328,-0.41949 0.70642,-0.67614 1.19517,-0.67633 l 4.78462,0 c 1.06852,1.9e-4 1.73932,1.1546 1.20901,2.08323 -0.61341,1.07268 -1.35346,2.20314 -2.22213,3.40087 -0.86472,1.22347 -1.79275,2.41764 -2.77421,3.57877 -0.96168,1.2017 -1.95105,2.31752 -2.98,3.34686 l -0.008,0.0077 c -0.60549,0.62331 -1.17933,1.07862 -1.76306,1.58834 0.46896,0.48559 0.92209,0.95376 1.41876,1.46863 l 0,0.004 c 0.87659,0.90548 1.7413,1.79611 2.59019,2.67448 l 0.0158,0.01543 c 0.85482,0.91359 1.67996,1.81313 2.47739,2.69763 0.78754,0.87481 1.51375,1.67719 2.18256,2.40379 0.81921,0.89261 0.18799,2.33235 -1.02301,2.33433 l -4.78462,0 c -0.40762,0.0012 -0.79348,-0.17512 -1.06061,-0.48301 -0.51843,-0.60688 -1.13976,-1.32082 -1.86596,-2.13349 -0.72423,-0.782 -1.49198,-1.60694 -2.30327,-2.4772 -0.79348,-0.84928 -1.59883,-1.68372 -2.42001,-2.5043 l 0,17.4415 c 0,0.78497 -0.64903,1.41441 -1.43262,1.39126 l 0,0 z m -13.12545,-1.75456 c -1.04695,0 -2.08204,-0.40446 -2.84445,-1.12453 -0.79388,-0.74717 -1.1827,-1.84419 -1.1827,-2.94497 0,-1.10098 0.38388,-2.19265 1.15163,-2.96041 0.02,-0.0186 0.0406,-0.03661 0.0617,-0.05422 0.76696,-0.68148 1.78345,-1.05507 2.81359,-1.05507 1.03013,0 2.05335,0.38131 2.79815,1.08218 0.80495,0.76043 1.22524,1.8715 1.22524,2.98752 0,1.09979 -0.42246,2.19523 -1.2292,2.9333 -0.73728,0.72185 -1.7603,1.1362 -2.79419,1.1362 l 1.9e-4,0 z m -15.88798,-2.41546 c -0.0649,-0.002 -0.12941,-0.0085 -0.19332,-0.01939 l -4.08118,-0.70325 c -0.66763,-0.11556 -1.15539,-0.69454 -1.15559,-1.37207 l 0,-20.36332 c 0,-1.59329 0.12189,-3.02927 0.37873,-4.31309 0.002,-0.01286 0.005,-0.02592 0.008,-0.03858 0.30117,-1.30519 0.82336,-2.46711 1.57687,-3.43591 0.76479,-0.98343 1.78503,-1.74189 2.9796,-2.23381 0.0154,-0.0067 0.0309,-0.01325 0.0465,-0.01939 1.24167,-0.46125 2.68477,-0.65318 4.34791,-0.65318 1.42886,0 2.73741,0.17294 3.92268,0.54494 l 0.004,0 c 1.0345,0.29642 1.77633,0.5404 2.35749,0.83108 0.57641,0.28791 0.88015,0.93357 0.73431,1.56123 l -0.79229,3.37793 c -0.19332,0.83127 -1.08198,1.29489 -1.87447,0.9777 -0.27228,-0.10883 -0.79684,-0.31541 -1.53432,-0.59897 -0.49647,-0.17888 -1.33942,-0.31304 -2.46948,-0.31304 -0.5869,0 -1.05329,0.07658 -1.40294,0.19313 -0.29958,0.09993 -0.49093,0.23903 -0.68029,0.4561 -0.18225,0.23488 -0.37339,0.6055 -0.51013,1.16707 l 0,0.004 c -0.14068,0.61143 -0.22795,1.46684 -0.22795,2.53537 l 0,9.144 7.2541,0 c 0.76815,8e-4 1.39047,0.62331 1.39126,1.39126 l 0,3.42423 c -7.9e-4,0.76796 -0.62311,1.39047 -1.39126,1.39126 l -7.2541,0 0,5.67348 c -5.9e-4,0.78497 -0.64923,1.41441 -1.4338,1.39126 l 0,0 z m -45.20595,-6.49664 c -1.4989,0 -2.90263,-0.12209 -4.22048,-0.37101 -0.003,-4e-4 -0.005,5.9e-4 -0.008,0 -1.2757,-0.21292 -2.20651,-0.42069 -2.96417,-0.75747 -0.56968,-0.25209 -0.90271,-0.85185 -0.81544,-1.46863 l 0.48301,-3.37773 c 0.12921,-0.89874 1.06971,-1.43558 1.9093,-1.08989 0.32134,0.13238 1.00698,0.3164 1.95164,0.48301 l 0.0309,0.0077 c 0.91062,0.18224 2.00724,0.28217 3.28116,0.28217 0.91122,0 1.55312,-0.15039 1.92473,-0.33619 0.0216,-0.01088 0.0435,-0.02117 0.0657,-0.03087 0.48083,-0.20915 0.78536,-0.45986 1.00857,-0.76914 0.008,-0.01049 0.0152,-0.02078 0.0233,-0.03087 0.24794,-0.32432 0.42464,-0.70641 0.53328,-1.20585 l 0.004,-0.01167 c 0.0833,-0.36627 0.0964,-0.74659 0.12367,-1.12473 1.9e-4,-0.0014 0.004,-0.0024 0.004,-0.004 -0.40782,0.08904 -0.82889,0.149 -1.26382,0.18165 -0.008,0.0012 -0.0154,-9.9e-4 -0.0232,0 -0.4846,0.06371 -0.96287,0.10052 -1.43381,0.10052 -1.38176,0 -2.71465,-0.13753 -3.99233,-0.42504 -1.30241,-0.29305 -2.48273,-0.76202 -3.51307,-1.41461 -1.0612,-0.67218 -1.93304,-1.58023 -2.56604,-2.67052 l -0.0154,-0.03087 c -0.62786,-1.14471 -0.91596,-2.47344 -0.91596,-3.91496 0,-1.47061 0.2422,-2.80785 0.78833,-3.97293 0.52833,-1.1271 1.29747,-2.08759 2.2724,-2.80983 l 0.0311,-0.01939 c 0.95039,-0.66882 2.05552,-1.14332 3.28116,-1.44152 1.20645,-0.29345 2.50213,-0.43275 3.88409,-0.43275 0.93476,0 1.87091,0.04254 2.80567,0.13138 l 0.0503,0.004 c 0.9318,0.05877 1.80442,0.131 2.60879,0.22024 0.80515,0.08944 1.52087,0.18085 2.14872,0.27049 0.0168,0.0022 0.0336,0.0048 0.0503,0.0077 0.63934,0.11635 1.13264,0.20619 1.47239,0.26278 0.6708,0.11219 1.16252,0.69216 1.16331,1.37206 l 0,14.26086 c 0,1.39146 -0.15454,2.68774 -0.48697,3.88409 -0.34233,1.26205 -0.94861,2.38657 -1.7971,3.31223 -0.84038,0.9783 -1.95639,1.70588 -3.26554,2.1796 -1.32695,0.5206 -2.86364,0.74974 -4.6184,0.74974 l -2e-4,2e-4 z m 24.97382,0 c -1.7227,0 -3.35755,-0.32768 -4.85784,-0.99313 -1.48663,-0.63043 -2.8025,-1.55154 -3.89576,-2.74413 l -0.0117,-0.0194 c -1.06496,-1.19813 -1.88713,-2.63411 -2.46572,-4.27054 -0.58828,-1.63385 -0.86946,-3.42383 -0.86946,-5.3448 0,-1.94808 0.28039,-3.75112 0.86946,-5.38755 0.57997,-1.61109 1.40393,-3.02946 2.46572,-4.22423 l 0.0117,-0.01939 c 1.09207,-1.19121 2.40339,-2.12657 3.88805,-2.78648 l 0.0231,-0.01168 c 1.49672,-0.63181 3.12484,-0.94287 4.8424,-0.94287 1.71775,0 3.34587,0.31106 4.84259,0.94287 l 0.0232,0.01168 c 1.48862,0.66169 2.78727,1.60674 3.85323,2.80587 1.0895,1.19318 1.92829,2.61353 2.50826,4.22423 0.58828,1.63445 0.87342,3.43749 0.87342,5.38735 0,1.92315 -0.28593,3.71313 -0.87342,5.345 -0.57859,1.63584 -1.4156,3.0738 -2.50826,4.27054 -1.06774,1.2013 -2.37312,2.13132 -3.8647,2.76333 -1.4995,0.66446 -3.13276,0.99313 -4.85427,0.99313 l 0,2e-4 z m 102.34732,-0.08508 c -2.08164,0 -3.93771,-0.13753 -5.58601,-0.41732 l -0.004,0 c -1.54145,-0.26694 -2.79795,-0.51784 -3.78733,-0.76519 -0.61935,-0.15513 -1.05467,-0.71294 -1.05467,-1.35267 l 0,-22.16043 c 0,-0.76815 0.6233,-1.39046 1.39106,-1.39126 l 4.08216,0 c 0.76776,8e-4 1.38908,0.62311 1.39106,1.39126 l 0,18.07926 c 0.18205,0.02176 0.34826,0.04729 0.55207,0.06173 0.0277,0.0018 0.0574,0.0044 0.0851,0.0077 0.40367,0.05402 0.82118,0.09261 1.26047,0.11991 0.43928,0.02751 0.85284,0.04255 1.23276,0.04255 0.81326,0 1.37721,-0.1399 1.72349,-0.32076 0.0218,-0.01227 0.0455,-0.02394 0.0693,-0.03483 0.37794,-0.17155 0.6233,-0.39871 0.8469,-0.80772 0.008,-0.01306 0.0158,-0.02592 0.0238,-0.03859 0.26317,-0.44838 0.48281,-1.07782 0.60945,-1.91305 0.13258,-0.87125 0.20579,-1.96708 0.20579,-3.26197 l 0,-11.93425 c 0,-0.76815 0.62331,-1.39046 1.39106,-1.39145 l 4.08019,0 c 0.76775,9.9e-4 1.39106,0.6233 1.39106,1.39145 l 0,12.81538 c 0,1.04795 -0.0594,2.05711 -0.18402,3.03006 -0.0752,0.57444 -0.22162,1.08119 -0.34035,1.6115 0.23745,0.13297 0.31066,0.20717 0.74995,0.38269 l 0.0198,0.01167 c 0.67278,0.28237 1.63841,0.45987 2.887,0.45987 0.84691,0 1.43262,-0.14465 1.769,-0.32076 0.0238,-0.01227 0.0475,-0.02374 0.0693,-0.03483 0.37794,-0.17155 0.62331,-0.39852 0.84691,-0.80772 0.008,-0.01306 0.0158,-0.02592 0.0237,-0.03859 0.25724,-0.43611 0.46105,-1.04735 0.55999,-1.87051 0.002,-0.01425 0.006,-0.02849 0.008,-0.04254 0.13258,-0.87125 0.20579,-1.96708 0.20579,-3.26178 l 0,-11.93444 c 0,-0.76795 0.62331,-1.39046 1.39106,-1.39126 l 4.08019,0 c 0.76775,8e-4 1.39106,0.62331 1.39106,1.39126 l 0,12.81558 c 0,1.5834 -0.11872,3.05796 -0.36607,4.4328 0,0.0018 -0.004,0.0022 -0.004,0.004 -0.23151,1.45042 -0.72026,2.76273 -1.48802,3.88409 -0.76379,1.15836 -1.86002,2.05077 -3.16995,2.63965 -1.36336,0.6425 -2.98594,0.91972 -4.87763,0.91972 -1.00718,0 -1.96885,-0.11734 -2.87908,-0.35162 -0.83107,-0.1866 -1.60674,-0.41633 -2.32305,-0.70721 -0.69256,-0.25367 -1.30202,-0.53089 -1.8343,-0.85027 -0.11081,-0.06668 -0.16226,-0.10606 -0.25922,-0.16621 -0.62529,0.50102 -1.20704,1.06002 -1.97479,1.35663 -1.21496,0.49825 -2.61591,0.71868 -4.20485,0.71868 l 0,-1.9e-4 z m -68.2485,-0.48302 c -0.76815,-7.9e-4 -1.39047,-0.6233 -1.39146,-1.39126 l 0,-22.82133 c 9.9e-4,-0.76815 0.62331,-1.39046 1.39146,-1.39126 l 4.08493,0 c 0.76815,8e-4 1.39047,0.62311 1.39126,1.39126 l 0,22.82133 c -7.9e-4,0.76796 -0.62311,1.39047 -1.39126,1.39126 l -4.08493,0 z m 33.75096,0 c -0.76776,-7.9e-4 -1.39106,-0.6233 -1.39106,-1.39126 l 0,-12.81557 c 0,-1.64731 0.16819,-3.18006 0.52041,-4.59506 l 0.004,-0.0077 c 0.36409,-1.42351 0.97552,-2.71009 1.83232,-3.80692 0.88252,-1.12966 2.05592,-2.00289 3.43709,-2.60858 l 0.0257,-0.01168 c 1.42273,-0.58967 3.07894,-0.85027 4.96667,-0.85027 2.07769,0 3.9199,0.13278 5.54248,0.41356 1.57113,0.26694 2.84149,0.51705 3.83284,0.76519 0.62133,0.15513 1.05665,0.71294 1.05665,1.35267 l 0,22.16419 c -0.002,0.76815 -0.6233,1.39046 -1.39304,1.39145 l -4.08018,0 c -0.76776,-9.9e-4 -1.39106,-0.6233 -1.39106,-1.39145 l 0,-18.11784 c -0.20579,-0.02395 -0.39575,-0.04116 -0.62331,-0.07341 -0.01,-0.0014 -0.0178,-0.0024 -0.0257,-0.004 -0.3819,-0.02711 -0.77765,-0.05066 -1.20704,-0.07737 -0.43731,-0.02731 -0.86472,-0.04254 -1.27432,-0.04254 -1.81055,0 -2.74057,0.45273 -3.30847,1.229 -0.57582,0.78576 -1.05072,2.51539 -1.05072,5.14792 l 0,11.9382 c -0.002,0.76795 -0.6233,1.39046 -1.39304,1.39125 l -4.08018,0 0,2e-4 z m -67.84978,-5.81258 c 1.63563,0 2.67507,-0.51329 3.58272,-1.72369 l 0.0154,-0.02315 c 0.92961,-1.18547 1.46091,-2.88027 1.46091,-5.24448 0,-2.36421 -0.53011,-4.07464 -1.46863,-5.29474 l 0,-0.004 c -0.90389,-1.18191 -1.94867,-1.69262 -3.59044,-1.69262 -1.63722,0 -2.70515,0.51348 -3.63675,1.69658 -0.90884,1.21891 -1.42609,2.93409 -1.42609,5.29474 0,2.36718 0.52141,4.06732 1.42609,5.2522 0.93714,1.21792 2.00131,1.73912 3.63675,1.73912 l 0,0 z m -24.00779,-9.21741 c 0.87995,0 1.59705,-0.05917 2.12181,-0.15455 0.0218,-0.0032 0.0437,-0.0057 0.0657,-0.0077 0.14227,-0.0186 0.12268,-0.0281 0.23962,-0.05026 l 0,-4.51413 c -0.20935,-0.02513 -0.33381,-0.06173 -0.57977,-0.08113 -0.70424,-0.0277 -1.52443,-0.0463 -2.46176,-0.0463 -1.43776,0 -2.44752,0.26476 -3.08408,0.63755 -0.48895,0.30869 -0.74975,0.72106 -0.74975,1.87843 0,0.56474 0.12228,0.83583 0.26277,1.00857 0.008,0.01029 0.0156,0.02058 0.0232,0.03107 0.25347,0.33124 0.53841,0.56058 0.89657,0.73036 l 0.0271,0.01543 c 0.43948,0.21964 0.91082,0.35934 1.43776,0.42899 0.65219,0.08153 1.25235,0.12368 1.80086,0.12368 l 0,0 z" /></g></g></g><g
     inkscape:groupmode="layer"
     id="layer6"
     inkscape:label="haotikum"
     style="display:inline"><g
       transform="matrix(1.25,0,0,-1.25,0,145.27559)"
       id="g4327"><g
         clip-path="url(#clipPath4331)"
         id="g4329"><g
           id="g4335"><g
             transform="translate(115.91874,81.71231)"
             id="g4337"><path
               inkscape:connector-curvature="0"
               id="path4339"
               style="fill:#393637;fill-opacity:1;fill-rule:evenodd;stroke:none"
               d="M 0,-34.05767 0,-0.70222 4.08165,0 l 0,-11.67439 c 0.76073,0.2926 1.56537,0.51204 2.41388,0.65833 0.87777,0.17555 1.74092,0.26333 2.58943,0.26333 1.81406,0 3.32092,-0.26333 4.52053,-0.79 1.19962,-0.49739 2.15055,-1.21426 2.85277,-2.15054 0.73148,-0.90704 1.24351,-2.00426 1.5361,-3.29165 0.2926,-1.2874 0.43889,-2.70648 0.43889,-4.25717 l 0,-12.81558 -4.08165,0 0,11.93781 c 0,1.40432 -0.1024,2.60401 -0.30722,3.59883 -0.17555,0.99482 -0.48277,1.79944 -0.92166,2.41388 -0.43889,0.61444 -1.02406,1.05333 -1.75555,1.31666 -0.73148,0.2926 -1.6385,0.43889 -2.7211,0.43889 -0.43888,0 -0.89239,-0.02927 -1.36055,-0.08778 -0.46815,-0.05851 -0.92166,-0.13167 -1.36055,-0.21944 -0.40962,-0.05852 -0.78999,-0.13167 -1.1411,-0.21945 -0.32185,-0.08777 -0.55593,-0.16093 -0.70222,-0.21944 l 0,-18.95996 -4.08165,0 z" /></g></g><g
           id="g4341"><g
             transform="translate(139.3553,71.04736)"
             id="g4343"><path
               inkscape:connector-curvature="0"
               id="path4345"
               style="fill:#393637;fill-opacity:1;fill-rule:evenodd;stroke:none"
               d="m 9.34829,-20.45217 c 0.96555,0 1.81406,0.01464 2.54555,0.04393 0.76073,0.05857 1.38981,0.14623 1.88721,0.26337 l 0,6.80271 c -0.2926,0.14629 -0.77537,0.26333 -1.44833,0.35111 -0.6437,0.11704 -1.4337,0.17555 -2.36999,0.17555 -0.61444,0 -1.27277,-0.04389 -1.97499,-0.13166 -0.67295,-0.08778 -1.30204,-0.27796 -1.88721,-0.57056 -0.55593,-0.26333 -1.02406,-0.6437 -1.40444,-1.1411 -0.38038,-0.46816 -0.57055,-1.09722 -0.57055,-1.88722 0,-1.46295 0.46815,-2.48703 1.40444,-3.07221 0.93628,-0.55591 2.20905,-0.83392 3.81831,-0.83392 l 0,0 z M 8.99718,0 c 1.63851,0 3.0137,-0.21944 4.12554,-0.65833 1.14111,-0.40963 2.04814,-1.00944 2.7211,-1.79944 0.70222,-0.76073 1.19962,-1.68239 1.49221,-2.76498 0.2926,-1.05333 0.43889,-2.2237 0.43889,-3.5111 l 0,-14.26379 c -0.35111,-0.05857 -0.84851,-0.14642 -1.49221,-0.26337 -0.61445,-0.08785 -1.31667,-0.17551 -2.10666,-0.26337 -0.79,-0.08766 -1.65315,-0.16087 -2.58943,-0.21944 -0.90704,-0.08766 -1.81406,-0.13159 -2.7211,-0.13159 -1.2874,0 -2.47239,0.13159 -3.55499,0.39496 -1.08259,0.26337 -2.01888,0.67297 -2.80887,1.2288 -0.79,0.58532 -1.40444,1.34595 -1.84333,2.28229 C 0.21944,-19.03307 0,-17.90659 0,-16.58993 c 0,1.25815 0.2487,2.34073 0.74611,3.24777 0.52666,0.90704 1.22888,1.6385 2.10666,2.19443 0.87777,0.55593 1.90183,0.96555 3.0722,1.22889 1.17038,0.26333 2.39926,0.39499 3.68665,0.39499 0.40963,0 0.83389,-0.02926 1.27278,-0.08777 0.43888,-0.02927 0.8485,-0.08778 1.22888,-0.17556 0.40962,-0.05851 0.76073,-0.11704 1.05333,-0.17555 0.2926,-0.05852 0.4974,-0.1024 0.61444,-0.13167 l 0,1.14111 c 0,0.67295 -0.07315,1.33128 -0.21944,1.97499 -0.14629,0.67295 -0.40962,1.25815 -0.79,1.75555 -0.38038,0.52666 -0.90704,0.93628 -1.57999,1.22888 -0.64371,0.32184 -1.49222,0.48277 -2.54555,0.48277 -1.34592,0 -2.53092,-0.1024 -3.55498,-0.30722 C 4.09627,-3.99387 3.35016,-4.18405 2.85277,-4.38887 l -0.48278,3.37943 c 0.52666,0.23407 1.40444,0.45352 2.63332,0.65833 C 6.23219,-0.11704 7.56348,0 8.99718,0 l 0,0 z" /></g></g><g
           id="g4347"><g
             transform="translate(162.61631,71.04736)"
             id="g4349"><path
               inkscape:connector-curvature="0"
               id="path4351"
               style="fill:#393637;fill-opacity:1;fill-rule:evenodd;stroke:none"
               d="m 21.4176,-11.98161 c 0,-1.81406 -0.26317,-3.45259 -0.78991,-4.91554 -0.52675,-1.46295 -1.27278,-2.7211 -2.23833,-3.77446 -0.93628,-1.05329 -2.06277,-1.8725 -3.37943,-2.45781 -1.31666,-0.55583 -2.75036,-0.83385 -4.30109,-0.83385 -1.55073,0 -2.98443,0.27802 -4.30109,0.83385 -1.31666,0.58531 -2.45777,1.40452 -3.42332,2.45781 C 2.04815,-19.61825 1.31666,-18.3601 0.79,-16.89715 0.26333,-15.4342 0,-13.79567 0,-11.98161 c 0,1.78481 0.26333,3.40869 0.79,4.87164 0.52666,1.49222 1.25815,2.76499 2.19443,3.81832 0.96555,1.05333 2.10666,1.85795 3.42332,2.41388 C 7.72441,-0.29259 9.15811,0 10.70884,0 c 1.55073,0 2.98443,-0.29259 4.30109,-0.87777 1.31666,-0.55593 2.44315,-1.36055 3.37943,-2.41388 0.96555,-1.05333 1.71158,-2.3261 2.23833,-3.81832 0.52674,-1.46295 0.78991,-3.08683 0.78991,-4.87164 l 0,0 z m -4.25712,0 c 0,2.57481 -0.58518,4.60831 -1.75555,6.10053 -1.1411,1.52148 -2.70647,2.28221 -4.69609,2.28221 -1.98961,0 -3.56961,-0.76073 -4.73998,-2.28221 C 4.82776,-7.3733 4.2572,-9.4068 4.2572,-11.98161 c 0,-2.57481 0.57056,-4.62294 1.71166,-6.14442 1.17037,-1.49222 2.75037,-2.23828 4.73998,-2.23828 1.98962,0 3.55499,0.74606 4.69609,2.23828 1.17037,1.52148 1.75555,3.56961 1.75555,6.14442 l 0,0 z" /></g></g><g
           id="g4353"><g
             transform="translate(189.52008,77.54288)"
             id="g4355"><path
               inkscape:connector-curvature="0"
               id="path4357"
               style="fill:#393637;fill-opacity:1;fill-rule:evenodd;stroke:none"
               d="m 4.08165,-7.06608 8.64607,0 0,-3.42332 -8.64607,0 0,-10.53324 c 0,-1.14115 0.08778,-2.09214 0.26333,-2.85277 0.17556,-0.73154 0.43889,-1.31666 0.79,-1.75555 0.35111,-0.4096 0.78999,-0.70226 1.31666,-0.87777 0.52666,-0.17552 1.1411,-0.26337 1.84332,-0.26337 1.22889,0 2.20906,0.13158 2.94055,0.39496 0.76073,0.29265 1.28739,0.49745 1.57999,0.6144 l 0.78999,-3.37931 c -0.40962,-0.2048 -1.12648,-0.45353 -2.15054,-0.74619 -1.02406,-0.32174 -2.19444,-0.48281 -3.5111,-0.48281 -1.55072,0 -2.83814,0.19035 -3.8622,0.57067 -0.99482,0.4096 -1.79944,1.00936 -2.41388,1.79947 -0.61444,0.78992 -1.05333,1.75555 -1.31666,2.8965 C 0.11704,-23.93398 0,-22.58803 0,-21.06657 L 0,-0.70222 4.08165,0 l 0,-7.06608 0,0 z" /></g></g><g
           id="g4359"><g
             transform="translate(206.81222,79.95676)"
             id="g4361"><path
               inkscape:connector-curvature="0"
               id="path4363"
               style="fill:#393637;fill-opacity:1;fill-rule:evenodd;stroke:none"
               d="m 4.69609,-32.30212 -4.08165,0 0,22.82216 4.08165,0 0,-22.82216 z m -2.06277,26.9477 c -0.73148,0 -1.36055,0.23407 -1.88721,0.70222 C 0.2487,-4.1548 0,-3.49647 0,-2.67721 0,-1.85795 0.2487,-1.21425 0.74611,-0.74611 1.27277,-0.2487 1.90184,0 2.63332,0 3.36481,0 3.97925,-0.2487 4.47665,-0.74611 5.00331,-1.21425 5.26664,-1.85795 5.26664,-2.67721 5.26664,-3.49647 5.00331,-4.1548 4.47665,-4.6522 3.97925,-5.12035 3.36481,-5.35442 2.63332,-5.35442 Z" /></g></g><g
           id="g4365"><g
             transform="translate(218.53051,81.71231)"
             id="g4367"><path
               inkscape:connector-curvature="0"
               id="path4369"
               style="fill:#393637;fill-opacity:1;fill-rule:evenodd;stroke:none"
               d="m 8.25107,-21.50546 c 0.87778,-0.67297 1.79944,-1.50682 2.76499,-2.50173 0.99482,-0.99472 1.96037,-2.0773 2.89666,-3.24773 0.96555,-1.14114 1.87259,-2.31138 2.72109,-3.51109 0.84851,-1.17024 1.56537,-2.26745 2.15055,-3.29166 l -4.78387,0 c -0.61444,1.02421 -1.33128,2.06285 -2.15054,3.11614 -0.79,1.08258 -1.62388,2.10658 -2.50166,3.07221 -0.87777,0.99472 -1.77017,1.90178 -2.67721,2.72118 -0.90704,0.8192 -1.77017,1.50682 -2.58943,2.06265 l 0,-10.97218 -4.08165,0 L 0,-0.70222 4.08165,0 l 0,-20.8032 c 0.70222,0.70226 1.47759,1.47755 2.3261,2.32606 0.84851,0.84851 1.68239,1.71166 2.50165,2.58943 0.81927,0.87778 1.59462,1.71166 2.32611,2.50166 0.73148,0.81926 1.36054,1.5361 1.88721,2.15054 l 4.78387,0 c -0.67296,-0.73148 -1.40444,-1.5361 -2.19444,-2.41387 -0.78999,-0.87778 -1.60926,-1.77017 -2.45776,-2.67721 -0.84851,-0.87778 -1.71166,-1.77017 -2.58944,-2.67721 -0.84851,-0.8777 -1.65314,-1.71174 -2.41388,-2.50166 l 0,0 z" /></g></g><g
           id="g4371"><g
             transform="translate(241.17707,70.4768)"
             id="g4373"><path
               inkscape:connector-curvature="0"
               id="path4375"
               style="fill:#393637;fill-opacity:1;fill-rule:evenodd;stroke:none"
               d="m 18.43325,-22.16379 c -0.93628,-0.23409 -2.17981,-0.48282 -3.73054,-0.74619 -1.52148,-0.26317 -3.29165,-0.39496 -5.31053,-0.39496 -1.75555,0 -3.23314,0.24873 -4.43276,0.74619 -1.19962,0.52655 -2.16517,1.25809 -2.89665,2.19444 -0.73148,0.93624 -1.25814,2.03346 -1.57999,3.29161 C 0.16093,-15.78531 0,-14.36623 0,-12.8155 L 0,0 l 4.08165,0 0,-11.93772 c 0,-2.77962 0.43889,-4.76925 1.31666,-5.96887 0.87777,-1.19961 2.35537,-1.79943 4.43276,-1.79943 0.43888,0 0.89239,0.01462 1.36055,0.04389 0.46815,0.02926 0.90704,0.05851 1.31666,0.08777 0.40962,0.05851 0.77537,0.1024 1.09721,0.13167 0.35111,0.05851 0.59982,0.11704 0.74611,0.17555 l 0,19.26714 4.08165,0 0,-22.16379 0,0 z" /></g></g><g
           id="g4377"><g
             transform="translate(266.63251,70.95958)"
             id="g4379"><path
               inkscape:connector-curvature="0"
               id="path4381"
               style="fill:#393637;fill-opacity:1;fill-rule:evenodd;stroke:none"
               d="M 0,-1.14111 C 0.93629,-0.90703 2.16517,-0.65833 3.68665,-0.395 5.23738,-0.13167 7.02219,0 9.04107,0 c 1.46295,0 2.69183,-0.20481 3.68665,-0.61444 0.99482,-0.38037 1.8287,-0.95092 2.50166,-1.71166 0.20482,0.14629 0.52666,0.35111 0.96555,0.61444 0.43888,0.26333 0.98017,0.51204 1.62388,0.74611 0.64371,0.26333 1.36055,0.48277 2.15055,0.65833 C 20.75927,-0.10241 21.60796,0 22.51482,0 c 1.75555,0 3.18935,-0.26333 4.30121,-0.79 1.11186,-0.4974 1.97499,-1.21426 2.58939,-2.15054 0.64369,-0.93629 1.06794,-2.04815 1.27274,-3.33554 0.23408,-1.2874 0.35123,-2.69184 0.35123,-4.21332 l 0,-12.81554 -4.08177,0 0,11.93777 c 0,1.34592 -0.07302,2.50165 -0.21945,3.46721 -0.11694,0.96555 -0.36567,1.77017 -0.74598,2.41387 -0.35123,0.64371 -0.84869,1.11184 -1.49238,1.40444 -0.6144,0.32185 -1.41896,0.48278 -2.41388,0.48278 -1.37503,0 -2.5162,-0.19018 -3.42324,-0.57056 -0.87777,-0.35111 -1.47759,-0.67295 -1.79943,-0.96555 0.23406,-0.76073 0.40962,-1.59461 0.52666,-2.50165 0.11705,-0.90704 0.17556,-1.85795 0.17556,-2.85277 l 0,-12.81554 -4.08165,0 0,11.93777 c 0,1.34592 -0.07314,2.50165 -0.21944,3.46721 -0.14629,0.96555 -0.40963,1.77017 -0.79,2.41387 -0.35111,0.64371 -0.84851,1.11184 -1.49222,1.40444 -0.61444,0.32185 -1.40443,0.48278 -2.36999,0.48278 -0.40962,0 -0.8485,-0.01463 -1.31664,-0.04389 C 6.81739,-3.67203 6.36386,-3.71592 5.92497,-3.77443 5.51535,-3.80369 5.135,-3.84758 4.78389,-3.90609 4.43276,-3.96461 4.19869,-4.00849 4.08167,-4.03776 l 0,-19.26718 -4.08166,0 0,22.16383 -1e-5,0 z" /></g></g></g></g></g><g
     inkscape:groupmode="layer"
     id="layer5"
     inkscape:label="base"
     style="display:inline"><g
       transform="matrix(1.25,0,0,-1.25,0,145.27559)"
       id="g4189"><g
         transform="translate(29.34686,91.12339)"
         id="g4191"><path
           inkscape:connector-curvature="0"
           id="path4193"
           style="fill:#393637;fill-opacity:1;fill-rule:evenodd;stroke:none"
           d="M 7.26696,0 0,-7.26696 l 0,-53.48801 7.26696,-7.26459 53.48821,0 7.26676,7.26459 0,53.48801 L 60.75517,0 7.26696,0 Z" /></g></g></g><g
     inkscape:groupmode="layer"
     id="layer3"
     inkscape:label="Feet"
     style="display:inline"><g
       transform="matrix(1.25,0,0,-1.25,0,145.27559)"
       id="g4195"><g
         transform="translate(16.9809,83.84406)"
         id="g4197"><path
           inkscape:connector-curvature="0"
           id="path4199"
           style="fill:#7b7979;fill-opacity:1;fill-rule:evenodd;stroke:none"
           d="m 0,-6.1836 12.36719,0 0,6.1836 L 0,0 l 0,-6.1836 0,0 z" /></g></g><g
       transform="matrix(1.25,0,0,-1.25,0,145.27559)"
       id="g4201"><g
         transform="translate(16.9809,72.0235)"
         id="g4203"><path
           inkscape:connector-curvature="0"
           id="path4205"
           style="fill:#7b7979;fill-opacity:1;fill-rule:evenodd;stroke:none"
           d="m 0,-6.1836 12.36719,0 0,6.1836 L 0,0 0,-6.1836 Z" /></g></g><g
       transform="matrix(1.25,0,0,-1.25,0,145.27559)"
       id="g4207"><g
         transform="translate(16.9809,60.20541)"
         id="g4209"><path
           inkscape:connector-curvature="0"
           id="path4211"
           style="fill:#7b7979;fill-opacity:1;fill-rule:evenodd;stroke:none"
           d="m 0,-6.1836 12.36719,0 0,6.1836 L 0,0 0,-6.1836 Z" /></g></g><g
       transform="matrix(1.25,0,0,-1.25,0,145.27559)"
       id="g4213"><g
         transform="translate(16.9809,48.38732)"
         id="g4215"><path
           inkscape:connector-curvature="0"
           id="path4217"
           style="fill:#7b7979;fill-opacity:1;fill-rule:evenodd;stroke:none"
           d="m 0,-6.1836 12.36719,0 0,6.1836 L 0,0 0,-6.1836 Z" /></g></g><g
       transform="matrix(1.25,0,0,-1.25,0,145.27559)"
       id="g4219"><g
         transform="translate(16.9809,36.56675)"
         id="g4221"><path
           inkscape:connector-curvature="0"
           id="path4223"
           style="fill:#7b7979;fill-opacity:1;fill-rule:evenodd;stroke:none"
           d="m 0,-6.1836 12.36719,0 0,6.1836 L 0,0 0,-6.1836 Z" /></g></g><g
       transform="matrix(1.25,0,0,-1.25,0,145.27559)"
       id="g4225"><g
         transform="translate(36.62,103.49058)"
         id="g4227"><path
           inkscape:connector-curvature="0"
           id="path4229"
           style="fill:#7b7979;fill-opacity:1;fill-rule:evenodd;stroke:none"
           d="M 6.1836,0 0,0 l 0,-12.36719 6.1836,0 0,12.36719 z" /></g></g><g
       transform="matrix(1.25,0,0,-1.25,0,145.27559)"
       id="g4231"><g
         transform="translate(48.43809,103.49058)"
         id="g4233"><path
           inkscape:connector-curvature="0"
           id="path4235"
           style="fill:#7b7979;fill-opacity:1;fill-rule:evenodd;stroke:none"
           d="M 6.1836,0 0,0 l 0,-12.36719 6.1836,0 0,12.36719 z" /></g></g><g
       transform="matrix(1.25,0,0,-1.25,0,145.27559)"
       id="g4237"><g
         transform="translate(60.25865,103.49058)"
         id="g4239"><path
           inkscape:connector-curvature="0"
           id="path4241"
           style="fill:#7b7979;fill-opacity:1;fill-rule:evenodd;stroke:none"
           d="M 6.1836,0 0,0 l 0,-12.36719 6.1836,0 0,12.36719 z" /></g></g><g
       transform="matrix(1.25,0,0,-1.25,0,145.27559)"
       id="g4243"><g
         transform="translate(72.07674,103.49058)"
         id="g4245"><path
           inkscape:connector-curvature="0"
           id="path4247"
           style="fill:#7b7979;fill-opacity:1;fill-rule:evenodd;stroke:none"
           d="M 6.1836,0 0,0 l 0,-12.36719 6.1836,0 0,12.36719 z" /></g></g><g
       transform="matrix(1.25,0,0,-1.25,0,145.27559)"
       id="g4249"><g
         transform="translate(83.89483,103.49058)"
         id="g4251"><path
           inkscape:connector-curvature="0"
           id="path4253"
           style="fill:#7b7979;fill-opacity:1;fill-rule:evenodd;stroke:none"
           d="M 6.1836,0 0,0 l 0,-12.36719 6.1836,0 0,12.36719 z" /></g></g><g
       transform="matrix(1.25,0,0,-1.25,0,145.27559)"
       id="g4255"><g
         transform="translate(97.36765,83.84406)"
         id="g4257"><path
           inkscape:connector-curvature="0"
           id="path4259"
           style="fill:#7b7979;fill-opacity:1;fill-rule:evenodd;stroke:none"
           d="m 0,-6.1836 12.36719,0 0,6.1836 L 0,0 l 0,-6.1836 0,0 z" /></g></g><g
       transform="matrix(1.25,0,0,-1.25,0,145.27559)"
       id="g4261"><g
         transform="translate(97.36765,72.0235)"
         id="g4263"><path
           inkscape:connector-curvature="0"
           id="path4265"
           style="fill:#7b7979;fill-opacity:1;fill-rule:evenodd;stroke:none"
           d="m 0,-6.1836 12.36719,0 0,6.1836 L 0,0 0,-6.1836 Z" /></g></g><g
       transform="matrix(1.25,0,0,-1.25,0,145.27559)"
       id="g4267"><g
         transform="translate(97.36765,60.20541)"
         id="g4269"><path
           inkscape:connector-curvature="0"
           id="path4271"
           style="fill:#7b7979;fill-opacity:1;fill-rule:evenodd;stroke:none"
           d="m 0,-6.1836 12.36719,0 0,6.1836 L 0,0 0,-6.1836 Z" /></g></g><g
       transform="matrix(1.25,0,0,-1.25,0,145.27559)"
       id="g4273"><g
         transform="translate(97.36765,48.38732)"
         id="g4275"><path
           inkscape:connector-curvature="0"
           id="path4277"
           style="fill:#7b7979;fill-opacity:1;fill-rule:evenodd;stroke:none"
           d="m 0,-6.1836 12.36719,0 0,6.1836 L 0,0 0,-6.1836 Z" /></g></g><g
       transform="matrix(1.25,0,0,-1.25,0,145.27559)"
       id="g4279"><g
         transform="translate(97.36765,36.56675)"
         id="g4281"><path
           inkscape:connector-curvature="0"
           id="path4283"
           style="fill:#7b7979;fill-opacity:1;fill-rule:evenodd;stroke:none"
           d="m 0,-6.1836 12.36719,0 0,6.1836 L 0,0 0,-6.1836 Z" /></g></g><g
       transform="matrix(1.25,0,0,-1.25,0,145.27559)"
       id="g4285"><g
         transform="translate(36.62,23.10383)"
         id="g4287"><path
           inkscape:connector-curvature="0"
           id="path4289"
           style="fill:#7b7979;fill-opacity:1;fill-rule:evenodd;stroke:none"
           d="M 6.1836,0 0,0 l 0,-12.36719 6.1836,0 0,12.36719 z" /></g></g><g
       transform="matrix(1.25,0,0,-1.25,0,145.27559)"
       id="g4291"><g
         transform="translate(48.43809,23.10383)"
         id="g4293"><path
           inkscape:connector-curvature="0"
           id="path4295"
           style="fill:#7b7979;fill-opacity:1;fill-rule:evenodd;stroke:none"
           d="M 6.1836,0 0,0 l 0,-12.36719 6.1836,0 0,12.36719 z" /></g></g><g
       transform="matrix(1.25,0,0,-1.25,0,145.27559)"
       id="g4297"><g
         transform="translate(60.25865,23.10383)"
         id="g4299"><path
           inkscape:connector-curvature="0"
           id="path4301"
           style="fill:#7b7979;fill-opacity:1;fill-rule:evenodd;stroke:none"
           d="M 6.1836,0 0,0 l 0,-12.36719 6.1836,0 0,12.36719 z" /></g></g><g
       transform="matrix(1.25,0,0,-1.25,0,145.27559)"
       id="g4303"><g
         transform="translate(72.07674,23.10383)"
         id="g4305"><path
           inkscape:connector-curvature="0"
           id="path4307"
           style="fill:#7b7979;fill-opacity:1;fill-rule:evenodd;stroke:none"
           d="M 6.1836,0 0,0 l 0,-12.36719 6.1836,0 0,12.36719 z" /></g></g><g
       transform="matrix(1.25,0,0,-1.25,0,145.27559)"
       id="g4309"><g
         transform="translate(83.89483,23.10383)"
         id="g4311"><path
           inkscape:connector-curvature="0"
           id="path4313"
           style="fill:#7b7979;fill-opacity:1;fill-rule:evenodd;stroke:none"
           d="M 6.1836,0 0,0 l 0,-12.36719 6.1836,0 0,12.36719 z" /></g></g></g><g
     inkscape:groupmode="layer"
     id="layer4"
     inkscape:label="C"
     style="display:inline"><g
       transform="matrix(1.25,0,0,-1.25,0,145.27559)"
       id="g4321"><g
         transform="translate(63.08729,81.71029)"
         id="g4323"><path
           inkscape:connector-curvature="0"
           id="path4325"
           style="fill:#ffffff;fill-opacity:1;fill-rule:evenodd;stroke:none"
           d="m 4.94688,-22.26095 c 0,-1.02281 0.21916,-1.9829 0.6575,-2.88046 0.43833,-0.89757 1.01235,-1.69085 1.72202,-2.37965 0.73056,-0.66783 1.56547,-1.20011 2.50475,-1.59665 0.96017,-0.37577 1.95162,-0.56355 2.9744,-0.56355 0.81403,0 1.58634,0.11477 2.31689,0.3443 0.73056,0.25051 1.39849,0.59501 2.00381,1.0333 0.60532,0.4383 1.13758,0.96009 1.59677,1.56539 0.45921,0.6053 0.81406,1.27333 1.06449,2.00388 l 4.94688,0 c -0.29227,-1.41935 -0.81406,-2.73443 -1.56539,-3.94503 -0.73056,-1.18982 -1.62812,-2.23342 -2.69269,-3.13098 -1.06447,-0.87658 -2.26468,-1.56539 -3.60053,-2.06641 -1.33588,-0.50102 -2.75524,-0.75133 -4.2581,-0.75133 -1.71158,0 -3.32923,0.32353 -4.85294,0.97058 -1.52374,0.64705 -2.85959,1.52364 -4.00761,2.62996 -1.14801,1.12709 -2.06642,2.44217 -2.75523,3.94503 C 0.33397,-25.57971 0,-23.97257 0,-22.26095 l 0,9.89374 c 0,1.71158 0.33397,3.3188 1.0019,4.82164 0.68881,1.50286 1.60722,2.80741 2.75523,3.91367 1.14802,1.12714 2.48387,2.01425 4.00761,2.66131 C 9.28845,-0.32353 10.9061,0 12.61768,0 c 1.50286,0 2.92222,-0.25048 4.2581,-0.75143 1.33585,-0.50095 2.53606,-1.20019 3.60053,-2.09773 1.06457,-0.87665 1.96213,-1.9203 2.69269,-3.13094 0.75133,-1.21062 1.27312,-2.51519 1.56539,-3.91367 l -4.94688,0 c -0.25043,0.70968 -0.60528,1.36717 -1.06449,1.97249 -0.45919,0.60532 -0.99145,1.12714 -1.59677,1.56547 -0.60532,0.43834 -1.27325,0.78274 -2.00381,1.03321 -0.73055,0.25047 -1.50286,0.3757 -2.31689,0.3757 -1.02278,0 -2.01423,-0.19829 -2.9744,-0.59487 C 8.89187,-5.91747 8.05696,-6.44974 7.3264,-7.13854 6.61673,-7.80647 6.04271,-8.5892 5.60438,-9.48674 c -0.43834,-0.89755 -0.6575,-1.8577 -0.6575,-2.88047 l 0,-9.89374 0,0 z" /></g></g></g><g
     inkscape:groupmode="layer"
     id="layer2"
     inkscape:label="Holes"
     style="display:inline"><g
       transform="matrix(1.25,0,0,-1.25,0,145.27559)"
       id="g4315"><g
         transform="translate(38.8945,78.82458)"
         id="g4317"><path
           inkscape:connector-curvature="0"
           id="path4319"
           style="fill:#bdbcbd;fill-opacity:1;fill-rule:evenodd;stroke:none"
           d="m 2.9744,0 12.94121,-12.94121 0,-2.9744 -12.94121,-12.94111 -2.9744,0 0,2.97426 L 11.45402,-14.4284 0,-2.9744 0,0 l 2.9744,0 0,0 z" /></g></g><g
       transform="matrix(1.25,0,0,-1.25,0,145.27559)"
       id="g4383"><g
         transform="translate(61.02567,37.68763)"
         id="g4385"><path
           inkscape:connector-curvature="0"
           id="path4387"
           style="fill:#bdbcbd;fill-opacity:1;fill-rule:evenodd;stroke:none"
           d="m 0,0 28.85672,0 0,-4.12241 L 0,-4.12241 0,0 Z" /></g></g></g></svg>