  0
SECTION
  2
HEADER
  9
$ACADVER
  1
AC1014
  9
$HANDSEED
  5
FFFF
  9
$MEASUREMENT
 70
     1
  0
ENDSEC
  0
SECTION
  2
TABLES
  0
TABLE
  2
VPORT
  5
8
330
0
100
AcDbSymbolTable
 70
     4
  0
VPORT
  5
2E
330
8
100
AcDbSymbolTableRecord
100
AcDbViewportTableRecord
  2
*ACTIVE
 70
     0
 10
0.0
 20
0.0
 11
1.0
 21
1.0
 12
210.0
 22
148.5
 13
0.0
 23
0.0
 14
10.0
 24
10.0
 15
10.0
 25
10.0
 16
0.0
 26
0.0
 36
1.0
 17
0.0
 27
0.0
 37
0.0
 40
341.0
 41
1.24
 42
50.0
 43
0.0
 44
0.0
 50
0.0
 51
0.0
 71
     0
 72
   100
 73
     1
 74
     3
 75
     0
 76
     0
 77
     0
 78
     0
  0
ENDTAB
  0
TABLE
  2
LTYPE
  5
5
330
0
100
AcDbSymbolTable
 70
     1
  0
LTYPE
  5
14
330
5
100
AcDbSymbolTableRecord
100
AcDbLinetypeTableRecord
  2
BYBLOCK
 70
     0
  3

 72
    65
 73
     0
 40
0.0
  0
LTYPE
  5
15
330
5
100
AcDbSymbolTableRecord
100
AcDbLinetypeTableRecord
  2
BYLAYER
 70
     0
  3

 72
    65
 73
     0
 40
0.0
  0
LTYPE
  5
16
330
5
100
AcDbSymbolTableRecord
100
AcDbLinetypeTableRecord
  2
CONTINUOUS
 70
     0
  3
Solid line
 72
    65
 73
     0
 40
0.0
  0
ENDTAB
  0
TABLE
  2
LAYER
  5
2
100
AcDbSymbolTable
 70
7
  0
LAYER
  5
50
100
AcDbSymbolTableRecord
100
AcDbLayerTableRecord
  2
0
 70
0
  6
CONTINUOUS
  0
LAYER
  5
51
100
AcDbSymbolTableRecord
100
AcDbLayerTableRecord
  2
105x35_transparent
 70
0
  6
CONTINUOUS
  0
LAYER
  5
52
100
AcDbSymbolTableRecord
100
AcDbLayerTableRecord
  2
haotikum
 70
0
  6
CONTINUOUS
  0
LAYER
  5
53
100
AcDbSymbolTableRecord
100
AcDbLayerTableRecord
  2
base
 70
0
  6
CONTINUOUS
  0
LAYER
  5
54
100
AcDbSymbolTableRecord
100
AcDbLayerTableRecord
  2
Feet
 70
0
  6
CONTINUOUS
  0
LAYER
  5
55
100
AcDbSymbolTableRecord
100
AcDbLayerTableRecord
  2
C
 70
0
  6
CONTINUOUS
  0
LAYER
  5
56
100
AcDbSymbolTableRecord
100
AcDbLayerTableRecord
  2
Holes
 70
0
  6
CONTINUOUS
  0
ENDTAB
  0
TABLE
  2
STYLE
  5
3
330
0
100
AcDbSymbolTable
 70
     1
  0
STYLE
  5
11
330
3
100
AcDbSymbolTableRecord
100
AcDbTextStyleTableRecord
  2
STANDARD
 70
     0
 40
0.0
 41
1.0
 50
0.0
 71
     0
 42
2.5
  3
txt
  4

  0
ENDTAB
  0
TABLE
  2
VIEW
  5
6
330
0
100
AcDbSymbolTable
 70
     0
  0
ENDTAB
  0
TABLE
  2
UCS
  5
7
330
0
100
AcDbSymbolTable
 70
     0
  0
ENDTAB
  0
TABLE
  2
APPID
  5
9
330
0
100
AcDbSymbolTable
 70
     2
  0
APPID
  5
12
330
9
100
AcDbSymbolTableRecord
100
AcDbRegAppTableRecord
  2
ACAD
 70
     0
  0
ENDTAB
  0
TABLE
  2
DIMSTYLE
  5
A
330
0
100
AcDbSymbolTable
 70
     1
  0
DIMSTYLE
105
27
330
A
100
AcDbSymbolTableRecord
100
AcDbDimStyleTableRecord
  2
ISO-25
 70
     0
  3

  4

  5

  6

  7

 40
1.0
 41
2.5
 42
0.625
 43
3.75
 44
1.25
 45
0.0
 46
0.0
 47
0.0
 48
0.0
140
2.5
141
2.5
142
0.0
143
0.03937007874016
144
1.0
145
0.0
146
1.0
147
0.625
 71
     0
 72
     0
 73
     0
 74
     0
 75
     0
 76
     0
 77
     1
 78
     8
170
     0
171
     3
172
     1
173
     0
174
     0
175
     0
176
     0
177
     0
178
     0
270
     2
271
     2
272
     2
273
     2
274
     3
340
11
275
     0
280
     0
281
     0
282
     0
283
     0
284
     8
285
     0
286
     0
287
     3
288
     0
  0
ENDTAB
  0
TABLE
  2
BLOCK_RECORD
  5
1
330
0
100
AcDbSymbolTable
 70
     1
  0
BLOCK_RECORD
  5
1F
330
1
100
AcDbSymbolTableRecord
100
AcDbBlockTableRecord
  2
*MODEL_SPACE
  0
BLOCK_RECORD
  5
1B
330
1
100
AcDbSymbolTableRecord
100
AcDbBlockTableRecord
  2
*PAPER_SPACE
  0
ENDTAB
  0
ENDSEC
  0
SECTION
  2
BLOCKS
  0
BLOCK
  5
20
330
1F
100
AcDbEntity
  8
0
100
AcDbBlockBegin
  2
*MODEL_SPACE
 70
     0
 10
0.0
 20
0.0
 30
0.0
  3
*MODEL_SPACE
  1

  0
ENDBLK
  5
21
330
1F
100
AcDbEntity
  8
0
100
AcDbBlockEnd
  0
BLOCK
  5
1C
330
1B
100
AcDbEntity
 67
     1
  8
0
100
AcDbBlockBegin
  2
*PAPER_SPACE
  1

  0
ENDBLK
  5
1D
330
1B
100
AcDbEntity
 67
     1
  8
0
100
AcDbBlockEnd
  0
ENDSEC
  0
SECTION
  2
ENTITIES
  0
SPLINE
  5
100
100
AcDbEntity
  8
105x35_transparent
 62
7
100
AcDbSpline
 70
8
 71
3
 72
8
 73
4
 74
0
 40
0
 40
0
 40
0
 40
0
 40
1
 40
1
 40
1
 40
1
 10
36.618740
 20
104.881890
 30
0.0
 10
35.850580
 20
104.881030
 30
0.0
 10
35.228190
 20
104.258620
 30
0.0
 10
35.227340
 20
103.490580
 30
0.0
  0
SPLINE
  5
101
100
AcDbEntity
  8
105x35_transparent
 62
7
100
AcDbSpline
 70
8
 71
3
 72
8
 73
4
 74
0
 40
0
 40
0
 40
0
 40
0
 40
1
 40
1
 40
1
 40
1
 10
16.981860
 20
85.233510
 30
0.0
 10
16.213820
 20
85.232660
 30
0.0
 10
15.591410
 20
84.610180
 30
0.0
 10
15.590550
 20
83.842230
 30
0.0
  0
LWPOLYLINE
  5
102
100
AcDbEntity
  8
105x35_transparent
 62
7
100
AcDbPolyline
 90
4
 70
1
 10
35.227340
 20
103.490580
 30
0.0
 10
35.227340
 20
91.706970
 30
0.0
 10
28.750010
 20
85.233510
 30
0.0
 10
16.981860
 20
85.233510
 30
0.0
  0
SPLINE
  5
103
100
AcDbEntity
  8
105x35_transparent
 62
7
100
AcDbSpline
 70
8
 71
3
 72
8
 73
4
 74
0
 40
0
 40
0
 40
0
 40
0
 40
1
 40
1
 40
1
 40
1
 10
15.590550
 20
77.658630
 30
0.0
 10
15.591410
 20
76.890480
 30
0.0
 10
16.213820
 20
76.268160
 30
0.0
 10
16.981860
 20
76.267370
 30
0.0
  0
LWPOLYLINE
  5
104
100
AcDbEntity
  8
105x35_transparent
 62
7
100
AcDbPolyline
 90
2
 70
1
 10
15.590550
 20
83.842230
 30
0.0
 10
15.590550
 20
77.658630
 30
0.0
  0
SPLINE
  5
105
100
AcDbEntity
  8
105x35_transparent
 62
7
100
AcDbSpline
 70
8
 71
3
 72
8
 73
4
 74
0
 40
0
 40
0
 40
0
 40
0
 40
1
 40
1
 40
1
 40
1
 10
16.981860
 20
73.415200
 30
0.0
 10
16.213820
 20
73.414210
 30
0.0
 10
15.591410
 20
72.791890
 30
0.0
 10
15.590550
 20
72.023740
 30
0.0
  0
LWPOLYLINE
  5
106
100
AcDbEntity
  8
105x35_transparent
 62
7
100
AcDbPolyline
 90
4
 70
1
 10
16.981860
 20
76.267370
 30
0.0
 10
27.953880
 20
76.267370
 30
0.0
 10
27.953880
 20
73.415200
 30
0.0
 10
16.981860
 20
73.415200
 30
0.0
  0
SPLINE
  5
107
100
AcDbEntity
  8
105x35_transparent
 62
7
100
AcDbSpline
 70
8
 71
3
 72
8
 73
4
 74
0
 40
0
 40
0
 40
0
 40
0
 40
1
 40
1
 40
1
 40
1
 10
15.590550
 20
65.840150
 30
0.0
 10
15.591410
 20
65.072190
 30
0.0
 10
16.213820
 20
64.449680
 30
0.0
 10
16.981860
 20
64.448890
 30
0.0
  0
LWPOLYLINE
  5
108
100
AcDbEntity
  8
105x35_transparent
 62
7
100
AcDbPolyline
 90
2
 70
1
 10
15.590550
 20
72.023740
 30
0.0
 10
15.590550
 20
65.840150
 30
0.0
  0
SPLINE
  5
109
100
AcDbEntity
  8
105x35_transparent
 62
7
100
AcDbSpline
 70
8
 71
3
 72
8
 73
4
 74
0
 40
0
 40
0
 40
0
 40
0
 40
1
 40
1
 40
1
 40
1
 10
16.981860
 20
61.596720
 30
0.0
 10
16.213820
 20
61.595920
 30
0.0
 10
15.591410
 20
60.973410
 30
0.0
 10
15.590550
 20
60.205460
 30
0.0
  0
LWPOLYLINE
  5
10a
100
AcDbEntity
  8
105x35_transparent
 62
7
100
AcDbPolyline
 90
4
 70
1
 10
16.981860
 20
64.448890
 30
0.0
 10
27.953880
 20
64.448890
 30
0.0
 10
27.953880
 20
61.596720
 30
0.0
 10
16.981860
 20
61.596720
 30
0.0
  0
SPLINE
  5
10b
100
AcDbEntity
  8
105x35_transparent
 62
7
100
AcDbSpline
 70
8
 71
3
 72
8
 73
4
 74
0
 40
0
 40
0
 40
0
 40
0
 40
1
 40
1
 40
1
 40
1
 10
15.590550
 20
54.021860
 30
0.0
 10
15.591410
 20
53.253710
 30
0.0
 10
16.213820
 20
52.631390
 30
0.0
 10
16.981860
 20
52.630600
 30
0.0
  0
LWPOLYLINE
  5
10c
100
AcDbEntity
  8
105x35_transparent
 62
7
100
AcDbPolyline
 90
2
 70
1
 10
15.590550
 20
60.205460
 30
0.0
 10
15.590550
 20
54.021860
 30
0.0
  0
SPLINE
  5
10d
100
AcDbEntity
  8
105x35_transparent
 62
7
100
AcDbSpline
 70
8
 71
3
 72
8
 73
4
 74
0
 40
0
 40
0
 40
0
 40
0
 40
1
 40
1
 40
1
 40
1
 10
16.981860
 20
49.778230
 30
0.0
 10
16.213820
 20
49.777440
 30
0.0
 10
15.591410
 20
49.155120
 30
0.0
 10
15.590550
 20
48.386970
 30
0.0
  0
LWPOLYLINE
  5
10e
100
AcDbEntity
  8
105x35_transparent
 62
7
100
AcDbPolyline
 90
4
 70
1
 10
16.981860
 20
52.630600
 30
0.0
 10
27.953880
 20
52.630600
 30
0.0
 10
27.953880
 20
49.778230
 30
0.0
 10
16.981860
 20
49.778230
 30
0.0
  0
SPLINE
  5
10f
100
AcDbEntity
  8
105x35_transparent
 62
7
100
AcDbSpline
 70
8
 71
3
 72
8
 73
4
 74
0
 40
0
 40
0
 40
0
 40
0
 40
1
 40
1
 40
1
 40
1
 10
15.590550
 20
42.203370
 30
0.0
 10
15.591410
 20
41.435420
 30
0.0
 10
16.213820
 20
40.812910
 30
0.0
 10
16.981860
 20
40.812110
 30
0.0
  0
LWPOLYLINE
  5
110
100
AcDbEntity
  8
105x35_transparent
 62
7
100
AcDbPolyline
 90
2
 70
1
 10
15.590550
 20
48.386970
 30
0.0
 10
15.590550
 20
42.203370
 30
0.0
  0
SPLINE
  5
111
100
AcDbEntity
  8
105x35_transparent
 62
7
100
AcDbSpline
 70
8
 71
3
 72
8
 73
4
 74
0
 40
0
 40
0
 40
0
 40
0
 40
1
 40
1
 40
1
 40
1
 10
16.981860
 20
37.959940
 30
0.0
 10
16.213820
 20
37.959150
 30
0.0
 10
15.591410
 20
37.336640
 30
0.0
 10
15.590550
 20
36.568680
 30
0.0
  0
LWPOLYLINE
  5
112
100
AcDbEntity
  8
105x35_transparent
 62
7
100
AcDbPolyline
 90
4
 70
1
 10
16.981860
 20
40.812110
 30
0.0
 10
27.953880
 20
40.812110
 30
0.0
 10
27.953880
 20
37.959940
 30
0.0
 10
16.981860
 20
37.959940
 30
0.0
  0
SPLINE
  5
113
100
AcDbEntity
  8
105x35_transparent
 62
7
100
AcDbSpline
 70
8
 71
3
 72
8
 73
4
 74
0
 40
0
 40
0
 40
0
 40
0
 40
1
 40
1
 40
1
 40
1
 10
15.590550
 20
30.385090
 30
0.0
 10
15.591410
 20
29.616940
 30
0.0
 10
16.213820
 20
28.994620
 30
0.0
 10
16.981860
 20
28.993630
 30
0.0
  0
LWPOLYLINE
  5
114
100
AcDbEntity
  8
105x35_transparent
 62
7
100
AcDbPolyline
 90
2
 70
1
 10
15.590550
 20
36.568680
 30
0.0
 10
15.590550
 20
30.385090
 30
0.0
  0
SPLINE
  5
115
100
AcDbEntity
  8
105x35_transparent
 62
7
100
AcDbSpline
 70
8
 71
3
 72
8
 73
4
 74
0
 40
0
 40
0
 40
0
 40
0
 40
1
 40
1
 40
1
 40
1
 10
35.227340
 20
10.736690
 30
0.0
 10
35.228190
 20
9.968530
 30
0.0
 10
35.850580
 20
9.346220
 30
0.0
 10
36.618740
 20
9.345430
 30
0.0
  0
LWPOLYLINE
  5
116
100
AcDbEntity
  8
105x35_transparent
 62
7
100
AcDbPolyline
 90
4
 70
1
 10
16.981860
 20
28.993630
 30
0.0
 10
28.750010
 20
28.993630
 30
0.0
 10
35.227340
 20
22.520340
 30
0.0
 10
35.227340
 20
10.736690
 30
0.0
  0
SPLINE
  5
117
100
AcDbEntity
  8
105x35_transparent
 62
7
100
AcDbSpline
 70
8
 71
3
 72
8
 73
4
 74
0
 40
0
 40
0
 40
0
 40
0
 40
1
 40
1
 40
1
 40
1
 10
42.802330
 20
9.345430
 30
0.0
 10
43.570280
 20
9.346220
 30
0.0
 10
44.192600
 20
9.968530
 30
0.0
 10
44.193590
 20
10.736690
 30
0.0
  0
LWPOLYLINE
  5
118
100
AcDbEntity
  8
105x35_transparent
 62
7
100
AcDbPolyline
 90
2
 70
1
 10
36.618740
 20
9.345430
 30
0.0
 10
42.802330
 20
9.345430
 30
0.0
  0
SPLINE
  5
119
100
AcDbEntity
  8
105x35_transparent
 62
7
100
AcDbSpline
 70
8
 71
3
 72
8
 73
4
 74
0
 40
0
 40
0
 40
0
 40
0
 40
1
 40
1
 40
1
 40
1
 10
47.045760
 20
10.736690
 30
0.0
 10
47.046550
 20
9.968530
 30
0.0
 10
47.669070
 20
9.346220
 30
0.0
 10
48.437020
 20
9.345430
 30
0.0
  0
LWPOLYLINE
  5
11a
100
AcDbEntity
  8
105x35_transparent
 62
7
100
AcDbPolyline
 90
4
 70
1
 10
44.193590
 20
10.736690
 30
0.0
 10
44.193590
 20
21.712620
 30
0.0
 10
47.045760
 20
21.712620
 30
0.0
 10
47.045760
 20
10.736690
 30
0.0
  0
SPLINE
  5
11b
100
AcDbEntity
  8
105x35_transparent
 62
7
100
AcDbSpline
 70
8
 71
3
 72
8
 73
4
 74
0
 40
0
 40
0
 40
0
 40
0
 40
1
 40
1
 40
1
 40
1
 10
54.620620
 20
9.345430
 30
0.0
 10
55.388770
 20
9.346220
 30
0.0
 10
56.011090
 20
9.968530
 30
0.0
 10
56.011880
 20
10.736690
 30
0.0
  0
LWPOLYLINE
  5
11c
100
AcDbEntity
  8
105x35_transparent
 62
7
100
AcDbPolyline
 90
2
 70
1
 10
48.437020
 20
9.345430
 30
0.0
 10
54.620620
 20
9.345430
 30
0.0
  0
SPLINE
  5
11d
100
AcDbEntity
  8
105x35_transparent
 62
7
100
AcDbSpline
 70
8
 71
3
 72
8
 73
4
 74
0
 40
0
 40
0
 40
0
 40
0
 40
1
 40
1
 40
1
 40
1
 10
58.868010
 20
10.736690
 30
0.0
 10
58.868800
 20
9.968530
 30
0.0
 10
59.491310
 20
9.346220
 30
0.0
 10
60.259270
 20
9.345430
 30
0.0
  0
LWPOLYLINE
  5
11e
100
AcDbEntity
  8
105x35_transparent
 62
7
100
AcDbPolyline
 90
4
 70
1
 10
56.011880
 20
10.736690
 30
0.0
 10
56.011880
 20
21.712620
 30
0.0
 10
58.868010
 20
21.712620
 30
0.0
 10
58.868010
 20
10.736690
 30
0.0
  0
SPLINE
  5
11f
100
AcDbEntity
  8
105x35_transparent
 62
7
100
AcDbSpline
 70
8
 71
3
 72
8
 73
4
 74
0
 40
0
 40
0
 40
0
 40
0
 40
1
 40
1
 40
1
 40
1
 10
66.442860
 20
9.345430
 30
0.0
 10
67.211010
 20
9.346220
 30
0.0
 10
67.833330
 20
9.968530
 30
0.0
 10
67.834120
 20
10.736690
 30
0.0
  0
LWPOLYLINE
  5
120
100
AcDbEntity
  8
105x35_transparent
 62
7
100
AcDbPolyline
 90
2
 70
1
 10
60.259270
 20
9.345430
 30
0.0
 10
66.442860
 20
9.345430
 30
0.0
  0
SPLINE
  5
121
100
AcDbEntity
  8
105x35_transparent
 62
7
100
AcDbSpline
 70
8
 71
3
 72
8
 73
4
 74
0
 40
0
 40
0
 40
0
 40
0
 40
1
 40
1
 40
1
 40
1
 10
70.686490
 20
10.736690
 30
0.0
 10
70.687280
 20
9.968530
 30
0.0
 10
71.309600
 20
9.346220
 30
0.0
 10
72.077750
 20
9.345430
 30
0.0
  0
LWPOLYLINE
  5
122
100
AcDbEntity
  8
105x35_transparent
 62
7
100
AcDbPolyline
 90
4
 70
1
 10
67.834120
 20
10.736690
 30
0.0
 10
67.834120
 20
21.712620
 30
0.0
 10
70.686490
 20
21.712620
 30
0.0
 10
70.686490
 20
10.736690
 30
0.0
  0
SPLINE
  5
123
100
AcDbEntity
  8
105x35_transparent
 62
7
100
AcDbSpline
 70
8
 71
3
 72
8
 73
4
 74
0
 40
0
 40
0
 40
0
 40
0
 40
1
 40
1
 40
1
 40
1
 10
78.261350
 20
9.345430
 30
0.0
 10
79.029300
 20
9.346220
 30
0.0
 10
79.651820
 20
9.968530
 30
0.0
 10
79.652610
 20
10.736690
 30
0.0
  0
LWPOLYLINE
  5
124
100
AcDbEntity
  8
105x35_transparent
 62
7
100
AcDbPolyline
 90
2
 70
1
 10
72.077750
 20
9.345430
 30
0.0
 10
78.261350
 20
9.345430
 30
0.0
  0
SPLINE
  5
125
100
AcDbEntity
  8
105x35_transparent
 62
7
100
AcDbSpline
 70
8
 71
3
 72
8
 73
4
 74
0
 40
0
 40
0
 40
0
 40
0
 40
1
 40
1
 40
1
 40
1
 10
82.504780
 20
10.736690
 30
0.0
 10
82.505570
 20
9.968530
 30
0.0
 10
83.128090
 20
9.346220
 30
0.0
 10
83.896040
 20
9.345430
 30
0.0
  0
LWPOLYLINE
  5
126
100
AcDbEntity
  8
105x35_transparent
 62
7
100
AcDbPolyline
 90
4
 70
1
 10
79.652610
 20
10.736690
 30
0.0
 10
79.652610
 20
21.712620
 30
0.0
 10
82.504780
 20
21.712620
 30
0.0
 10
82.504780
 20
10.736690
 30
0.0
  0
SPLINE
  5
127
100
AcDbEntity
  8
105x35_transparent
 62
7
100
AcDbSpline
 70
8
 71
3
 72
8
 73
4
 74
0
 40
0
 40
0
 40
0
 40
0
 40
1
 40
1
 40
1
 40
1
 10
90.079640
 20
9.345430
 30
0.0
 10
90.847790
 20
9.346220
 30
0.0
 10
91.470100
 20
9.968530
 30
0.0
 10
91.471090
 20
10.736690
 30
0.0
  0
LWPOLYLINE
  5
128
100
AcDbEntity
  8
105x35_transparent
 62
7
100
AcDbPolyline
 90
2
 70
1
 10
83.896040
 20
9.345430
 30
0.0
 10
90.079640
 20
9.345430
 30
0.0
  0
SPLINE
  5
129
100
AcDbEntity
  8
105x35_transparent
 62
7
100
AcDbSpline
 70
8
 71
3
 72
8
 73
4
 74
0
 40
0
 40
0
 40
0
 40
0
 40
1
 40
1
 40
1
 40
1
 10
109.735750
 20
28.993630
 30
0.0
 10
110.503910
 20
28.994620
 30
0.0
 10
111.126220
 20
29.616940
 30
0.0
 10
111.127210
 20
30.385090
 30
0.0
  0
LWPOLYLINE
  5
12a
100
AcDbEntity
  8
105x35_transparent
 62
7
100
AcDbPolyline
 90
4
 70
1
 10
91.471090
 20
10.736690
 30
0.0
 10
91.471090
 20
22.500950
 30
0.0
 10
97.963770
 20
28.993630
 30
0.0
 10
109.735750
 20
28.993630
 30
0.0
  0
SPLINE
  5
12b
100
AcDbEntity
  8
105x35_transparent
 62
7
100
AcDbSpline
 70
8
 71
3
 72
8
 73
4
 74
0
 40
0
 40
0
 40
0
 40
0
 40
1
 40
1
 40
1
 40
1
 10
111.127210
 20
36.568680
 30
0.0
 10
111.126220
 20
37.336640
 30
0.0
 10
110.503910
 20
37.959150
 30
0.0
 10
109.735750
 20
37.959940
 30
0.0
  0
LWPOLYLINE
  5
12c
100
AcDbEntity
  8
105x35_transparent
 62
7
100
AcDbPolyline
 90
2
 70
1
 10
111.127210
 20
30.385090
 30
0.0
 10
111.127210
 20
36.568680
 30
0.0
  0
SPLINE
  5
12d
100
AcDbEntity
  8
105x35_transparent
 62
7
100
AcDbSpline
 70
8
 71
3
 72
8
 73
4
 74
0
 40
0
 40
0
 40
0
 40
0
 40
1
 40
1
 40
1
 40
1
 10
109.735750
 20
40.812110
 30
0.0
 10
110.503910
 20
40.812910
 30
0.0
 10
111.126220
 20
41.435420
 30
0.0
 10
111.127210
 20
42.203370
 30
0.0
  0
LWPOLYLINE
  5
12e
100
AcDbEntity
  8
105x35_transparent
 62
7
100
AcDbPolyline
 90
4
 70
1
 10
109.735750
 20
37.959940
 30
0.0
 10
98.760020
 20
37.959940
 30
0.0
 10
98.760020
 20
40.812110
 30
0.0
 10
109.735750
 20
40.812110
 30
0.0
  0
SPLINE
  5
12f
100
AcDbEntity
  8
105x35_transparent
 62
7
100
AcDbSpline
 70
8
 71
3
 72
8
 73
4
 74
0
 40
0
 40
0
 40
0
 40
0
 40
1
 40
1
 40
1
 40
1
 10
111.127210
 20
48.386970
 30
0.0
 10
111.126220
 20
49.155120
 30
0.0
 10
110.503910
 20
49.777440
 30
0.0
 10
109.735750
 20
49.778230
 30
0.0
  0
LWPOLYLINE
  5
130
100
AcDbEntity
  8
105x35_transparent
 62
7
100
AcDbPolyline
 90
2
 70
1
 10
111.127210
 20
42.203370
 30
0.0
 10
111.127210
 20
48.386970
 30
0.0
  0
SPLINE
  5
131
100
AcDbEntity
  8
105x35_transparent
 62
7
100
AcDbSpline
 70
8
 71
3
 72
8
 73
4
 74
0
 40
0
 40
0
 40
0
 40
0
 40
1
 40
1
 40
1
 40
1
 10
109.735750
 20
52.630600
 30
0.0
 10
110.503910
 20
52.631390
 30
0.0
 10
111.126220
 20
53.253710
 30
0.0
 10
111.127210
 20
54.021860
 30
0.0
  0
LWPOLYLINE
  5
132
100
AcDbEntity
  8
105x35_transparent
 62
7
100
AcDbPolyline
 90
4
 70
1
 10
109.735750
 20
49.778230
 30
0.0
 10
98.760020
 20
49.778230
 30
0.0
 10
98.760020
 20
52.630600
 30
0.0
 10
109.735750
 20
52.630600
 30
0.0
  0
SPLINE
  5
133
100
AcDbEntity
  8
105x35_transparent
 62
7
100
AcDbSpline
 70
8
 71
3
 72
8
 73
4
 74
0
 40
0
 40
0
 40
0
 40
0
 40
1
 40
1
 40
1
 40
1
 10
111.127210
 20
60.205460
 30
0.0
 10
111.126220
 20
60.973410
 30
0.0
 10
110.503910
 20
61.595920
 30
0.0
 10
109.735750
 20
61.596720
 30
0.0
  0
LWPOLYLINE
  5
134
100
AcDbEntity
  8
105x35_transparent
 62
7
100
AcDbPolyline
 90
2
 70
1
 10
111.127210
 20
54.021860
 30
0.0
 10
111.127210
 20
60.205460
 30
0.0
  0
SPLINE
  5
135
100
AcDbEntity
  8
105x35_transparent
 62
7
100
AcDbSpline
 70
8
 71
3
 72
8
 73
4
 74
0
 40
0
 40
0
 40
0
 40
0
 40
1
 40
1
 40
1
 40
1
 10
109.735750
 20
64.448890
 30
0.0
 10
110.503910
 20
64.449680
 30
0.0
 10
111.126220
 20
65.072190
 30
0.0
 10
111.127210
 20
65.840150
 30
0.0
  0
LWPOLYLINE
  5
136
100
AcDbEntity
  8
105x35_transparent
 62
7
100
AcDbPolyline
 90
4
 70
1
 10
109.735750
 20
61.596720
 30
0.0
 10
98.760020
 20
61.596720
 30
0.0
 10
98.760020
 20
64.448890
 30
0.0
 10
109.735750
 20
64.448890
 30
0.0
  0
SPLINE
  5
137
100
AcDbEntity
  8
105x35_transparent
 62
7
100
AcDbSpline
 70
8
 71
3
 72
8
 73
4
 74
0
 40
0
 40
0
 40
0
 40
0
 40
1
 40
1
 40
1
 40
1
 10
111.127210
 20
72.023740
 30
0.0
 10
111.126220
 20
72.791890
 30
0.0
 10
110.503910
 20
73.414210
 30
0.0
 10
109.735750
 20
73.415200
 30
0.0
  0
LWPOLYLINE
  5
138
100
AcDbEntity
  8
105x35_transparent
 62
7
100
AcDbPolyline
 90
2
 70
1
 10
111.127210
 20
65.840150
 30
0.0
 10
111.127210
 20
72.023740
 30
0.0
  0
SPLINE
  5
139
100
AcDbEntity
  8
105x35_transparent
 62
7
100
AcDbSpline
 70
8
 71
3
 72
8
 73
4
 74
0
 40
0
 40
0
 40
0
 40
0
 40
1
 40
1
 40
1
 40
1
 10
109.735750
 20
76.267370
 30
0.0
 10
110.503910
 20
76.268160
 30
0.0
 10
111.126220
 20
76.890480
 30
0.0
 10
111.127210
 20
77.658630
 30
0.0
  0
LWPOLYLINE
  5
13a
100
AcDbEntity
  8
105x35_transparent
 62
7
100
AcDbPolyline
 90
4
 70
1
 10
109.735750
 20
73.415200
 30
0.0
 10
98.760020
 20
73.415200
 30
0.0
 10
98.760020
 20
76.267370
 30
0.0
 10
109.735750
 20
76.267370
 30
0.0
  0
SPLINE
  5
13b
100
AcDbEntity
  8
105x35_transparent
 62
7
100
AcDbSpline
 70
8
 71
3
 72
8
 73
4
 74
0
 40
0
 40
0
 40
0
 40
0
 40
1
 40
1
 40
1
 40
1
 10
111.127210
 20
83.842230
 30
0.0
 10
111.126220
 20
84.610180
 30
0.0
 10
110.503910
 20
85.232660
 30
0.0
 10
109.735750
 20
85.233510
 30
0.0
  0
LWPOLYLINE
  5
13c
100
AcDbEntity
  8
105x35_transparent
 62
7
100
AcDbPolyline
 90
2
 70
1
 10
111.127210
 20
77.658630
 30
0.0
 10
111.127210
 20
83.842230
 30
0.0
  0
SPLINE
  5
13d
100
AcDbEntity
  8
105x35_transparent
 62
7
100
AcDbSpline
 70
8
 71
3
 72
8
 73
4
 74
0
 40
0
 40
0
 40
0
 40
0
 40
1
 40
1
 40
1
 40
1
 10
91.471090
 20
103.490580
 30
0.0
 10
91.470100
 20
104.258620
 30
0.0
 10
90.847790
 20
104.881030
 30
0.0
 10
90.079640
 20
104.881890
 30
0.0
  0
LWPOLYLINE
  5
13e
100
AcDbEntity
  8
105x35_transparent
 62
7
100
AcDbPolyline
 90
4
 70
1
 10
109.735750
 20
85.233510
 30
0.0
 10
97.963770
 20
85.233510
 30
0.0
 10
91.471090
 20
91.726280
 30
0.0
 10
91.471090
 20
103.490580
 30
0.0
  0
SPLINE
  5
13f
100
AcDbEntity
  8
105x35_transparent
 62
7
100
AcDbSpline
 70
8
 71
3
 72
8
 73
4
 74
0
 40
0
 40
0
 40
0
 40
0
 40
1
 40
1
 40
1
 40
1
 10
83.896040
 20
104.881890
 30
0.0
 10
83.128090
 20
104.881030
 30
0.0
 10
82.505570
 20
104.258620
 30
0.0
 10
82.504780
 20
103.490580
 30
0.0
  0
LWPOLYLINE
  5
140
100
AcDbEntity
  8
105x35_transparent
 62
7
100
AcDbPolyline
 90
2
 70
1
 10
90.079640
 20
104.881890
 30
0.0
 10
83.896040
 20
104.881890
 30
0.0
  0
SPLINE
  5
141
100
AcDbEntity
  8
105x35_transparent
 62
7
100
AcDbSpline
 70
8
 71
3
 72
8
 73
4
 74
0
 40
0
 40
0
 40
0
 40
0
 40
1
 40
1
 40
1
 40
1
 10
79.652610
 20
103.490580
 30
0.0
 10
79.651820
 20
104.258620
 30
0.0
 10
79.029300
 20
104.881030
 30
0.0
 10
78.261350
 20
104.881890
 30
0.0
  0
LWPOLYLINE
  5
142
100
AcDbEntity
  8
105x35_transparent
 62
7
100
AcDbPolyline
 90
4
 70
1
 10
82.504780
 20
103.490580
 30
0.0
 10
82.504780
 20
92.514700
 30
0.0
 10
79.652610
 20
92.514700
 30
0.0
 10
79.652610
 20
103.490580
 30
0.0
  0
SPLINE
  5
143
100
AcDbEntity
  8
105x35_transparent
 62
7
100
AcDbSpline
 70
8
 71
3
 72
8
 73
4
 74
0
 40
0
 40
0
 40
0
 40
0
 40
1
 40
1
 40
1
 40
1
 10
72.077750
 20
104.881890
 30
0.0
 10
71.309600
 20
104.881030
 30
0.0
 10
70.687280
 20
104.258620
 30
0.0
 10
70.686490
 20
103.490580
 30
0.0
  0
LWPOLYLINE
  5
144
100
AcDbEntity
  8
105x35_transparent
 62
7
100
AcDbPolyline
 90
2
 70
1
 10
78.261350
 20
104.881890
 30
0.0
 10
72.077750
 20
104.881890
 30
0.0
  0
SPLINE
  5
145
100
AcDbEntity
  8
105x35_transparent
 62
7
100
AcDbSpline
 70
8
 71
3
 72
8
 73
4
 74
0
 40
0
 40
0
 40
0
 40
0
 40
1
 40
1
 40
1
 40
1
 10
67.834120
 20
103.490580
 30
0.0
 10
67.833330
 20
104.258620
 30
0.0
 10
67.211010
 20
104.881030
 30
0.0
 10
66.442860
 20
104.881890
 30
0.0
  0
LWPOLYLINE
  5
146
100
AcDbEntity
  8
105x35_transparent
 62
7
100
AcDbPolyline
 90
4
 70
1
 10
70.686490
 20
103.490580
 30
0.0
 10
70.686490
 20
92.514700
 30
0.0
 10
67.834120
 20
92.514700
 30
0.0
 10
67.834120
 20
103.490580
 30
0.0
  0
SPLINE
  5
147
100
AcDbEntity
  8
105x35_transparent
 62
7
100
AcDbSpline
 70
8
 71
3
 72
8
 73
4
 74
0
 40
0
 40
0
 40
0
 40
0
 40
1
 40
1
 40
1
 40
1
 10
60.259270
 20
104.881890
 30
0.0
 10
59.491310
 20
104.881030
 30
0.0
 10
58.868800
 20
104.258620
 30
0.0
 10
58.868010
 20
103.490580
 30
0.0
  0
LWPOLYLINE
  5
148
100
AcDbEntity
  8
105x35_transparent
 62
7
100
AcDbPolyline
 90
2
 70
1
 10
66.442860
 20
104.881890
 30
0.0
 10
60.259270
 20
104.881890
 30
0.0
  0
SPLINE
  5
149
100
AcDbEntity
  8
105x35_transparent
 62
7
100
AcDbSpline
 70
8
 71
3
 72
8
 73
4
 74
0
 40
0
 40
0
 40
0
 40
0
 40
1
 40
1
 40
1
 40
1
 10
56.011880
 20
103.490580
 30
0.0
 10
56.011090
 20
104.258620
 30
0.0
 10
55.388770
 20
104.881030
 30
0.0
 10
54.620620
 20
104.881890
 30
0.0
  0
LWPOLYLINE
  5
14a
100
AcDbEntity
  8
105x35_transparent
 62
7
100
AcDbPolyline
 90
4
 70
1
 10
58.868010
 20
103.490580
 30
0.0
 10
58.868010
 20
92.514700
 30
0.0
 10
56.011880
 20
92.514700
 30
0.0
 10
56.011880
 20
103.490580
 30
0.0
  0
SPLINE
  5
14b
100
AcDbEntity
  8
105x35_transparent
 62
7
100
AcDbSpline
 70
8
 71
3
 72
8
 73
4
 74
0
 40
0
 40
0
 40
0
 40
0
 40
1
 40
1
 40
1
 40
1
 10
48.437020
 20
104.881890
 30
0.0
 10
47.669070
 20
104.881030
 30
0.0
 10
47.046550
 20
104.258620
 30
0.0
 10
47.045760
 20
103.490580
 30
0.0
  0
LWPOLYLINE
  5
14c
100
AcDbEntity
  8
105x35_transparent
 62
7
100
AcDbPolyline
 90
2
 70
1
 10
54.620620
 20
104.881890
 30
0.0
 10
48.437020
 20
104.881890
 30
0.0
  0
SPLINE
  5
14d
100
AcDbEntity
  8
105x35_transparent
 62
7
100
AcDbSpline
 70
8
 71
3
 72
8
 73
4
 74
0
 40
0
 40
0
 40
0
 40
0
 40
1
 40
1
 40
1
 40
1
 10
44.193590
 20
103.490580
 30
0.0
 10
44.192600
 20
104.258620
 30
0.0
 10
43.570280
 20
104.881030
 30
0.0
 10
42.802330
 20
104.881890
 30
0.0
  0
LWPOLYLINE
  5
14e
100
AcDbEntity
  8
105x35_transparent
 62
7
100
AcDbPolyline
 90
4
 70
1
 10
47.045760
 20
103.490580
 30
0.0
 10
47.045760
 20
92.514700
 30
0.0
 10
44.193590
 20
92.514700
 30
0.0
 10
44.193590
 20
103.490580
 30
0.0
  0
SPLINE
  5
14f
100
AcDbEntity
  8
105x35_transparent
 62
7
100
AcDbSpline
 70
8
 71
3
 72
8
 73
4
 74
0
 40
0
 40
0
 40
0
 40
0
 40
1
 40
1
 40
1
 40
1
 10
119.957980
 20
83.103960
 30
0.0
 10
119.893280
 20
83.102160
 30
0.0
 10
119.828770
 20
83.095460
 30
0.0
 10
119.764860
 20
83.084560
 30
0.0
  0
LWPOLYLINE
  5
150
100
AcDbEntity
  8
105x35_transparent
 62
7
100
AcDbPolyline
 90
3
 70
1
 10
42.802330
 20
104.881890
 30
0.0
 10
36.618740
 20
104.881890
 30
0.0
 10
36.618740
 20
104.881890
 30
0.0
  0
SPLINE
  5
151
100
AcDbEntity
  8
105x35_transparent
 62
7
100
AcDbSpline
 70
8
 71
3
 72
8
 73
4
 74
0
 40
0
 40
0
 40
0
 40
0
 40
1
 40
1
 40
1
 40
1
 10
115.683680
 20
82.381320
 30
0.0
 10
115.016050
 20
82.265760
 30
0.0
 10
114.528290
 20
81.686770
 30
0.0
 10
114.528090
 20
81.009250
 30
0.0
  0
LWPOLYLINE
  5
152
100
AcDbEntity
  8
105x35_transparent
 62
7
100
AcDbPolyline
 90
2
 70
1
 10
119.764860
 20
83.084560
 30
0.0
 10
115.683680
 20
82.381320
 30
0.0
  0
SPLINE
  5
153
100
AcDbEntity
  8
105x35_transparent
 62
7
100
AcDbSpline
 70
8
 71
3
 72
8
 73
4
 74
0
 40
0
 40
0
 40
0
 40
0
 40
1
 40
1
 40
1
 40
1
 10
114.528090
 20
47.656420
 30
0.0
 10
114.528880
 20
46.888460
 30
0.0
 10
115.151400
 20
46.266150
 30
0.0
 10
115.919350
 20
46.265160
 30
0.0
  0
LWPOLYLINE
  5
154
100
AcDbEntity
  8
105x35_transparent
 62
7
100
AcDbPolyline
 90
2
 70
1
 10
114.528090
 20
81.009250
 30
0.0
 10
114.528090
 20
47.656420
 30
0.0
  0
SPLINE
  5
155
100
AcDbEntity
  8
105x35_transparent
 62
7
100
AcDbSpline
 70
8
 71
3
 72
8
 73
4
 74
0
 40
0
 40
0
 40
0
 40
0
 40
1
 40
1
 40
1
 40
1
 10
120.000520
 20
46.265160
 30
0.0
 10
120.768680
 20
46.266150
 30
0.0
 10
121.390990
 20
46.888460
 30
0.0
 10
121.391780
 20
47.656420
 30
0.0
  0
LWPOLYLINE
  5
156
100
AcDbEntity
  8
105x35_transparent
 62
7
100
AcDbPolyline
 90
2
 70
1
 10
115.919350
 20
46.265160
 30
0.0
 10
120.000520
 20
46.265160
 30
0.0
  0
SPLINE
  5
157
100
AcDbEntity
  8
105x35_transparent
 62
7
100
AcDbSpline
 70
8
 71
3
 72
8
 73
4
 74
0
 40
0
 40
0
 40
0
 40
0
 40
1
 40
1
 40
1
 40
1
 10
121.391780
 20
65.550260
 30
0.0
 10
121.601530
 20
65.594190
 30
0.0
 10
121.803760
 20
65.640100
 30
0.0
 10
122.041210
 20
65.673930
 30
0.0
  0
SPLINE
  5
158
100
AcDbEntity
  8
105x35_transparent
 62
7
100
AcDbSpline
 70
8
 71
3
 72
8
 73
4
 74
0
 40
0
 40
0
 40
0
 40
0
 40
1
 40
1
 40
1
 40
1
 10
122.041210
 20
65.673930
 30
0.0
 10
122.067110
 20
65.678330
 30
0.0
 10
122.092810
 20
65.683430
 30
0.0
 10
122.118410
 20
65.689370
 30
0.0
  0
SPLINE
  5
159
100
AcDbEntity
  8
105x35_transparent
 62
7
100
AcDbSpline
 70
8
 71
3
 72
8
 73
4
 74
0
 40
0
 40
0
 40
0
 40
0
 40
1
 40
1
 40
1
 40
1
 10
122.118410
 20
65.689370
 30
0.0
 10
122.524060
 20
65.770490
 30
0.0
 10
122.943750
 20
65.835990
 30
0.0
 10
123.378480
 20
65.890410
 30
0.0
  0
SPLINE
  5
15a
100
AcDbEntity
  8
105x35_transparent
 62
7
100
AcDbSpline
 70
8
 71
3
 72
8
 73
4
 74
0
 40
0
 40
0
 40
0
 40
0
 40
1
 40
1
 40
1
 40
1
 10
123.378480
 20
65.890410
 30
0.0
 10
123.788080
 20
65.941660
 30
0.0
 10
124.182050
 20
65.967580
 30
0.0
 10
124.564940
 20
65.967580
 30
0.0
  0
SPLINE
  5
15b
100
AcDbEntity
  8
105x35_transparent
 62
7
100
AcDbSpline
 70
8
 71
3
 72
8
 73
4
 74
0
 40
0
 40
0
 40
0
 40
0
 40
1
 40
1
 40
1
 40
1
 10
124.564940
 20
65.967580
 30
0.0
 10
125.523840
 20
65.967580
 30
0.0
 10
126.258350
 20
65.831240
 30
0.0
 10
126.767680
 20
65.627630
 30
0.0
  0
SPLINE
  5
15c
100
AcDbEntity
  8
105x35_transparent
 62
7
100
AcDbSpline
 70
8
 71
3
 72
8
 73
4
 74
0
 40
0
 40
0
 40
0
 40
0
 40
1
 40
1
 40
1
 40
1
 10
126.767680
 20
65.627630
 30
0.0
 10
126.783080
 20
65.622330
 30
0.0
 10
126.798580
 20
65.617140
 30
0.0
 10
126.814180
 20
65.612190
 30
0.0
  0
SPLINE
  5
15d
100
AcDbEntity
  8
105x35_transparent
 62
7
100
AcDbSpline
 70
8
 71
3
 72
8
 73
4
 74
0
 40
0
 40
0
 40
0
 40
0
 40
1
 40
1
 40
1
 40
1
 10
126.814180
 20
65.612190
 30
0.0
 10
127.302730
 20
65.436280
 30
0.0
 10
127.625860
 20
65.191310
 30
0.0
 10
127.907830
 20
64.796750
 30
0.0
  0
SPLINE
  5
15e
100
AcDbEntity
  8
105x35_transparent
 62
7
100
AcDbSpline
 70
8
 71
3
 72
8
 73
4
 74
0
 40
0
 40
0
 40
0
 40
0
 40
1
 40
1
 40
1
 40
1
 10
127.907830
 20
64.796750
 30
0.0
 10
128.193360
 20
64.397040
 30
0.0
 10
128.442690
 20
63.794710
 30
0.0
 10
128.591880
 20
62.949390
 30
0.0
  0
SPLINE
  5
15f
100
AcDbEntity
  8
105x35_transparent
 62
7
100
AcDbSpline
 70
8
 71
3
 72
8
 73
4
 74
0
 40
0
 40
0
 40
0
 40
0
 40
1
 40
1
 40
1
 40
1
 10
128.591880
 20
62.949390
 30
0.0
 10
128.593880
 20
62.936530
 30
0.0
 10
128.596880
 20
62.923470
 30
0.0
 10
128.599880
 20
62.910610
 30
0.0
  0
SPLINE
  5
160
100
AcDbEntity
  8
105x35_transparent
 62
7
100
AcDbSpline
 70
8
 71
3
 72
8
 73
4
 74
0
 40
0
 40
0
 40
0
 40
0
 40
1
 40
1
 40
1
 40
1
 10
128.599880
 20
62.910610
 30
0.0
 10
128.778170
 20
62.044900
 30
0.0
 10
128.878090
 20
60.928890
 30
0.0
 10
128.878090
 20
59.590860
 30
0.0
  0
LWPOLYLINE
  5
161
100
AcDbEntity
  8
105x35_transparent
 62
7
100
AcDbPolyline
 90
2
 70
1
 10
121.391780
 20
47.656420
 30
0.0
 10
121.391780
 20
65.550260
 30
0.0
  0
SPLINE
  5
162
100
AcDbEntity
  8
105x35_transparent
 62
7
100
AcDbSpline
 70
8
 71
3
 72
8
 73
4
 74
0
 40
0
 40
0
 40
0
 40
0
 40
1
 40
1
 40
1
 40
1
 10
128.878090
 20
47.656420
 30
0.0
 10
128.879080
 20
46.888460
 30
0.0
 10
129.501400
 20
46.266150
 30
0.0
 10
130.269550
 20
46.265160
 30
0.0
  0
LWPOLYLINE
  5
163
100
AcDbEntity
  8
105x35_transparent
 62
7
100
AcDbPolyline
 90
2
 70
1
 10
128.878090
 20
59.590860
 30
0.0
 10
128.878090
 20
47.656420
 30
0.0
  0
SPLINE
  5
164
100
AcDbEntity
  8
105x35_transparent
 62
7
100
AcDbSpline
 70
8
 71
3
 72
8
 73
4
 74
0
 40
0
 40
0
 40
0
 40
0
 40
1
 40
1
 40
1
 40
1
 10
134.350730
 20
46.265160
 30
0.0
 10
135.118680
 20
46.266150
 30
0.0
 10
135.741190
 20
46.888460
 30
0.0
 10
135.741990
 20
47.656420
 30
0.0
  0
LWPOLYLINE
  5
165
100
AcDbEntity
  8
105x35_transparent
 62
7
100
AcDbPolyline
 90
2
 70
1
 10
130.269550
 20
46.265160
 30
0.0
 10
134.350730
 20
46.265160
 30
0.0
  0
SPLINE
  5
166
100
AcDbEntity
  8
105x35_transparent
 62
7
100
AcDbSpline
 70
8
 71
3
 72
8
 73
4
 74
0
 40
0
 40
0
 40
0
 40
0
 40
1
 40
1
 40
1
 40
1
 10
135.741990
 20
60.471990
 30
0.0
 10
135.741990
 20
62.109010
 30
0.0
 10
135.590020
 20
63.629880
 30
0.0
 10
135.270450
 20
65.036180
 30
0.0
  0
SPLINE
  5
167
100
AcDbEntity
  8
105x35_transparent
 62
7
100
AcDbSpline
 70
8
 71
3
 72
8
 73
4
 74
0
 40
0
 40
0
 40
0
 40
0
 40
1
 40
1
 40
1
 40
1
 10
135.270450
 20
65.036180
 30
0.0
 10
134.940000
 20
66.490360
 30
0.0
 10
134.339840
 20
67.784270
 30
0.0
 10
133.473350
 20
68.866250
 30
0.0
  0
SPLINE
  5
168
100
AcDbEntity
  8
105x35_transparent
 62
7
100
AcDbSpline
 70
8
 71
3
 72
8
 73
4
 74
0
 40
0
 40
0
 40
0
 40
0
 40
1
 40
1
 40
1
 40
1
 10
133.473350
 20
68.866250
 30
0.0
 10
132.617340
 20
70.001460
 30
0.0
 10
131.451860
 20
70.871910
 30
0.0
 10
130.068510
 20
71.447930
 30
0.0
  0
SPLINE
  5
169
100
AcDbEntity
  8
105x35_transparent
 62
7
100
AcDbSpline
 70
8
 71
3
 72
8
 73
4
 74
0
 40
0
 40
0
 40
0
 40
0
 40
1
 40
1
 40
1
 40
1
 10
130.068510
 20
71.447930
 30
0.0
 10
128.637080
 20
72.073410
 30
0.0
 10
126.949800
 20
72.352220
 30
0.0
 10
125.005680
 20
72.352220
 30
0.0
  0
SPLINE
  5
16a
100
AcDbEntity
  8
105x35_transparent
 62
7
100
AcDbSpline
 70
8
 71
3
 72
8
 73
4
 74
0
 40
0
 40
0
 40
0
 40
0
 40
1
 40
1
 40
1
 40
1
 10
125.005680
 20
72.352220
 30
0.0
 10
124.062610
 20
72.352220
 30
0.0
 10
123.111220
 20
72.248330
 30
0.0
 10
122.157470
 20
72.058570
 30
0.0
  0
SPLINE
  5
16b
100
AcDbEntity
  8
105x35_transparent
 62
7
100
AcDbSpline
 70
8
 71
3
 72
8
 73
4
 74
0
 40
0
 40
0
 40
0
 40
0
 40
1
 40
1
 40
1
 40
1
 10
122.157470
 20
72.058570
 30
0.0
 10
121.891520
 20
72.012270
 30
0.0
 10
121.652090
 20
71.909370
 30
0.0
 10
121.392080
 20
71.849810
 30
0.0
  0
LWPOLYLINE
  5
16c
100
AcDbEntity
  8
105x35_transparent
 62
7
100
AcDbPolyline
 90
2
 70
1
 10
135.741990
 20
47.656420
 30
0.0
 10
135.741990
 20
60.471990
 30
0.0
  0
SPLINE
  5
16d
100
AcDbEntity
  8
105x35_transparent
 62
7
100
AcDbSpline
 70
8
 71
3
 72
8
 73
4
 74
0
 40
0
 40
0
 40
0
 40
0
 40
1
 40
1
 40
1
 40
1
 10
121.392080
 20
81.712700
 30
0.0
 10
121.391690
 20
82.497670
 30
0.0
 10
120.742860
 20
83.127110
 30
0.0
 10
119.958280
 20
83.103960
 30
0.0
  0
LWPOLYLINE
  5
16e
100
AcDbEntity
  8
105x35_transparent
 62
7
100
AcDbPolyline
 90
2
 70
1
 10
121.392080
 20
71.849810
 30
0.0
 10
121.392080
 20
81.712700
 30
0.0
  0
SPLINE
  5
16f
100
AcDbEntity
  8
105x35_transparent
 62
7
100
AcDbSpline
 70
8
 71
3
 72
8
 73
4
 74
0
 40
0
 40
0
 40
0
 40
0
 40
1
 40
1
 40
1
 40
1
 10
222.571840
 20
83.103960
 30
0.0
 10
222.506540
 20
83.102160
 30
0.0
 10
222.441250
 20
83.095460
 30
0.0
 10
222.377930
 20
83.084560
 30
0.0
  0
LWPOLYLINE
  5
170
100
AcDbEntity
  8
105x35_transparent
 62
7
100
AcDbPolyline
 90
3
 70
1
 10
119.958280
 20
83.103960
 30
0.0
 10
119.958280
 20
83.103960
 30
0.0
 10
119.957980
 20
83.103960
 30
0.0
  0
SPLINE
  5
171
100
AcDbEntity
  8
105x35_transparent
 62
7
100
AcDbSpline
 70
8
 71
3
 72
8
 73
4
 74
0
 40
0
 40
0
 40
0
 40
0
 40
1
 40
1
 40
1
 40
1
 10
218.295760
 20
82.381320
 30
0.0
 10
217.628920
 20
82.265760
 30
0.0
 10
217.142150
 20
81.686770
 30
0.0
 10
217.140170
 20
81.009250
 30
0.0
  0
LWPOLYLINE
  5
172
100
AcDbEntity
  8
105x35_transparent
 62
7
100
AcDbPolyline
 90
2
 70
1
 10
222.377930
 20
83.084560
 30
0.0
 10
218.295760
 20
82.381320
 30
0.0
  0
SPLINE
  5
173
100
AcDbEntity
  8
105x35_transparent
 62
7
100
AcDbSpline
 70
8
 71
3
 72
8
 73
4
 74
0
 40
0
 40
0
 40
0
 40
0
 40
1
 40
1
 40
1
 40
1
 10
217.140170
 20
47.656420
 30
0.0
 10
217.142170
 20
46.888460
 30
0.0
 10
217.763480
 20
46.266150
 30
0.0
 10
218.533210
 20
46.265160
 30
0.0
  0
LWPOLYLINE
  5
174
100
AcDbEntity
  8
105x35_transparent
 62
7
100
AcDbPolyline
 90
2
 70
1
 10
217.140170
 20
81.009250
 30
0.0
 10
217.140170
 20
47.656420
 30
0.0
  0
SPLINE
  5
175
100
AcDbEntity
  8
105x35_transparent
 62
7
100
AcDbSpline
 70
8
 71
3
 72
8
 73
4
 74
0
 40
0
 40
0
 40
0
 40
0
 40
1
 40
1
 40
1
 40
1
 10
222.613400
 20
46.265160
 30
0.0
 10
223.381150
 20
46.266150
 30
0.0
 10
224.004460
 20
46.888460
 30
0.0
 10
224.004460
 20
47.656420
 30
0.0
  0
LWPOLYLINE
  5
176
100
AcDbEntity
  8
105x35_transparent
 62
7
100
AcDbPolyline
 90
2
 70
1
 10
218.533210
 20
46.265160
 30
0.0
 10
222.613400
 20
46.265160
 30
0.0
  0
SPLINE
  5
177
100
AcDbEntity
  8
105x35_transparent
 62
7
100
AcDbSpline
 70
8
 71
3
 72
8
 73
4
 74
0
 40
0
 40
0
 40
0
 40
0
 40
1
 40
1
 40
1
 40
1
 10
224.004460
 20
55.741590
 30
0.0
 10
224.097460
 20
55.660270
 30
0.0
 10
224.174630
 20
55.617330
 30
0.0
 10
224.267630
 20
55.532830
 30
0.0
  0
SPLINE
  5
178
100
AcDbEntity
  8
105x35_transparent
 62
7
100
AcDbSpline
 70
8
 71
3
 72
8
 73
4
 74
0
 40
0
 40
0
 40
0
 40
0
 40
1
 40
1
 40
1
 40
1
 10
224.267630
 20
55.532830
 30
0.0
 10
225.132350
 20
54.752610
 30
0.0
 10
225.987170
 20
53.883740
 30
0.0
 10
226.834070
 20
52.924250
 30
0.0
  0
LWPOLYLINE
  5
179
100
AcDbEntity
  8
105x35_transparent
 62
7
100
AcDbPolyline
 90
2
 70
1
 10
224.004460
 20
47.656420
 30
0.0
 10
224.004460
 20
55.741590
 30
0.0
  0
SPLINE
  5
17a
100
AcDbEntity
  8
105x35_transparent
 62
7
100
AcDbSpline
 70
8
 71
3
 72
8
 73
4
 74
0
 40
0
 40
0
 40
0
 40
0
 40
1
 40
1
 40
1
 40
1
 10
226.845970
 20
52.908810
 30
0.0
 10
227.688910
 20
51.979990
 30
0.0
 10
228.496240
 20
50.994570
 30
0.0
 10
229.258060
 20
49.952160
 30
0.0
  0
SPLINE
  5
17b
100
AcDbEntity
  8
105x35_transparent
 62
7
100
AcDbSpline
 70
8
 71
3
 72
8
 73
4
 74
0
 40
0
 40
0
 40
0
 40
0
 40
1
 40
1
 40
1
 40
1
 10
229.258060
 20
49.952160
 30
0.0
 10
229.266060
 20
49.940490
 30
0.0
 10
229.275860
 20
49.928810
 30
0.0
 10
229.283760
 20
49.917340
 30
0.0
  0
SPLINE
  5
17c
100
AcDbEntity
  8
105x35_transparent
 62
7
100
AcDbSpline
 70
8
 71
3
 72
8
 73
4
 74
0
 40
0
 40
0
 40
0
 40
0
 40
1
 40
1
 40
1
 40
1
 10
229.283760
 20
49.917340
 30
0.0
 10
230.073280
 20
48.903820
 30
0.0
 10
230.753970
 20
47.912660
 30
0.0
 10
231.335720
 20
46.941490
 30
0.0
  0
SPLINE
  5
17d
100
AcDbEntity
  8
105x35_transparent
 62
7
100
AcDbSpline
 70
8
 71
3
 72
8
 73
4
 74
0
 40
0
 40
0
 40
0
 40
0
 40
1
 40
1
 40
1
 40
1
 10
231.335720
 20
46.941490
 30
0.0
 10
231.589000
 20
46.522000
 30
0.0
 10
232.042140
 20
46.265350
 30
0.0
 10
232.530890
 20
46.265160
 30
0.0
  0
LWPOLYLINE
  5
17e
100
AcDbEntity
  8
105x35_transparent
 62
7
100
AcDbPolyline
 90
2
 70
1
 10
226.834070
 20
52.924250
 30
0.0
 10
226.845970
 20
52.908810
 30
0.0
  0
SPLINE
  5
17f
100
AcDbEntity
  8
105x35_transparent
 62
7
100
AcDbSpline
 70
8
 71
3
 72
8
 73
4
 74
0
 40
0
 40
0
 40
0
 40
0
 40
1
 40
1
 40
1
 40
1
 10
237.315510
 20
46.265160
 30
0.0
 10
238.384030
 20
46.265350
 30
0.0
 10
239.054830
 20
47.419760
 30
0.0
 10
238.524520
 20
48.348390
 30
0.0
  0
SPLINE
  5
180
100
AcDbEntity
  8
105x35_transparent
 62
7
100
AcDbSpline
 70
8
 71
3
 72
8
 73
4
 74
0
 40
0
 40
0
 40
0
 40
0
 40
1
 40
1
 40
1
 40
1
 10
238.524520
 20
48.348390
 30
0.0
 10
237.911110
 20
49.421070
 30
0.0
 10
237.171060
 20
50.551530
 30
0.0
 10
236.302390
 20
51.749260
 30
0.0
  0
SPLINE
  5
181
100
AcDbEntity
  8
105x35_transparent
 62
7
100
AcDbSpline
 70
8
 71
3
 72
8
 73
4
 74
0
 40
0
 40
0
 40
0
 40
0
 40
1
 40
1
 40
1
 40
1
 10
236.302390
 20
51.749260
 30
0.0
 10
235.437670
 20
52.972730
 30
0.0
 10
234.509640
 20
54.166900
 30
0.0
 10
233.528180
 20
55.328030
 30
0.0
  0
SPLINE
  5
182
100
AcDbEntity
  8
105x35_transparent
 62
7
100
AcDbSpline
 70
8
 71
3
 72
8
 73
4
 74
0
 40
0
 40
0
 40
0
 40
0
 40
1
 40
1
 40
1
 40
1
 10
233.528180
 20
55.328030
 30
0.0
 10
232.566500
 20
56.529730
 30
0.0
 10
231.577130
 20
57.645550
 30
0.0
 10
230.548180
 20
58.674890
 30
0.0
  0
LWPOLYLINE
  5
183
100
AcDbEntity
  8
105x35_transparent
 62
7
100
AcDbPolyline
 90
2
 70
1
 10
232.530890
 20
46.265160
 30
0.0
 10
237.315510
 20
46.265160
 30
0.0
  0
SPLINE
  5
184
100
AcDbEntity
  8
105x35_transparent
 62
7
100
AcDbSpline
 70
8
 71
3
 72
8
 73
4
 74
0
 40
0
 40
0
 40
0
 40
0
 40
1
 40
1
 40
1
 40
1
 10
230.540180
 20
58.682590
 30
0.0
 10
229.934690
 20
59.305900
 30
0.0
 10
229.360850
 20
59.761210
 30
0.0
 10
228.777120
 20
60.270930
 30
0.0
  0
SPLINE
  5
185
100
AcDbEntity
  8
105x35_transparent
 62
7
100
AcDbSpline
 70
8
 71
3
 72
8
 73
4
 74
0
 40
0
 40
0
 40
0
 40
0
 40
1
 40
1
 40
1
 40
1
 10
228.777120
 20
60.270930
 30
0.0
 10
229.246080
 20
60.756520
 30
0.0
 10
229.699210
 20
61.224690
 30
0.0
 10
230.195880
 20
61.739560
 30
0.0
  0
LWPOLYLINE
  5
186
100
AcDbEntity
  8
105x35_transparent
 62
7
100
AcDbPolyline
 90
2
 70
1
 10
230.548180
 20
58.674890
 30
0.0
 10
230.540180
 20
58.682590
 30
0.0
  0
SPLINE
  5
187
100
AcDbEntity
  8
105x35_transparent
 62
7
100
AcDbSpline
 70
8
 71
3
 72
8
 73
4
 74
0
 40
0
 40
0
 40
0
 40
0
 40
1
 40
1
 40
1
 40
1
 10
230.195880
 20
61.743560
 30
0.0
 10
231.072470
 20
62.649040
 30
0.0
 10
231.937180
 20
63.539670
 30
0.0
 10
232.786070
 20
64.418040
 30
0.0
  0
LWPOLYLINE
  5
188
100
AcDbEntity
  8
105x35_transparent
 62
7
100
AcDbPolyline
 90
2
 70
1
 10
230.195880
 20
61.739560
 30
0.0
 10
230.195880
 20
61.743560
 30
0.0
  0
SPLINE
  5
189
100
AcDbEntity
  8
105x35_transparent
 62
7
100
AcDbSpline
 70
8
 71
3
 72
8
 73
4
 74
0
 40
0
 40
0
 40
0
 40
0
 40
1
 40
1
 40
1
 40
1
 10
232.801870
 20
64.433470
 30
0.0
 10
233.656690
 20
65.347060
 30
0.0
 10
234.481830
 20
66.246600
 30
0.0
 10
235.279260
 20
67.131100
 30
0.0
  0
SPLINE
  5
18a
100
AcDbEntity
  8
105x35_transparent
 62
7
100
AcDbSpline
 70
8
 71
3
 72
8
 73
4
 74
0
 40
0
 40
0
 40
0
 40
0
 40
1
 40
1
 40
1
 40
1
 10
235.279260
 20
67.131100
 30
0.0
 10
236.066800
 20
68.005910
 30
0.0
 10
236.793010
 20
68.808290
 30
0.0
 10
237.461820
 20
69.534890
 30
0.0
  0
SPLINE
  5
18b
100
AcDbEntity
  8
105x35_transparent
 62
7
100
AcDbSpline
 70
8
 71
3
 72
8
 73
4
 74
0
 40
0
 40
0
 40
0
 40
0
 40
1
 40
1
 40
1
 40
1
 10
237.461820
 20
69.534890
 30
0.0
 10
238.281030
 20
70.427500
 30
0.0
 10
237.649810
 20
71.867240
 30
0.0
 10
236.438810
 20
71.869220
 30
0.0
  0
LWPOLYLINE
  5
18c
100
AcDbEntity
  8
105x35_transparent
 62
7
100
AcDbPolyline
 90
2
 70
1
 10
232.786070
 20
64.418040
 30
0.0
 10
232.801870
 20
64.433470
 30
0.0
  0
SPLINE
  5
18d
100
AcDbEntity
  8
105x35_transparent
 62
7
100
AcDbSpline
 70
8
 71
3
 72
8
 73
4
 74
0
 40
0
 40
0
 40
0
 40
0
 40
1
 40
1
 40
1
 40
1
 10
231.654190
 20
71.869220
 30
0.0
 10
231.246570
 20
71.870420
 30
0.0
 10
230.860710
 20
71.694100
 30
0.0
 10
230.593580
 20
71.386210
 30
0.0
  0
SPLINE
  5
18e
100
AcDbEntity
  8
105x35_transparent
 62
7
100
AcDbSpline
 70
8
 71
3
 72
8
 73
4
 74
0
 40
0
 40
0
 40
0
 40
0
 40
1
 40
1
 40
1
 40
1
 10
230.593580
 20
71.386210
 30
0.0
 10
230.075150
 20
70.779330
 30
0.0
 10
229.453820
 20
70.065390
 30
0.0
 10
228.727620
 20
69.252720
 30
0.0
  0
SPLINE
  5
18f
100
AcDbEntity
  8
105x35_transparent
 62
7
100
AcDbSpline
 70
8
 71
3
 72
8
 73
4
 74
0
 40
0
 40
0
 40
0
 40
0
 40
1
 40
1
 40
1
 40
1
 10
228.727620
 20
69.252720
 30
0.0
 10
228.003390
 20
68.470720
 30
0.0
 10
227.235640
 20
67.645780
 30
0.0
 10
226.424350
 20
66.775520
 30
0.0
  0
SPLINE
  5
190
100
AcDbEntity
  8
105x35_transparent
 62
7
100
AcDbSpline
 70
8
 71
3
 72
8
 73
4
 74
0
 40
0
 40
0
 40
0
 40
0
 40
1
 40
1
 40
1
 40
1
 10
226.424350
 20
66.775520
 30
0.0
 10
225.630870
 20
65.926240
 30
0.0
 10
224.825520
 20
65.091800
 30
0.0
 10
224.004340
 20
64.271220
 30
0.0
  0
LWPOLYLINE
  5
191
100
AcDbEntity
  8
105x35_transparent
 62
7
100
AcDbPolyline
 90
2
 70
1
 10
236.438810
 20
71.869220
 30
0.0
 10
231.654190
 20
71.869220
 30
0.0
  0
SPLINE
  5
192
100
AcDbEntity
  8
105x35_transparent
 62
7
100
AcDbSpline
 70
8
 71
3
 72
8
 73
4
 74
0
 40
0
 40
0
 40
0
 40
0
 40
1
 40
1
 40
1
 40
1
 10
224.004340
 20
81.712720
 30
0.0
 10
224.004340
 20
82.497690
 30
0.0
 10
223.355310
 20
83.127130
 30
0.0
 10
222.571720
 20
83.103980
 30
0.0
  0
LWPOLYLINE
  5
193
100
AcDbEntity
  8
105x35_transparent
 62
7
100
AcDbPolyline
 90
2
 70
1
 10
224.004340
 20
64.271220
 30
0.0
 10
224.004340
 20
81.712720
 30
0.0
  0
SPLINE
  5
194
100
AcDbEntity
  8
105x35_transparent
 62
7
100
AcDbSpline
 70
8
 71
3
 72
8
 73
4
 74
0
 40
0
 40
0
 40
0
 40
0
 40
1
 40
1
 40
1
 40
1
 10
209.446390
 20
81.349400
 30
0.0
 10
208.399440
 20
81.349400
 30
0.0
 10
207.364350
 20
80.944940
 30
0.0
 10
206.601940
 20
80.224870
 30
0.0
  0
SPLINE
  5
195
100
AcDbEntity
  8
105x35_transparent
 62
7
100
AcDbSpline
 70
8
 71
3
 72
8
 73
4
 74
0
 40
0
 40
0
 40
0
 40
0
 40
1
 40
1
 40
1
 40
1
 10
206.601940
 20
80.224870
 30
0.0
 10
205.808060
 20
79.477700
 30
0.0
 10
205.419240
 20
78.380680
 30
0.0
 10
205.419240
 20
77.279900
 30
0.0
  0
SPLINE
  5
196
100
AcDbEntity
  8
105x35_transparent
 62
7
100
AcDbSpline
 70
8
 71
3
 72
8
 73
4
 74
0
 40
0
 40
0
 40
0
 40
0
 40
1
 40
1
 40
1
 40
1
 10
205.419240
 20
77.279900
 30
0.0
 10
205.419240
 20
76.178920
 30
0.0
 10
205.803120
 20
75.087250
 30
0.0
 10
206.570870
 20
74.319490
 30
0.0
  0
SPLINE
  5
197
100
AcDbEntity
  8
105x35_transparent
 62
7
100
AcDbSpline
 70
8
 71
3
 72
8
 73
4
 74
0
 40
0
 40
0
 40
0
 40
0
 40
1
 40
1
 40
1
 40
1
 10
206.570870
 20
74.319490
 30
0.0
 10
206.590870
 20
74.300890
 30
0.0
 10
206.611470
 20
74.282880
 30
0.0
 10
206.632570
 20
74.265270
 30
0.0
  0
SPLINE
  5
198
100
AcDbEntity
  8
105x35_transparent
 62
7
100
AcDbSpline
 70
8
 71
3
 72
8
 73
4
 74
0
 40
0
 40
0
 40
0
 40
0
 40
1
 40
1
 40
1
 40
1
 10
206.632570
 20
74.265270
 30
0.0
 10
207.399530
 20
73.583790
 30
0.0
 10
208.416020
 20
73.210200
 30
0.0
 10
209.446160
 20
73.210200
 30
0.0
  0
SPLINE
  5
199
100
AcDbEntity
  8
105x35_transparent
 62
7
100
AcDbSpline
 70
8
 71
3
 72
8
 73
4
 74
0
 40
0
 40
0
 40
0
 40
0
 40
1
 40
1
 40
1
 40
1
 10
209.446160
 20
73.210200
 30
0.0
 10
210.476290
 20
73.210200
 30
0.0
 10
211.499510
 20
73.591510
 30
0.0
 10
212.244310
 20
74.292380
 30
0.0
  0
SPLINE
  5
19a
100
AcDbEntity
  8
105x35_transparent
 62
7
100
AcDbSpline
 70
8
 71
3
 72
8
 73
4
 74
0
 40
0
 40
0
 40
0
 40
0
 40
1
 40
1
 40
1
 40
1
 10
212.244310
 20
74.292380
 30
0.0
 10
213.049260
 20
75.052810
 30
0.0
 10
213.469550
 20
76.163880
 30
0.0
 10
213.469550
 20
77.279900
 30
0.0
  0
SPLINE
  5
19b
100
AcDbEntity
  8
105x35_transparent
 62
7
100
AcDbSpline
 70
8
 71
3
 72
8
 73
4
 74
0
 40
0
 40
0
 40
0
 40
0
 40
1
 40
1
 40
1
 40
1
 10
213.469550
 20
77.279900
 30
0.0
 10
213.469550
 20
78.379690
 30
0.0
 10
213.047090
 20
79.475130
 30
0.0
 10
212.240350
 20
80.213200
 30
0.0
  0
SPLINE
  5
19c
100
AcDbEntity
  8
105x35_transparent
 62
7
100
AcDbSpline
 70
8
 71
3
 72
8
 73
4
 74
0
 40
0
 40
0
 40
0
 40
0
 40
1
 40
1
 40
1
 40
1
 10
212.240350
 20
80.213200
 30
0.0
 10
211.503070
 20
80.935050
 30
0.0
 10
210.480050
 20
81.349400
 30
0.0
 10
209.446160
 20
81.349400
 30
0.0
  0
LWPOLYLINE
  5
19d
100
AcDbEntity
  8
105x35_transparent
 62
7
100
AcDbPolyline
 90
3
 70
1
 10
222.571720
 20
83.103980
 30
0.0
 10
222.571720
 20
83.103980
 30
0.0
 10
222.571840
 20
83.103960
 30
0.0
  0
SPLINE
  5
19e
100
AcDbEntity
  8
105x35_transparent
 62
7
100
AcDbSpline
 70
8
 71
3
 72
8
 73
4
 74
0
 40
0
 40
0
 40
0
 40
0
 40
1
 40
1
 40
1
 40
1
 10
193.558410
 20
78.933940
 30
0.0
 10
193.493510
 20
78.931940
 30
0.0
 10
193.429000
 20
78.925440
 30
0.0
 10
193.365090
 20
78.914550
 30
0.0
  0
LWPOLYLINE
  5
19f
100
AcDbEntity
  8
105x35_transparent
 62
7
100
AcDbPolyline
 90
3
 70
1
 10
209.446160
 20
81.349400
 30
0.0
 10
209.446350
 20
81.349400
 30
0.0
 10
209.446390
 20
81.349400
 30
0.0
  0
SPLINE
  5
1a0
100
AcDbEntity
  8
105x35_transparent
 62
7
100
AcDbSpline
 70
8
 71
3
 72
8
 73
4
 74
0
 40
0
 40
0
 40
0
 40
0
 40
1
 40
1
 40
1
 40
1
 10
189.283910
 20
78.211300
 30
0.0
 10
188.616280
 20
78.095740
 30
0.0
 10
188.128520
 20
77.516760
 30
0.0
 10
188.128320
 20
76.839230
 30
0.0
  0
LWPOLYLINE
  5
1a1
100
AcDbEntity
  8
105x35_transparent
 62
7
100
AcDbPolyline
 90
2
 70
1
 10
193.365090
 20
78.914550
 30
0.0
 10
189.283910
 20
78.211300
 30
0.0
  0
SPLINE
  5
1a2
100
AcDbEntity
  8
105x35_transparent
 62
7
100
AcDbSpline
 70
8
 71
3
 72
8
 73
4
 74
0
 40
0
 40
0
 40
0
 40
0
 40
1
 40
1
 40
1
 40
1
 10
188.128320
 20
56.475910
 30
0.0
 10
188.128320
 20
54.882620
 30
0.0
 10
188.250210
 20
53.446640
 30
0.0
 10
188.507050
 20
52.162820
 30
0.0
  0
SPLINE
  5
1a3
100
AcDbEntity
  8
105x35_transparent
 62
7
100
AcDbSpline
 70
8
 71
3
 72
8
 73
4
 74
0
 40
0
 40
0
 40
0
 40
0
 40
1
 40
1
 40
1
 40
1
 10
188.507050
 20
52.162820
 30
0.0
 10
188.509050
 20
52.149960
 30
0.0
 10
188.512050
 20
52.136900
 30
0.0
 10
188.515050
 20
52.124240
 30
0.0
  0
SPLINE
  5
1a4
100
AcDbEntity
  8
105x35_transparent
 62
7
100
AcDbSpline
 70
8
 71
3
 72
8
 73
4
 74
0
 40
0
 40
0
 40
0
 40
0
 40
1
 40
1
 40
1
 40
1
 10
188.515050
 20
52.124240
 30
0.0
 10
188.816220
 20
50.819050
 30
0.0
 10
189.338410
 20
49.657130
 30
0.0
 10
190.091920
 20
48.688330
 30
0.0
  0
SPLINE
  5
1a5
100
AcDbEntity
  8
105x35_transparent
 62
7
100
AcDbSpline
 70
8
 71
3
 72
8
 73
4
 74
0
 40
0
 40
0
 40
0
 40
0
 40
1
 40
1
 40
1
 40
1
 10
190.091920
 20
48.688330
 30
0.0
 10
190.856710
 20
47.704900
 30
0.0
 10
191.876950
 20
46.946440
 30
0.0
 10
193.071520
 20
46.454520
 30
0.0
  0
SPLINE
  5
1a6
100
AcDbEntity
  8
105x35_transparent
 62
7
100
AcDbSpline
 70
8
 71
3
 72
8
 73
4
 74
0
 40
0
 40
0
 40
0
 40
0
 40
1
 40
1
 40
1
 40
1
 10
193.071520
 20
46.454520
 30
0.0
 10
193.086920
 20
46.447820
 30
0.0
 10
193.102420
 20
46.441270
 30
0.0
 10
193.118020
 20
46.435130
 30
0.0
  0
SPLINE
  5
1a7
100
AcDbEntity
  8
105x35_transparent
 62
7
100
AcDbSpline
 70
8
 71
3
 72
8
 73
4
 74
0
 40
0
 40
0
 40
0
 40
0
 40
1
 40
1
 40
1
 40
1
 10
193.118020
 20
46.435130
 30
0.0
 10
194.359690
 20
45.973880
 30
0.0
 10
195.802790
 20
45.781950
 30
0.0
 10
197.465930
 20
45.781950
 30
0.0
  0
SPLINE
  5
1a8
100
AcDbEntity
  8
105x35_transparent
 62
7
100
AcDbSpline
 70
8
 71
3
 72
8
 73
4
 74
0
 40
0
 40
0
 40
0
 40
0
 40
1
 40
1
 40
1
 40
1
 10
197.465930
 20
45.781950
 30
0.0
 10
198.894790
 20
45.781950
 30
0.0
 10
200.203340
 20
45.954890
 30
0.0
 10
201.388610
 20
46.326890
 30
0.0
  0
LWPOLYLINE
  5
1a9
100
AcDbEntity
  8
105x35_transparent
 62
7
100
AcDbPolyline
 90
2
 70
1
 10
188.128320
 20
76.839230
 30
0.0
 10
188.128320
 20
56.475910
 30
0.0
  0
SPLINE
  5
1aa
100
AcDbEntity
  8
105x35_transparent
 62
7
100
AcDbSpline
 70
8
 71
3
 72
8
 73
4
 74
0
 40
0
 40
0
 40
0
 40
0
 40
1
 40
1
 40
1
 40
1
 10
201.392610
 20
46.326890
 30
0.0
 10
202.427110
 20
46.623310
 30
0.0
 10
203.168940
 20
46.867290
 30
0.0
 10
203.750100
 20
47.157970
 30
0.0
  0
SPLINE
  5
1ab
100
AcDbEntity
  8
105x35_transparent
 62
7
100
AcDbSpline
 70
8
 71
3
 72
8
 73
4
 74
0
 40
0
 40
0
 40
0
 40
0
 40
1
 40
1
 40
1
 40
1
 10
203.750100
 20
47.157970
 30
0.0
 10
204.326510
 20
47.445880
 30
0.0
 10
204.630250
 20
48.091540
 30
0.0
 10
204.484410
 20
48.719200
 30
0.0
  0
LWPOLYLINE
  5
1ac
100
AcDbEntity
  8
105x35_transparent
 62
7
100
AcDbPolyline
 90
2
 70
1
 10
201.388610
 20
46.326890
 30
0.0
 10
201.392610
 20
46.326890
 30
0.0
  0
SPLINE
  5
1ad
100
AcDbEntity
  8
105x35_transparent
 62
7
100
AcDbSpline
 70
8
 71
3
 72
8
 73
4
 74
0
 40
0
 40
0
 40
0
 40
0
 40
1
 40
1
 40
1
 40
1
 10
203.692120
 20
52.097130
 30
0.0
 10
203.498800
 20
52.928400
 30
0.0
 10
202.610140
 20
53.392020
 30
0.0
 10
201.817650
 20
53.074830
 30
0.0
  0
SPLINE
  5
1ae
100
AcDbEntity
  8
105x35_transparent
 62
7
100
AcDbSpline
 70
8
 71
3
 72
8
 73
4
 74
0
 40
0
 40
0
 40
0
 40
0
 40
1
 40
1
 40
1
 40
1
 10
201.817650
 20
53.074830
 30
0.0
 10
201.545370
 20
52.966000
 30
0.0
 10
201.020810
 20
52.759420
 30
0.0
 10
200.283330
 20
52.475860
 30
0.0
  0
SPLINE
  5
1af
100
AcDbEntity
  8
105x35_transparent
 62
7
100
AcDbSpline
 70
8
 71
3
 72
8
 73
4
 74
0
 40
0
 40
0
 40
0
 40
0
 40
1
 40
1
 40
1
 40
1
 10
200.283330
 20
52.475860
 30
0.0
 10
199.786860
 20
52.296980
 30
0.0
 10
198.943910
 20
52.162820
 30
0.0
 10
197.813850
 20
52.162820
 30
0.0
  0
SPLINE
  5
1b0
100
AcDbEntity
  8
105x35_transparent
 62
7
100
AcDbSpline
 70
8
 71
3
 72
8
 73
4
 74
0
 40
0
 40
0
 40
0
 40
0
 40
1
 40
1
 40
1
 40
1
 10
197.813850
 20
52.162820
 30
0.0
 10
197.226950
 20
52.162820
 30
0.0
 10
196.760560
 20
52.239400
 30
0.0
 10
196.410910
 20
52.355950
 30
0.0
  0
SPLINE
  5
1b1
100
AcDbEntity
  8
105x35_transparent
 62
7
100
AcDbSpline
 70
8
 71
3
 72
8
 73
4
 74
0
 40
0
 40
0
 40
0
 40
0
 40
1
 40
1
 40
1
 40
1
 10
196.410910
 20
52.355950
 30
0.0
 10
196.111330
 20
52.455880
 30
0.0
 10
195.919980
 20
52.594980
 30
0.0
 10
195.730620
 20
52.812050
 30
0.0
  0
SPLINE
  5
1b2
100
AcDbEntity
  8
105x35_transparent
 62
7
100
AcDbSpline
 70
8
 71
3
 72
8
 73
4
 74
0
 40
0
 40
0
 40
0
 40
0
 40
1
 40
1
 40
1
 40
1
 10
195.730620
 20
52.812050
 30
0.0
 10
195.548370
 20
53.046930
 30
0.0
 10
195.357230
 20
53.417550
 30
0.0
 10
195.220490
 20
53.979120
 30
0.0
  0
LWPOLYLINE
  5
1b3
100
AcDbEntity
  8
105x35_transparent
 62
7
100
AcDbPolyline
 90
2
 70
1
 10
204.484410
 20
48.719200
 30
0.0
 10
203.692120
 20
52.097130
 30
0.0
  0
SPLINE
  5
1b4
100
AcDbEntity
  8
105x35_transparent
 62
7
100
AcDbSpline
 70
8
 71
3
 72
8
 73
4
 74
0
 40
0
 40
0
 40
0
 40
0
 40
1
 40
1
 40
1
 40
1
 10
195.220490
 20
53.983120
 30
0.0
 10
195.079810
 20
54.594550
 30
0.0
 10
194.992540
 20
55.449960
 30
0.0
 10
194.992540
 20
56.518490
 30
0.0
  0
LWPOLYLINE
  5
1b5
100
AcDbEntity
  8
105x35_transparent
 62
7
100
AcDbPolyline
 90
2
 70
1
 10
195.220490
 20
53.979120
 30
0.0
 10
195.220490
 20
53.983120
 30
0.0
  0
SPLINE
  5
1b6
100
AcDbEntity
  8
105x35_transparent
 62
7
100
AcDbSpline
 70
8
 71
3
 72
8
 73
4
 74
0
 40
0
 40
0
 40
0
 40
0
 40
1
 40
1
 40
1
 40
1
 10
202.246640
 20
65.662490
 30
0.0
 10
203.014790
 20
65.663290
 30
0.0
 10
203.637110
 20
66.285800
 30
0.0
 10
203.637900
 20
67.053750
 30
0.0
  0
LWPOLYLINE
  5
1b7
100
AcDbEntity
  8
105x35_transparent
 62
7
100
AcDbPolyline
 90
3
 70
1
 10
194.992540
 20
56.518490
 30
0.0
 10
194.992540
 20
65.662490
 30
0.0
 10
202.246640
 20
65.662490
 30
0.0
  0
SPLINE
  5
1b8
100
AcDbEntity
  8
105x35_transparent
 62
7
100
AcDbSpline
 70
8
 71
3
 72
8
 73
4
 74
0
 40
0
 40
0
 40
0
 40
0
 40
1
 40
1
 40
1
 40
1
 10
203.637900
 20
70.477980
 30
0.0
 10
203.637110
 20
71.245940
 30
0.0
 10
203.014790
 20
71.868450
 30
0.0
 10
202.246640
 20
71.869240
 30
0.0
  0
LWPOLYLINE
  5
1b9
100
AcDbEntity
  8
105x35_transparent
 62
7
100
AcDbPolyline
 90
2
 70
1
 10
203.637900
 20
67.053750
 30
0.0
 10
203.637900
 20
70.477980
 30
0.0
  0
SPLINE
  5
1ba
100
AcDbEntity
  8
105x35_transparent
 62
7
100
AcDbSpline
 70
8
 71
3
 72
8
 73
4
 74
0
 40
0
 40
0
 40
0
 40
0
 40
1
 40
1
 40
1
 40
1
 10
194.992540
 20
77.542720
 30
0.0
 10
194.991950
 20
78.327690
 30
0.0
 10
194.343310
 20
78.957130
 30
0.0
 10
193.558740
 20
78.933980
 30
0.0
  0
LWPOLYLINE
  5
1bb
100
AcDbEntity
  8
105x35_transparent
 62
7
100
AcDbPolyline
 90
3
 70
1
 10
202.246640
 20
71.869240
 30
0.0
 10
194.992540
 20
71.869240
 30
0.0
 10
194.992540
 20
77.542720
 30
0.0
  0
SPLINE
  5
1bc
100
AcDbEntity
  8
105x35_transparent
 62
7
100
AcDbSpline
 70
8
 71
3
 72
8
 73
4
 74
0
 40
0
 40
0
 40
0
 40
0
 40
1
 40
1
 40
1
 40
1
 10
148.352460
 20
72.437300
 30
0.0
 10
146.853560
 20
72.437300
 30
0.0
 10
145.449830
 20
72.315210
 30
0.0
 10
144.131980
 20
72.066290
 30
0.0
  0
SPLINE
  5
1bd
100
AcDbEntity
  8
105x35_transparent
 62
7
100
AcDbSpline
 70
8
 71
3
 72
8
 73
4
 74
0
 40
0
 40
0
 40
0
 40
0
 40
1
 40
1
 40
1
 40
1
 10
144.131980
 20
72.066290
 30
0.0
 10
144.128980
 20
72.065890
 30
0.0
 10
144.126980
 20
72.066880
 30
0.0
 10
144.123980
 20
72.066290
 30
0.0
  0
SPLINE
  5
1be
100
AcDbEntity
  8
105x35_transparent
 62
7
100
AcDbSpline
 70
8
 71
3
 72
8
 73
4
 74
0
 40
0
 40
0
 40
0
 40
0
 40
1
 40
1
 40
1
 40
1
 10
144.123980
 20
72.066290
 30
0.0
 10
142.848280
 20
71.853370
 30
0.0
 10
141.917470
 20
71.645600
 30
0.0
 10
141.159810
 20
71.308820
 30
0.0
  0
SPLINE
  5
1bf
100
AcDbEntity
  8
105x35_transparent
 62
7
100
AcDbSpline
 70
8
 71
3
 72
8
 73
4
 74
0
 40
0
 40
0
 40
0
 40
0
 40
1
 40
1
 40
1
 40
1
 10
141.159810
 20
71.308820
 30
0.0
 10
140.590130
 20
71.056730
 30
0.0
 10
140.257100
 20
70.456970
 30
0.0
 10
140.344370
 20
69.840190
 30
0.0
  0
LWPOLYLINE
  5
1c0
100
AcDbEntity
  8
105x35_transparent
 62
7
100
AcDbPolyline
 90
3
 70
1
 10
193.558740
 20
78.933980
 30
0.0
 10
193.558740
 20
78.933980
 30
0.0
 10
193.558410
 20
78.933940
 30
0.0
  0
SPLINE
  5
1c1
100
AcDbEntity
  8
105x35_transparent
 62
7
100
AcDbSpline
 70
8
 71
3
 72
8
 73
4
 74
0
 40
0
 40
0
 40
0
 40
0
 40
1
 40
1
 40
1
 40
1
 10
140.827380
 20
66.462460
 30
0.0
 10
140.956590
 20
65.563720
 30
0.0
 10
141.897090
 20
65.026880
 30
0.0
 10
142.736680
 20
65.372570
 30
0.0
  0
SPLINE
  5
1c2
100
AcDbEntity
  8
105x35_transparent
 62
7
100
AcDbSpline
 70
8
 71
3
 72
8
 73
4
 74
0
 40
0
 40
0
 40
0
 40
0
 40
1
 40
1
 40
1
 40
1
 10
142.736680
 20
65.372570
 30
0.0
 10
143.058020
 20
65.504950
 30
0.0
 10
143.743660
 20
65.688970
 30
0.0
 10
144.688320
 20
65.855580
 30
0.0
  0
LWPOLYLINE
  5
1c3
100
AcDbEntity
  8
105x35_transparent
 62
7
100
AcDbPolyline
 90
2
 70
1
 10
140.344370
 20
69.840190
 30
0.0
 10
140.827380
 20
66.462460
 30
0.0
  0
SPLINE
  5
1c4
100
AcDbEntity
  8
105x35_transparent
 62
7
100
AcDbSpline
 70
8
 71
3
 72
8
 73
4
 74
0
 40
0
 40
0
 40
0
 40
0
 40
1
 40
1
 40
1
 40
1
 10
144.719220
 20
65.863280
 30
0.0
 10
145.629840
 20
66.045520
 30
0.0
 10
146.726460
 20
66.145450
 30
0.0
 10
148.000380
 20
66.145450
 30
0.0
  0
SPLINE
  5
1c5
100
AcDbEntity
  8
105x35_transparent
 62
7
100
AcDbSpline
 70
8
 71
3
 72
8
 73
4
 74
0
 40
0
 40
0
 40
0
 40
0
 40
1
 40
1
 40
1
 40
1
 10
148.000380
 20
66.145450
 30
0.0
 10
148.911600
 20
66.145450
 30
0.0
 10
149.553500
 20
65.995060
 30
0.0
 10
149.925110
 20
65.809260
 30
0.0
  0
SPLINE
  5
1c6
100
AcDbEntity
  8
105x35_transparent
 62
7
100
AcDbSpline
 70
8
 71
3
 72
8
 73
4
 74
0
 40
0
 40
0
 40
0
 40
0
 40
1
 40
1
 40
1
 40
1
 10
149.925110
 20
65.809260
 30
0.0
 10
149.946710
 20
65.798380
 30
0.0
 10
149.968610
 20
65.788090
 30
0.0
 10
149.990810
 20
65.778390
 30
0.0
  0
SPLINE
  5
1c7
100
AcDbEntity
  8
105x35_transparent
 62
7
100
AcDbSpline
 70
8
 71
3
 72
8
 73
4
 74
0
 40
0
 40
0
 40
0
 40
0
 40
1
 40
1
 40
1
 40
1
 10
149.990810
 20
65.778390
 30
0.0
 10
150.471640
 20
65.569240
 30
0.0
 10
150.776170
 20
65.318530
 30
0.0
 10
150.999380
 20
65.009250
 30
0.0
  0
SPLINE
  5
1c8
100
AcDbEntity
  8
105x35_transparent
 62
7
100
AcDbSpline
 70
8
 71
3
 72
8
 73
4
 74
0
 40
0
 40
0
 40
0
 40
0
 40
1
 40
1
 40
1
 40
1
 10
150.999380
 20
65.009250
 30
0.0
 10
151.007380
 20
64.998760
 30
0.0
 10
151.014580
 20
64.988470
 30
0.0
 10
151.022680
 20
64.978380
 30
0.0
  0
SPLINE
  5
1c9
100
AcDbEntity
  8
105x35_transparent
 62
7
100
AcDbSpline
 70
8
 71
3
 72
8
 73
4
 74
0
 40
0
 40
0
 40
0
 40
0
 40
1
 40
1
 40
1
 40
1
 10
151.022680
 20
64.978380
 30
0.0
 10
151.270620
 20
64.654060
 30
0.0
 10
151.447320
 20
64.271970
 30
0.0
 10
151.555960
 20
63.772530
 30
0.0
  0
LWPOLYLINE
  5
1ca
100
AcDbEntity
  8
105x35_transparent
 62
7
100
AcDbPolyline
 90
2
 70
1
 10
144.688320
 20
65.855580
 30
0.0
 10
144.719220
 20
65.863280
 30
0.0
  0
SPLINE
  5
1cb
100
AcDbEntity
  8
105x35_transparent
 62
7
100
AcDbSpline
 70
8
 71
3
 72
8
 73
4
 74
0
 40
0
 40
0
 40
0
 40
0
 40
1
 40
1
 40
1
 40
1
 10
151.559960
 20
63.760860
 30
0.0
 10
151.643260
 20
63.394590
 30
0.0
 10
151.656360
 20
63.014270
 30
0.0
 10
151.683630
 20
62.636130
 30
0.0
  0
SPLINE
  5
1cc
100
AcDbEntity
  8
105x35_transparent
 62
7
100
AcDbSpline
 70
8
 71
3
 72
8
 73
4
 74
0
 40
0
 40
0
 40
0
 40
0
 40
1
 40
1
 40
1
 40
1
 10
151.683630
 20
62.636130
 30
0.0
 10
151.683820
 20
62.634730
 30
0.0
 10
151.687630
 20
62.633730
 30
0.0
 10
151.687630
 20
62.632130
 30
0.0
  0
SPLINE
  5
1cd
100
AcDbEntity
  8
105x35_transparent
 62
7
100
AcDbSpline
 70
8
 71
3
 72
8
 73
4
 74
0
 40
0
 40
0
 40
0
 40
0
 40
1
 40
1
 40
1
 40
1
 10
151.687630
 20
62.632130
 30
0.0
 10
151.279810
 20
62.721170
 30
0.0
 10
150.858740
 20
62.781130
 30
0.0
 10
150.423810
 20
62.813780
 30
0.0
  0
SPLINE
  5
1ce
100
AcDbEntity
  8
105x35_transparent
 62
7
100
AcDbSpline
 70
8
 71
3
 72
8
 73
4
 74
0
 40
0
 40
0
 40
0
 40
0
 40
1
 40
1
 40
1
 40
1
 10
150.423810
 20
62.813780
 30
0.0
 10
150.415810
 20
62.814980
 30
0.0
 10
150.408410
 20
62.812790
 30
0.0
 10
150.400610
 20
62.813780
 30
0.0
  0
SPLINE
  5
1cf
100
AcDbEntity
  8
105x35_transparent
 62
7
100
AcDbSpline
 70
8
 71
3
 72
8
 73
4
 74
0
 40
0
 40
0
 40
0
 40
0
 40
1
 40
1
 40
1
 40
1
 10
150.400610
 20
62.813780
 30
0.0
 10
149.916010
 20
62.877490
 30
0.0
 10
149.437740
 20
62.914300
 30
0.0
 10
148.966800
 20
62.914300
 30
0.0
  0
SPLINE
  5
1d0
100
AcDbEntity
  8
105x35_transparent
 62
7
100
AcDbSpline
 70
8
 71
3
 72
8
 73
4
 74
0
 40
0
 40
0
 40
0
 40
0
 40
1
 40
1
 40
1
 40
1
 10
148.966800
 20
62.914300
 30
0.0
 10
147.585040
 20
62.914300
 30
0.0
 10
146.252150
 20
62.776770
 30
0.0
 10
144.974470
 20
62.489260
 30
0.0
  0
SPLINE
  5
1d1
100
AcDbEntity
  8
105x35_transparent
 62
7
100
AcDbSpline
 70
8
 71
3
 72
8
 73
4
 74
0
 40
0
 40
0
 40
0
 40
0
 40
1
 40
1
 40
1
 40
1
 10
144.974470
 20
62.489260
 30
0.0
 10
143.672060
 20
62.196210
 30
0.0
 10
142.491740
 20
61.727240
 30
0.0
 10
141.461400
 20
61.074650
 30
0.0
  0
SPLINE
  5
1d2
100
AcDbEntity
  8
105x35_transparent
 62
7
100
AcDbSpline
 70
8
 71
3
 72
8
 73
4
 74
0
 40
0
 40
0
 40
0
 40
0
 40
1
 40
1
 40
1
 40
1
 10
141.461400
 20
61.074650
 30
0.0
 10
140.400200
 20
60.402470
 30
0.0
 10
139.528360
 20
59.494420
 30
0.0
 10
138.895360
 20
58.404130
 30
0.0
  0
LWPOLYLINE
  5
1d3
100
AcDbEntity
  8
105x35_transparent
 62
7
100
AcDbPolyline
 90
2
 70
1
 10
151.555960
 20
63.772530
 30
0.0
 10
151.559960
 20
63.760860
 30
0.0
  0
SPLINE
  5
1d4
100
AcDbEntity
  8
105x35_transparent
 62
7
100
AcDbSpline
 70
8
 71
3
 72
8
 73
4
 74
0
 40
0
 40
0
 40
0
 40
0
 40
1
 40
1
 40
1
 40
1
 10
138.879960
 20
58.373260
 30
0.0
 10
138.252100
 20
57.228550
 30
0.0
 10
137.964000
 20
55.899820
 30
0.0
 10
137.964000
 20
54.458300
 30
0.0
  0
SPLINE
  5
1d5
100
AcDbEntity
  8
105x35_transparent
 62
7
100
AcDbSpline
 70
8
 71
3
 72
8
 73
4
 74
0
 40
0
 40
0
 40
0
 40
0
 40
1
 40
1
 40
1
 40
1
 10
137.964000
 20
54.458300
 30
0.0
 10
137.964000
 20
52.987690
 30
0.0
 10
138.206200
 20
51.650450
 30
0.0
 10
138.752330
 20
50.485370
 30
0.0
  0
SPLINE
  5
1d6
100
AcDbEntity
  8
105x35_transparent
 62
7
100
AcDbSpline
 70
8
 71
3
 72
8
 73
4
 74
0
 40
0
 40
0
 40
0
 40
0
 40
1
 40
1
 40
1
 40
1
 10
138.752330
 20
50.485370
 30
0.0
 10
139.280660
 20
49.358270
 30
0.0
 10
140.049800
 20
48.397780
 30
0.0
 10
141.024730
 20
47.675540
 30
0.0
  0
LWPOLYLINE
  5
1d7
100
AcDbEntity
  8
105x35_transparent
 62
7
100
AcDbPolyline
 90
2
 70
1
 10
138.895360
 20
58.404130
 30
0.0
 10
138.879960
 20
58.373260
 30
0.0
  0
SPLINE
  5
1d8
100
AcDbEntity
  8
105x35_transparent
 62
7
100
AcDbSpline
 70
8
 71
3
 72
8
 73
4
 74
0
 40
0
 40
0
 40
0
 40
0
 40
1
 40
1
 40
1
 40
1
 10
141.055830
 20
47.656150
 30
0.0
 10
142.006220
 20
46.987330
 30
0.0
 10
143.111350
 20
46.512830
 30
0.0
 10
144.336990
 20
46.214630
 30
0.0
  0
SPLINE
  5
1d9
100
AcDbEntity
  8
105x35_transparent
 62
7
100
AcDbSpline
 70
8
 71
3
 72
8
 73
4
 74
0
 40
0
 40
0
 40
0
 40
0
 40
1
 40
1
 40
1
 40
1
 10
144.336990
 20
46.214630
 30
0.0
 10
145.543440
 20
45.921180
 30
0.0
 10
146.839120
 20
45.781880
 30
0.0
 10
148.221080
 20
45.781880
 30
0.0
  0
SPLINE
  5
1da
100
AcDbEntity
  8
105x35_transparent
 62
7
100
AcDbSpline
 70
8
 71
3
 72
8
 73
4
 74
0
 40
0
 40
0
 40
0
 40
0
 40
1
 40
1
 40
1
 40
1
 10
148.221080
 20
45.781880
 30
0.0
 10
149.155840
 20
45.781880
 30
0.0
 10
150.091990
 20
45.824420
 30
0.0
 10
151.026750
 20
45.913260
 30
0.0
  0
LWPOLYLINE
  5
1db
100
AcDbEntity
  8
105x35_transparent
 62
7
100
AcDbPolyline
 90
2
 70
1
 10
141.024730
 20
47.675540
 30
0.0
 10
141.055830
 20
47.656150
 30
0.0
  0
SPLINE
  5
1dc
100
AcDbEntity
  8
105x35_transparent
 62
7
100
AcDbSpline
 70
8
 71
3
 72
8
 73
4
 74
0
 40
0
 40
0
 40
0
 40
0
 40
1
 40
1
 40
1
 40
1
 10
151.077050
 20
45.917260
 30
0.0
 10
152.008850
 20
45.976030
 30
0.0
 10
152.881470
 20
46.048260
 30
0.0
 10
153.685840
 20
46.137500
 30
0.0
  0
SPLINE
  5
1dd
100
AcDbEntity
  8
105x35_transparent
 62
7
100
AcDbSpline
 70
8
 71
3
 72
8
 73
4
 74
0
 40
0
 40
0
 40
0
 40
0
 40
1
 40
1
 40
1
 40
1
 10
153.685840
 20
46.137500
 30
0.0
 10
154.490990
 20
46.226940
 30
0.0
 10
155.206710
 20
46.318350
 30
0.0
 10
155.834560
 20
46.407990
 30
0.0
  0
SPLINE
  5
1de
100
AcDbEntity
  8
105x35_transparent
 62
7
100
AcDbSpline
 70
8
 71
3
 72
8
 73
4
 74
0
 40
0
 40
0
 40
0
 40
0
 40
1
 40
1
 40
1
 40
1
 10
155.834560
 20
46.407990
 30
0.0
 10
155.851360
 20
46.410190
 30
0.0
 10
155.868160
 20
46.412790
 30
0.0
 10
155.884860
 20
46.415690
 30
0.0
  0
SPLINE
  5
1df
100
AcDbEntity
  8
105x35_transparent
 62
7
100
AcDbSpline
 70
8
 71
3
 72
8
 73
4
 74
0
 40
0
 40
0
 40
0
 40
0
 40
1
 40
1
 40
1
 40
1
 10
155.884860
 20
46.415690
 30
0.0
 10
156.524200
 20
46.532040
 30
0.0
 10
157.017500
 20
46.621880
 30
0.0
 10
157.357250
 20
46.678470
 30
0.0
  0
SPLINE
  5
1e0
100
AcDbEntity
  8
105x35_transparent
 62
7
100
AcDbSpline
 70
8
 71
3
 72
8
 73
4
 74
0
 40
0
 40
0
 40
0
 40
0
 40
1
 40
1
 40
1
 40
1
 10
157.357250
 20
46.678470
 30
0.0
 10
158.028050
 20
46.790660
 30
0.0
 10
158.519770
 20
47.370630
 30
0.0
 10
158.520560
 20
48.050530
 30
0.0
  0
LWPOLYLINE
  5
1e1
100
AcDbEntity
  8
105x35_transparent
 62
7
100
AcDbPolyline
 90
2
 70
1
 10
151.026750
 20
45.913260
 30
0.0
 10
151.077050
 20
45.917260
 30
0.0
  0
SPLINE
  5
1e2
100
AcDbEntity
  8
105x35_transparent
 62
7
100
AcDbSpline
 70
8
 71
3
 72
8
 73
4
 74
0
 40
0
 40
0
 40
0
 40
0
 40
1
 40
1
 40
1
 40
1
 10
158.520560
 20
62.311390
 30
0.0
 10
158.520560
 20
63.702850
 30
0.0
 10
158.366020
 20
64.999130
 30
0.0
 10
158.033590
 20
66.195480
 30
0.0
  0
SPLINE
  5
1e3
100
AcDbEntity
  8
105x35_transparent
 62
7
100
AcDbSpline
 70
8
 71
3
 72
8
 73
4
 74
0
 40
0
 40
0
 40
0
 40
0
 40
1
 40
1
 40
1
 40
1
 10
158.033590
 20
66.195480
 30
0.0
 10
157.691260
 20
67.457530
 30
0.0
 10
157.084980
 20
68.582050
 30
0.0
 10
156.236490
 20
69.507710
 30
0.0
  0
SPLINE
  5
1e4
100
AcDbEntity
  8
105x35_transparent
 62
7
100
AcDbSpline
 70
8
 71
3
 72
8
 73
4
 74
0
 40
0
 40
0
 40
0
 40
0
 40
1
 40
1
 40
1
 40
1
 10
156.236490
 20
69.507710
 30
0.0
 10
155.396110
 20
70.486010
 30
0.0
 10
154.280100
 20
71.213590
 30
0.0
 10
152.970950
 20
71.687310
 30
0.0
  0
SPLINE
  5
1e5
100
AcDbEntity
  8
105x35_transparent
 62
7
100
AcDbSpline
 70
8
 71
3
 72
8
 73
4
 74
0
 40
0
 40
0
 40
0
 40
0
 40
1
 40
1
 40
1
 40
1
 10
152.970950
 20
71.687310
 30
0.0
 10
151.644000
 20
72.207910
 30
0.0
 10
150.107310
 20
72.437050
 30
0.0
 10
148.352550
 20
72.437050
 30
0.0
  0
LWPOLYLINE
  5
1e6
100
AcDbEntity
  8
105x35_transparent
 62
7
100
AcDbPolyline
 90
2
 70
1
 10
158.520560
 20
48.050530
 30
0.0
 10
158.520560
 20
62.311390
 30
0.0
  0
SPLINE
  5
1e7
100
AcDbEntity
  8
105x35_transparent
 62
7
100
AcDbSpline
 70
8
 71
3
 72
8
 73
4
 74
0
 40
0
 40
0
 40
0
 40
0
 40
1
 40
1
 40
1
 40
1
 10
173.326280
 20
72.437300
 30
0.0
 10
171.603580
 20
72.437300
 30
0.0
 10
169.968730
 20
72.109620
 30
0.0
 10
168.468440
 20
71.444170
 30
0.0
  0
SPLINE
  5
1e8
100
AcDbEntity
  8
105x35_transparent
 62
7
100
AcDbSpline
 70
8
 71
3
 72
8
 73
4
 74
0
 40
0
 40
0
 40
0
 40
0
 40
1
 40
1
 40
1
 40
1
 10
168.468440
 20
71.444170
 30
0.0
 10
166.981810
 20
70.813740
 30
0.0
 10
165.665940
 20
69.892630
 30
0.0
 10
164.572680
 20
68.700040
 30
0.0
  0
LWPOLYLINE
  5
1e9
100
AcDbEntity
  8
105x35_transparent
 62
7
100
AcDbPolyline
 90
3
 70
1
 10
148.352550
 20
72.437050
 30
0.0
 10
148.352350
 20
72.437250
 30
0.0
 10
148.352460
 20
72.437300
 30
0.0
  0
SPLINE
  5
1ea
100
AcDbEntity
  8
105x35_transparent
 62
7
100
AcDbSpline
 70
8
 71
3
 72
8
 73
4
 74
0
 40
0
 40
0
 40
0
 40
0
 40
1
 40
1
 40
1
 40
1
 10
164.560980
 20
68.680640
 30
0.0
 10
163.496020
 20
67.482510
 30
0.0
 10
162.673850
 20
66.046530
 30
0.0
 10
162.095260
 20
64.410100
 30
0.0
  0
SPLINE
  5
1eb
100
AcDbEntity
  8
105x35_transparent
 62
7
100
AcDbSpline
 70
8
 71
3
 72
8
 73
4
 74
0
 40
0
 40
0
 40
0
 40
0
 40
1
 40
1
 40
1
 40
1
 10
162.095260
 20
64.410100
 30
0.0
 10
161.506980
 20
62.776250
 30
0.0
 10
161.225800
 20
60.986270
 30
0.0
 10
161.225800
 20
59.065300
 30
0.0
  0
SPLINE
  5
1ec
100
AcDbEntity
  8
105x35_transparent
 62
7
100
AcDbSpline
 70
8
 71
3
 72
8
 73
4
 74
0
 40
0
 40
0
 40
0
 40
0
 40
1
 40
1
 40
1
 40
1
 10
161.225800
 20
59.065300
 30
0.0
 10
161.225800
 20
57.117220
 30
0.0
 10
161.506190
 20
55.314180
 30
0.0
 10
162.095260
 20
53.677750
 30
0.0
  0
SPLINE
  5
1ed
100
AcDbEntity
  8
105x35_transparent
 62
7
100
AcDbSpline
 70
8
 71
3
 72
8
 73
4
 74
0
 40
0
 40
0
 40
0
 40
0
 40
1
 40
1
 40
1
 40
1
 10
162.095260
 20
53.677750
 30
0.0
 10
162.675230
 20
52.066660
 30
0.0
 10
163.499190
 20
50.648290
 30
0.0
 10
164.560980
 20
49.453520
 30
0.0
  0
LWPOLYLINE
  5
1ee
100
AcDbEntity
  8
105x35_transparent
 62
7
100
AcDbPolyline
 90
2
 70
1
 10
164.572680
 20
68.700040
 30
0.0
 10
164.560980
 20
68.680640
 30
0.0
  0
SPLINE
  5
1ef
100
AcDbEntity
  8
105x35_transparent
 62
7
100
AcDbSpline
 70
8
 71
3
 72
8
 73
4
 74
0
 40
0
 40
0
 40
0
 40
0
 40
1
 40
1
 40
1
 40
1
 10
164.572680
 20
49.434130
 30
0.0
 10
165.664750
 20
48.242920
 30
0.0
 10
166.976070
 20
47.307560
 30
0.0
 10
168.460730
 20
46.647650
 30
0.0
  0
LWPOLYLINE
  5
1f0
100
AcDbEntity
  8
105x35_transparent
 62
7
100
AcDbPolyline
 90
2
 70
1
 10
164.560980
 20
49.453520
 30
0.0
 10
164.572680
 20
49.434130
 30
0.0
  0
SPLINE
  5
1f1
100
AcDbEntity
  8
105x35_transparent
 62
7
100
AcDbSpline
 70
8
 71
3
 72
8
 73
4
 74
0
 40
0
 40
0
 40
0
 40
0
 40
1
 40
1
 40
1
 40
1
 10
168.483830
 20
46.635970
 30
0.0
 10
169.980550
 20
46.004160
 30
0.0
 10
171.608670
 20
45.693100
 30
0.0
 10
173.326230
 20
45.693100
 30
0.0
  0
SPLINE
  5
1f2
100
AcDbEntity
  8
105x35_transparent
 62
7
100
AcDbSpline
 70
8
 71
3
 72
8
 73
4
 74
0
 40
0
 40
0
 40
0
 40
0
 40
1
 40
1
 40
1
 40
1
 10
173.326230
 20
45.693100
 30
0.0
 10
175.043980
 20
45.693100
 30
0.0
 10
176.672100
 20
46.004160
 30
0.0
 10
178.168820
 20
46.635970
 30
0.0
  0
LWPOLYLINE
  5
1f3
100
AcDbEntity
  8
105x35_transparent
 62
7
100
AcDbPolyline
 90
2
 70
1
 10
168.460730
 20
46.647650
 30
0.0
 10
168.483830
 20
46.635970
 30
0.0
  0
SPLINE
  5
1f4
100
AcDbEntity
  8
105x35_transparent
 62
7
100
AcDbSpline
 70
8
 71
3
 72
8
 73
4
 74
0
 40
0
 40
0
 40
0
 40
0
 40
1
 40
1
 40
1
 40
1
 10
178.192020
 20
46.647650
 30
0.0
 10
179.680640
 20
47.309340
 30
0.0
 10
180.979290
 20
48.254390
 30
0.0
 10
182.045250
 20
49.453520
 30
0.0
  0
SPLINE
  5
1f5
100
AcDbEntity
  8
105x35_transparent
 62
7
100
AcDbSpline
 70
8
 71
3
 72
8
 73
4
 74
0
 40
0
 40
0
 40
0
 40
0
 40
1
 40
1
 40
1
 40
1
 10
182.045250
 20
49.453520
 30
0.0
 10
183.134750
 20
50.646700
 30
0.0
 10
183.973540
 20
52.067050
 30
0.0
 10
184.553510
 20
53.677750
 30
0.0
  0
SPLINE
  5
1f6
100
AcDbEntity
  8
105x35_transparent
 62
7
100
AcDbSpline
 70
8
 71
3
 72
8
 73
4
 74
0
 40
0
 40
0
 40
0
 40
0
 40
1
 40
1
 40
1
 40
1
 10
184.553510
 20
53.677750
 30
0.0
 10
185.141790
 20
55.312200
 30
0.0
 10
185.426930
 20
57.115240
 30
0.0
 10
185.426930
 20
59.065100
 30
0.0
  0
SPLINE
  5
1f7
100
AcDbEntity
  8
105x35_transparent
 62
7
100
AcDbSpline
 70
8
 71
3
 72
8
 73
4
 74
0
 40
0
 40
0
 40
0
 40
0
 40
1
 40
1
 40
1
 40
1
 10
185.426930
 20
59.065100
 30
0.0
 10
185.426930
 20
60.988250
 30
0.0
 10
185.141000
 20
62.778230
 30
0.0
 10
184.553510
 20
64.410100
 30
0.0
  0
SPLINE
  5
1f8
100
AcDbEntity
  8
105x35_transparent
 62
7
100
AcDbSpline
 70
8
 71
3
 72
8
 73
4
 74
0
 40
0
 40
0
 40
0
 40
0
 40
1
 40
1
 40
1
 40
1
 10
184.553510
 20
64.410100
 30
0.0
 10
183.974920
 20
66.045940
 30
0.0
 10
183.137910
 20
67.483900
 30
0.0
 10
182.045250
 20
68.680640
 30
0.0
  0
SPLINE
  5
1f9
100
AcDbEntity
  8
105x35_transparent
 62
7
100
AcDbSpline
 70
8
 71
3
 72
8
 73
4
 74
0
 40
0
 40
0
 40
0
 40
0
 40
1
 40
1
 40
1
 40
1
 10
182.045250
 20
68.680640
 30
0.0
 10
180.977510
 20
69.881940
 30
0.0
 10
179.672130
 20
70.811960
 30
0.0
 10
178.180550
 20
71.443970
 30
0.0
  0
SPLINE
  5
1fa
100
AcDbEntity
  8
105x35_transparent
 62
7
100
AcDbSpline
 70
8
 71
3
 72
8
 73
4
 74
0
 40
0
 40
0
 40
0
 40
0
 40
1
 40
1
 40
1
 40
1
 10
178.180550
 20
71.443970
 30
0.0
 10
176.681050
 20
72.108430
 30
0.0
 10
175.047790
 20
72.437100
 30
0.0
 10
173.326280
 20
72.437100
 30
0.0
  0
LWPOLYLINE
  5
1fb
100
AcDbEntity
  8
105x35_transparent
 62
7
100
AcDbPolyline
 90
2
 70
1
 10
178.168820
 20
46.635970
 30
0.0
 10
178.192020
 20
46.647650
 30
0.0
  0
SPLINE
  5
1fc
100
AcDbEntity
  8
105x35_transparent
 62
7
100
AcDbSpline
 70
8
 71
3
 72
8
 73
4
 74
0
 40
0
 40
0
 40
0
 40
0
 40
1
 40
1
 40
1
 40
1
 10
275.673600
 20
72.352220
 30
0.0
 10
273.591960
 20
72.352220
 30
0.0
 10
271.735890
 20
72.214690
 30
0.0
 10
270.087590
 20
71.934900
 30
0.0
  0
LWPOLYLINE
  5
1fd
100
AcDbEntity
  8
105x35_transparent
 62
7
100
AcDbPolyline
 90
3
 70
1
 10
173.326280
 20
72.437100
 30
0.0
 10
173.326280
 20
72.437300
 30
0.0
 10
173.326280
 20
72.437300
 30
0.0
  0
SPLINE
  5
1fe
100
AcDbEntity
  8
105x35_transparent
 62
7
100
AcDbSpline
 70
8
 71
3
 72
8
 73
4
 74
0
 40
0
 40
0
 40
0
 40
0
 40
1
 40
1
 40
1
 40
1
 10
270.083590
 20
71.934900
 30
0.0
 10
268.542140
 20
71.667960
 30
0.0
 10
267.285640
 20
71.417060
 30
0.0
 10
266.296260
 20
71.169710
 30
0.0
  0
SPLINE
  5
1ff
100
AcDbEntity
  8
105x35_transparent
 62
7
100
AcDbSpline
 70
8
 71
3
 72
8
 73
4
 74
0
 40
0
 40
0
 40
0
 40
0
 40
1
 40
1
 40
1
 40
1
 10
266.296260
 20
71.169710
 30
0.0
 10
265.676910
 20
71.014580
 30
0.0
 10
265.241590
 20
70.456770
 30
0.0
 10
265.241590
 20
69.817040
 30
0.0
  0
LWPOLYLINE
  5
200
100
AcDbEntity
  8
105x35_transparent
 62
7
100
AcDbPolyline
 90
2
 70
1
 10
270.087590
 20
71.934900
 30
0.0
 10
270.083590
 20
71.934900
 30
0.0
  0
SPLINE
  5
201
100
AcDbEntity
  8
105x35_transparent
 62
7
100
AcDbSpline
 70
8
 71
3
 72
8
 73
4
 74
0
 40
0
 40
0
 40
0
 40
0
 40
1
 40
1
 40
1
 40
1
 10
265.241590
 20
47.656610
 30
0.0
 10
265.241590
 20
46.888460
 30
0.0
 10
265.864890
 20
46.266150
 30
0.0
 10
266.632650
 20
46.265350
 30
0.0
  0
LWPOLYLINE
  5
202
100
AcDbEntity
  8
105x35_transparent
 62
7
100
AcDbPolyline
 90
2
 70
1
 10
265.241590
 20
69.817040
 30
0.0
 10
265.241590
 20
47.656610
 30
0.0
  0
SPLINE
  5
203
100
AcDbEntity
  8
105x35_transparent
 62
7
100
AcDbSpline
 70
8
 71
3
 72
8
 73
4
 74
0
 40
0
 40
0
 40
0
 40
0
 40
1
 40
1
 40
1
 40
1
 10
270.714810
 20
46.265350
 30
0.0
 10
271.482570
 20
46.266150
 30
0.0
 10
272.103890
 20
46.888460
 30
0.0
 10
272.105870
 20
47.656610
 30
0.0
  0
LWPOLYLINE
  5
204
100
AcDbEntity
  8
105x35_transparent
 62
7
100
AcDbPolyline
 90
2
 70
1
 10
266.632650
 20
46.265350
 30
0.0
 10
270.714810
 20
46.265350
 30
0.0
  0
SPLINE
  5
205
100
AcDbEntity
  8
105x35_transparent
 62
7
100
AcDbSpline
 70
8
 71
3
 72
8
 73
4
 74
0
 40
0
 40
0
 40
0
 40
0
 40
1
 40
1
 40
1
 40
1
 10
272.105870
 20
65.735870
 30
0.0
 10
272.287920
 20
65.757630
 30
0.0
 10
272.454130
 20
65.783160
 30
0.0
 10
272.657940
 20
65.797600
 30
0.0
  0
SPLINE
  5
206
100
AcDbEntity
  8
105x35_transparent
 62
7
100
AcDbSpline
 70
8
 71
3
 72
8
 73
4
 74
0
 40
0
 40
0
 40
0
 40
0
 40
1
 40
1
 40
1
 40
1
 10
272.657940
 20
65.797600
 30
0.0
 10
272.685640
 20
65.799400
 30
0.0
 10
272.715340
 20
65.802000
 30
0.0
 10
272.743040
 20
65.805300
 30
0.0
  0
SPLINE
  5
207
100
AcDbEntity
  8
105x35_transparent
 62
7
100
AcDbSpline
 70
8
 71
3
 72
8
 73
4
 74
0
 40
0
 40
0
 40
0
 40
0
 40
1
 40
1
 40
1
 40
1
 10
272.743040
 20
65.805300
 30
0.0
 10
273.146710
 20
65.859320
 30
0.0
 10
273.564220
 20
65.897910
 30
0.0
 10
274.003510
 20
65.925210
 30
0.0
  0
SPLINE
  5
208
100
AcDbEntity
  8
105x35_transparent
 62
7
100
AcDbSpline
 70
8
 71
3
 72
8
 73
4
 74
0
 40
0
 40
0
 40
0
 40
0
 40
1
 40
1
 40
1
 40
1
 10
274.003510
 20
65.925210
 30
0.0
 10
274.442790
 20
65.952720
 30
0.0
 10
274.856350
 20
65.967760
 30
0.0
 10
275.236270
 20
65.967760
 30
0.0
  0
SPLINE
  5
209
100
AcDbEntity
  8
105x35_transparent
 62
7
100
AcDbSpline
 70
8
 71
3
 72
8
 73
4
 74
0
 40
0
 40
0
 40
0
 40
0
 40
1
 40
1
 40
1
 40
1
 10
275.236270
 20
65.967760
 30
0.0
 10
276.049530
 20
65.967760
 30
0.0
 10
276.613480
 20
65.827860
 30
0.0
 10
276.959760
 20
65.647000
 30
0.0
  0
SPLINE
  5
20a
100
AcDbEntity
  8
105x35_transparent
 62
7
100
AcDbSpline
 70
8
 71
3
 72
8
 73
4
 74
0
 40
0
 40
0
 40
0
 40
0
 40
1
 40
1
 40
1
 40
1
 10
276.959760
 20
65.647000
 30
0.0
 10
276.981560
 20
65.634730
 30
0.0
 10
277.005260
 20
65.623060
 30
0.0
 10
277.029060
 20
65.612170
 30
0.0
  0
SPLINE
  5
20b
100
AcDbEntity
  8
105x35_transparent
 62
7
100
AcDbSpline
 70
8
 71
3
 72
8
 73
4
 74
0
 40
0
 40
0
 40
0
 40
0
 40
1
 40
1
 40
1
 40
1
 10
277.029060
 20
65.612170
 30
0.0
 10
277.407000
 20
65.440620
 30
0.0
 10
277.652360
 20
65.213460
 30
0.0
 10
277.875960
 20
64.804450
 30
0.0
  0
SPLINE
  5
20c
100
AcDbEntity
  8
105x35_transparent
 62
7
100
AcDbSpline
 70
8
 71
3
 72
8
 73
4
 74
0
 40
0
 40
0
 40
0
 40
0
 40
1
 40
1
 40
1
 40
1
 10
277.875960
 20
64.804450
 30
0.0
 10
277.883960
 20
64.791390
 30
0.0
 10
277.891760
 20
64.778530
 30
0.0
 10
277.899760
 20
64.765860
 30
0.0
  0
SPLINE
  5
20d
100
AcDbEntity
  8
105x35_transparent
 62
7
100
AcDbSpline
 70
8
 71
3
 72
8
 73
4
 74
0
 40
0
 40
0
 40
0
 40
0
 40
1
 40
1
 40
1
 40
1
 10
277.899760
 20
64.765860
 30
0.0
 10
278.162930
 20
64.317480
 30
0.0
 10
278.382570
 20
63.688040
 30
0.0
 10
278.509210
 20
62.852810
 30
0.0
  0
SPLINE
  5
20e
100
AcDbEntity
  8
105x35_transparent
 62
7
100
AcDbSpline
 70
8
 71
3
 72
8
 73
4
 74
0
 40
0
 40
0
 40
0
 40
0
 40
1
 40
1
 40
1
 40
1
 10
278.509210
 20
62.852810
 30
0.0
 10
278.641790
 20
61.981560
 30
0.0
 10
278.715000
 20
60.885730
 30
0.0
 10
278.715000
 20
59.590840
 30
0.0
  0
LWPOLYLINE
  5
20f
100
AcDbEntity
  8
105x35_transparent
 62
7
100
AcDbPolyline
 90
2
 70
1
 10
272.105870
 20
47.656610
 30
0.0
 10
272.105870
 20
65.735870
 30
0.0
  0
SPLINE
  5
210
100
AcDbEntity
  8
105x35_transparent
 62
7
100
AcDbSpline
 70
8
 71
3
 72
8
 73
4
 74
0
 40
0
 40
0
 40
0
 40
0
 40
1
 40
1
 40
1
 40
1
 10
278.715000
 20
47.656590
 30
0.0
 10
278.715000
 20
46.888440
 30
0.0
 10
279.338310
 20
46.266130
 30
0.0
 10
280.106060
 20
46.265140
 30
0.0
  0
LWPOLYLINE
  5
211
100
AcDbEntity
  8
105x35_transparent
 62
7
100
AcDbPolyline
 90
2
 70
1
 10
278.715000
 20
59.590840
 30
0.0
 10
278.715000
 20
47.656590
 30
0.0
  0
SPLINE
  5
212
100
AcDbEntity
  8
105x35_transparent
 62
7
100
AcDbSpline
 70
8
 71
3
 72
8
 73
4
 74
0
 40
0
 40
0
 40
0
 40
0
 40
1
 40
1
 40
1
 40
1
 10
284.186250
 20
46.265140
 30
0.0
 10
284.954000
 20
46.266130
 30
0.0
 10
285.577310
 20
46.888440
 30
0.0
 10
285.577310
 20
47.656590
 30
0.0
  0
LWPOLYLINE
  5
213
100
AcDbEntity
  8
105x35_transparent
 62
7
100
AcDbPolyline
 90
2
 70
1
 10
280.106060
 20
46.265140
 30
0.0
 10
284.186250
 20
46.265140
 30
0.0
  0
SPLINE
  5
214
100
AcDbEntity
  8
105x35_transparent
 62
7
100
AcDbSpline
 70
8
 71
3
 72
8
 73
4
 74
0
 40
0
 40
0
 40
0
 40
0
 40
1
 40
1
 40
1
 40
1
 10
285.577310
 20
60.471970
 30
0.0
 10
285.577310
 20
61.519920
 30
0.0
 10
285.517910
 20
62.529080
 30
0.0
 10
285.393290
 20
63.502030
 30
0.0
  0
SPLINE
  5
215
100
AcDbEntity
  8
105x35_transparent
 62
7
100
AcDbSpline
 70
8
 71
3
 72
8
 73
4
 74
0
 40
0
 40
0
 40
0
 40
0
 40
1
 40
1
 40
1
 40
1
 10
285.393290
 20
63.502030
 30
0.0
 10
285.318090
 20
64.076470
 30
0.0
 10
285.171670
 20
64.583220
 30
0.0
 10
285.052940
 20
65.113530
 30
0.0
  0
SPLINE
  5
216
100
AcDbEntity
  8
105x35_transparent
 62
7
100
AcDbSpline
 70
8
 71
3
 72
8
 73
4
 74
0
 40
0
 40
0
 40
0
 40
0
 40
1
 40
1
 40
1
 40
1
 10
285.052940
 20
65.113530
 30
0.0
 10
285.290390
 20
65.246500
 30
0.0
 10
285.363600
 20
65.320700
 30
0.0
 10
285.802890
 20
65.496220
 30
0.0
  0
LWPOLYLINE
  5
217
100
AcDbEntity
  8
105x35_transparent
 62
7
100
AcDbPolyline
 90
2
 70
1
 10
285.577310
 20
47.656590
 30
0.0
 10
285.577310
 20
60.471970
 30
0.0
  0
SPLINE
  5
218
100
AcDbEntity
  8
105x35_transparent
 62
7
100
AcDbSpline
 70
8
 71
3
 72
8
 73
4
 74
0
 40
0
 40
0
 40
0
 40
0
 40
1
 40
1
 40
1
 40
1
 10
285.822690
 20
65.507890
 30
0.0
 10
286.495470
 20
65.790260
 30
0.0
 10
287.461100
 20
65.967760
 30
0.0
 10
288.709690
 20
65.967760
 30
0.0
  0
SPLINE
  5
219
100
AcDbEntity
  8
105x35_transparent
 62
7
100
AcDbSpline
 70
8
 71
3
 72
8
 73
4
 74
0
 40
0
 40
0
 40
0
 40
0
 40
1
 40
1
 40
1
 40
1
 10
288.709690
 20
65.967760
 30
0.0
 10
289.556600
 20
65.967760
 30
0.0
 10
290.142310
 20
65.823110
 30
0.0
 10
290.478690
 20
65.647000
 30
0.0
  0
SPLINE
  5
21a
100
AcDbEntity
  8
105x35_transparent
 62
7
100
AcDbSpline
 70
8
 71
3
 72
8
 73
4
 74
0
 40
0
 40
0
 40
0
 40
0
 40
1
 40
1
 40
1
 40
1
 10
290.478690
 20
65.647000
 30
0.0
 10
290.502490
 20
65.634730
 30
0.0
 10
290.526190
 20
65.623260
 30
0.0
 10
290.547990
 20
65.612170
 30
0.0
  0
SPLINE
  5
21b
100
AcDbEntity
  8
105x35_transparent
 62
7
100
AcDbSpline
 70
8
 71
3
 72
8
 73
4
 74
0
 40
0
 40
0
 40
0
 40
0
 40
1
 40
1
 40
1
 40
1
 10
290.547990
 20
65.612170
 30
0.0
 10
290.925930
 20
65.440620
 30
0.0
 10
291.171300
 20
65.213650
 30
0.0
 10
291.394900
 20
64.804450
 30
0.0
  0
SPLINE
  5
21c
100
AcDbEntity
  8
105x35_transparent
 62
7
100
AcDbSpline
 70
8
 71
3
 72
8
 73
4
 74
0
 40
0
 40
0
 40
0
 40
0
 40
1
 40
1
 40
1
 40
1
 10
291.394900
 20
64.804450
 30
0.0
 10
291.402900
 20
64.791390
 30
0.0
 10
291.410700
 20
64.778530
 30
0.0
 10
291.418600
 20
64.765860
 30
0.0
  0
SPLINE
  5
21d
100
AcDbEntity
  8
105x35_transparent
 62
7
100
AcDbSpline
 70
8
 71
3
 72
8
 73
4
 74
0
 40
0
 40
0
 40
0
 40
0
 40
1
 40
1
 40
1
 40
1
 10
291.418600
 20
64.765860
 30
0.0
 10
291.675840
 20
64.329750
 30
0.0
 10
291.879650
 20
63.718510
 30
0.0
 10
291.978590
 20
62.895350
 30
0.0
  0
SPLINE
  5
21e
100
AcDbEntity
  8
105x35_transparent
 62
7
100
AcDbSpline
 70
8
 71
3
 72
8
 73
4
 74
0
 40
0
 40
0
 40
0
 40
0
 40
1
 40
1
 40
1
 40
1
 10
291.978590
 20
62.895350
 30
0.0
 10
291.980590
 20
62.881100
 30
0.0
 10
291.984590
 20
62.866860
 30
0.0
 10
291.986590
 20
62.852810
 30
0.0
  0
SPLINE
  5
21f
100
AcDbEntity
  8
105x35_transparent
 62
7
100
AcDbSpline
 70
8
 71
3
 72
8
 73
4
 74
0
 40
0
 40
0
 40
0
 40
0
 40
1
 40
1
 40
1
 40
1
 10
291.986590
 20
62.852810
 30
0.0
 10
292.119170
 20
61.981560
 30
0.0
 10
292.192380
 20
60.885730
 30
0.0
 10
292.192380
 20
59.591030
 30
0.0
  0
LWPOLYLINE
  5
220
100
AcDbEntity
  8
105x35_transparent
 62
7
100
AcDbPolyline
 90
2
 70
1
 10
285.802890
 20
65.496220
 30
0.0
 10
285.822690
 20
65.507890
 30
0.0
  0
SPLINE
  5
221
100
AcDbEntity
  8
105x35_transparent
 62
7
100
AcDbSpline
 70
8
 71
3
 72
8
 73
4
 74
0
 40
0
 40
0
 40
0
 40
0
 40
1
 40
1
 40
1
 40
1
 10
292.192380
 20
47.656590
 30
0.0
 10
292.192380
 20
46.888640
 30
0.0
 10
292.815690
 20
46.266130
 30
0.0
 10
293.583440
 20
46.265330
 30
0.0
  0
LWPOLYLINE
  5
222
100
AcDbEntity
  8
105x35_transparent
 62
7
100
AcDbPolyline
 90
2
 70
1
 10
292.192380
 20
59.591030
 30
0.0
 10
292.192380
 20
47.656590
 30
0.0
  0
SPLINE
  5
223
100
AcDbEntity
  8
105x35_transparent
 62
7
100
AcDbSpline
 70
8
 71
3
 72
8
 73
4
 74
0
 40
0
 40
0
 40
0
 40
0
 40
1
 40
1
 40
1
 40
1
 10
297.663630
 20
46.265330
 30
0.0
 10
298.431380
 20
46.266130
 30
0.0
 10
299.054690
 20
46.888640
 30
0.0
 10
299.054690
 20
47.656590
 30
0.0
  0
LWPOLYLINE
  5
224
100
AcDbEntity
  8
105x35_transparent
 62
7
100
AcDbPolyline
 90
2
 70
1
 10
293.583440
 20
46.265330
 30
0.0
 10
297.663630
 20
46.265330
 30
0.0
  0
SPLINE
  5
225
100
AcDbEntity
  8
105x35_transparent
 62
7
100
AcDbSpline
 70
8
 71
3
 72
8
 73
4
 74
0
 40
0
 40
0
 40
0
 40
0
 40
1
 40
1
 40
1
 40
1
 10
299.054690
 20
60.472170
 30
0.0
 10
299.054690
 20
62.055570
 30
0.0
 10
298.935970
 20
63.530130
 30
0.0
 10
298.688620
 20
64.904970
 30
0.0
  0
SPLINE
  5
226
100
AcDbEntity
  8
105x35_transparent
 62
7
100
AcDbSpline
 70
8
 71
3
 72
8
 73
4
 74
0
 40
0
 40
0
 40
0
 40
0
 40
1
 40
1
 40
1
 40
1
 10
298.688620
 20
64.904970
 30
0.0
 10
298.688620
 20
64.906770
 30
0.0
 10
298.684620
 20
64.907170
 30
0.0
 10
298.684620
 20
64.908970
 30
0.0
  0
SPLINE
  5
227
100
AcDbEntity
  8
105x35_transparent
 62
7
100
AcDbSpline
 70
8
 71
3
 72
8
 73
4
 74
0
 40
0
 40
0
 40
0
 40
0
 40
1
 40
1
 40
1
 40
1
 10
298.684620
 20
64.908970
 30
0.0
 10
298.453110
 20
66.359390
 30
0.0
 10
297.964360
 20
67.671700
 30
0.0
 10
297.196600
 20
68.793060
 30
0.0
  0
SPLINE
  5
228
100
AcDbEntity
  8
105x35_transparent
 62
7
100
AcDbSpline
 70
8
 71
3
 72
8
 73
4
 74
0
 40
0
 40
0
 40
0
 40
0
 40
1
 40
1
 40
1
 40
1
 10
297.196600
 20
68.793060
 30
0.0
 10
296.432810
 20
69.951420
 30
0.0
 10
295.336580
 20
70.843830
 30
0.0
 10
294.026650
 20
71.432710
 30
0.0
  0
SPLINE
  5
229
100
AcDbEntity
  8
105x35_transparent
 62
7
100
AcDbSpline
 70
8
 71
3
 72
8
 73
4
 74
0
 40
0
 40
0
 40
0
 40
0
 40
1
 40
1
 40
1
 40
1
 10
294.026650
 20
71.432710
 30
0.0
 10
292.663290
 20
72.075210
 30
0.0
 10
291.040710
 20
72.352430
 30
0.0
 10
289.149020
 20
72.352430
 30
0.0
  0
SPLINE
  5
22a
100
AcDbEntity
  8
105x35_transparent
 62
7
100
AcDbSpline
 70
8
 71
3
 72
8
 73
4
 74
0
 40
0
 40
0
 40
0
 40
0
 40
1
 40
1
 40
1
 40
1
 10
289.149020
 20
72.352430
 30
0.0
 10
288.141840
 20
72.352430
 30
0.0
 10
287.180170
 20
72.235090
 30
0.0
 10
286.269940
 20
72.000810
 30
0.0
  0
SPLINE
  5
22b
100
AcDbEntity
  8
105x35_transparent
 62
7
100
AcDbSpline
 70
8
 71
3
 72
8
 73
4
 74
0
 40
0
 40
0
 40
0
 40
0
 40
1
 40
1
 40
1
 40
1
 10
286.269940
 20
72.000810
 30
0.0
 10
285.438870
 20
71.814210
 30
0.0
 10
284.663200
 20
71.584480
 30
0.0
 10
283.946890
 20
71.293600
 30
0.0
  0
SPLINE
  5
22c
100
AcDbEntity
  8
105x35_transparent
 62
7
100
AcDbSpline
 70
8
 71
3
 72
8
 73
4
 74
0
 40
0
 40
0
 40
0
 40
0
 40
1
 40
1
 40
1
 40
1
 10
283.946890
 20
71.293600
 30
0.0
 10
283.254330
 20
71.039930
 30
0.0
 10
282.644870
 20
70.762710
 30
0.0
 10
282.112590
 20
70.443330
 30
0.0
  0
SPLINE
  5
22d
100
AcDbEntity
  8
105x35_transparent
 62
7
100
AcDbSpline
 70
8
 71
3
 72
8
 73
4
 74
0
 40
0
 40
0
 40
0
 40
0
 40
1
 40
1
 40
1
 40
1
 10
282.112590
 20
70.443330
 30
0.0
 10
282.001780
 20
70.376650
 30
0.0
 10
281.950330
 20
70.337270
 30
0.0
 10
281.853370
 20
70.277120
 30
0.0
  0
SPLINE
  5
22e
100
AcDbEntity
  8
105x35_transparent
 62
7
100
AcDbSpline
 70
8
 71
3
 72
8
 73
4
 74
0
 40
0
 40
0
 40
0
 40
0
 40
1
 40
1
 40
1
 40
1
 10
281.853370
 20
70.277120
 30
0.0
 10
281.228080
 20
70.778140
 30
0.0
 10
280.646330
 20
71.337140
 30
0.0
 10
279.878580
 20
71.633750
 30
0.0
  0
SPLINE
  5
22f
100
AcDbEntity
  8
105x35_transparent
 62
7
100
AcDbSpline
 70
8
 71
3
 72
8
 73
4
 74
0
 40
0
 40
0
 40
0
 40
0
 40
1
 40
1
 40
1
 40
1
 10
279.878580
 20
71.633750
 30
0.0
 10
278.663620
 20
72.132000
 30
0.0
 10
277.262670
 20
72.352430
 30
0.0
 10
275.673730
 20
72.352430
 30
0.0
  0
LWPOLYLINE
  5
230
100
AcDbEntity
  8
105x35_transparent
 62
7
100
AcDbPolyline
 90
2
 70
1
 10
299.054690
 20
47.656590
 30
0.0
 10
299.054690
 20
60.472170
 30
0.0
  0
SPLINE
  5
231
100
AcDbEntity
  8
105x35_transparent
 62
7
100
AcDbSpline
 70
8
 71
3
 72
8
 73
4
 74
0
 40
0
 40
0
 40
0
 40
0
 40
1
 40
1
 40
1
 40
1
 10
207.425100
 20
71.869200
 30
0.0
 10
206.656950
 20
71.868410
 30
0.0
 10
206.034630
 20
71.245900
 30
0.0
 10
206.033640
 20
70.477940
 30
0.0
  0
LWPOLYLINE
  5
232
100
AcDbEntity
  8
105x35_transparent
 62
7
100
AcDbPolyline
 90
3
 70
1
 10
275.673730
 20
72.352430
 30
0.0
 10
275.673730
 20
72.352240
 30
0.0
 10
275.673600
 20
72.352220
 30
0.0
  0
SPLINE
  5
233
100
AcDbEntity
  8
105x35_transparent
 62
7
100
AcDbSpline
 70
8
 71
3
 72
8
 73
4
 74
0
 40
0
 40
0
 40
0
 40
0
 40
1
 40
1
 40
1
 40
1
 10
206.033640
 20
47.656610
 30
0.0
 10
206.034630
 20
46.888460
 30
0.0
 10
206.656950
 20
46.266150
 30
0.0
 10
207.425100
 20
46.265350
 30
0.0
  0
LWPOLYLINE
  5
234
100
AcDbEntity
  8
105x35_transparent
 62
7
100
AcDbPolyline
 90
2
 70
1
 10
206.033640
 20
70.477940
 30
0.0
 10
206.033640
 20
47.656610
 30
0.0
  0
SPLINE
  5
235
100
AcDbEntity
  8
105x35_transparent
 62
7
100
AcDbSpline
 70
8
 71
3
 72
8
 73
4
 74
0
 40
0
 40
0
 40
0
 40
0
 40
1
 40
1
 40
1
 40
1
 10
211.510030
 20
46.265350
 30
0.0
 10
212.278180
 20
46.266150
 30
0.0
 10
212.900500
 20
46.888460
 30
0.0
 10
212.901290
 20
47.656610
 30
0.0
  0
LWPOLYLINE
  5
236
100
AcDbEntity
  8
105x35_transparent
 62
7
100
AcDbPolyline
 90
2
 70
1
 10
207.425100
 20
46.265350
 30
0.0
 10
211.510030
 20
46.265350
 30
0.0
  0
SPLINE
  5
237
100
AcDbEntity
  8
105x35_transparent
 62
7
100
AcDbSpline
 70
8
 71
3
 72
8
 73
4
 74
0
 40
0
 40
0
 40
0
 40
0
 40
1
 40
1
 40
1
 40
1
 10
212.901290
 20
70.477940
 30
0.0
 10
212.900500
 20
71.245900
 30
0.0
 10
212.278180
 20
71.868410
 30
0.0
 10
211.510030
 20
71.869200
 30
0.0
  0
LWPOLYLINE
  5
238
100
AcDbEntity
  8
105x35_transparent
 62
7
100
AcDbPolyline
 90
2
 70
1
 10
212.901290
 20
47.656610
 30
0.0
 10
212.901290
 20
70.477940
 30
0.0
  0
SPLINE
  5
239
100
AcDbEntity
  8
105x35_transparent
 62
7
100
AcDbSpline
 70
8
 71
3
 72
8
 73
4
 74
0
 40
0
 40
0
 40
0
 40
0
 40
1
 40
1
 40
1
 40
1
 10
241.176060
 20
71.869200
 30
0.0
 10
240.408300
 20
71.868410
 30
0.0
 10
239.785000
 20
71.245900
 30
0.0
 10
239.785000
 20
70.477940
 30
0.0
  0
LWPOLYLINE
  5
23a
100
AcDbEntity
  8
105x35_transparent
 62
7
100
AcDbPolyline
 90
3
 70
1
 10
211.510030
 20
71.869200
 30
0.0
 10
207.425100
 20
71.869200
 30
0.0
 10
207.425100
 20
71.869200
 30
0.0
  0
SPLINE
  5
23b
100
AcDbEntity
  8
105x35_transparent
 62
7
100
AcDbSpline
 70
8
 71
3
 72
8
 73
4
 74
0
 40
0
 40
0
 40
0
 40
0
 40
1
 40
1
 40
1
 40
1
 10
239.785000
 20
57.662370
 30
0.0
 10
239.785000
 20
56.015060
 30
0.0
 10
239.953190
 20
54.482310
 30
0.0
 10
240.305410
 20
53.067310
 30
0.0
  0
LWPOLYLINE
  5
23c
100
AcDbEntity
  8
105x35_transparent
 62
7
100
AcDbPolyline
 90
2
 70
1
 10
239.785000
 20
70.477940
 30
0.0
 10
239.785000
 20
57.662370
 30
0.0
  0
SPLINE
  5
23d
100
AcDbEntity
  8
105x35_transparent
 62
7
100
AcDbSpline
 70
8
 71
3
 72
8
 73
4
 74
0
 40
0
 40
0
 40
0
 40
0
 40
1
 40
1
 40
1
 40
1
 10
240.309410
 20
53.059610
 30
0.0
 10
240.673500
 20
51.636100
 30
0.0
 10
241.284930
 20
50.349520
 30
0.0
 10
242.141730
 20
49.252690
 30
0.0
  0
SPLINE
  5
23e
100
AcDbEntity
  8
105x35_transparent
 62
7
100
AcDbSpline
 70
8
 71
3
 72
8
 73
4
 74
0
 40
0
 40
0
 40
0
 40
0
 40
1
 40
1
 40
1
 40
1
 10
242.141730
 20
49.252690
 30
0.0
 10
243.024250
 20
48.123030
 30
0.0
 10
244.197650
 20
47.249800
 30
0.0
 10
245.578820
 20
46.644110
 30
0.0
  0
LWPOLYLINE
  5
23f
100
AcDbEntity
  8
105x35_transparent
 62
7
100
AcDbPolyline
 90
2
 70
1
 10
240.305410
 20
53.067310
 30
0.0
 10
240.309410
 20
53.059610
 30
0.0
  0
SPLINE
  5
240
100
AcDbEntity
  8
105x35_transparent
 62
7
100
AcDbSpline
 70
8
 71
3
 72
8
 73
4
 74
0
 40
0
 40
0
 40
0
 40
0
 40
1
 40
1
 40
1
 40
1
 10
245.604520
 20
46.632430
 30
0.0
 10
247.027250
 20
46.042760
 30
0.0
 10
248.683460
 20
45.782160
 30
0.0
 10
250.571190
 20
45.782160
 30
0.0
  0
SPLINE
  5
241
100
AcDbEntity
  8
105x35_transparent
 62
7
100
AcDbSpline
 70
8
 71
3
 72
8
 73
4
 74
0
 40
0
 40
0
 40
0
 40
0
 40
1
 40
1
 40
1
 40
1
 10
250.571190
 20
45.782160
 30
0.0
 10
252.648880
 20
45.782160
 30
0.0
 10
254.491090
 20
45.914940
 30
0.0
 10
256.113670
 20
46.195720
 30
0.0
  0
SPLINE
  5
242
100
AcDbEntity
  8
105x35_transparent
 62
7
100
AcDbSpline
 70
8
 71
3
 72
8
 73
4
 74
0
 40
0
 40
0
 40
0
 40
0
 40
1
 40
1
 40
1
 40
1
 10
256.113670
 20
46.195720
 30
0.0
 10
257.684800
 20
46.462660
 30
0.0
 10
258.955160
 20
46.712770
 30
0.0
 10
259.946510
 20
46.960910
 30
0.0
  0
SPLINE
  5
243
100
AcDbEntity
  8
105x35_transparent
 62
7
100
AcDbSpline
 70
8
 71
3
 72
8
 73
4
 74
0
 40
0
 40
0
 40
0
 40
0
 40
1
 40
1
 40
1
 40
1
 10
259.946510
 20
46.960910
 30
0.0
 10
260.567840
 20
47.116040
 30
0.0
 10
261.003160
 20
47.673850
 30
0.0
 10
261.003160
 20
48.313580
 30
0.0
  0
LWPOLYLINE
  5
244
100
AcDbEntity
  8
105x35_transparent
 62
7
100
AcDbPolyline
 90
2
 70
1
 10
245.578820
 20
46.644110
 30
0.0
 10
245.604520
 20
46.632430
 30
0.0
  0
SPLINE
  5
245
100
AcDbEntity
  8
105x35_transparent
 62
7
100
AcDbSpline
 70
8
 71
3
 72
8
 73
4
 74
0
 40
0
 40
0
 40
0
 40
0
 40
1
 40
1
 40
1
 40
1
 10
261.003160
 20
70.477770
 30
0.0
 10
261.001160
 20
71.245920
 30
0.0
 10
260.379860
 20
71.868230
 30
0.0
 10
259.610120
 20
71.869220
 30
0.0
  0
LWPOLYLINE
  5
246
100
AcDbEntity
  8
105x35_transparent
 62
7
100
AcDbPolyline
 90
2
 70
1
 10
261.003160
 20
48.313580
 30
0.0
 10
261.003160
 20
70.477770
 30
0.0
  0
SPLINE
  5
247
100
AcDbEntity
  8
105x35_transparent
 62
7
100
AcDbSpline
 70
8
 71
3
 72
8
 73
4
 74
0
 40
0
 40
0
 40
0
 40
0
 40
1
 40
1
 40
1
 40
1
 10
255.529940
 20
71.869220
 30
0.0
 10
254.762180
 20
71.868230
 30
0.0
 10
254.138880
 20
71.245920
 30
0.0
 10
254.138880
 20
70.477770
 30
0.0
  0
LWPOLYLINE
  5
248
100
AcDbEntity
  8
105x35_transparent
 62
7
100
AcDbPolyline
 90
2
 70
1
 10
259.610120
 20
71.869220
 30
0.0
 10
255.529940
 20
71.869220
 30
0.0
  0
SPLINE
  5
249
100
AcDbEntity
  8
105x35_transparent
 62
7
100
AcDbSpline
 70
8
 71
3
 72
8
 73
4
 74
0
 40
0
 40
0
 40
0
 40
0
 40
1
 40
1
 40
1
 40
1
 10
254.138880
 20
52.359930
 30
0.0
 10
253.933090
 20
52.335980
 30
0.0
 10
253.743130
 20
52.318770
 30
0.0
 10
253.515570
 20
52.286520
 30
0.0
  0
SPLINE
  5
24a
100
AcDbEntity
  8
105x35_transparent
 62
7
100
AcDbSpline
 70
8
 71
3
 72
8
 73
4
 74
0
 40
0
 40
0
 40
0
 40
0
 40
1
 40
1
 40
1
 40
1
 10
253.515570
 20
52.286520
 30
0.0
 10
253.505570
 20
52.285120
 30
0.0
 10
253.497770
 20
52.284120
 30
0.0
 10
253.489870
 20
52.282520
 30
0.0
  0
SPLINE
  5
24b
100
AcDbEntity
  8
105x35_transparent
 62
7
100
AcDbSpline
 70
8
 71
3
 72
8
 73
4
 74
0
 40
0
 40
0
 40
0
 40
0
 40
1
 40
1
 40
1
 40
1
 10
253.489870
 20
52.282520
 30
0.0
 10
253.107970
 20
52.255410
 30
0.0
 10
252.712220
 20
52.231860
 30
0.0
 10
252.282830
 20
52.205150
 30
0.0
  0
SPLINE
  5
24c
100
AcDbEntity
  8
105x35_transparent
 62
7
100
AcDbSpline
 70
8
 71
3
 72
8
 73
4
 74
0
 40
0
 40
0
 40
0
 40
0
 40
1
 40
1
 40
1
 40
1
 10
252.282830
 20
52.205150
 30
0.0
 10
251.845520
 20
52.177840
 30
0.0
 10
251.418110
 20
52.162610
 30
0.0
 10
251.008510
 20
52.162610
 30
0.0
  0
SPLINE
  5
24d
100
AcDbEntity
  8
105x35_transparent
 62
7
100
AcDbSpline
 70
8
 71
3
 72
8
 73
4
 74
0
 40
0
 40
0
 40
0
 40
0
 40
1
 40
1
 40
1
 40
1
 10
251.008510
 20
52.162610
 30
0.0
 10
249.197960
 20
52.162610
 30
0.0
 10
248.267940
 20
52.615340
 30
0.0
 10
247.700040
 20
53.391610
 30
0.0
  0
SPLINE
  5
24e
100
AcDbEntity
  8
105x35_transparent
 62
7
100
AcDbSpline
 70
8
 71
3
 72
8
 73
4
 74
0
 40
0
 40
0
 40
0
 40
0
 40
1
 40
1
 40
1
 40
1
 10
247.700040
 20
53.391610
 30
0.0
 10
247.124220
 20
54.177370
 30
0.0
 10
246.649320
 20
55.907000
 30
0.0
 10
246.649320
 20
58.539530
 30
0.0
  0
LWPOLYLINE
  5
24f
100
AcDbEntity
  8
105x35_transparent
 62
7
100
AcDbPolyline
 90
2
 70
1
 10
254.138880
 20
70.477770
 30
0.0
 10
254.138880
 20
52.359930
 30
0.0
  0
SPLINE
  5
250
100
AcDbEntity
  8
105x35_transparent
 62
7
100
AcDbSpline
 70
8
 71
3
 72
8
 73
4
 74
0
 40
0
 40
0
 40
0
 40
0
 40
1
 40
1
 40
1
 40
1
 10
246.649320
 20
70.477730
 30
0.0
 10
246.647320
 20
71.245680
 30
0.0
 10
246.026020
 20
71.868190
 30
0.0
 10
245.256280
 20
71.868980
 30
0.0
  0
LWPOLYLINE
  5
251
100
AcDbEntity
  8
105x35_transparent
 62
7
100
AcDbPolyline
 90
2
 70
1
 10
246.649320
 20
58.539530
 30
0.0
 10
246.649320
 20
70.477730
 30
0.0
  0
SPLINE
  5
252
100
AcDbEntity
  8
105x35_transparent
 62
7
100
AcDbSpline
 70
8
 71
3
 72
8
 73
4
 74
0
 40
0
 40
0
 40
0
 40
0
 40
1
 40
1
 40
1
 40
1
 10
173.326280
 20
66.056620
 30
0.0
 10
174.961910
 20
66.056620
 30
0.0
 10
176.001350
 20
65.543330
 30
0.0
 10
176.909000
 20
64.332930
 30
0.0
  0
LWPOLYLINE
  5
253
100
AcDbEntity
  8
105x35_transparent
 62
7
100
AcDbPolyline
 90
4
 70
1
 10
245.256280
 20
71.868980
 30
0.0
 10
241.176100
 20
71.868980
 30
0.0
 10
241.176100
 20
71.869180
 30
0.0
 10
241.176060
 20
71.869200
 30
0.0
  0
SPLINE
  5
254
100
AcDbEntity
  8
105x35_transparent
 62
7
100
AcDbSpline
 70
8
 71
3
 72
8
 73
4
 74
0
 40
0
 40
0
 40
0
 40
0
 40
1
 40
1
 40
1
 40
1
 10
176.924400
 20
64.309780
 30
0.0
 10
177.854010
 20
63.124310
 30
0.0
 10
178.385310
 20
61.429510
 30
0.0
 10
178.385310
 20
59.065300
 30
0.0
  0
SPLINE
  5
255
100
AcDbEntity
  8
105x35_transparent
 62
7
100
AcDbSpline
 70
8
 71
3
 72
8
 73
4
 74
0
 40
0
 40
0
 40
0
 40
0
 40
1
 40
1
 40
1
 40
1
 10
178.385310
 20
59.065300
 30
0.0
 10
178.385310
 20
56.701090
 30
0.0
 10
177.855200
 20
54.990660
 30
0.0
 10
176.916680
 20
53.770560
 30
0.0
  0
LWPOLYLINE
  5
256
100
AcDbEntity
  8
105x35_transparent
 62
7
100
AcDbPolyline
 90
2
 70
1
 10
176.909000
 20
64.332930
 30
0.0
 10
176.924400
 20
64.309780
 30
0.0
  0
SPLINE
  5
257
100
AcDbEntity
  8
105x35_transparent
 62
7
100
AcDbSpline
 70
8
 71
3
 72
8
 73
4
 74
0
 40
0
 40
0
 40
0
 40
0
 40
1
 40
1
 40
1
 40
1
 10
176.916680
 20
53.766560
 30
0.0
 10
176.012790
 20
52.584650
 30
0.0
 10
174.968010
 20
52.073940
 30
0.0
 10
173.326240
 20
52.073940
 30
0.0
  0
SPLINE
  5
258
100
AcDbEntity
  8
105x35_transparent
 62
7
100
AcDbSpline
 70
8
 71
3
 72
8
 73
4
 74
0
 40
0
 40
0
 40
0
 40
0
 40
1
 40
1
 40
1
 40
1
 10
173.326240
 20
52.073940
 30
0.0
 10
171.689020
 20
52.073940
 30
0.0
 10
170.621090
 20
52.587420
 30
0.0
 10
169.689490
 20
53.770520
 30
0.0
  0
SPLINE
  5
259
100
AcDbEntity
  8
105x35_transparent
 62
7
100
AcDbSpline
 70
8
 71
3
 72
8
 73
4
 74
0
 40
0
 40
0
 40
0
 40
0
 40
1
 40
1
 40
1
 40
1
 10
169.689490
 20
53.770520
 30
0.0
 10
168.780650
 20
54.989430
 30
0.0
 10
168.263400
 20
56.704610
 30
0.0
 10
168.263400
 20
59.065260
 30
0.0
  0
SPLINE
  5
25a
100
AcDbEntity
  8
105x35_transparent
 62
7
100
AcDbSpline
 70
8
 71
3
 72
8
 73
4
 74
0
 40
0
 40
0
 40
0
 40
0
 40
1
 40
1
 40
1
 40
1
 10
168.263400
 20
59.065260
 30
0.0
 10
168.263400
 20
61.432440
 30
0.0
 10
168.784810
 20
63.132580
 30
0.0
 10
169.689490
 20
64.317460
 30
0.0
  0
SPLINE
  5
25b
100
AcDbEntity
  8
105x35_transparent
 62
7
100
AcDbSpline
 70
8
 71
3
 72
8
 73
4
 74
0
 40
0
 40
0
 40
0
 40
0
 40
1
 40
1
 40
1
 40
1
 10
169.689490
 20
64.317460
 30
0.0
 10
170.626630
 20
65.535380
 30
0.0
 10
171.690800
 20
66.056580
 30
0.0
 10
173.326240
 20
66.056580
 30
0.0
  0
LWPOLYLINE
  5
25c
100
AcDbEntity
  8
105x35_transparent
 62
7
100
AcDbPolyline
 90
2
 70
1
 10
176.916680
 20
53.770560
 30
0.0
 10
176.916680
 20
53.766560
 30
0.0
  0
SPLINE
  5
25d
100
AcDbEntity
  8
105x35_transparent
 62
7
100
AcDbSpline
 70
8
 71
3
 72
8
 73
4
 74
0
 40
0
 40
0
 40
0
 40
0
 40
1
 40
1
 40
1
 40
1
 10
149.318490
 20
56.839210
 30
0.0
 10
150.198440
 20
56.839210
 30
0.0
 10
150.915540
 20
56.780040
 30
0.0
 10
151.440300
 20
56.684660
 30
0.0
  0
SPLINE
  5
25e
100
AcDbEntity
  8
105x35_transparent
 62
7
100
AcDbSpline
 70
8
 71
3
 72
8
 73
4
 74
0
 40
0
 40
0
 40
0
 40
0
 40
1
 40
1
 40
1
 40
1
 10
151.440300
 20
56.684660
 30
0.0
 10
151.462100
 20
56.681460
 30
0.0
 10
151.484000
 20
56.678960
 30
0.0
 10
151.506000
 20
56.676960
 30
0.0
  0
SPLINE
  5
25f
100
AcDbEntity
  8
105x35_transparent
 62
7
100
AcDbSpline
 70
8
 71
3
 72
8
 73
4
 74
0
 40
0
 40
0
 40
0
 40
0
 40
1
 40
1
 40
1
 40
1
 10
151.506000
 20
56.676960
 30
0.0
 10
151.648270
 20
56.658360
 30
0.0
 10
151.628680
 20
56.648860
 30
0.0
 10
151.745620
 20
56.626700
 30
0.0
  0
LWPOLYLINE
  5
260
100
AcDbEntity
  8
105x35_transparent
 62
7
100
AcDbPolyline
 90
3
 70
1
 10
173.326240
 20
66.056580
 30
0.0
 10
173.326240
 20
66.056580
 30
0.0
 10
173.326280
 20
66.056620
 30
0.0
  0
SPLINE
  5
261
100
AcDbEntity
  8
105x35_transparent
 62
7
100
AcDbSpline
 70
8
 71
3
 72
8
 73
4
 74
0
 40
0
 40
0
 40
0
 40
0
 40
1
 40
1
 40
1
 40
1
 10
151.745620
 20
52.112570
 30
0.0
 10
151.536270
 20
52.087440
 30
0.0
 10
151.411810
 20
52.050840
 30
0.0
 10
151.165850
 20
52.031440
 30
0.0
  0
SPLINE
  5
262
100
AcDbEntity
  8
105x35_transparent
 62
7
100
AcDbSpline
 70
8
 71
3
 72
8
 73
4
 74
0
 40
0
 40
0
 40
0
 40
0
 40
1
 40
1
 40
1
 40
1
 10
151.165850
 20
52.031440
 30
0.0
 10
150.461610
 20
52.003740
 30
0.0
 10
149.641420
 20
51.985140
 30
0.0
 10
148.704090
 20
51.985140
 30
0.0
  0
SPLINE
  5
263
100
AcDbEntity
  8
105x35_transparent
 62
7
100
AcDbSpline
 70
8
 71
3
 72
8
 73
4
 74
0
 40
0
 40
0
 40
0
 40
0
 40
1
 40
1
 40
1
 40
1
 10
148.704090
 20
51.985140
 30
0.0
 10
147.266330
 20
51.985140
 30
0.0
 10
146.256570
 20
52.249900
 30
0.0
 10
145.620010
 20
52.622690
 30
0.0
  0
SPLINE
  5
264
100
AcDbEntity
  8
105x35_transparent
 62
7
100
AcDbSpline
 70
8
 71
3
 72
8
 73
4
 74
0
 40
0
 40
0
 40
0
 40
0
 40
1
 40
1
 40
1
 40
1
 10
145.620010
 20
52.622690
 30
0.0
 10
145.131060
 20
52.931380
 30
0.0
 10
144.870260
 20
53.343750
 30
0.0
 10
144.870260
 20
54.501120
 30
0.0
  0
SPLINE
  5
265
100
AcDbEntity
  8
105x35_transparent
 62
7
100
AcDbSpline
 70
8
 71
3
 72
8
 73
4
 74
0
 40
0
 40
0
 40
0
 40
0
 40
1
 40
1
 40
1
 40
1
 10
144.870260
 20
54.501120
 30
0.0
 10
144.870260
 20
55.065860
 30
0.0
 10
144.992540
 20
55.336950
 30
0.0
 10
145.133030
 20
55.509690
 30
0.0
  0
SPLINE
  5
266
100
AcDbEntity
  8
105x35_transparent
 62
7
100
AcDbSpline
 70
8
 71
3
 72
8
 73
4
 74
0
 40
0
 40
0
 40
0
 40
0
 40
1
 40
1
 40
1
 40
1
 10
145.133030
 20
55.509690
 30
0.0
 10
145.141030
 20
55.519980
 30
0.0
 10
145.148630
 20
55.530270
 30
0.0
 10
145.156230
 20
55.540760
 30
0.0
  0
SPLINE
  5
267
100
AcDbEntity
  8
105x35_transparent
 62
7
100
AcDbSpline
 70
8
 71
3
 72
8
 73
4
 74
0
 40
0
 40
0
 40
0
 40
0
 40
1
 40
1
 40
1
 40
1
 10
145.156230
 20
55.540760
 30
0.0
 10
145.409700
 20
55.872000
 30
0.0
 10
145.694640
 20
56.101340
 30
0.0
 10
146.052800
 20
56.271120
 30
0.0
  0
LWPOLYLINE
  5
268
100
AcDbEntity
  8
105x35_transparent
 62
7
100
AcDbPolyline
 90
2
 70
1
 10
151.745620
 20
56.626700
 30
0.0
 10
151.745620
 20
52.112570
 30
0.0
  0
SPLINE
  5
269
100
AcDbEntity
  8
105x35_transparent
 62
7
100
AcDbSpline
 70
8
 71
3
 72
8
 73
4
 74
0
 40
0
 40
0
 40
0
 40
0
 40
1
 40
1
 40
1
 40
1
 10
146.079900
 20
56.286550
 30
0.0
 10
146.519380
 20
56.506190
 30
0.0
 10
146.990720
 20
56.645890
 30
0.0
 10
147.517660
 20
56.715540
 30
0.0
  0
SPLINE
  5
26a
100
AcDbEntity
  8
105x35_transparent
 62
7
100
AcDbSpline
 70
8
 71
3
 72
8
 73
4
 74
0
 40
0
 40
0
 40
0
 40
0
 40
1
 40
1
 40
1
 40
1
 10
147.517660
 20
56.715540
 30
0.0
 10
148.169850
 20
56.797070
 30
0.0
 10
148.770010
 20
56.839220
 30
0.0
 10
149.318520
 20
56.839220
 30
0.0
  0
LWPOLYLINE
  5
26b
100
AcDbEntity
  8
105x35_transparent
 62
7
100
AcDbPolyline
 90
2
 70
1
 10
146.052800
 20
56.271120
 30
0.0
 10
146.079900
 20
56.286550
 30
0.0
  0
LWPOLYLINE
  5
26c
100
AcDbEntity
  8
105x35_transparent
 62
7
100
AcDbPolyline
 90
3
 70
1
 10
149.318520
 20
56.839220
 30
0.0
 10
149.318520
 20
56.839220
 30
0.0
 10
149.318490
 20
56.839210
 30
0.0
  0
SPLINE
  5
26d
100
AcDbEntity
  8
haotikum
 62
7
100
AcDbSpline
 70
8
 71
3
 72
8
 73
4
 74
0
 40
0
 40
0
 40
0
 40
0
 40
1
 40
1
 40
1
 40
1
 10
120.000390
 20
70.037920
 30
0.0
 10
120.761120
 20
70.330520
 30
0.0
 10
121.565760
 20
70.549960
 30
0.0
 10
122.414270
 20
70.696250
 30
0.0
  0
SPLINE
  5
26e
100
AcDbEntity
  8
haotikum
 62
7
100
AcDbSpline
 70
8
 71
3
 72
8
 73
4
 74
0
 40
0
 40
0
 40
0
 40
0
 40
1
 40
1
 40
1
 40
1
 10
122.414270
 20
70.696250
 30
0.0
 10
123.292040
 20
70.871800
 30
0.0
 10
124.155190
 20
70.959580
 30
0.0
 10
125.003700
 20
70.959580
 30
0.0
  0
SPLINE
  5
26f
100
AcDbEntity
  8
haotikum
 62
7
100
AcDbSpline
 70
8
 71
3
 72
8
 73
4
 74
0
 40
0
 40
0
 40
0
 40
0
 40
1
 40
1
 40
1
 40
1
 10
125.003700
 20
70.959580
 30
0.0
 10
126.817760
 20
70.959580
 30
0.0
 10
128.324620
 20
70.696250
 30
0.0
 10
129.524230
 20
70.169580
 30
0.0
  0
SPLINE
  5
270
100
AcDbEntity
  8
haotikum
 62
7
100
AcDbSpline
 70
8
 71
3
 72
8
 73
4
 74
0
 40
0
 40
0
 40
0
 40
0
 40
1
 40
1
 40
1
 40
1
 10
129.524230
 20
70.169580
 30
0.0
 10
130.723850
 20
69.672190
 30
0.0
 10
131.674780
 20
68.955320
 30
0.0
 10
132.377000
 20
68.019040
 30
0.0
  0
SPLINE
  5
271
100
AcDbEntity
  8
haotikum
 62
7
100
AcDbSpline
 70
8
 71
3
 72
8
 73
4
 74
0
 40
0
 40
0
 40
0
 40
0
 40
1
 40
1
 40
1
 40
1
 10
132.377000
 20
68.019040
 30
0.0
 10
133.108480
 20
67.112000
 30
0.0
 10
133.620510
 20
66.014780
 30
0.0
 10
133.913100
 20
64.727390
 30
0.0
  0
SPLINE
  5
272
100
AcDbEntity
  8
haotikum
 62
7
100
AcDbSpline
 70
8
 71
3
 72
8
 73
4
 74
0
 40
0
 40
0
 40
0
 40
0
 40
1
 40
1
 40
1
 40
1
 10
133.913100
 20
64.727390
 30
0.0
 10
134.205700
 20
63.439990
 30
0.0
 10
134.351990
 20
62.020910
 30
0.0
 10
134.351990
 20
60.470220
 30
0.0
  0
LWPOLYLINE
  5
273
100
AcDbEntity
  8
haotikum
 62
7
100
AcDbPolyline
 90
4
 70
1
 10
115.918740
 20
47.654640
 30
0.0
 10
115.918740
 20
81.010090
 30
0.0
 10
120.000390
 20
81.712310
 30
0.0
 10
120.000390
 20
70.037920
 30
0.0
  0
SPLINE
  5
274
100
AcDbEntity
  8
haotikum
 62
7
100
AcDbSpline
 70
8
 71
3
 72
8
 73
4
 74
0
 40
0
 40
0
 40
0
 40
0
 40
1
 40
1
 40
1
 40
1
 10
130.270340
 20
59.592450
 30
0.0
 10
130.270340
 20
60.996770
 30
0.0
 10
130.167940
 20
62.196460
 30
0.0
 10
129.963120
 20
63.191280
 30
0.0
  0
SPLINE
  5
275
100
AcDbEntity
  8
haotikum
 62
7
100
AcDbSpline
 70
8
 71
3
 72
8
 73
4
 74
0
 40
0
 40
0
 40
0
 40
0
 40
1
 40
1
 40
1
 40
1
 10
129.963120
 20
63.191280
 30
0.0
 10
129.787570
 20
64.186100
 30
0.0
 10
129.480350
 20
64.990720
 30
0.0
 10
129.041460
 20
65.605160
 30
0.0
  0
SPLINE
  5
276
100
AcDbEntity
  8
haotikum
 62
7
100
AcDbSpline
 70
8
 71
3
 72
8
 73
4
 74
0
 40
0
 40
0
 40
0
 40
0
 40
1
 40
1
 40
1
 40
1
 10
129.041460
 20
65.605160
 30
0.0
 10
128.602570
 20
66.219600
 30
0.0
 10
128.017400
 20
66.658490
 30
0.0
 10
127.285910
 20
66.921820
 30
0.0
  0
SPLINE
  5
277
100
AcDbEntity
  8
haotikum
 62
7
100
AcDbSpline
 70
8
 71
3
 72
8
 73
4
 74
0
 40
0
 40
0
 40
0
 40
0
 40
1
 40
1
 40
1
 40
1
 10
127.285910
 20
66.921820
 30
0.0
 10
126.554430
 20
67.214420
 30
0.0
 10
125.647410
 20
67.360710
 30
0.0
 10
124.564810
 20
67.360710
 30
0.0
  0
SPLINE
  5
278
100
AcDbEntity
  8
haotikum
 62
7
100
AcDbSpline
 70
8
 71
3
 72
8
 73
4
 74
0
 40
0
 40
0
 40
0
 40
0
 40
1
 40
1
 40
1
 40
1
 10
124.564810
 20
67.360710
 30
0.0
 10
124.125930
 20
67.360710
 30
0.0
 10
123.672420
 20
67.331440
 30
0.0
 10
123.204260
 20
67.272930
 30
0.0
  0
SPLINE
  5
279
100
AcDbEntity
  8
haotikum
 62
7
100
AcDbSpline
 70
8
 71
3
 72
8
 73
4
 74
0
 40
0
 40
0
 40
0
 40
0
 40
1
 40
1
 40
1
 40
1
 10
123.204260
 20
67.272930
 30
0.0
 10
122.736110
 20
67.214420
 30
0.0
 10
122.282600
 20
67.141260
 30
0.0
 10
121.843710
 20
67.053490
 30
0.0
  0
SPLINE
  5
27a
100
AcDbEntity
  8
haotikum
 62
7
100
AcDbSpline
 70
8
 71
3
 72
8
 73
4
 74
0
 40
0
 40
0
 40
0
 40
0
 40
1
 40
1
 40
1
 40
1
 10
121.843710
 20
67.053490
 30
0.0
 10
121.434090
 20
66.994970
 30
0.0
 10
121.053720
 20
66.921820
 30
0.0
 10
120.702610
 20
66.834040
 30
0.0
  0
SPLINE
  5
27b
100
AcDbEntity
  8
haotikum
 62
7
100
AcDbSpline
 70
8
 71
3
 72
8
 73
4
 74
0
 40
0
 40
0
 40
0
 40
0
 40
1
 40
1
 40
1
 40
1
 10
120.702610
 20
66.834040
 30
0.0
 10
120.380760
 20
66.746270
 30
0.0
 10
120.146680
 20
66.673110
 30
0.0
 10
120.000390
 20
66.614600
 30
0.0
  0
LWPOLYLINE
  5
27c
100
AcDbEntity
  8
haotikum
 62
7
100
AcDbPolyline
 90
4
 70
1
 10
134.351990
 20
60.470220
 30
0.0
 10
134.351990
 20
47.654640
 30
0.0
 10
130.270340
 20
47.654640
 30
0.0
 10
130.270340
 20
59.592450
 30
0.0
  0
SPLINE
  5
27d
100
AcDbEntity
  8
haotikum
 62
7
100
AcDbSpline
 70
8
 71
3
 72
8
 73
4
 74
0
 40
0
 40
0
 40
0
 40
0
 40
1
 40
1
 40
1
 40
1
 10
148.703590
 20
50.595190
 30
0.0
 10
149.669140
 20
50.595190
 30
0.0
 10
150.517650
 20
50.609830
 30
0.0
 10
151.249140
 20
50.639120
 30
0.0
  0
SPLINE
  5
27e
100
AcDbEntity
  8
haotikum
 62
7
100
AcDbSpline
 70
8
 71
3
 72
8
 73
4
 74
0
 40
0
 40
0
 40
0
 40
0
 40
1
 40
1
 40
1
 40
1
 10
151.249140
 20
50.639120
 30
0.0
 10
152.009870
 20
50.697690
 30
0.0
 10
152.638950
 20
50.785350
 30
0.0
 10
153.136350
 20
50.902490
 30
0.0
  0
LWPOLYLINE
  5
27f
100
AcDbEntity
  8
haotikum
 62
7
100
AcDbPolyline
 90
4
 70
1
 10
120.000390
 20
66.614600
 30
0.0
 10
120.000390
 20
47.654640
 30
0.0
 10
115.918740
 20
47.654640
 30
0.0
 10
115.918740
 20
47.654640
 30
0.0
  0
SPLINE
  5
280
100
AcDbEntity
  8
haotikum
 62
7
100
AcDbSpline
 70
8
 71
3
 72
8
 73
4
 74
0
 40
0
 40
0
 40
0
 40
0
 40
1
 40
1
 40
1
 40
1
 10
153.136350
 20
57.705200
 30
0.0
 10
152.843750
 20
57.851490
 30
0.0
 10
152.360980
 20
57.968530
 30
0.0
 10
151.688020
 20
58.056310
 30
0.0
  0
SPLINE
  5
281
100
AcDbEntity
  8
haotikum
 62
7
100
AcDbSpline
 70
8
 71
3
 72
8
 73
4
 74
0
 40
0
 40
0
 40
0
 40
0
 40
1
 40
1
 40
1
 40
1
 10
151.688020
 20
58.056310
 30
0.0
 10
151.044320
 20
58.173350
 30
0.0
 10
150.254320
 20
58.231860
 30
0.0
 10
149.318030
 20
58.231860
 30
0.0
  0
SPLINE
  5
282
100
AcDbEntity
  8
haotikum
 62
7
100
AcDbSpline
 70
8
 71
3
 72
8
 73
4
 74
0
 40
0
 40
0
 40
0
 40
0
 40
1
 40
1
 40
1
 40
1
 10
149.318030
 20
58.231860
 30
0.0
 10
148.703590
 20
58.231860
 30
0.0
 10
148.045260
 20
58.187970
 30
0.0
 10
147.343040
 20
58.100200
 30
0.0
  0
SPLINE
  5
283
100
AcDbEntity
  8
haotikum
 62
7
100
AcDbSpline
 70
8
 71
3
 72
8
 73
4
 74
0
 40
0
 40
0
 40
0
 40
0
 40
1
 40
1
 40
1
 40
1
 10
147.343040
 20
58.100200
 30
0.0
 10
146.670090
 20
58.012420
 30
0.0
 10
146.041000
 20
57.822240
 30
0.0
 10
145.455830
 20
57.529640
 30
0.0
  0
SPLINE
  5
284
100
AcDbEntity
  8
haotikum
 62
7
100
AcDbSpline
 70
8
 71
3
 72
8
 73
4
 74
0
 40
0
 40
0
 40
0
 40
0
 40
1
 40
1
 40
1
 40
1
 10
145.455830
 20
57.529640
 30
0.0
 10
144.899900
 20
57.266310
 30
0.0
 10
144.431770
 20
56.885940
 30
0.0
 10
144.051390
 20
56.388540
 30
0.0
  0
SPLINE
  5
285
100
AcDbEntity
  8
haotikum
 62
7
100
AcDbSpline
 70
8
 71
3
 72
8
 73
4
 74
0
 40
0
 40
0
 40
0
 40
0
 40
1
 40
1
 40
1
 40
1
 10
144.051390
 20
56.388540
 30
0.0
 10
143.671010
 20
55.920380
 30
0.0
 10
143.480840
 20
55.291320
 30
0.0
 10
143.480840
 20
54.501320
 30
0.0
  0
SPLINE
  5
286
100
AcDbEntity
  8
haotikum
 62
7
100
AcDbSpline
 70
8
 71
3
 72
8
 73
4
 74
0
 40
0
 40
0
 40
0
 40
0
 40
1
 40
1
 40
1
 40
1
 10
143.480840
 20
54.501320
 30
0.0
 10
143.480840
 20
53.038370
 30
0.0
 10
143.948990
 20
52.014290
 30
0.0
 10
144.885280
 20
51.429110
 30
0.0
  0
SPLINE
  5
287
100
AcDbEntity
  8
haotikum
 62
7
100
AcDbSpline
 70
8
 71
3
 72
8
 73
4
 74
0
 40
0
 40
0
 40
0
 40
0
 40
1
 40
1
 40
1
 40
1
 10
144.885280
 20
51.429110
 30
0.0
 10
145.821560
 20
50.873200
 30
0.0
 10
147.094330
 20
50.595190
 30
0.0
 10
148.703590
 20
50.595190
 30
0.0
  0
LWPOLYLINE
  5
288
100
AcDbEntity
  8
haotikum
 62
7
100
AcDbPolyline
 90
2
 70
1
 10
153.136350
 20
50.902490
 30
0.0
 10
153.136350
 20
57.705200
 30
0.0
  0
SPLINE
  5
289
100
AcDbEntity
  8
haotikum
 62
7
100
AcDbSpline
 70
8
 71
3
 72
8
 73
4
 74
0
 40
0
 40
0
 40
0
 40
0
 40
1
 40
1
 40
1
 40
1
 10
148.352480
 20
71.047360
 30
0.0
 10
149.990990
 20
71.047360
 30
0.0
 10
151.366180
 20
70.827920
 30
0.0
 10
152.478020
 20
70.389030
 30
0.0
  0
SPLINE
  5
28a
100
AcDbEntity
  8
haotikum
 62
7
100
AcDbSpline
 70
8
 71
3
 72
8
 73
4
 74
0
 40
0
 40
0
 40
0
 40
0
 40
1
 40
1
 40
1
 40
1
 10
152.478020
 20
70.389030
 30
0.0
 10
153.619130
 20
69.979400
 30
0.0
 10
154.526160
 20
69.379590
 30
0.0
 10
155.199120
 20
68.589590
 30
0.0
  0
SPLINE
  5
28b
100
AcDbEntity
  8
haotikum
 62
7
100
AcDbSpline
 70
8
 71
3
 72
8
 73
4
 74
0
 40
0
 40
0
 40
0
 40
0
 40
1
 40
1
 40
1
 40
1
 10
155.199120
 20
68.589590
 30
0.0
 10
155.901340
 20
67.828860
 30
0.0
 10
156.398740
 20
66.907200
 30
0.0
 10
156.691330
 20
65.824610
 30
0.0
  0
SPLINE
  5
28c
100
AcDbEntity
  8
haotikum
 62
7
100
AcDbSpline
 70
8
 71
3
 72
8
 73
4
 74
0
 40
0
 40
0
 40
0
 40
0
 40
1
 40
1
 40
1
 40
1
 10
156.691330
 20
65.824610
 30
0.0
 10
156.983930
 20
64.771280
 30
0.0
 10
157.130220
 20
63.600910
 30
0.0
 10
157.130220
 20
62.313510
 30
0.0
  0
LWPOLYLINE
  5
28d
100
AcDbEntity
  8
haotikum
 62
7
100
AcDbPolyline
 90
3
 70
1
 10
148.703590
 20
50.595190
 30
0.0
 10
148.703590
 20
50.595190
 30
0.0
 10
148.703590
 20
50.595190
 30
0.0
  0
SPLINE
  5
28e
100
AcDbEntity
  8
haotikum
 62
7
100
AcDbSpline
 70
8
 71
3
 72
8
 73
4
 74
0
 40
0
 40
0
 40
0
 40
0
 40
1
 40
1
 40
1
 40
1
 10
157.130220
 20
48.049720
 30
0.0
 10
156.779110
 20
47.991150
 30
0.0
 10
156.281710
 20
47.903300
 30
0.0
 10
155.638010
 20
47.786350
 30
0.0
  0
SPLINE
  5
28f
100
AcDbEntity
  8
haotikum
 62
7
100
AcDbSpline
 70
8
 71
3
 72
8
 73
4
 74
0
 40
0
 40
0
 40
0
 40
0
 40
1
 40
1
 40
1
 40
1
 10
155.638010
 20
47.786350
 30
0.0
 10
155.023560
 20
47.698500
 30
0.0
 10
154.321340
 20
47.610840
 30
0.0
 10
153.531350
 20
47.522980
 30
0.0
  0
SPLINE
  5
290
100
AcDbEntity
  8
haotikum
 62
7
100
AcDbSpline
 70
8
 71
3
 72
8
 73
4
 74
0
 40
0
 40
0
 40
0
 40
0
 40
1
 40
1
 40
1
 40
1
 10
153.531350
 20
47.522980
 30
0.0
 10
152.741350
 20
47.435320
 30
0.0
 10
151.878200
 20
47.362110
 30
0.0
 10
150.941920
 20
47.303540
 30
0.0
  0
SPLINE
  5
291
100
AcDbEntity
  8
haotikum
 62
7
100
AcDbSpline
 70
8
 71
3
 72
8
 73
4
 74
0
 40
0
 40
0
 40
0
 40
0
 40
1
 40
1
 40
1
 40
1
 10
150.941920
 20
47.303540
 30
0.0
 10
150.034880
 20
47.215880
 30
0.0
 10
149.127860
 20
47.171950
 30
0.0
 10
148.220820
 20
47.171950
 30
0.0
  0
SPLINE
  5
292
100
AcDbEntity
  8
haotikum
 62
7
100
AcDbSpline
 70
8
 71
3
 72
8
 73
4
 74
0
 40
0
 40
0
 40
0
 40
0
 40
1
 40
1
 40
1
 40
1
 10
148.220820
 20
47.171950
 30
0.0
 10
146.933420
 20
47.171950
 30
0.0
 10
145.748430
 20
47.303540
 30
0.0
 10
144.665830
 20
47.566910
 30
0.0
  0
SPLINE
  5
293
100
AcDbEntity
  8
haotikum
 62
7
100
AcDbSpline
 70
8
 71
3
 72
8
 73
4
 74
0
 40
0
 40
0
 40
0
 40
0
 40
1
 40
1
 40
1
 40
1
 10
144.665830
 20
47.566910
 30
0.0
 10
143.583240
 20
47.830280
 30
0.0
 10
142.646950
 20
48.239880
 30
0.0
 10
141.856960
 20
48.795710
 30
0.0
  0
SPLINE
  5
294
100
AcDbEntity
  8
haotikum
 62
7
100
AcDbSpline
 70
8
 71
3
 72
8
 73
4
 74
0
 40
0
 40
0
 40
0
 40
0
 40
1
 40
1
 40
1
 40
1
 10
141.856960
 20
48.795710
 30
0.0
 10
141.066960
 20
49.381030
 30
0.0
 10
140.452520
 20
50.141660
 30
0.0
 10
140.013630
 20
51.078000
 30
0.0
  0
SPLINE
  5
295
100
AcDbEntity
  8
haotikum
 62
7
100
AcDbSpline
 70
8
 71
3
 72
8
 73
4
 74
0
 40
0
 40
0
 40
0
 40
0
 40
1
 40
1
 40
1
 40
1
 10
140.013630
 20
51.078000
 30
0.0
 10
139.574740
 20
52.014290
 30
0.0
 10
139.355300
 20
53.140770
 30
0.0
 10
139.355300
 20
54.457430
 30
0.0
  0
SPLINE
  5
296
100
AcDbEntity
  8
haotikum
 62
7
100
AcDbSpline
 70
8
 71
3
 72
8
 73
4
 74
0
 40
0
 40
0
 40
0
 40
0
 40
1
 40
1
 40
1
 40
1
 10
139.355300
 20
54.457430
 30
0.0
 10
139.355300
 20
55.715580
 30
0.0
 10
139.604000
 20
56.798160
 30
0.0
 10
140.101410
 20
57.705200
 30
0.0
  0
SPLINE
  5
297
100
AcDbEntity
  8
haotikum
 62
7
100
AcDbSpline
 70
8
 71
3
 72
8
 73
4
 74
0
 40
0
 40
0
 40
0
 40
0
 40
1
 40
1
 40
1
 40
1
 10
140.101410
 20
57.705200
 30
0.0
 10
140.628070
 20
58.612240
 30
0.0
 10
141.330290
 20
59.343700
 30
0.0
 10
142.208070
 20
59.899630
 30
0.0
  0
SPLINE
  5
298
100
AcDbEntity
  8
haotikum
 62
7
100
AcDbSpline
 70
8
 71
3
 72
8
 73
4
 74
0
 40
0
 40
0
 40
0
 40
0
 40
1
 40
1
 40
1
 40
1
 10
142.208070
 20
59.899630
 30
0.0
 10
143.085840
 20
60.455560
 30
0.0
 10
144.109900
 20
60.865180
 30
0.0
 10
145.280270
 20
61.128520
 30
0.0
  0
SPLINE
  5
299
100
AcDbEntity
  8
haotikum
 62
7
100
AcDbSpline
 70
8
 71
3
 72
8
 73
4
 74
0
 40
0
 40
0
 40
0
 40
0
 40
1
 40
1
 40
1
 40
1
 10
145.280270
 20
61.128520
 30
0.0
 10
146.450650
 20
61.391850
 30
0.0
 10
147.679530
 20
61.523510
 30
0.0
 10
148.966920
 20
61.523510
 30
0.0
  0
SPLINE
  5
29a
100
AcDbEntity
  8
haotikum
 62
7
100
AcDbSpline
 70
8
 71
3
 72
8
 73
4
 74
0
 40
0
 40
0
 40
0
 40
0
 40
1
 40
1
 40
1
 40
1
 10
148.966920
 20
61.523510
 30
0.0
 10
149.376550
 20
61.523510
 30
0.0
 10
149.800810
 20
61.494250
 30
0.0
 10
150.239700
 20
61.435740
 30
0.0
  0
SPLINE
  5
29b
100
AcDbEntity
  8
haotikum
 62
7
100
AcDbSpline
 70
8
 71
3
 72
8
 73
4
 74
0
 40
0
 40
0
 40
0
 40
0
 40
1
 40
1
 40
1
 40
1
 10
150.239700
 20
61.435740
 30
0.0
 10
150.678580
 20
61.406470
 30
0.0
 10
151.088200
 20
61.347960
 30
0.0
 10
151.468580
 20
61.260180
 30
0.0
  0
SPLINE
  5
29c
100
AcDbEntity
  8
haotikum
 62
7
100
AcDbSpline
 70
8
 71
3
 72
8
 73
4
 74
0
 40
0
 40
0
 40
0
 40
0
 40
1
 40
1
 40
1
 40
1
 10
151.468580
 20
61.260180
 30
0.0
 10
151.878200
 20
61.201670
 30
0.0
 10
152.229310
 20
61.143140
 30
0.0
 10
152.521910
 20
61.084630
 30
0.0
  0
SPLINE
  5
29d
100
AcDbEntity
  8
haotikum
 62
7
100
AcDbSpline
 70
8
 71
3
 72
8
 73
4
 74
0
 40
0
 40
0
 40
0
 40
0
 40
1
 40
1
 40
1
 40
1
 10
152.521910
 20
61.084630
 30
0.0
 10
152.814510
 20
61.026110
 30
0.0
 10
153.019310
 20
60.982230
 30
0.0
 10
153.136350
 20
60.952960
 30
0.0
  0
LWPOLYLINE
  5
29e
100
AcDbEntity
  8
haotikum
 62
7
100
AcDbPolyline
 90
2
 70
1
 10
157.130220
 20
62.313510
 30
0.0
 10
157.130220
 20
48.049720
 30
0.0
  0
SPLINE
  5
29f
100
AcDbEntity
  8
haotikum
 62
7
100
AcDbSpline
 70
8
 71
3
 72
8
 73
4
 74
0
 40
0
 40
0
 40
0
 40
0
 40
1
 40
1
 40
1
 40
1
 10
153.136350
 20
62.094070
 30
0.0
 10
153.136350
 20
62.767020
 30
0.0
 10
153.063200
 20
63.425350
 30
0.0
 10
152.916910
 20
64.069060
 30
0.0
  0
SPLINE
  5
2a0
100
AcDbEntity
  8
haotikum
 62
7
100
AcDbSpline
 70
8
 71
3
 72
8
 73
4
 74
0
 40
0
 40
0
 40
0
 40
0
 40
1
 40
1
 40
1
 40
1
 10
152.916910
 20
64.069060
 30
0.0
 10
152.770620
 20
64.742010
 30
0.0
 10
152.507290
 20
65.327210
 30
0.0
 10
152.126910
 20
65.824610
 30
0.0
  0
SPLINE
  5
2a1
100
AcDbEntity
  8
haotikum
 62
7
100
AcDbSpline
 70
8
 71
3
 72
8
 73
4
 74
0
 40
0
 40
0
 40
0
 40
0
 40
1
 40
1
 40
1
 40
1
 10
152.126910
 20
65.824610
 30
0.0
 10
151.746530
 20
66.351270
 30
0.0
 10
151.219870
 20
66.760890
 30
0.0
 10
150.546920
 20
67.053490
 30
0.0
  0
SPLINE
  5
2a2
100
AcDbEntity
  8
haotikum
 62
7
100
AcDbSpline
 70
8
 71
3
 72
8
 73
4
 74
0
 40
0
 40
0
 40
0
 40
0
 40
1
 40
1
 40
1
 40
1
 10
150.546920
 20
67.053490
 30
0.0
 10
149.903210
 20
67.375330
 30
0.0
 10
149.054700
 20
67.536260
 30
0.0
 10
148.001370
 20
67.536260
 30
0.0
  0
SPLINE
  5
2a3
100
AcDbEntity
  8
haotikum
 62
7
100
AcDbSpline
 70
8
 71
3
 72
8
 73
4
 74
0
 40
0
 40
0
 40
0
 40
0
 40
1
 40
1
 40
1
 40
1
 10
148.001370
 20
67.536260
 30
0.0
 10
146.655450
 20
67.536260
 30
0.0
 10
145.470450
 20
67.433860
 30
0.0
 10
144.446390
 20
67.229040
 30
0.0
  0
SPLINE
  5
2a4
100
AcDbEntity
  8
haotikum
 62
7
100
AcDbSpline
 70
8
 71
3
 72
8
 73
4
 74
0
 40
0
 40
0
 40
0
 40
0
 40
1
 40
1
 40
1
 40
1
 10
144.446390
 20
67.229040
 30
0.0
 10
143.451570
 20
67.053490
 30
0.0
 10
142.705460
 20
66.863310
 30
0.0
 10
142.208070
 20
66.658490
 30
0.0
  0
LWPOLYLINE
  5
2a5
100
AcDbEntity
  8
haotikum
 62
7
100
AcDbPolyline
 90
2
 70
1
 10
153.136350
 20
60.952960
 30
0.0
 10
153.136350
 20
62.094070
 30
0.0
  0
SPLINE
  5
2a6
100
AcDbEntity
  8
haotikum
 62
7
100
AcDbSpline
 70
8
 71
3
 72
8
 73
4
 74
0
 40
0
 40
0
 40
0
 40
0
 40
1
 40
1
 40
1
 40
1
 10
141.725290
 20
70.037920
 30
0.0
 10
142.251950
 20
70.271990
 30
0.0
 10
143.129730
 20
70.491440
 30
0.0
 10
144.358610
 20
70.696250
 30
0.0
  0
SPLINE
  5
2a7
100
AcDbEntity
  8
haotikum
 62
7
100
AcDbSpline
 70
8
 71
3
 72
8
 73
4
 74
0
 40
0
 40
0
 40
0
 40
0
 40
1
 40
1
 40
1
 40
1
 10
144.358610
 20
70.696250
 30
0.0
 10
145.587490
 20
70.930320
 30
0.0
 10
146.918780
 20
71.047360
 30
0.0
 10
148.352480
 20
71.047360
 30
0.0
  0
LWPOLYLINE
  5
2a8
100
AcDbEntity
  8
haotikum
 62
7
100
AcDbPolyline
 90
2
 70
1
 10
142.208070
 20
66.658490
 30
0.0
 10
141.725290
 20
70.037920
 30
0.0
  0
SPLINE
  5
2a9
100
AcDbEntity
  8
haotikum
 62
7
100
AcDbSpline
 70
8
 71
3
 72
8
 73
4
 74
0
 40
0
 40
0
 40
0
 40
0
 40
1
 40
1
 40
1
 40
1
 10
184.033910
 20
59.065750
 30
0.0
 10
184.033910
 20
57.251690
 30
0.0
 10
183.770740
 20
55.613160
 30
0.0
 10
183.244000
 20
54.150210
 30
0.0
  0
SPLINE
  5
2aa
100
AcDbEntity
  8
haotikum
 62
7
100
AcDbSpline
 70
8
 71
3
 72
8
 73
4
 74
0
 40
0
 40
0
 40
0
 40
0
 40
1
 40
1
 40
1
 40
1
 10
183.244000
 20
54.150210
 30
0.0
 10
182.717250
 20
52.687260
 30
0.0
 10
181.971220
 20
51.429110
 30
0.0
 10
181.005670
 20
50.375750
 30
0.0
  0
SPLINE
  5
2ab
100
AcDbEntity
  8
haotikum
 62
7
100
AcDbSpline
 70
8
 71
3
 72
8
 73
4
 74
0
 40
0
 40
0
 40
0
 40
0
 40
1
 40
1
 40
1
 40
1
 10
181.005670
 20
50.375750
 30
0.0
 10
180.069390
 20
49.322460
 30
0.0
 10
178.942900
 20
48.503250
 30
0.0
 10
177.626240
 20
47.917940
 30
0.0
  0
SPLINE
  5
2ac
100
AcDbEntity
  8
haotikum
 62
7
100
AcDbSpline
 70
8
 71
3
 72
8
 73
4
 74
0
 40
0
 40
0
 40
0
 40
0
 40
1
 40
1
 40
1
 40
1
 10
177.626240
 20
47.917940
 30
0.0
 10
176.309580
 20
47.362110
 30
0.0
 10
174.875880
 20
47.084090
 30
0.0
 10
173.325150
 20
47.084090
 30
0.0
  0
SPLINE
  5
2ad
100
AcDbEntity
  8
haotikum
 62
7
100
AcDbSpline
 70
8
 71
3
 72
8
 73
4
 74
0
 40
0
 40
0
 40
0
 40
0
 40
1
 40
1
 40
1
 40
1
 10
173.325150
 20
47.084090
 30
0.0
 10
171.774420
 20
47.084090
 30
0.0
 10
170.340720
 20
47.362110
 30
0.0
 10
169.024060
 20
47.917940
 30
0.0
  0
SPLINE
  5
2ae
100
AcDbEntity
  8
haotikum
 62
7
100
AcDbSpline
 70
8
 71
3
 72
8
 73
4
 74
0
 40
0
 40
0
 40
0
 40
0
 40
1
 40
1
 40
1
 40
1
 10
169.024060
 20
47.917940
 30
0.0
 10
167.707400
 20
48.503250
 30
0.0
 10
166.566290
 20
49.322460
 30
0.0
 10
165.600740
 20
50.375750
 30
0.0
  0
SPLINE
  5
2af
100
AcDbEntity
  8
haotikum
 62
7
100
AcDbSpline
 70
8
 71
3
 72
8
 73
4
 74
0
 40
0
 40
0
 40
0
 40
0
 40
1
 40
1
 40
1
 40
1
 10
165.600740
 20
50.375750
 30
0.0
 10
164.664460
 20
51.429110
 30
0.0
 10
163.932970
 20
52.687260
 30
0.0
 10
163.406310
 20
54.150210
 30
0.0
  0
SPLINE
  5
2b0
100
AcDbEntity
  8
haotikum
 62
7
100
AcDbSpline
 70
8
 71
3
 72
8
 73
4
 74
0
 40
0
 40
0
 40
0
 40
0
 40
1
 40
1
 40
1
 40
1
 10
163.406310
 20
54.150210
 30
0.0
 10
162.879640
 20
55.613160
 30
0.0
 10
162.616310
 20
57.251690
 30
0.0
 10
162.616310
 20
59.065750
 30
0.0
  0
SPLINE
  5
2b1
100
AcDbEntity
  8
haotikum
 62
7
100
AcDbSpline
 70
8
 71
3
 72
8
 73
4
 74
0
 40
0
 40
0
 40
0
 40
0
 40
1
 40
1
 40
1
 40
1
 10
162.616310
 20
59.065750
 30
0.0
 10
162.616310
 20
60.850560
 30
0.0
 10
162.879640
 20
62.474440
 30
0.0
 10
163.406310
 20
63.937390
 30
0.0
  0
SPLINE
  5
2b2
100
AcDbEntity
  8
haotikum
 62
7
100
AcDbSpline
 70
8
 71
3
 72
8
 73
4
 74
0
 40
0
 40
0
 40
0
 40
0
 40
1
 40
1
 40
1
 40
1
 10
163.406310
 20
63.937390
 30
0.0
 10
163.932970
 20
65.429610
 30
0.0
 10
164.664460
 20
66.702380
 30
0.0
 10
165.600740
 20
67.755710
 30
0.0
  0
SPLINE
  5
2b3
100
AcDbEntity
  8
haotikum
 62
7
100
AcDbSpline
 70
8
 71
3
 72
8
 73
4
 74
0
 40
0
 40
0
 40
0
 40
0
 40
1
 40
1
 40
1
 40
1
 10
165.600740
 20
67.755710
 30
0.0
 10
166.566290
 20
68.809040
 30
0.0
 10
167.707400
 20
69.613660
 30
0.0
 10
169.024060
 20
70.169590
 30
0.0
  0
SPLINE
  5
2b4
100
AcDbEntity
  8
haotikum
 62
7
100
AcDbSpline
 70
8
 71
3
 72
8
 73
4
 74
0
 40
0
 40
0
 40
0
 40
0
 40
1
 40
1
 40
1
 40
1
 10
169.024060
 20
70.169590
 30
0.0
 10
170.340720
 20
70.754770
 30
0.0
 10
171.774420
 20
71.047360
 30
0.0
 10
173.325150
 20
71.047360
 30
0.0
  0
SPLINE
  5
2b5
100
AcDbEntity
  8
haotikum
 62
7
100
AcDbSpline
 70
8
 71
3
 72
8
 73
4
 74
0
 40
0
 40
0
 40
0
 40
0
 40
1
 40
1
 40
1
 40
1
 10
173.325150
 20
71.047360
 30
0.0
 10
174.875880
 20
71.047360
 30
0.0
 10
176.309580
 20
70.754770
 30
0.0
 10
177.626240
 20
70.169590
 30
0.0
  0
SPLINE
  5
2b6
100
AcDbEntity
  8
haotikum
 62
7
100
AcDbSpline
 70
8
 71
3
 72
8
 73
4
 74
0
 40
0
 40
0
 40
0
 40
0
 40
1
 40
1
 40
1
 40
1
 10
177.626240
 20
70.169590
 30
0.0
 10
178.942900
 20
69.613660
 30
0.0
 10
180.069390
 20
68.809040
 30
0.0
 10
181.005670
 20
67.755710
 30
0.0
  0
SPLINE
  5
2b7
100
AcDbEntity
  8
haotikum
 62
7
100
AcDbSpline
 70
8
 71
3
 72
8
 73
4
 74
0
 40
0
 40
0
 40
0
 40
0
 40
1
 40
1
 40
1
 40
1
 10
181.005670
 20
67.755710
 30
0.0
 10
181.971220
 20
66.702380
 30
0.0
 10
182.717250
 20
65.429610
 30
0.0
 10
183.244000
 20
63.937390
 30
0.0
  0
SPLINE
  5
2b8
100
AcDbEntity
  8
haotikum
 62
7
100
AcDbSpline
 70
8
 71
3
 72
8
 73
4
 74
0
 40
0
 40
0
 40
0
 40
0
 40
1
 40
1
 40
1
 40
1
 10
183.244000
 20
63.937390
 30
0.0
 10
183.770740
 20
62.474440
 30
0.0
 10
184.033910
 20
60.850560
 30
0.0
 10
184.033910
 20
59.065750
 30
0.0
  0
LWPOLYLINE
  5
2b9
100
AcDbEntity
  8
haotikum
 62
7
100
AcDbPolyline
 90
3
 70
1
 10
148.352480
 20
71.047360
 30
0.0
 10
148.352480
 20
71.047360
 30
0.0
 10
148.352480
 20
71.047360
 30
0.0
  0
SPLINE
  5
2ba
100
AcDbEntity
  8
haotikum
 62
7
100
AcDbSpline
 70
8
 71
3
 72
8
 73
4
 74
0
 40
0
 40
0
 40
0
 40
0
 40
1
 40
1
 40
1
 40
1
 10
179.776790
 20
59.065750
 30
0.0
 10
179.776790
 20
61.640560
 30
0.0
 10
179.191610
 20
63.674060
 30
0.0
 10
178.021240
 20
65.166280
 30
0.0
  0
SPLINE
  5
2bb
100
AcDbEntity
  8
haotikum
 62
7
100
AcDbSpline
 70
8
 71
3
 72
8
 73
4
 74
0
 40
0
 40
0
 40
0
 40
0
 40
1
 40
1
 40
1
 40
1
 10
178.021240
 20
65.166280
 30
0.0
 10
176.880140
 20
66.687760
 30
0.0
 10
175.314770
 20
67.448490
 30
0.0
 10
173.325150
 20
67.448490
 30
0.0
  0
SPLINE
  5
2bc
100
AcDbEntity
  8
haotikum
 62
7
100
AcDbSpline
 70
8
 71
3
 72
8
 73
4
 74
0
 40
0
 40
0
 40
0
 40
0
 40
1
 40
1
 40
1
 40
1
 10
173.325150
 20
67.448490
 30
0.0
 10
171.335540
 20
67.448490
 30
0.0
 10
169.755540
 20
66.687760
 30
0.0
 10
168.585170
 20
65.166280
 30
0.0
  0
SPLINE
  5
2bd
100
AcDbEntity
  8
haotikum
 62
7
100
AcDbSpline
 70
8
 71
3
 72
8
 73
4
 74
0
 40
0
 40
0
 40
0
 40
0
 40
1
 40
1
 40
1
 40
1
 10
168.585170
 20
65.166280
 30
0.0
 10
167.444070
 20
63.674060
 30
0.0
 10
166.873510
 20
61.640560
 30
0.0
 10
166.873510
 20
59.065750
 30
0.0
  0
SPLINE
  5
2be
100
AcDbEntity
  8
haotikum
 62
7
100
AcDbSpline
 70
8
 71
3
 72
8
 73
4
 74
0
 40
0
 40
0
 40
0
 40
0
 40
1
 40
1
 40
1
 40
1
 10
166.873510
 20
59.065750
 30
0.0
 10
166.873510
 20
56.490940
 30
0.0
 10
167.444070
 20
54.442810
 30
0.0
 10
168.585170
 20
52.921330
 30
0.0
  0
SPLINE
  5
2bf
100
AcDbEntity
  8
haotikum
 62
7
100
AcDbSpline
 70
8
 71
3
 72
8
 73
4
 74
0
 40
0
 40
0
 40
0
 40
0
 40
1
 40
1
 40
1
 40
1
 10
168.585170
 20
52.921330
 30
0.0
 10
169.755540
 20
51.429110
 30
0.0
 10
171.335540
 20
50.683050
 30
0.0
 10
173.325150
 20
50.683050
 30
0.0
  0
SPLINE
  5
2c0
100
AcDbEntity
  8
haotikum
 62
7
100
AcDbSpline
 70
8
 71
3
 72
8
 73
4
 74
0
 40
0
 40
0
 40
0
 40
0
 40
1
 40
1
 40
1
 40
1
 10
173.325150
 20
50.683050
 30
0.0
 10
175.314770
 20
50.683050
 30
0.0
 10
176.880140
 20
51.429110
 30
0.0
 10
178.021240
 20
52.921330
 30
0.0
  0
SPLINE
  5
2c1
100
AcDbEntity
  8
haotikum
 62
7
100
AcDbSpline
 70
8
 71
3
 72
8
 73
4
 74
0
 40
0
 40
0
 40
0
 40
0
 40
1
 40
1
 40
1
 40
1
 10
178.021240
 20
52.921330
 30
0.0
 10
179.191610
 20
54.442810
 30
0.0
 10
179.776790
 20
56.490940
 30
0.0
 10
179.776790
 20
59.065750
 30
0.0
  0
LWPOLYLINE
  5
2c2
100
AcDbEntity
  8
haotikum
 62
7
100
AcDbPolyline
 90
3
 70
1
 10
184.033910
 20
59.065750
 30
0.0
 10
184.033910
 20
59.065750
 30
0.0
 10
184.033910
 20
59.065750
 30
0.0
  0
LWPOLYLINE
  5
2c3
100
AcDbEntity
  8
haotikum
 62
7
100
AcDbPolyline
 90
3
 70
1
 10
179.776790
 20
59.065750
 30
0.0
 10
179.776790
 20
59.065750
 30
0.0
 10
179.776790
 20
59.065750
 30
0.0
  0
SPLINE
  5
2c4
100
AcDbEntity
  8
haotikum
 62
7
100
AcDbSpline
 70
8
 71
3
 72
8
 73
4
 74
0
 40
0
 40
0
 40
0
 40
0
 40
1
 40
1
 40
1
 40
1
 10
193.601730
 20
56.520240
 30
0.0
 10
193.601730
 20
55.379090
 30
0.0
 10
193.689510
 20
54.428100
 30
0.0
 10
193.865060
 20
53.667470
 30
0.0
  0
SPLINE
  5
2c5
100
AcDbEntity
  8
haotikum
 62
7
100
AcDbSpline
 70
8
 71
3
 72
8
 73
4
 74
0
 40
0
 40
0
 40
0
 40
0
 40
1
 40
1
 40
1
 40
1
 10
193.865060
 20
53.667470
 30
0.0
 10
194.040620
 20
52.935930
 30
0.0
 10
194.303950
 20
52.350810
 30
0.0
 10
194.655060
 20
51.911920
 30
0.0
  0
SPLINE
  5
2c6
100
AcDbEntity
  8
haotikum
 62
7
100
AcDbSpline
 70
8
 71
3
 72
8
 73
4
 74
0
 40
0
 40
0
 40
0
 40
0
 40
1
 40
1
 40
1
 40
1
 10
194.655060
 20
51.911920
 30
0.0
 10
195.006170
 20
51.502320
 30
0.0
 10
195.445050
 20
51.209660
 30
0.0
 10
195.971720
 20
51.034150
 30
0.0
  0
SPLINE
  5
2c7
100
AcDbEntity
  8
haotikum
 62
7
100
AcDbSpline
 70
8
 71
3
 72
8
 73
4
 74
0
 40
0
 40
0
 40
0
 40
0
 40
1
 40
1
 40
1
 40
1
 10
195.971720
 20
51.034150
 30
0.0
 10
196.498380
 20
50.858630
 30
0.0
 10
197.112820
 20
50.770780
 30
0.0
 10
197.815040
 20
50.770780
 30
0.0
  0
SPLINE
  5
2c8
100
AcDbEntity
  8
haotikum
 62
7
100
AcDbSpline
 70
8
 71
3
 72
8
 73
4
 74
0
 40
0
 40
0
 40
0
 40
0
 40
1
 40
1
 40
1
 40
1
 10
197.815040
 20
50.770780
 30
0.0
 10
199.043930
 20
50.770780
 30
0.0
 10
200.024100
 20
50.902360
 30
0.0
 10
200.755590
 20
51.165740
 30
0.0
  0
SPLINE
  5
2c9
100
AcDbEntity
  8
haotikum
 62
7
100
AcDbSpline
 70
8
 71
3
 72
8
 73
4
 74
0
 40
0
 40
0
 40
0
 40
0
 40
1
 40
1
 40
1
 40
1
 10
200.755590
 20
51.165740
 30
0.0
 10
201.516320
 20
51.458390
 30
0.0
 10
202.042980
 20
51.663190
 30
0.0
 10
202.335580
 20
51.780140
 30
0.0
  0
LWPOLYLINE
  5
2ca
100
AcDbEntity
  8
haotikum
 62
7
100
AcDbPolyline
 90
5
 70
1
 10
193.601730
 20
70.476800
 30
0.0
 10
202.247800
 20
70.476800
 30
0.0
 10
202.247800
 20
67.053480
 30
0.0
 10
193.601730
 20
67.053480
 30
0.0
 10
193.601730
 20
56.520240
 30
0.0
  0
SPLINE
  5
2cb
100
AcDbEntity
  8
haotikum
 62
7
100
AcDbSpline
 70
8
 71
3
 72
8
 73
4
 74
0
 40
0
 40
0
 40
0
 40
0
 40
1
 40
1
 40
1
 40
1
 10
203.125570
 20
48.400830
 30
0.0
 10
202.715950
 20
48.196030
 30
0.0
 10
201.999090
 20
47.947300
 30
0.0
 10
200.975030
 20
47.654640
 30
0.0
  0
SPLINE
  5
2cc
100
AcDbEntity
  8
haotikum
 62
7
100
AcDbSpline
 70
8
 71
3
 72
8
 73
4
 74
0
 40
0
 40
0
 40
0
 40
0
 40
1
 40
1
 40
1
 40
1
 10
200.975030
 20
47.654640
 30
0.0
 10
199.950970
 20
47.332900
 30
0.0
 10
198.780590
 20
47.171830
 30
0.0
 10
197.463930
 20
47.171830
 30
0.0
  0
SPLINE
  5
2cd
100
AcDbEntity
  8
haotikum
 62
7
100
AcDbSpline
 70
8
 71
3
 72
8
 73
4
 74
0
 40
0
 40
0
 40
0
 40
0
 40
1
 40
1
 40
1
 40
1
 10
197.463930
 20
47.171830
 30
0.0
 10
195.913210
 20
47.171830
 30
0.0
 10
194.625790
 20
47.362180
 30
0.0
 10
193.601730
 20
47.742500
 30
0.0
  0
SPLINE
  5
2ce
100
AcDbEntity
  8
haotikum
 62
7
100
AcDbSpline
 70
8
 71
3
 72
8
 73
4
 74
0
 40
0
 40
0
 40
0
 40
0
 40
1
 40
1
 40
1
 40
1
 10
193.601730
 20
47.742500
 30
0.0
 10
192.606910
 20
48.152100
 30
0.0
 10
191.802290
 20
48.751860
 30
0.0
 10
191.187850
 20
49.541970
 30
0.0
  0
SPLINE
  5
2cf
100
AcDbEntity
  8
haotikum
 62
7
100
AcDbSpline
 70
8
 71
3
 72
8
 73
4
 74
0
 40
0
 40
0
 40
0
 40
0
 40
1
 40
1
 40
1
 40
1
 10
191.187850
 20
49.541970
 30
0.0
 10
190.573410
 20
50.331890
 30
0.0
 10
190.134520
 20
51.297520
 30
0.0
 10
189.871190
 20
52.438470
 30
0.0
  0
SPLINE
  5
2d0
100
AcDbEntity
  8
haotikum
 62
7
100
AcDbSpline
 70
8
 71
3
 72
8
 73
4
 74
0
 40
0
 40
0
 40
0
 40
0
 40
1
 40
1
 40
1
 40
1
 10
189.871190
 20
52.438470
 30
0.0
 10
189.637120
 20
53.608900
 30
0.0
 10
189.520080
 20
54.954850
 30
0.0
 10
189.520080
 20
56.476310
 30
0.0
  0
LWPOLYLINE
  5
2d1
100
AcDbEntity
  8
haotikum
 62
7
100
AcDbPolyline
 90
2
 70
1
 10
202.335580
 20
51.780140
 30
0.0
 10
203.125570
 20
48.400830
 30
0.0
  0
LWPOLYLINE
  5
2d2
100
AcDbEntity
  8
haotikum
 62
7
100
AcDbPolyline
 90
6
 70
1
 10
189.520080
 20
56.476310
 30
0.0
 10
189.520080
 20
76.840660
 30
0.0
 10
193.601730
 20
77.542880
 30
0.0
 10
193.601730
 20
70.476800
 30
0.0
 10
193.601730
 20
70.476800
 30
0.0
 10
193.601730
 20
70.476800
 30
0.0
  0
SPLINE
  5
2d3
100
AcDbEntity
  8
haotikum
 62
7
100
AcDbSpline
 70
8
 71
3
 72
8
 73
4
 74
0
 40
0
 40
0
 40
0
 40
0
 40
1
 40
1
 40
1
 40
1
 10
209.445540
 20
74.602340
 30
0.0
 10
208.714060
 20
74.602340
 30
0.0
 10
208.084990
 20
74.836410
 30
0.0
 10
207.558330
 20
75.304560
 30
0.0
  0
SPLINE
  5
2d4
100
AcDbEntity
  8
haotikum
 62
7
100
AcDbSpline
 70
8
 71
3
 72
8
 73
4
 74
0
 40
0
 40
0
 40
0
 40
0
 40
1
 40
1
 40
1
 40
1
 10
207.558330
 20
75.304560
 30
0.0
 10
207.060920
 20
75.801960
 30
0.0
 10
206.812220
 20
76.460290
 30
0.0
 10
206.812220
 20
77.279550
 30
0.0
  0
SPLINE
  5
2d5
100
AcDbEntity
  8
haotikum
 62
7
100
AcDbSpline
 70
8
 71
3
 72
8
 73
4
 74
0
 40
0
 40
0
 40
0
 40
0
 40
1
 40
1
 40
1
 40
1
 10
206.812220
 20
77.279550
 30
0.0
 10
206.812220
 20
78.098810
 30
0.0
 10
207.060920
 20
78.742510
 30
0.0
 10
207.558330
 20
79.210650
 30
0.0
  0
SPLINE
  5
2d6
100
AcDbEntity
  8
haotikum
 62
7
100
AcDbSpline
 70
8
 71
3
 72
8
 73
4
 74
0
 40
0
 40
0
 40
0
 40
0
 40
1
 40
1
 40
1
 40
1
 10
207.558330
 20
79.210650
 30
0.0
 10
208.084990
 20
79.708060
 30
0.0
 10
208.714060
 20
79.956760
 30
0.0
 10
209.445540
 20
79.956760
 30
0.0
  0
SPLINE
  5
2d7
100
AcDbEntity
  8
haotikum
 62
7
100
AcDbSpline
 70
8
 71
3
 72
8
 73
4
 74
0
 40
0
 40
0
 40
0
 40
0
 40
1
 40
1
 40
1
 40
1
 10
209.445540
 20
79.956760
 30
0.0
 10
210.177030
 20
79.956760
 30
0.0
 10
210.791470
 20
79.708060
 30
0.0
 10
211.288870
 20
79.210650
 30
0.0
  0
SPLINE
  5
2d8
100
AcDbEntity
  8
haotikum
 62
7
100
AcDbSpline
 70
8
 71
3
 72
8
 73
4
 74
0
 40
0
 40
0
 40
0
 40
0
 40
1
 40
1
 40
1
 40
1
 10
211.288870
 20
79.210650
 30
0.0
 10
211.815530
 20
78.742510
 30
0.0
 10
212.078860
 20
78.098810
 30
0.0
 10
212.078860
 20
77.279550
 30
0.0
  0
SPLINE
  5
2d9
100
AcDbEntity
  8
haotikum
 62
7
100
AcDbSpline
 70
8
 71
3
 72
8
 73
4
 74
0
 40
0
 40
0
 40
0
 40
0
 40
1
 40
1
 40
1
 40
1
 10
212.078860
 20
77.279550
 30
0.0
 10
212.078860
 20
76.460290
 30
0.0
 10
211.815530
 20
75.801960
 30
0.0
 10
211.288870
 20
75.304560
 30
0.0
  0
SPLINE
  5
2da
100
AcDbEntity
  8
haotikum
 62
7
100
AcDbSpline
 70
8
 71
3
 72
8
 73
4
 74
0
 40
0
 40
0
 40
0
 40
0
 40
1
 40
1
 40
1
 40
1
 10
211.288870
 20
75.304560
 30
0.0
 10
210.791470
 20
74.836410
 30
0.0
 10
210.177030
 20
74.602340
 30
0.0
 10
209.445540
 20
74.602340
 30
0.0
  0
LWPOLYLINE
  5
2db
100
AcDbEntity
  8
haotikum
 62
7
100
AcDbPolyline
 90
6
 70
1
 10
211.508310
 20
47.654640
 30
0.0
 10
207.426660
 20
47.654640
 30
0.0
 10
207.426660
 20
70.476800
 30
0.0
 10
211.508310
 20
70.476800
 30
0.0
 10
211.508310
 20
47.654640
 30
0.0
 10
211.508310
 20
47.654640
 30
0.0
  0
SPLINE
  5
2dc
100
AcDbEntity
  8
haotikum
 62
7
100
AcDbSpline
 70
8
 71
3
 72
8
 73
4
 74
0
 40
0
 40
0
 40
0
 40
0
 40
1
 40
1
 40
1
 40
1
 10
226.781580
 20
60.206850
 30
0.0
 10
227.659360
 20
59.533880
 30
0.0
 10
228.581020
 20
58.700030
 30
0.0
 10
229.546570
 20
57.705120
 30
0.0
  0
SPLINE
  5
2dd
100
AcDbEntity
  8
haotikum
 62
7
100
AcDbSpline
 70
8
 71
3
 72
8
 73
4
 74
0
 40
0
 40
0
 40
0
 40
0
 40
1
 40
1
 40
1
 40
1
 10
229.546570
 20
57.705120
 30
0.0
 10
230.541390
 20
56.710400
 30
0.0
 10
231.506940
 20
55.627820
 30
0.0
 10
232.443230
 20
54.457390
 30
0.0
  0
SPLINE
  5
2de
100
AcDbEntity
  8
haotikum
 62
7
100
AcDbSpline
 70
8
 71
3
 72
8
 73
4
 74
0
 40
0
 40
0
 40
0
 40
0
 40
1
 40
1
 40
1
 40
1
 10
232.443230
 20
54.457390
 30
0.0
 10
233.408780
 20
53.316250
 30
0.0
 10
234.315820
 20
52.146010
 30
0.0
 10
235.164320
 20
50.946300
 30
0.0
  0
SPLINE
  5
2df
100
AcDbEntity
  8
haotikum
 62
7
100
AcDbSpline
 70
8
 71
3
 72
8
 73
4
 74
0
 40
0
 40
0
 40
0
 40
0
 40
1
 40
1
 40
1
 40
1
 10
235.164320
 20
50.946300
 30
0.0
 10
236.012830
 20
49.776060
 30
0.0
 10
236.729690
 20
48.678850
 30
0.0
 10
237.314870
 20
47.654640
 30
0.0
  0
LWPOLYLINE
  5
2e0
100
AcDbEntity
  8
haotikum
 62
7
100
AcDbPolyline
 90
2
 70
1
 10
209.445540
 20
74.602340
 30
0.0
 10
209.445540
 20
74.602340
 30
0.0
  0
SPLINE
  5
2e1
100
AcDbEntity
  8
haotikum
 62
7
100
AcDbSpline
 70
8
 71
3
 72
8
 73
4
 74
0
 40
0
 40
0
 40
0
 40
0
 40
1
 40
1
 40
1
 40
1
 10
232.531000
 20
47.654640
 30
0.0
 10
231.916560
 20
48.678850
 30
0.0
 10
231.199720
 20
49.717490
 30
0.0
 10
230.380460
 20
50.770780
 30
0.0
  0
SPLINE
  5
2e2
100
AcDbEntity
  8
haotikum
 62
7
100
AcDbSpline
 70
8
 71
3
 72
8
 73
4
 74
0
 40
0
 40
0
 40
0
 40
0
 40
1
 40
1
 40
1
 40
1
 10
230.380460
 20
50.770780
 30
0.0
 10
229.590460
 20
51.853360
 30
0.0
 10
228.756580
 20
52.877360
 30
0.0
 10
227.878800
 20
53.842990
 30
0.0
  0
SPLINE
  5
2e3
100
AcDbEntity
  8
haotikum
 62
7
100
AcDbSpline
 70
8
 71
3
 72
8
 73
4
 74
0
 40
0
 40
0
 40
0
 40
0
 40
1
 40
1
 40
1
 40
1
 10
227.878800
 20
53.842990
 30
0.0
 10
227.001030
 20
54.837710
 30
0.0
 10
226.108630
 20
55.744770
 30
0.0
 10
225.201590
 20
56.564170
 30
0.0
  0
SPLINE
  5
2e4
100
AcDbEntity
  8
haotikum
 62
7
100
AcDbSpline
 70
8
 71
3
 72
8
 73
4
 74
0
 40
0
 40
0
 40
0
 40
0
 40
1
 40
1
 40
1
 40
1
 10
225.201590
 20
56.564170
 30
0.0
 10
224.294550
 20
57.383370
 30
0.0
 10
223.431420
 20
58.070990
 30
0.0
 10
222.612160
 20
58.626820
 30
0.0
  0
LWPOLYLINE
  5
2e5
100
AcDbEntity
  8
haotikum
 62
7
100
AcDbPolyline
 90
2
 70
1
 10
237.314870
 20
47.654640
 30
0.0
 10
232.531000
 20
47.654640
 30
0.0
  0
SPLINE
  5
2e6
100
AcDbEntity
  8
haotikum
 62
7
100
AcDbSpline
 70
8
 71
3
 72
8
 73
4
 74
0
 40
0
 40
0
 40
0
 40
0
 40
1
 40
1
 40
1
 40
1
 10
222.612160
 20
60.909110
 30
0.0
 10
223.314380
 20
61.611370
 30
0.0
 10
224.089750
 20
62.386660
 30
0.0
 10
224.938260
 20
63.235170
 30
0.0
  0
SPLINE
  5
2e7
100
AcDbEntity
  8
haotikum
 62
7
100
AcDbSpline
 70
8
 71
3
 72
8
 73
4
 74
0
 40
0
 40
0
 40
0
 40
0
 40
1
 40
1
 40
1
 40
1
 10
224.938260
 20
63.235170
 30
0.0
 10
225.786770
 20
64.083680
 30
0.0
 10
226.620650
 20
64.946830
 30
0.0
 10
227.439910
 20
65.824600
 30
0.0
  0
SPLINE
  5
2e8
100
AcDbEntity
  8
haotikum
 62
7
100
AcDbSpline
 70
8
 71
3
 72
8
 73
4
 74
0
 40
0
 40
0
 40
0
 40
0
 40
1
 40
1
 40
1
 40
1
 10
227.439910
 20
65.824600
 30
0.0
 10
228.259180
 20
66.702380
 30
0.0
 10
229.034530
 20
67.536260
 30
0.0
 10
229.766020
 20
68.326260
 30
0.0
  0
SPLINE
  5
2e9
100
AcDbEntity
  8
haotikum
 62
7
100
AcDbSpline
 70
8
 71
3
 72
8
 73
4
 74
0
 40
0
 40
0
 40
0
 40
0
 40
1
 40
1
 40
1
 40
1
 10
229.766020
 20
68.326260
 30
0.0
 10
230.497500
 20
69.145520
 30
0.0
 10
231.126560
 20
69.862360
 30
0.0
 10
231.653230
 20
70.476800
 30
0.0
  0
LWPOLYLINE
  5
2ea
100
AcDbEntity
  8
haotikum
 62
7
100
AcDbPolyline
 90
6
 70
1
 10
222.612160
 20
58.626820
 30
0.0
 10
222.612160
 20
47.654640
 30
0.0
 10
218.530510
 20
47.654640
 30
0.0
 10
218.530510
 20
81.010090
 30
0.0
 10
222.612160
 20
81.712310
 30
0.0
 10
222.612160
 20
60.909110
 30
0.0
  0
SPLINE
  5
2eb
100
AcDbEntity
  8
haotikum
 62
7
100
AcDbSpline
 70
8
 71
3
 72
8
 73
4
 74
0
 40
0
 40
0
 40
0
 40
0
 40
1
 40
1
 40
1
 40
1
 10
236.437100
 20
70.476800
 30
0.0
 10
235.764140
 20
69.745320
 30
0.0
 10
235.032660
 20
68.940700
 30
0.0
 10
234.242660
 20
68.062930
 30
0.0
  0
SPLINE
  5
2ec
100
AcDbEntity
  8
haotikum
 62
7
100
AcDbSpline
 70
8
 71
3
 72
8
 73
4
 74
0
 40
0
 40
0
 40
0
 40
0
 40
1
 40
1
 40
1
 40
1
 10
234.242660
 20
68.062930
 30
0.0
 10
233.452670
 20
67.185150
 30
0.0
 10
232.633400
 20
66.292760
 30
0.0
 10
231.784900
 20
65.385720
 30
0.0
  0
SPLINE
  5
2ed
100
AcDbEntity
  8
haotikum
 62
7
100
AcDbSpline
 70
8
 71
3
 72
8
 73
4
 74
0
 40
0
 40
0
 40
0
 40
0
 40
1
 40
1
 40
1
 40
1
 10
231.784900
 20
65.385720
 30
0.0
 10
230.936390
 20
64.507940
 30
0.0
 10
230.073240
 20
63.615550
 30
0.0
 10
229.195460
 20
62.708510
 30
0.0
  0
SPLINE
  5
2ee
100
AcDbEntity
  8
haotikum
 62
7
100
AcDbSpline
 70
8
 71
3
 72
8
 73
4
 74
0
 40
0
 40
0
 40
0
 40
0
 40
1
 40
1
 40
1
 40
1
 10
229.195460
 20
62.708510
 30
0.0
 10
228.346950
 20
61.830810
 30
0.0
 10
227.542320
 20
60.996770
 30
0.0
 10
226.781580
 20
60.206850
 30
0.0
  0
LWPOLYLINE
  5
2ef
100
AcDbEntity
  8
haotikum
 62
7
100
AcDbPolyline
 90
2
 70
1
 10
231.653230
 20
70.476800
 30
0.0
 10
236.437100
 20
70.476800
 30
0.0
  0
SPLINE
  5
2f0
100
AcDbEntity
  8
haotikum
 62
7
100
AcDbSpline
 70
8
 71
3
 72
8
 73
4
 74
0
 40
0
 40
0
 40
0
 40
0
 40
1
 40
1
 40
1
 40
1
 10
259.610320
 20
48.313010
 30
0.0
 10
258.674040
 20
48.078920
 30
0.0
 10
257.430510
 20
47.830190
 30
0.0
 10
255.879780
 20
47.566820
 30
0.0
  0
SPLINE
  5
2f1
100
AcDbEntity
  8
haotikum
 62
7
100
AcDbSpline
 70
8
 71
3
 72
8
 73
4
 74
0
 40
0
 40
0
 40
0
 40
0
 40
1
 40
1
 40
1
 40
1
 10
255.879780
 20
47.566820
 30
0.0
 10
254.358300
 20
47.303650
 30
0.0
 10
252.588130
 20
47.171860
 30
0.0
 10
250.569250
 20
47.171860
 30
0.0
  0
SPLINE
  5
2f2
100
AcDbEntity
  8
haotikum
 62
7
100
AcDbSpline
 70
8
 71
3
 72
8
 73
4
 74
0
 40
0
 40
0
 40
0
 40
0
 40
1
 40
1
 40
1
 40
1
 10
250.569250
 20
47.171860
 30
0.0
 10
248.813700
 20
47.171860
 30
0.0
 10
247.336110
 20
47.420590
 30
0.0
 10
246.136490
 20
47.918050
 30
0.0
  0
SPLINE
  5
2f3
100
AcDbEntity
  8
haotikum
 62
7
100
AcDbSpline
 70
8
 71
3
 72
8
 73
4
 74
0
 40
0
 40
0
 40
0
 40
0
 40
1
 40
1
 40
1
 40
1
 10
246.136490
 20
47.918050
 30
0.0
 10
244.936870
 20
48.444600
 30
0.0
 10
243.971320
 20
49.176140
 30
0.0
 10
243.239840
 20
50.112490
 30
0.0
  0
SPLINE
  5
2f4
100
AcDbEntity
  8
haotikum
 62
7
100
AcDbSpline
 70
8
 71
3
 72
8
 73
4
 74
0
 40
0
 40
0
 40
0
 40
0
 40
1
 40
1
 40
1
 40
1
 10
243.239840
 20
50.112490
 30
0.0
 10
242.508360
 20
51.048730
 30
0.0
 10
241.981700
 20
52.145950
 30
0.0
 10
241.659850
 20
53.404100
 30
0.0
  0
SPLINE
  5
2f5
100
AcDbEntity
  8
haotikum
 62
7
100
AcDbSpline
 70
8
 71
3
 72
8
 73
4
 74
0
 40
0
 40
0
 40
0
 40
0
 40
1
 40
1
 40
1
 40
1
 10
241.659850
 20
53.404100
 30
0.0
 10
241.338000
 20
54.691490
 30
0.0
 10
241.177070
 20
56.110570
 30
0.0
 10
241.177070
 20
57.661300
 30
0.0
  0
LWPOLYLINE
  5
2f6
100
AcDbEntity
  8
haotikum
 62
7
100
AcDbPolyline
 90
3
 70
1
 10
226.781580
 20
60.206850
 30
0.0
 10
226.781580
 20
60.206850
 30
0.0
 10
226.781580
 20
60.206850
 30
0.0
  0
SPLINE
  5
2f7
100
AcDbEntity
  8
haotikum
 62
7
100
AcDbSpline
 70
8
 71
3
 72
8
 73
4
 74
0
 40
0
 40
0
 40
0
 40
0
 40
1
 40
1
 40
1
 40
1
 10
245.258720
 20
58.539080
 30
0.0
 10
245.258720
 20
55.759460
 30
0.0
 10
245.697610
 20
53.769830
 30
0.0
 10
246.575380
 20
52.570210
 30
0.0
  0
SPLINE
  5
2f8
100
AcDbEntity
  8
haotikum
 62
7
100
AcDbSpline
 70
8
 71
3
 72
8
 73
4
 74
0
 40
0
 40
0
 40
0
 40
0
 40
1
 40
1
 40
1
 40
1
 10
246.575380
 20
52.570210
 30
0.0
 10
247.453150
 20
51.370600
 30
0.0
 10
248.930750
 20
50.770780
 30
0.0
 10
251.008140
 20
50.770780
 30
0.0
  0
SPLINE
  5
2f9
100
AcDbEntity
  8
haotikum
 62
7
100
AcDbSpline
 70
8
 71
3
 72
8
 73
4
 74
0
 40
0
 40
0
 40
0
 40
0
 40
1
 40
1
 40
1
 40
1
 10
251.008140
 20
50.770780
 30
0.0
 10
251.447020
 20
50.770780
 30
0.0
 10
251.900530
 20
50.785400
 30
0.0
 10
252.368690
 20
50.814670
 30
0.0
  0
SPLINE
  5
2fa
100
AcDbEntity
  8
haotikum
 62
7
100
AcDbSpline
 70
8
 71
3
 72
8
 73
4
 74
0
 40
0
 40
0
 40
0
 40
0
 40
1
 40
1
 40
1
 40
1
 10
252.368690
 20
50.814670
 30
0.0
 10
252.836840
 20
50.843930
 30
0.0
 10
253.275730
 20
50.873180
 30
0.0
 10
253.685350
 20
50.902440
 30
0.0
  0
SPLINE
  5
2fb
100
AcDbEntity
  8
haotikum
 62
7
100
AcDbSpline
 70
8
 71
3
 72
8
 73
4
 74
0
 40
0
 40
0
 40
0
 40
0
 40
1
 40
1
 40
1
 40
1
 10
253.685350
 20
50.902440
 30
0.0
 10
254.094970
 20
50.960950
 30
0.0
 10
254.460720
 20
51.004840
 30
0.0
 10
254.782560
 20
51.034110
 30
0.0
  0
SPLINE
  5
2fc
100
AcDbEntity
  8
haotikum
 62
7
100
AcDbSpline
 70
8
 71
3
 72
8
 73
4
 74
0
 40
0
 40
0
 40
0
 40
0
 40
1
 40
1
 40
1
 40
1
 10
254.782560
 20
51.034110
 30
0.0
 10
255.133670
 20
51.092620
 30
0.0
 10
255.382380
 20
51.151150
 30
0.0
 10
255.528670
 20
51.209660
 30
0.0
  0
LWPOLYLINE
  5
2fd
100
AcDbEntity
  8
haotikum
 62
7
100
AcDbPolyline
 90
4
 70
1
 10
241.177070
 20
57.661300
 30
0.0
 10
241.177070
 20
70.476800
 30
0.0
 10
245.258720
 20
70.476800
 30
0.0
 10
245.258720
 20
58.539080
 30
0.0
  0
SPLINE
  5
2fe
100
AcDbEntity
  8
haotikum
 62
7
100
AcDbSpline
 70
8
 71
3
 72
8
 73
4
 74
0
 40
0
 40
0
 40
0
 40
0
 40
1
 40
1
 40
1
 40
1
 10
266.632510
 20
69.818470
 30
0.0
 10
267.568800
 20
70.052550
 30
0.0
 10
268.797680
 20
70.301250
 30
0.0
 10
270.319160
 20
70.564580
 30
0.0
  0
SPLINE
  5
2ff
100
AcDbEntity
  8
haotikum
 62
7
100
AcDbSpline
 70
8
 71
3
 72
8
 73
4
 74
0
 40
0
 40
0
 40
0
 40
0
 40
1
 40
1
 40
1
 40
1
 10
270.319160
 20
70.564580
 30
0.0
 10
271.869890
 20
70.827910
 30
0.0
 10
273.654700
 20
70.959580
 30
0.0
 10
275.673580
 20
70.959580
 30
0.0
  0
SPLINE
  5
300
100
AcDbEntity
  8
haotikum
 62
7
100
AcDbSpline
 70
8
 71
3
 72
8
 73
4
 74
0
 40
0
 40
0
 40
0
 40
0
 40
1
 40
1
 40
1
 40
1
 10
275.673580
 20
70.959580
 30
0.0
 10
277.136530
 20
70.959580
 30
0.0
 10
278.365410
 20
70.754770
 30
0.0
 10
279.360230
 20
70.345140
 30
0.0
  0
SPLINE
  5
301
100
AcDbEntity
  8
haotikum
 62
7
100
AcDbSpline
 70
8
 71
3
 72
8
 73
4
 74
0
 40
0
 40
0
 40
0
 40
0
 40
1
 40
1
 40
1
 40
1
 10
279.360230
 20
70.345140
 30
0.0
 10
280.355050
 20
69.964770
 30
0.0
 10
281.188930
 20
69.394220
 30
0.0
 10
281.861890
 20
68.633480
 30
0.0
  0
SPLINE
  5
302
100
AcDbEntity
  8
haotikum
 62
7
100
AcDbSpline
 70
8
 71
3
 72
8
 73
4
 74
0
 40
0
 40
0
 40
0
 40
0
 40
1
 40
1
 40
1
 40
1
 10
281.861890
 20
68.633480
 30
0.0
 10
282.066710
 20
68.779770
 30
0.0
 10
282.388550
 20
68.984590
 30
0.0
 10
282.827440
 20
69.247920
 30
0.0
  0
SPLINE
  5
303
100
AcDbEntity
  8
haotikum
 62
7
100
AcDbSpline
 70
8
 71
3
 72
8
 73
4
 74
0
 40
0
 40
0
 40
0
 40
0
 40
1
 40
1
 40
1
 40
1
 10
282.827440
 20
69.247920
 30
0.0
 10
283.266320
 20
69.511250
 30
0.0
 10
283.807610
 20
69.759960
 30
0.0
 10
284.451320
 20
69.994030
 30
0.0
  0
SPLINE
  5
304
100
AcDbEntity
  8
haotikum
 62
7
100
AcDbSpline
 70
8
 71
3
 72
8
 73
4
 74
0
 40
0
 40
0
 40
0
 40
0
 40
1
 40
1
 40
1
 40
1
 10
284.451320
 20
69.994030
 30
0.0
 10
285.095030
 20
70.257360
 30
0.0
 10
285.811870
 20
70.476800
 30
0.0
 10
286.601870
 20
70.652360
 30
0.0
  0
SPLINE
  5
305
100
AcDbEntity
  8
haotikum
 62
7
100
AcDbSpline
 70
8
 71
3
 72
8
 73
4
 74
0
 40
0
 40
0
 40
0
 40
0
 40
1
 40
1
 40
1
 40
1
 10
286.601870
 20
70.652360
 30
0.0
 10
287.391780
 20
70.857170
 30
0.0
 10
288.240470
 20
70.959580
 30
0.0
 10
289.147330
 20
70.959580
 30
0.0
  0
SPLINE
  5
306
100
AcDbEntity
  8
haotikum
 62
7
100
AcDbSpline
 70
8
 71
3
 72
8
 73
4
 74
0
 40
0
 40
0
 40
0
 40
0
 40
1
 40
1
 40
1
 40
1
 10
289.147330
 20
70.959580
 30
0.0
 10
290.902880
 20
70.959580
 30
0.0
 10
292.336680
 20
70.696250
 30
0.0
 10
293.448540
 20
70.169580
 30
0.0
  0
SPLINE
  5
307
100
AcDbEntity
  8
haotikum
 62
7
100
AcDbSpline
 70
8
 71
3
 72
8
 73
4
 74
0
 40
0
 40
0
 40
0
 40
0
 40
1
 40
1
 40
1
 40
1
 10
293.448540
 20
70.169580
 30
0.0
 10
294.560400
 20
69.672180
 30
0.0
 10
295.423530
 20
68.955320
 30
0.0
 10
296.037930
 20
68.019040
 30
0.0
  0
SPLINE
  5
308
100
AcDbEntity
  8
haotikum
 62
7
100
AcDbSpline
 70
8
 71
3
 72
8
 73
4
 74
0
 40
0
 40
0
 40
0
 40
0
 40
1
 40
1
 40
1
 40
1
 10
296.037930
 20
68.019040
 30
0.0
 10
296.681620
 20
67.082750
 30
0.0
 10
297.105870
 20
65.970890
 30
0.0
 10
297.310670
 20
64.683500
 30
0.0
  0
SPLINE
  5
309
100
AcDbEntity
  8
haotikum
 62
7
100
AcDbSpline
 70
8
 71
3
 72
8
 73
4
 74
0
 40
0
 40
0
 40
0
 40
0
 40
1
 40
1
 40
1
 40
1
 10
297.310670
 20
64.683500
 30
0.0
 10
297.544750
 20
63.396100
 30
0.0
 10
297.661900
 20
61.991660
 30
0.0
 10
297.661900
 20
60.470180
 30
0.0
  0
LWPOLYLINE
  5
30a
100
AcDbEntity
  8
haotikum
 62
7
100
AcDbPolyline
 90
6
 70
1
 10
255.528670
 20
51.209660
 30
0.0
 10
255.528670
 20
70.476800
 30
0.0
 10
259.610320
 20
70.476800
 30
0.0
 10
259.610320
 20
48.313010
 30
0.0
 10
259.610320
 20
48.313010
 30
0.0
 10
259.610320
 20
48.313010
 30
0.0
  0
SPLINE
  5
30b
100
AcDbEntity
  8
haotikum
 62
7
100
AcDbSpline
 70
8
 71
3
 72
8
 73
4
 74
0
 40
0
 40
0
 40
0
 40
0
 40
1
 40
1
 40
1
 40
1
 10
293.580130
 20
59.592410
 30
0.0
 10
293.580130
 20
60.938330
 30
0.0
 10
293.507110
 20
62.094060
 30
0.0
 10
293.360680
 20
63.059620
 30
0.0
  0
SPLINE
  5
30c
100
AcDbEntity
  8
haotikum
 62
7
100
AcDbSpline
 70
8
 71
3
 72
8
 73
4
 74
0
 40
0
 40
0
 40
0
 40
0
 40
1
 40
1
 40
1
 40
1
 10
293.360680
 20
63.059620
 30
0.0
 10
293.243740
 20
64.025170
 30
0.0
 10
292.995010
 20
64.829790
 30
0.0
 10
292.614700
 20
65.473490
 30
0.0
  0
SPLINE
  5
30d
100
AcDbEntity
  8
haotikum
 62
7
100
AcDbSpline
 70
8
 71
3
 72
8
 73
4
 74
0
 40
0
 40
0
 40
0
 40
0
 40
1
 40
1
 40
1
 40
1
 10
292.614700
 20
65.473490
 30
0.0
 10
292.263470
 20
66.117200
 30
0.0
 10
291.766010
 20
66.585330
 30
0.0
 10
291.122320
 20
66.877930
 30
0.0
  0
SPLINE
  5
30e
100
AcDbEntity
  8
haotikum
 62
7
100
AcDbSpline
 70
8
 71
3
 72
8
 73
4
 74
0
 40
0
 40
0
 40
0
 40
0
 40
1
 40
1
 40
1
 40
1
 10
291.122320
 20
66.877930
 30
0.0
 10
290.507920
 20
67.199780
 30
0.0
 10
289.703360
 20
67.360710
 30
0.0
 10
288.708440
 20
67.360710
 30
0.0
  0
SPLINE
  5
30f
100
AcDbEntity
  8
haotikum
 62
7
100
AcDbSpline
 70
8
 71
3
 72
8
 73
4
 74
0
 40
0
 40
0
 40
0
 40
0
 40
1
 40
1
 40
1
 40
1
 10
288.708440
 20
67.360710
 30
0.0
 10
287.333410
 20
67.360710
 30
0.0
 10
286.192240
 20
67.170530
 30
0.0
 10
285.285200
 20
66.790150
 30
0.0
  0
SPLINE
  5
310
100
AcDbEntity
  8
haotikum
 62
7
100
AcDbSpline
 70
8
 71
3
 72
8
 73
4
 74
0
 40
0
 40
0
 40
0
 40
0
 40
1
 40
1
 40
1
 40
1
 10
285.285200
 20
66.790150
 30
0.0
 10
284.407430
 20
66.439040
 30
0.0
 10
283.807610
 20
66.117200
 30
0.0
 10
283.485770
 20
65.824600
 30
0.0
  0
SPLINE
  5
311
100
AcDbEntity
  8
haotikum
 62
7
100
AcDbSpline
 70
8
 71
3
 72
8
 73
4
 74
0
 40
0
 40
0
 40
0
 40
0
 40
1
 40
1
 40
1
 40
1
 10
283.485770
 20
65.824600
 30
0.0
 10
283.719830
 20
65.063870
 30
0.0
 10
283.895390
 20
64.229990
 30
0.0
 10
284.012430
 20
63.322950
 30
0.0
  0
SPLINE
  5
312
100
AcDbEntity
  8
haotikum
 62
7
100
AcDbSpline
 70
8
 71
3
 72
8
 73
4
 74
0
 40
0
 40
0
 40
0
 40
0
 40
1
 40
1
 40
1
 40
1
 10
284.012430
 20
63.322950
 30
0.0
 10
284.129480
 20
62.415910
 30
0.0
 10
284.187990
 20
61.465000
 30
0.0
 10
284.187990
 20
60.470180
 30
0.0
  0
LWPOLYLINE
  5
313
100
AcDbEntity
  8
haotikum
 62
7
100
AcDbPolyline
 90
4
 70
1
 10
297.661900
 20
60.470180
 30
0.0
 10
297.661900
 20
47.654640
 30
0.0
 10
293.580130
 20
47.654640
 30
0.0
 10
293.580130
 20
59.592410
 30
0.0
  0
SPLINE
  5
314
100
AcDbEntity
  8
haotikum
 62
7
100
AcDbSpline
 70
8
 71
3
 72
8
 73
4
 74
0
 40
0
 40
0
 40
0
 40
0
 40
1
 40
1
 40
1
 40
1
 10
280.106340
 20
59.592410
 30
0.0
 10
280.106340
 20
60.938330
 30
0.0
 10
280.033200
 20
62.094060
 30
0.0
 10
279.886900
 20
63.059620
 30
0.0
  0
SPLINE
  5
315
100
AcDbEntity
  8
haotikum
 62
7
100
AcDbSpline
 70
8
 71
3
 72
8
 73
4
 74
0
 40
0
 40
0
 40
0
 40
0
 40
1
 40
1
 40
1
 40
1
 10
279.886900
 20
63.059620
 30
0.0
 10
279.740610
 20
64.025170
 30
0.0
 10
279.477270
 20
64.829790
 30
0.0
 10
279.096900
 20
65.473490
 30
0.0
  0
SPLINE
  5
316
100
AcDbEntity
  8
haotikum
 62
7
100
AcDbSpline
 70
8
 71
3
 72
8
 73
4
 74
0
 40
0
 40
0
 40
0
 40
0
 40
1
 40
1
 40
1
 40
1
 10
279.096900
 20
65.473490
 30
0.0
 10
278.745790
 20
66.117200
 30
0.0
 10
278.248390
 20
66.585330
 30
0.0
 10
277.604680
 20
66.877930
 30
0.0
  0
SPLINE
  5
317
100
AcDbEntity
  8
haotikum
 62
7
100
AcDbSpline
 70
8
 71
3
 72
8
 73
4
 74
0
 40
0
 40
0
 40
0
 40
0
 40
1
 40
1
 40
1
 40
1
 10
277.604680
 20
66.877930
 30
0.0
 10
276.990240
 20
67.199780
 30
0.0
 10
276.200250
 20
67.360710
 30
0.0
 10
275.234690
 20
67.360710
 30
0.0
  0
SPLINE
  5
318
100
AcDbEntity
  8
haotikum
 62
7
100
AcDbSpline
 70
8
 71
3
 72
8
 73
4
 74
0
 40
0
 40
0
 40
0
 40
0
 40
1
 40
1
 40
1
 40
1
 10
275.234690
 20
67.360710
 30
0.0
 10
274.825070
 20
67.360710
 30
0.0
 10
274.386190
 20
67.346080
 30
0.0
 10
273.918050
 20
67.316820
 30
0.0
  0
SPLINE
  5
319
100
AcDbEntity
  8
haotikum
 62
7
100
AcDbSpline
 70
8
 71
3
 72
8
 73
4
 74
0
 40
0
 40
0
 40
0
 40
0
 40
1
 40
1
 40
1
 40
1
 10
273.918050
 20
67.316820
 30
0.0
 10
273.449900
 20
67.287550
 30
0.0
 10
272.996370
 20
67.243660
 30
0.0
 10
272.557480
 20
67.185150
 30
0.0
  0
SPLINE
  5
31a
100
AcDbEntity
  8
haotikum
 62
7
100
AcDbSpline
 70
8
 71
3
 72
8
 73
4
 74
0
 40
0
 40
0
 40
0
 40
0
 40
1
 40
1
 40
1
 40
1
 10
272.557480
 20
67.185150
 30
0.0
 10
272.147860
 20
67.155890
 30
0.0
 10
271.767510
 20
67.112000
 30
0.0
 10
271.416400
 20
67.053490
 30
0.0
  0
SPLINE
  5
31b
100
AcDbEntity
  8
haotikum
 62
7
100
AcDbSpline
 70
8
 71
3
 72
8
 73
4
 74
0
 40
0
 40
0
 40
0
 40
0
 40
1
 40
1
 40
1
 40
1
 10
271.416400
 20
67.053490
 30
0.0
 10
271.065270
 20
66.994970
 30
0.0
 10
270.831200
 20
66.951090
 30
0.0
 10
270.714180
 20
66.921820
 30
0.0
  0
LWPOLYLINE
  5
31c
100
AcDbEntity
  8
haotikum
 62
7
100
AcDbPolyline
 90
4
 70
1
 10
284.187990
 20
60.470180
 30
0.0
 10
284.187990
 20
47.654640
 30
0.0
 10
280.106340
 20
47.654640
 30
0.0
 10
280.106340
 20
59.592410
 30
0.0
  0
LWPOLYLINE
  5
31d
100
AcDbEntity
  8
haotikum
 62
7
100
AcDbPolyline
 90
6
 70
1
 10
270.714180
 20
66.921820
 30
0.0
 10
270.714180
 20
47.654640
 30
0.0
 10
266.632520
 20
47.654640
 30
0.0
 10
266.632520
 20
69.818470
 30
0.0
 10
266.632510
 20
69.818470
 30
0.0
 10
266.632510
 20
69.818470
 30
0.0
  0
LWPOLYLINE
  5
31e
100
AcDbEntity
  8
base
 62
7
100
AcDbPolyline
 90
10
 70
1
 10
36.613820
 20
91.123390
 30
0.0
 10
29.346860
 20
83.856430
 30
0.0
 10
29.346860
 20
30.368420
 30
0.0
 10
36.613820
 20
23.103830
 30
0.0
 10
90.102030
 20
23.103830
 30
0.0
 10
97.368790
 20
30.368420
 30
0.0
 10
97.368790
 20
83.856430
 30
0.0
 10
90.102030
 20
91.123390
 30
0.0
 10
36.613820
 20
91.123390
 30
0.0
 10
36.613820
 20
91.123390
 30
0.0
  0
LWPOLYLINE
  5
31f
100
AcDbEntity
  8
Feet
 62
7
100
AcDbPolyline
 90
7
 70
1
 10
16.980900
 20
77.660460
 30
0.0
 10
29.348090
 20
77.660460
 30
0.0
 10
29.348090
 20
83.844060
 30
0.0
 10
16.980900
 20
83.844060
 30
0.0
 10
16.980900
 20
77.660460
 30
0.0
 10
16.980900
 20
77.660460
 30
0.0
 10
16.980900
 20
77.660460
 30
0.0
  0
LWPOLYLINE
  5
320
100
AcDbEntity
  8
Feet
 62
7
100
AcDbPolyline
 90
6
 70
1
 10
16.980900
 20
65.839900
 30
0.0
 10
29.348090
 20
65.839900
 30
0.0
 10
29.348090
 20
72.023500
 30
0.0
 10
16.980900
 20
72.023500
 30
0.0
 10
16.980900
 20
65.839900
 30
0.0
 10
16.980900
 20
65.839900
 30
0.0
  0
LWPOLYLINE
  5
321
100
AcDbEntity
  8
Feet
 62
7
100
AcDbPolyline
 90
6
 70
1
 10
16.980900
 20
54.021810
 30
0.0
 10
29.348090
 20
54.021810
 30
0.0
 10
29.348090
 20
60.205410
 30
0.0
 10
16.980900
 20
60.205410
 30
0.0
 10
16.980900
 20
54.021810
 30
0.0
 10
16.980900
 20
54.021810
 30
0.0
  0
LWPOLYLINE
  5
322
100
AcDbEntity
  8
Feet
 62
7
100
AcDbPolyline
 90
6
 70
1
 10
16.980900
 20
42.203720
 30
0.0
 10
29.348090
 20
42.203720
 30
0.0
 10
29.348090
 20
48.387320
 30
0.0
 10
16.980900
 20
48.387320
 30
0.0
 10
16.980900
 20
42.203720
 30
0.0
 10
16.980900
 20
42.203720
 30
0.0
  0
LWPOLYLINE
  5
323
100
AcDbEntity
  8
Feet
 62
7
100
AcDbPolyline
 90
6
 70
1
 10
16.980900
 20
30.383150
 30
0.0
 10
29.348090
 20
30.383150
 30
0.0
 10
29.348090
 20
36.566750
 30
0.0
 10
16.980900
 20
36.566750
 30
0.0
 10
16.980900
 20
30.383150
 30
0.0
 10
16.980900
 20
30.383150
 30
0.0
  0
LWPOLYLINE
  5
324
100
AcDbEntity
  8
Feet
 62
7
100
AcDbPolyline
 90
6
 70
1
 10
42.803600
 20
103.490580
 30
0.0
 10
36.620000
 20
103.490580
 30
0.0
 10
36.620000
 20
91.123390
 30
0.0
 10
42.803600
 20
91.123390
 30
0.0
 10
42.803600
 20
103.490580
 30
0.0
 10
42.803600
 20
103.490580
 30
0.0
  0
LWPOLYLINE
  5
325
100
AcDbEntity
  8
Feet
 62
7
100
AcDbPolyline
 90
6
 70
1
 10
54.621690
 20
103.490580
 30
0.0
 10
48.438090
 20
103.490580
 30
0.0
 10
48.438090
 20
91.123390
 30
0.0
 10
54.621690
 20
91.123390
 30
0.0
 10
54.621690
 20
103.490580
 30
0.0
 10
54.621690
 20
103.490580
 30
0.0
  0
LWPOLYLINE
  5
326
100
AcDbEntity
  8
Feet
 62
7
100
AcDbPolyline
 90
6
 70
1
 10
66.442250
 20
103.490580
 30
0.0
 10
60.258650
 20
103.490580
 30
0.0
 10
60.258650
 20
91.123390
 30
0.0
 10
66.442250
 20
91.123390
 30
0.0
 10
66.442250
 20
103.490580
 30
0.0
 10
66.442250
 20
103.490580
 30
0.0
  0
LWPOLYLINE
  5
327
100
AcDbEntity
  8
Feet
 62
7
100
AcDbPolyline
 90
6
 70
1
 10
78.260340
 20
103.490580
 30
0.0
 10
72.076740
 20
103.490580
 30
0.0
 10
72.076740
 20
91.123390
 30
0.0
 10
78.260340
 20
91.123390
 30
0.0
 10
78.260340
 20
103.490580
 30
0.0
 10
78.260340
 20
103.490580
 30
0.0
  0
LWPOLYLINE
  5
328
100
AcDbEntity
  8
Feet
 62
7
100
AcDbPolyline
 90
6
 70
1
 10
90.078430
 20
103.490580
 30
0.0
 10
83.894830
 20
103.490580
 30
0.0
 10
83.894830
 20
91.123390
 30
0.0
 10
90.078430
 20
91.123390
 30
0.0
 10
90.078430
 20
103.490580
 30
0.0
 10
90.078430
 20
103.490580
 30
0.0
  0
LWPOLYLINE
  5
329
100
AcDbEntity
  8
Feet
 62
7
100
AcDbPolyline
 90
7
 70
1
 10
97.367650
 20
77.660460
 30
0.0
 10
109.734840
 20
77.660460
 30
0.0
 10
109.734840
 20
83.844060
 30
0.0
 10
97.367650
 20
83.844060
 30
0.0
 10
97.367650
 20
77.660460
 30
0.0
 10
97.367650
 20
77.660460
 30
0.0
 10
97.367650
 20
77.660460
 30
0.0
  0
LWPOLYLINE
  5
32a
100
AcDbEntity
  8
Feet
 62
7
100
AcDbPolyline
 90
6
 70
1
 10
97.367650
 20
65.839900
 30
0.0
 10
109.734840
 20
65.839900
 30
0.0
 10
109.734840
 20
72.023500
 30
0.0
 10
97.367650
 20
72.023500
 30
0.0
 10
97.367650
 20
65.839900
 30
0.0
 10
97.367650
 20
65.839900
 30
0.0
  0
LWPOLYLINE
  5
32b
100
AcDbEntity
  8
Feet
 62
7
100
AcDbPolyline
 90
6
 70
1
 10
97.367650
 20
54.021810
 30
0.0
 10
109.734840
 20
54.021810
 30
0.0
 10
109.734840
 20
60.205410
 30
0.0
 10
97.367650
 20
60.205410
 30
0.0
 10
97.367650
 20
54.021810
 30
0.0
 10
97.367650
 20
54.021810
 30
0.0
  0
LWPOLYLINE
  5
32c
100
AcDbEntity
  8
Feet
 62
7
100
AcDbPolyline
 90
6
 70
1
 10
97.367650
 20
42.203720
 30
0.0
 10
109.734840
 20
42.203720
 30
0.0
 10
109.734840
 20
48.387320
 30
0.0
 10
97.367650
 20
48.387320
 30
0.0
 10
97.367650
 20
42.203720
 30
0.0
 10
97.367650
 20
42.203720
 30
0.0
  0
LWPOLYLINE
  5
32d
100
AcDbEntity
  8
Feet
 62
7
100
AcDbPolyline
 90
6
 70
1
 10
97.367650
 20
30.383150
 30
0.0
 10
109.734840
 20
30.383150
 30
0.0
 10
109.734840
 20
36.566750
 30
0.0
 10
97.367650
 20
36.566750
 30
0.0
 10
97.367650
 20
30.383150
 30
0.0
 10
97.367650
 20
30.383150
 30
0.0
  0
LWPOLYLINE
  5
32e
100
AcDbEntity
  8
Feet
 62
7
100
AcDbPolyline
 90
6
 70
1
 10
42.803600
 20
23.103830
 30
0.0
 10
36.620000
 20
23.103830
 30
0.0
 10
36.620000
 20
10.736640
 30
0.0
 10
42.803600
 20
10.736640
 30
0.0
 10
42.803600
 20
23.103830
 30
0.0
 10
42.803600
 20
23.103830
 30
0.0
  0
LWPOLYLINE
  5
32f
100
AcDbEntity
  8
Feet
 62
7
100
AcDbPolyline
 90
6
 70
1
 10
54.621690
 20
23.103830
 30
0.0
 10
48.438090
 20
23.103830
 30
0.0
 10
48.438090
 20
10.736640
 30
0.0
 10
54.621690
 20
10.736640
 30
0.0
 10
54.621690
 20
23.103830
 30
0.0
 10
54.621690
 20
23.103830
 30
0.0
  0
LWPOLYLINE
  5
330
100
AcDbEntity
  8
Feet
 62
7
100
AcDbPolyline
 90
6
 70
1
 10
66.442250
 20
23.103830
 30
0.0
 10
60.258650
 20
23.103830
 30
0.0
 10
60.258650
 20
10.736640
 30
0.0
 10
66.442250
 20
10.736640
 30
0.0
 10
66.442250
 20
23.103830
 30
0.0
 10
66.442250
 20
23.103830
 30
0.0
  0
LWPOLYLINE
  5
331
100
AcDbEntity
  8
Feet
 62
7
100
AcDbPolyline
 90
6
 70
1
 10
78.260340
 20
23.103830
 30
0.0
 10
72.076740
 20
23.103830
 30
0.0
 10
72.076740
 20
10.736640
 30
0.0
 10
78.260340
 20
10.736640
 30
0.0
 10
78.260340
 20
23.103830
 30
0.0
 10
78.260340
 20
23.103830
 30
0.0
  0
SPLINE
  5
332
100
AcDbEntity
  8
C
 62
7
100
AcDbSpline
 70
8
 71
3
 72
8
 73
4
 74
0
 40
0
 40
0
 40
0
 40
0
 40
1
 40
1
 40
1
 40
1
 10
68.034170
 20
59.449340
 30
0.0
 10
68.034170
 20
58.426530
 30
0.0
 10
68.253330
 20
57.466440
 30
0.0
 10
68.691670
 20
56.568880
 30
0.0
  0
SPLINE
  5
333
100
AcDbEntity
  8
C
 62
7
100
AcDbSpline
 70
8
 71
3
 72
8
 73
4
 74
0
 40
0
 40
0
 40
0
 40
0
 40
1
 40
1
 40
1
 40
1
 10
68.691670
 20
56.568880
 30
0.0
 10
69.130000
 20
55.671310
 30
0.0
 10
69.704020
 20
54.878030
 30
0.0
 10
70.413690
 20
54.189230
 30
0.0
  0
SPLINE
  5
334
100
AcDbEntity
  8
C
 62
7
100
AcDbSpline
 70
8
 71
3
 72
8
 73
4
 74
0
 40
0
 40
0
 40
0
 40
0
 40
1
 40
1
 40
1
 40
1
 10
70.413690
 20
54.189230
 30
0.0
 10
71.144250
 20
53.521400
 30
0.0
 10
71.979160
 20
52.989120
 30
0.0
 10
72.918440
 20
52.592580
 30
0.0
  0
SPLINE
  5
335
100
AcDbEntity
  8
C
 62
7
100
AcDbSpline
 70
8
 71
3
 72
8
 73
4
 74
0
 40
0
 40
0
 40
0
 40
0
 40
1
 40
1
 40
1
 40
1
 10
72.918440
 20
52.592580
 30
0.0
 10
73.878610
 20
52.216810
 30
0.0
 10
74.870060
 20
52.029030
 30
0.0
 10
75.892840
 20
52.029030
 30
0.0
  0
SPLINE
  5
336
100
AcDbEntity
  8
C
 62
7
100
AcDbSpline
 70
8
 71
3
 72
8
 73
4
 74
0
 40
0
 40
0
 40
0
 40
0
 40
1
 40
1
 40
1
 40
1
 10
75.892840
 20
52.029030
 30
0.0
 10
76.706870
 20
52.029030
 30
0.0
 10
77.479180
 20
52.143800
 30
0.0
 10
78.209730
 20
52.373330
 30
0.0
  0
SPLINE
  5
337
100
AcDbEntity
  8
C
 62
7
100
AcDbSpline
 70
8
 71
3
 72
8
 73
4
 74
0
 40
0
 40
0
 40
0
 40
0
 40
1
 40
1
 40
1
 40
1
 10
78.209730
 20
52.373330
 30
0.0
 10
78.940290
 20
52.623840
 30
0.0
 10
79.608220
 20
52.968340
 30
0.0
 10
80.213540
 20
53.406630
 30
0.0
  0
SPLINE
  5
338
100
AcDbEntity
  8
C
 62
7
100
AcDbSpline
 70
8
 71
3
 72
8
 73
4
 74
0
 40
0
 40
0
 40
0
 40
0
 40
1
 40
1
 40
1
 40
1
 10
80.213540
 20
53.406630
 30
0.0
 10
80.818860
 20
53.844930
 30
0.0
 10
81.351120
 20
54.366720
 30
0.0
 10
81.810310
 20
54.972020
 30
0.0
  0
SPLINE
  5
339
100
AcDbEntity
  8
C
 62
7
100
AcDbSpline
 70
8
 71
3
 72
8
 73
4
 74
0
 40
0
 40
0
 40
0
 40
0
 40
1
 40
1
 40
1
 40
1
 10
81.810310
 20
54.972020
 30
0.0
 10
82.269520
 20
55.577320
 30
0.0
 10
82.624370
 20
56.245350
 30
0.0
 10
82.874800
 20
56.975900
 30
0.0
  0
LWPOLYLINE
  5
33a
100
AcDbEntity
  8
Feet
 62
7
100
AcDbPolyline
 90
6
 70
1
 10
90.078430
 20
23.103830
 30
0.0
 10
83.894830
 20
23.103830
 30
0.0
 10
83.894830
 20
10.736640
 30
0.0
 10
90.078430
 20
10.736640
 30
0.0
 10
90.078430
 20
23.103830
 30
0.0
 10
90.078430
 20
23.103830
 30
0.0
  0
SPLINE
  5
33b
100
AcDbEntity
  8
C
 62
7
100
AcDbSpline
 70
8
 71
3
 72
8
 73
4
 74
0
 40
0
 40
0
 40
0
 40
0
 40
1
 40
1
 40
1
 40
1
 10
87.821680
 20
56.975900
 30
0.0
 10
87.529410
 20
55.556550
 30
0.0
 10
87.007620
 20
54.241470
 30
0.0
 10
86.256290
 20
53.030870
 30
0.0
  0
SPLINE
  5
33c
100
AcDbEntity
  8
C
 62
7
100
AcDbSpline
 70
8
 71
3
 72
8
 73
4
 74
0
 40
0
 40
0
 40
0
 40
0
 40
1
 40
1
 40
1
 40
1
 10
86.256290
 20
53.030870
 30
0.0
 10
85.525730
 20
51.841050
 30
0.0
 10
84.628170
 20
50.797450
 30
0.0
 10
83.563600
 20
49.899890
 30
0.0
  0
SPLINE
  5
33d
100
AcDbEntity
  8
C
 62
7
100
AcDbSpline
 70
8
 71
3
 72
8
 73
4
 74
0
 40
0
 40
0
 40
0
 40
0
 40
1
 40
1
 40
1
 40
1
 10
83.563600
 20
49.899890
 30
0.0
 10
82.499130
 20
49.023310
 30
0.0
 10
81.298920
 20
48.334500
 30
0.0
 10
79.963070
 20
47.833480
 30
0.0
  0
SPLINE
  5
33e
100
AcDbEntity
  8
C
 62
7
100
AcDbSpline
 70
8
 71
3
 72
8
 73
4
 74
0
 40
0
 40
0
 40
0
 40
0
 40
1
 40
1
 40
1
 40
1
 10
79.963070
 20
47.833480
 30
0.0
 10
78.627190
 20
47.332460
 30
0.0
 10
77.207830
 20
47.082150
 30
0.0
 10
75.704970
 20
47.082150
 30
0.0
  0
SPLINE
  5
33f
100
AcDbEntity
  8
C
 62
7
100
AcDbSpline
 70
8
 71
3
 72
8
 73
4
 74
0
 40
0
 40
0
 40
0
 40
0
 40
1
 40
1
 40
1
 40
1
 10
75.704970
 20
47.082150
 30
0.0
 10
73.993390
 20
47.082150
 30
0.0
 10
72.375740
 20
47.405680
 30
0.0
 10
70.852030
 20
48.052730
 30
0.0
  0
SPLINE
  5
340
100
AcDbEntity
  8
C
 62
7
100
AcDbSpline
 70
8
 71
3
 72
8
 73
4
 74
0
 40
0
 40
0
 40
0
 40
0
 40
1
 40
1
 40
1
 40
1
 10
70.852030
 20
48.052730
 30
0.0
 10
69.328290
 20
48.699780
 30
0.0
 10
67.992440
 20
49.576370
 30
0.0
 10
66.844420
 20
50.682690
 30
0.0
  0
SPLINE
  5
341
100
AcDbEntity
  8
C
 62
7
100
AcDbSpline
 70
8
 71
3
 72
8
 73
4
 74
0
 40
0
 40
0
 40
0
 40
0
 40
1
 40
1
 40
1
 40
1
 10
66.844420
 20
50.682690
 30
0.0
 10
65.696410
 20
51.809780
 30
0.0
 10
64.778000
 20
53.124860
 30
0.0
 10
64.089190
 20
54.627720
 30
0.0
  0
SPLINE
  5
342
100
AcDbEntity
  8
C
 62
7
100
AcDbSpline
 70
8
 71
3
 72
8
 73
4
 74
0
 40
0
 40
0
 40
0
 40
0
 40
1
 40
1
 40
1
 40
1
 10
64.089190
 20
54.627720
 30
0.0
 10
63.421260
 20
56.130580
 30
0.0
 10
63.087290
 20
57.737720
 30
0.0
 10
63.087290
 20
59.449340
 30
0.0
  0
LWPOLYLINE
  5
343
100
AcDbEntity
  8
C
 62
7
100
AcDbPolyline
 90
2
 70
1
 10
82.874800
 20
56.975900
 30
0.0
 10
87.821680
 20
56.975900
 30
0.0
  0
SPLINE
  5
344
100
AcDbEntity
  8
C
 62
7
100
AcDbSpline
 70
8
 71
3
 72
8
 73
4
 74
0
 40
0
 40
0
 40
0
 40
0
 40
1
 40
1
 40
1
 40
1
 10
63.087290
 20
69.343080
 30
0.0
 10
63.087290
 20
71.054660
 30
0.0
 10
63.421260
 20
72.661880
 30
0.0
 10
64.089190
 20
74.164720
 30
0.0
  0
SPLINE
  5
345
100
AcDbEntity
  8
C
 62
7
100
AcDbSpline
 70
8
 71
3
 72
8
 73
4
 74
0
 40
0
 40
0
 40
0
 40
0
 40
1
 40
1
 40
1
 40
1
 10
64.089190
 20
74.164720
 30
0.0
 10
64.778000
 20
75.667580
 30
0.0
 10
65.696410
 20
76.972130
 30
0.0
 10
66.844420
 20
78.078390
 30
0.0
  0
SPLINE
  5
346
100
AcDbEntity
  8
C
 62
7
100
AcDbSpline
 70
8
 71
3
 72
8
 73
4
 74
0
 40
0
 40
0
 40
0
 40
0
 40
1
 40
1
 40
1
 40
1
 10
66.844420
 20
78.078390
 30
0.0
 10
67.992440
 20
79.205530
 30
0.0
 10
69.328290
 20
80.092640
 30
0.0
 10
70.852030
 20
80.739700
 30
0.0
  0
SPLINE
  5
347
100
AcDbEntity
  8
C
 62
7
100
AcDbSpline
 70
8
 71
3
 72
8
 73
4
 74
0
 40
0
 40
0
 40
0
 40
0
 40
1
 40
1
 40
1
 40
1
 10
70.852030
 20
80.739700
 30
0.0
 10
72.375740
 20
81.386760
 30
0.0
 10
73.993390
 20
81.710290
 30
0.0
 10
75.704970
 20
81.710290
 30
0.0
  0
SPLINE
  5
348
100
AcDbEntity
  8
C
 62
7
100
AcDbSpline
 70
8
 71
3
 72
8
 73
4
 74
0
 40
0
 40
0
 40
0
 40
0
 40
1
 40
1
 40
1
 40
1
 10
75.704970
 20
81.710290
 30
0.0
 10
77.207830
 20
81.710290
 30
0.0
 10
78.627190
 20
81.459810
 30
0.0
 10
79.963070
 20
80.958860
 30
0.0
  0
SPLINE
  5
349
100
AcDbEntity
  8
C
 62
7
100
AcDbSpline
 70
8
 71
3
 72
8
 73
4
 74
0
 40
0
 40
0
 40
0
 40
0
 40
1
 40
1
 40
1
 40
1
 10
79.963070
 20
80.958860
 30
0.0
 10
81.298920
 20
80.457910
 30
0.0
 10
82.499130
 20
79.758670
 30
0.0
 10
83.563600
 20
78.861130
 30
0.0
  0
SPLINE
  5
34a
100
AcDbEntity
  8
C
 62
7
100
AcDbSpline
 70
8
 71
3
 72
8
 73
4
 74
0
 40
0
 40
0
 40
0
 40
0
 40
1
 40
1
 40
1
 40
1
 10
83.563600
 20
78.861130
 30
0.0
 10
84.628170
 20
77.984480
 30
0.0
 10
85.525730
 20
76.940830
 30
0.0
 10
86.256290
 20
75.730190
 30
0.0
  0
SPLINE
  5
34b
100
AcDbEntity
  8
C
 62
7
100
AcDbSpline
 70
8
 71
3
 72
8
 73
4
 74
0
 40
0
 40
0
 40
0
 40
0
 40
1
 40
1
 40
1
 40
1
 10
86.256290
 20
75.730190
 30
0.0
 10
87.007620
 20
74.519570
 30
0.0
 10
87.529410
 20
73.215000
 30
0.0
 10
87.821680
 20
71.816520
 30
0.0
  0
LWPOLYLINE
  5
34c
100
AcDbEntity
  8
C
 62
7
100
AcDbPolyline
 90
2
 70
1
 10
63.087290
 20
59.449340
 30
0.0
 10
63.087290
 20
69.343080
 30
0.0
  0
SPLINE
  5
34d
100
AcDbEntity
  8
C
 62
7
100
AcDbSpline
 70
8
 71
3
 72
8
 73
4
 74
0
 40
0
 40
0
 40
0
 40
0
 40
1
 40
1
 40
1
 40
1
 10
82.874800
 20
71.816520
 30
0.0
 10
82.624370
 20
72.526200
 30
0.0
 10
82.269520
 20
73.183690
 30
0.0
 10
81.810310
 20
73.789010
 30
0.0
  0
SPLINE
  5
34e
100
AcDbEntity
  8
C
 62
7
100
AcDbSpline
 70
8
 71
3
 72
8
 73
4
 74
0
 40
0
 40
0
 40
0
 40
0
 40
1
 40
1
 40
1
 40
1
 10
81.810310
 20
73.789010
 30
0.0
 10
81.351120
 20
74.394330
 30
0.0
 10
80.818860
 20
74.916150
 30
0.0
 10
80.213540
 20
75.354480
 30
0.0
  0
SPLINE
  5
34f
100
AcDbEntity
  8
C
 62
7
100
AcDbSpline
 70
8
 71
3
 72
8
 73
4
 74
0
 40
0
 40
0
 40
0
 40
0
 40
1
 40
1
 40
1
 40
1
 10
80.213540
 20
75.354480
 30
0.0
 10
79.608220
 20
75.792820
 30
0.0
 10
78.940290
 20
76.137220
 30
0.0
 10
78.209730
 20
76.387690
 30
0.0
  0
SPLINE
  5
350
100
AcDbEntity
  8
C
 62
7
100
AcDbSpline
 70
8
 71
3
 72
8
 73
4
 74
0
 40
0
 40
0
 40
0
 40
0
 40
1
 40
1
 40
1
 40
1
 10
78.209730
 20
76.387690
 30
0.0
 10
77.479180
 20
76.638160
 30
0.0
 10
76.706870
 20
76.763390
 30
0.0
 10
75.892840
 20
76.763390
 30
0.0
  0
SPLINE
  5
351
100
AcDbEntity
  8
C
 62
7
100
AcDbSpline
 70
8
 71
3
 72
8
 73
4
 74
0
 40
0
 40
0
 40
0
 40
0
 40
1
 40
1
 40
1
 40
1
 10
75.892840
 20
76.763390
 30
0.0
 10
74.870060
 20
76.763390
 30
0.0
 10
73.878610
 20
76.565100
 30
0.0
 10
72.918440
 20
76.168520
 30
0.0
  0
SPLINE
  5
352
100
AcDbEntity
  8
C
 62
7
100
AcDbSpline
 70
8
 71
3
 72
8
 73
4
 74
0
 40
0
 40
0
 40
0
 40
0
 40
1
 40
1
 40
1
 40
1
 10
72.918440
 20
76.168520
 30
0.0
 10
71.979160
 20
75.792820
 30
0.0
 10
71.144250
 20
75.260550
 30
0.0
 10
70.413690
 20
74.571750
 30
0.0
  0
SPLINE
  5
353
100
AcDbEntity
  8
C
 62
7
100
AcDbSpline
 70
8
 71
3
 72
8
 73
4
 74
0
 40
0
 40
0
 40
0
 40
0
 40
1
 40
1
 40
1
 40
1
 10
70.413690
 20
74.571750
 30
0.0
 10
69.704020
 20
73.903820
 30
0.0
 10
69.130000
 20
73.121090
 30
0.0
 10
68.691670
 20
72.223550
 30
0.0
  0
SPLINE
  5
354
100
AcDbEntity
  8
C
 62
7
100
AcDbSpline
 70
8
 71
3
 72
8
 73
4
 74
0
 40
0
 40
0
 40
0
 40
0
 40
1
 40
1
 40
1
 40
1
 10
68.691670
 20
72.223550
 30
0.0
 10
68.253330
 20
71.326000
 30
0.0
 10
68.034170
 20
70.365850
 30
0.0
 10
68.034170
 20
69.343080
 30
0.0
  0
LWPOLYLINE
  5
355
100
AcDbEntity
  8
C
 62
7
100
AcDbPolyline
 90
2
 70
1
 10
87.821680
 20
71.816520
 30
0.0
 10
82.874800
 20
71.816520
 30
0.0
  0
LWPOLYLINE
  5
356
100
AcDbEntity
  8
C
 62
7
100
AcDbPolyline
 90
4
 70
1
 10
68.034170
 20
69.343080
 30
0.0
 10
68.034170
 20
59.449340
 30
0.0
 10
68.034170
 20
59.449340
 30
0.0
 10
68.034170
 20
59.449340
 30
0.0
  0
LWPOLYLINE
  5
357
100
AcDbEntity
  8
Holes
 62
7
100
AcDbPolyline
 90
12
 70
1
 10
41.868900
 20
78.824580
 30
0.0
 10
54.810110
 20
65.883370
 30
0.0
 10
54.810110
 20
62.908970
 30
0.0
 10
41.868900
 20
49.967860
 30
0.0
 10
38.894500
 20
49.967860
 30
0.0
 10
38.894500
 20
52.942120
 30
0.0
 10
50.348520
 20
64.396180
 30
0.0
 10
38.894500
 20
75.850180
 30
0.0
 10
38.894500
 20
78.824580
 30
0.0
 10
41.868900
 20
78.824580
 30
0.0
 10
41.868900
 20
78.824580
 30
0.0
 10
41.868900
 20
78.824580
 30
0.0
  0
LWPOLYLINE
  5
358
100
AcDbEntity
  8
Holes
 62
7
100
AcDbPolyline
 90
6
 70
1
 10
61.025670
 20
37.687630
 30
0.0
 10
89.882390
 20
37.687630
 30
0.0
 10
89.882390
 20
33.565220
 30
0.0
 10
61.025670
 20
33.565220
 30
0.0
 10
61.025670
 20
37.687630
 30
0.0
 10
61.025670
 20
37.687630
 30
0.0
  0
ENDSEC
  0
SECTION
  2
OBJECTS
  0
DICTIONARY
  5
C
330
0
100
AcDbDictionary
  3
ACAD_GROUP
350
D
  3
ACAD_MLINESTYLE
350
17
  0
DICTIONARY
  5
D
330
C
100
AcDbDictionary
  0
DICTIONARY
  5
1A
330
C
100
AcDbDictionary
  0
DICTIONARY
  5
17
330
C
100
AcDbDictionary
  3
STANDARD
350
18
  0
DICTIONARY
  5
19
330
C
100
AcDbDictionary
  0
ENDSEC
  0
EOF
