  0
SECTION
  2
HEADER
  9
$ACADVER
  1
AC1014
  9
$HANDSEED
  5
FFFF
  9
$MEASUREMENT
 70
     1
  0
ENDSEC
  0
SECTION
  2
TABLES
  0
TABLE
  2
VPORT
  5
8
330
0
100
AcDbSymbolTable
 70
     4
  0
VPORT
  5
2E
330
8
100
AcDbSymbolTableRecord
100
AcDbViewportTableRecord
  2
*ACTIVE
 70
     0
 10
0.0
 20
0.0
 11
1.0
 21
1.0
 12
210.0
 22
148.5
 13
0.0
 23
0.0
 14
10.0
 24
10.0
 15
10.0
 25
10.0
 16
0.0
 26
0.0
 36
1.0
 17
0.0
 27
0.0
 37
0.0
 40
341.0
 41
1.24
 42
50.0
 43
0.0
 44
0.0
 50
0.0
 51
0.0
 71
     0
 72
   100
 73
     1
 74
     3
 75
     0
 76
     0
 77
     0
 78
     0
  0
ENDTAB
  0
TABLE
  2
LTYPE
  5
5
330
0
100
AcDbSymbolTable
 70
     1
  0
LTYPE
  5
14
330
5
100
AcDbSymbolTableRecord
100
AcDbLinetypeTableRecord
  2
BYBLOCK
 70
     0
  3

 72
    65
 73
     0
 40
0.0
  0
LTYPE
  5
15
330
5
100
AcDbSymbolTableRecord
100
AcDbLinetypeTableRecord
  2
BYLAYER
 70
     0
  3

 72
    65
 73
     0
 40
0.0
  0
LTYPE
  5
16
330
5
100
AcDbSymbolTableRecord
100
AcDbLinetypeTableRecord
  2
CONTINUOUS
 70
     0
  3
Solid line
 72
    65
 73
     0
 40
0.0
  0
ENDTAB
  0
TABLE
  2
LAYER
  5
2
100
AcDbSymbolTable
 70
2
  0
LAYER
  5
50
100
AcDbSymbolTableRecord
100
AcDbLayerTableRecord
  2
0
 70
0
  6
CONTINUOUS
  0
LAYER
  5
51
100
AcDbSymbolTableRecord
100
AcDbLayerTableRecord
  2
C
 70
0
  6
CONTINUOUS
  0
ENDTAB
  0
TABLE
  2
STYLE
  5
3
330
0
100
AcDbSymbolTable
 70
     1
  0
STYLE
  5
11
330
3
100
AcDbSymbolTableRecord
100
AcDbTextStyleTableRecord
  2
STANDARD
 70
     0
 40
0.0
 41
1.0
 50
0.0
 71
     0
 42
2.5
  3
txt
  4

  0
ENDTAB
  0
TABLE
  2
VIEW
  5
6
330
0
100
AcDbSymbolTable
 70
     0
  0
ENDTAB
  0
TABLE
  2
UCS
  5
7
330
0
100
AcDbSymbolTable
 70
     0
  0
ENDTAB
  0
TABLE
  2
APPID
  5
9
330
0
100
AcDbSymbolTable
 70
     2
  0
APPID
  5
12
330
9
100
AcDbSymbolTableRecord
100
AcDbRegAppTableRecord
  2
ACAD
 70
     0
  0
ENDTAB
  0
TABLE
  2
DIMSTYLE
  5
A
330
0
100
AcDbSymbolTable
 70
     1
  0
DIMSTYLE
105
27
330
A
100
AcDbSymbolTableRecord
100
AcDbDimStyleTableRecord
  2
ISO-25
 70
     0
  3

  4

  5

  6

  7

 40
1.0
 41
2.5
 42
0.625
 43
3.75
 44
1.25
 45
0.0
 46
0.0
 47
0.0
 48
0.0
140
2.5
141
2.5
142
0.0
143
0.03937007874016
144
1.0
145
0.0
146
1.0
147
0.625
 71
     0
 72
     0
 73
     0
 74
     0
 75
     0
 76
     0
 77
     1
 78
     8
170
     0
171
     3
172
     1
173
     0
174
     0
175
     0
176
     0
177
     0
178
     0
270
     2
271
     2
272
     2
273
     2
274
     3
340
11
275
     0
280
     0
281
     0
282
     0
283
     0
284
     8
285
     0
286
     0
287
     3
288
     0
  0
ENDTAB
  0
TABLE
  2
BLOCK_RECORD
  5
1
330
0
100
AcDbSymbolTable
 70
     1
  0
BLOCK_RECORD
  5
1F
330
1
100
AcDbSymbolTableRecord
100
AcDbBlockTableRecord
  2
*MODEL_SPACE
  0
BLOCK_RECORD
  5
1B
330
1
100
AcDbSymbolTableRecord
100
AcDbBlockTableRecord
  2
*PAPER_SPACE
  0
ENDTAB
  0
ENDSEC
  0
SECTION
  2
BLOCKS
  0
BLOCK
  5
20
330
1F
100
AcDbEntity
  8
0
100
AcDbBlockBegin
  2
*MODEL_SPACE
 70
     0
 10
0.0
 20
0.0
 30
0.0
  3
*MODEL_SPACE
  1

  0
ENDBLK
  5
21
330
1F
100
AcDbEntity
  8
0
100
AcDbBlockEnd
  0
BLOCK
  5
1C
330
1B
100
AcDbEntity
 67
     1
  8
0
100
AcDbBlockBegin
  2
*PAPER_SPACE
  1

  0
ENDBLK
  5
1D
330
1B
100
AcDbEntity
 67
     1
  8
0
100
AcDbBlockEnd
  0
ENDSEC
  0
SECTION
  2
ENTITIES
  0
SPLINE
  5
100
100
AcDbEntity
  8
C
 62
7
100
AcDbSpline
 70
8
 71
3
 72
8
 73
4
 74
0
 40
0
 40
0
 40
0
 40
0
 40
1
 40
1
 40
1
 40
1
 10
68.034170
 20
59.449340
 30
0.0
 10
68.034170
 20
58.426530
 30
0.0
 10
68.253330
 20
57.466440
 30
0.0
 10
68.691670
 20
56.568880
 30
0.0
  0
SPLINE
  5
101
100
AcDbEntity
  8
C
 62
7
100
AcDbSpline
 70
8
 71
3
 72
8
 73
4
 74
0
 40
0
 40
0
 40
0
 40
0
 40
1
 40
1
 40
1
 40
1
 10
68.691670
 20
56.568880
 30
0.0
 10
69.130000
 20
55.671310
 30
0.0
 10
69.704020
 20
54.878030
 30
0.0
 10
70.413690
 20
54.189230
 30
0.0
  0
SPLINE
  5
102
100
AcDbEntity
  8
C
 62
7
100
AcDbSpline
 70
8
 71
3
 72
8
 73
4
 74
0
 40
0
 40
0
 40
0
 40
0
 40
1
 40
1
 40
1
 40
1
 10
70.413690
 20
54.189230
 30
0.0
 10
71.144250
 20
53.521400
 30
0.0
 10
71.979160
 20
52.989120
 30
0.0
 10
72.918440
 20
52.592580
 30
0.0
  0
SPLINE
  5
103
100
AcDbEntity
  8
C
 62
7
100
AcDbSpline
 70
8
 71
3
 72
8
 73
4
 74
0
 40
0
 40
0
 40
0
 40
0
 40
1
 40
1
 40
1
 40
1
 10
72.918440
 20
52.592580
 30
0.0
 10
73.878610
 20
52.216810
 30
0.0
 10
74.870060
 20
52.029030
 30
0.0
 10
75.892840
 20
52.029030
 30
0.0
  0
SPLINE
  5
104
100
AcDbEntity
  8
C
 62
7
100
AcDbSpline
 70
8
 71
3
 72
8
 73
4
 74
0
 40
0
 40
0
 40
0
 40
0
 40
1
 40
1
 40
1
 40
1
 10
75.892840
 20
52.029030
 30
0.0
 10
76.706870
 20
52.029030
 30
0.0
 10
77.479180
 20
52.143800
 30
0.0
 10
78.209730
 20
52.373330
 30
0.0
  0
SPLINE
  5
105
100
AcDbEntity
  8
C
 62
7
100
AcDbSpline
 70
8
 71
3
 72
8
 73
4
 74
0
 40
0
 40
0
 40
0
 40
0
 40
1
 40
1
 40
1
 40
1
 10
78.209730
 20
52.373330
 30
0.0
 10
78.940290
 20
52.623840
 30
0.0
 10
79.608220
 20
52.968340
 30
0.0
 10
80.213540
 20
53.406630
 30
0.0
  0
SPLINE
  5
106
100
AcDbEntity
  8
C
 62
7
100
AcDbSpline
 70
8
 71
3
 72
8
 73
4
 74
0
 40
0
 40
0
 40
0
 40
0
 40
1
 40
1
 40
1
 40
1
 10
80.213540
 20
53.406630
 30
0.0
 10
80.818860
 20
53.844930
 30
0.0
 10
81.351120
 20
54.366720
 30
0.0
 10
81.810310
 20
54.972020
 30
0.0
  0
SPLINE
  5
107
100
AcDbEntity
  8
C
 62
7
100
AcDbSpline
 70
8
 71
3
 72
8
 73
4
 74
0
 40
0
 40
0
 40
0
 40
0
 40
1
 40
1
 40
1
 40
1
 10
81.810310
 20
54.972020
 30
0.0
 10
82.269520
 20
55.577320
 30
0.0
 10
82.624370
 20
56.245350
 30
0.0
 10
82.874800
 20
56.975900
 30
0.0
  0
SPLINE
  5
108
100
AcDbEntity
  8
C
 62
7
100
AcDbSpline
 70
8
 71
3
 72
8
 73
4
 74
0
 40
0
 40
0
 40
0
 40
0
 40
1
 40
1
 40
1
 40
1
 10
87.821680
 20
56.975900
 30
0.0
 10
87.529410
 20
55.556550
 30
0.0
 10
87.007620
 20
54.241470
 30
0.0
 10
86.256290
 20
53.030870
 30
0.0
  0
SPLINE
  5
109
100
AcDbEntity
  8
C
 62
7
100
AcDbSpline
 70
8
 71
3
 72
8
 73
4
 74
0
 40
0
 40
0
 40
0
 40
0
 40
1
 40
1
 40
1
 40
1
 10
86.256290
 20
53.030870
 30
0.0
 10
85.525730
 20
51.841050
 30
0.0
 10
84.628170
 20
50.797450
 30
0.0
 10
83.563600
 20
49.899890
 30
0.0
  0
SPLINE
  5
10a
100
AcDbEntity
  8
C
 62
7
100
AcDbSpline
 70
8
 71
3
 72
8
 73
4
 74
0
 40
0
 40
0
 40
0
 40
0
 40
1
 40
1
 40
1
 40
1
 10
83.563600
 20
49.899890
 30
0.0
 10
82.499130
 20
49.023310
 30
0.0
 10
81.298920
 20
48.334500
 30
0.0
 10
79.963070
 20
47.833480
 30
0.0
  0
SPLINE
  5
10b
100
AcDbEntity
  8
C
 62
7
100
AcDbSpline
 70
8
 71
3
 72
8
 73
4
 74
0
 40
0
 40
0
 40
0
 40
0
 40
1
 40
1
 40
1
 40
1
 10
79.963070
 20
47.833480
 30
0.0
 10
78.627190
 20
47.332460
 30
0.0
 10
77.207830
 20
47.082150
 30
0.0
 10
75.704970
 20
47.082150
 30
0.0
  0
SPLINE
  5
10c
100
AcDbEntity
  8
C
 62
7
100
AcDbSpline
 70
8
 71
3
 72
8
 73
4
 74
0
 40
0
 40
0
 40
0
 40
0
 40
1
 40
1
 40
1
 40
1
 10
75.704970
 20
47.082150
 30
0.0
 10
73.993390
 20
47.082150
 30
0.0
 10
72.375740
 20
47.405680
 30
0.0
 10
70.852030
 20
48.052730
 30
0.0
  0
SPLINE
  5
10d
100
AcDbEntity
  8
C
 62
7
100
AcDbSpline
 70
8
 71
3
 72
8
 73
4
 74
0
 40
0
 40
0
 40
0
 40
0
 40
1
 40
1
 40
1
 40
1
 10
70.852030
 20
48.052730
 30
0.0
 10
69.328290
 20
48.699780
 30
0.0
 10
67.992440
 20
49.576370
 30
0.0
 10
66.844420
 20
50.682690
 30
0.0
  0
SPLINE
  5
10e
100
AcDbEntity
  8
C
 62
7
100
AcDbSpline
 70
8
 71
3
 72
8
 73
4
 74
0
 40
0
 40
0
 40
0
 40
0
 40
1
 40
1
 40
1
 40
1
 10
66.844420
 20
50.682690
 30
0.0
 10
65.696410
 20
51.809780
 30
0.0
 10
64.778000
 20
53.124860
 30
0.0
 10
64.089190
 20
54.627720
 30
0.0
  0
SPLINE
  5
10f
100
AcDbEntity
  8
C
 62
7
100
AcDbSpline
 70
8
 71
3
 72
8
 73
4
 74
0
 40
0
 40
0
 40
0
 40
0
 40
1
 40
1
 40
1
 40
1
 10
64.089190
 20
54.627720
 30
0.0
 10
63.421260
 20
56.130580
 30
0.0
 10
63.087290
 20
57.737720
 30
0.0
 10
63.087290
 20
59.449340
 30
0.0
  0
LWPOLYLINE
  5
110
100
AcDbEntity
  8
C
 62
7
100
AcDbPolyline
 90
2
 70
1
 10
82.874800
 20
56.975900
 30
0.0
 10
87.821680
 20
56.975900
 30
0.0
  0
SPLINE
  5
111
100
AcDbEntity
  8
C
 62
7
100
AcDbSpline
 70
8
 71
3
 72
8
 73
4
 74
0
 40
0
 40
0
 40
0
 40
0
 40
1
 40
1
 40
1
 40
1
 10
63.087290
 20
69.343080
 30
0.0
 10
63.087290
 20
71.054660
 30
0.0
 10
63.421260
 20
72.661880
 30
0.0
 10
64.089190
 20
74.164720
 30
0.0
  0
SPLINE
  5
112
100
AcDbEntity
  8
C
 62
7
100
AcDbSpline
 70
8
 71
3
 72
8
 73
4
 74
0
 40
0
 40
0
 40
0
 40
0
 40
1
 40
1
 40
1
 40
1
 10
64.089190
 20
74.164720
 30
0.0
 10
64.778000
 20
75.667580
 30
0.0
 10
65.696410
 20
76.972130
 30
0.0
 10
66.844420
 20
78.078390
 30
0.0
  0
SPLINE
  5
113
100
AcDbEntity
  8
C
 62
7
100
AcDbSpline
 70
8
 71
3
 72
8
 73
4
 74
0
 40
0
 40
0
 40
0
 40
0
 40
1
 40
1
 40
1
 40
1
 10
66.844420
 20
78.078390
 30
0.0
 10
67.992440
 20
79.205530
 30
0.0
 10
69.328290
 20
80.092640
 30
0.0
 10
70.852030
 20
80.739700
 30
0.0
  0
SPLINE
  5
114
100
AcDbEntity
  8
C
 62
7
100
AcDbSpline
 70
8
 71
3
 72
8
 73
4
 74
0
 40
0
 40
0
 40
0
 40
0
 40
1
 40
1
 40
1
 40
1
 10
70.852030
 20
80.739700
 30
0.0
 10
72.375740
 20
81.386760
 30
0.0
 10
73.993390
 20
81.710290
 30
0.0
 10
75.704970
 20
81.710290
 30
0.0
  0
SPLINE
  5
115
100
AcDbEntity
  8
C
 62
7
100
AcDbSpline
 70
8
 71
3
 72
8
 73
4
 74
0
 40
0
 40
0
 40
0
 40
0
 40
1
 40
1
 40
1
 40
1
 10
75.704970
 20
81.710290
 30
0.0
 10
77.207830
 20
81.710290
 30
0.0
 10
78.627190
 20
81.459810
 30
0.0
 10
79.963070
 20
80.958860
 30
0.0
  0
SPLINE
  5
116
100
AcDbEntity
  8
C
 62
7
100
AcDbSpline
 70
8
 71
3
 72
8
 73
4
 74
0
 40
0
 40
0
 40
0
 40
0
 40
1
 40
1
 40
1
 40
1
 10
79.963070
 20
80.958860
 30
0.0
 10
81.298920
 20
80.457910
 30
0.0
 10
82.499130
 20
79.758670
 30
0.0
 10
83.563600
 20
78.861130
 30
0.0
  0
SPLINE
  5
117
100
AcDbEntity
  8
C
 62
7
100
AcDbSpline
 70
8
 71
3
 72
8
 73
4
 74
0
 40
0
 40
0
 40
0
 40
0
 40
1
 40
1
 40
1
 40
1
 10
83.563600
 20
78.861130
 30
0.0
 10
84.628170
 20
77.984480
 30
0.0
 10
85.525730
 20
76.940830
 30
0.0
 10
86.256290
 20
75.730190
 30
0.0
  0
SPLINE
  5
118
100
AcDbEntity
  8
C
 62
7
100
AcDbSpline
 70
8
 71
3
 72
8
 73
4
 74
0
 40
0
 40
0
 40
0
 40
0
 40
1
 40
1
 40
1
 40
1
 10
86.256290
 20
75.730190
 30
0.0
 10
87.007620
 20
74.519570
 30
0.0
 10
87.529410
 20
73.215000
 30
0.0
 10
87.821680
 20
71.816520
 30
0.0
  0
LWPOLYLINE
  5
119
100
AcDbEntity
  8
C
 62
7
100
AcDbPolyline
 90
2
 70
1
 10
63.087290
 20
59.449340
 30
0.0
 10
63.087290
 20
69.343080
 30
0.0
  0
SPLINE
  5
11a
100
AcDbEntity
  8
C
 62
7
100
AcDbSpline
 70
8
 71
3
 72
8
 73
4
 74
0
 40
0
 40
0
 40
0
 40
0
 40
1
 40
1
 40
1
 40
1
 10
82.874800
 20
71.816520
 30
0.0
 10
82.624370
 20
72.526200
 30
0.0
 10
82.269520
 20
73.183690
 30
0.0
 10
81.810310
 20
73.789010
 30
0.0
  0
SPLINE
  5
11b
100
AcDbEntity
  8
C
 62
7
100
AcDbSpline
 70
8
 71
3
 72
8
 73
4
 74
0
 40
0
 40
0
 40
0
 40
0
 40
1
 40
1
 40
1
 40
1
 10
81.810310
 20
73.789010
 30
0.0
 10
81.351120
 20
74.394330
 30
0.0
 10
80.818860
 20
74.916150
 30
0.0
 10
80.213540
 20
75.354480
 30
0.0
  0
SPLINE
  5
11c
100
AcDbEntity
  8
C
 62
7
100
AcDbSpline
 70
8
 71
3
 72
8
 73
4
 74
0
 40
0
 40
0
 40
0
 40
0
 40
1
 40
1
 40
1
 40
1
 10
80.213540
 20
75.354480
 30
0.0
 10
79.608220
 20
75.792820
 30
0.0
 10
78.940290
 20
76.137220
 30
0.0
 10
78.209730
 20
76.387690
 30
0.0
  0
SPLINE
  5
11d
100
AcDbEntity
  8
C
 62
7
100
AcDbSpline
 70
8
 71
3
 72
8
 73
4
 74
0
 40
0
 40
0
 40
0
 40
0
 40
1
 40
1
 40
1
 40
1
 10
78.209730
 20
76.387690
 30
0.0
 10
77.479180
 20
76.638160
 30
0.0
 10
76.706870
 20
76.763390
 30
0.0
 10
75.892840
 20
76.763390
 30
0.0
  0
SPLINE
  5
11e
100
AcDbEntity
  8
C
 62
7
100
AcDbSpline
 70
8
 71
3
 72
8
 73
4
 74
0
 40
0
 40
0
 40
0
 40
0
 40
1
 40
1
 40
1
 40
1
 10
75.892840
 20
76.763390
 30
0.0
 10
74.870060
 20
76.763390
 30
0.0
 10
73.878610
 20
76.565100
 30
0.0
 10
72.918440
 20
76.168520
 30
0.0
  0
SPLINE
  5
11f
100
AcDbEntity
  8
C
 62
7
100
AcDbSpline
 70
8
 71
3
 72
8
 73
4
 74
0
 40
0
 40
0
 40
0
 40
0
 40
1
 40
1
 40
1
 40
1
 10
72.918440
 20
76.168520
 30
0.0
 10
71.979160
 20
75.792820
 30
0.0
 10
71.144250
 20
75.260550
 30
0.0
 10
70.413690
 20
74.571750
 30
0.0
  0
SPLINE
  5
120
100
AcDbEntity
  8
C
 62
7
100
AcDbSpline
 70
8
 71
3
 72
8
 73
4
 74
0
 40
0
 40
0
 40
0
 40
0
 40
1
 40
1
 40
1
 40
1
 10
70.413690
 20
74.571750
 30
0.0
 10
69.704020
 20
73.903820
 30
0.0
 10
69.130000
 20
73.121090
 30
0.0
 10
68.691670
 20
72.223550
 30
0.0
  0
SPLINE
  5
121
100
AcDbEntity
  8
C
 62
7
100
AcDbSpline
 70
8
 71
3
 72
8
 73
4
 74
0
 40
0
 40
0
 40
0
 40
0
 40
1
 40
1
 40
1
 40
1
 10
68.691670
 20
72.223550
 30
0.0
 10
68.253330
 20
71.326000
 30
0.0
 10
68.034170
 20
70.365850
 30
0.0
 10
68.034170
 20
69.343080
 30
0.0
  0
LWPOLYLINE
  5
122
100
AcDbEntity
  8
C
 62
7
100
AcDbPolyline
 90
2
 70
1
 10
87.821680
 20
71.816520
 30
0.0
 10
82.874800
 20
71.816520
 30
0.0
  0
LWPOLYLINE
  5
123
100
AcDbEntity
  8
C
 62
7
100
AcDbPolyline
 90
4
 70
1
 10
68.034170
 20
69.343080
 30
0.0
 10
68.034170
 20
59.449340
 30
0.0
 10
68.034170
 20
59.449340
 30
0.0
 10
68.034170
 20
59.449340
 30
0.0
  0
ENDSEC
  0
SECTION
  2
OBJECTS
  0
DICTIONARY
  5
C
330
0
100
AcDbDictionary
  3
ACAD_GROUP
350
D
  3
ACAD_MLINESTYLE
350
17
  0
DICTIONARY
  5
D
330
C
100
AcDbDictionary
  0
DICTIONARY
  5
1A
330
C
100
AcDbDictionary
  0
DICTIONARY
  5
17
330
C
100
AcDbDictionary
  3
STANDARD
350
18
  0
DICTIONARY
  5
19
330
C
100
AcDbDictionary
  0
ENDSEC
  0
EOF
