  0
SECTION
  2
HEADER
  9
$ACADVER
  1
AC1014
  9
$HANDSEED
  5
FFFF
  9
$MEASUREMENT
 70
     1
  0
ENDSEC
  0
SECTION
  2
TABLES
  0
TABLE
  2
VPORT
  5
8
330
0
100
AcDbSymbolTable
 70
     4
  0
VPORT
  5
2E
330
8
100
AcDbSymbolTableRecord
100
AcDbViewportTableRecord
  2
*ACTIVE
 70
     0
 10
0.0
 20
0.0
 11
1.0
 21
1.0
 12
210.0
 22
148.5
 13
0.0
 23
0.0
 14
10.0
 24
10.0
 15
10.0
 25
10.0
 16
0.0
 26
0.0
 36
1.0
 17
0.0
 27
0.0
 37
0.0
 40
341.0
 41
1.24
 42
50.0
 43
0.0
 44
0.0
 50
0.0
 51
0.0
 71
     0
 72
   100
 73
     1
 74
     3
 75
     0
 76
     0
 77
     0
 78
     0
  0
ENDTAB
  0
TABLE
  2
LTYPE
  5
5
330
0
100
AcDbSymbolTable
 70
     1
  0
LTYPE
  5
14
330
5
100
AcDbSymbolTableRecord
100
AcDbLinetypeTableRecord
  2
BYBLOCK
 70
     0
  3

 72
    65
 73
     0
 40
0.0
  0
LTYPE
  5
15
330
5
100
AcDbSymbolTableRecord
100
AcDbLinetypeTableRecord
  2
BYLAYER
 70
     0
  3

 72
    65
 73
     0
 40
0.0
  0
LTYPE
  5
16
330
5
100
AcDbSymbolTableRecord
100
AcDbLinetypeTableRecord
  2
CONTINUOUS
 70
     0
  3
Solid line
 72
    65
 73
     0
 40
0.0
  0
ENDTAB
  0
TABLE
  2
LAYER
  5
2
100
AcDbSymbolTable
 70
2
  0
LAYER
  5
50
100
AcDbSymbolTableRecord
100
AcDbLayerTableRecord
  2
0
 70
0
  6
CONTINUOUS
  0
LAYER
  5
51
100
AcDbSymbolTableRecord
100
AcDbLayerTableRecord
  2
haotikum
 70
0
  6
CONTINUOUS
  0
ENDTAB
  0
TABLE
  2
STYLE
  5
3
330
0
100
AcDbSymbolTable
 70
     1
  0
STYLE
  5
11
330
3
100
AcDbSymbolTableRecord
100
AcDbTextStyleTableRecord
  2
STANDARD
 70
     0
 40
0.0
 41
1.0
 50
0.0
 71
     0
 42
2.5
  3
txt
  4

  0
ENDTAB
  0
TABLE
  2
VIEW
  5
6
330
0
100
AcDbSymbolTable
 70
     0
  0
ENDTAB
  0
TABLE
  2
UCS
  5
7
330
0
100
AcDbSymbolTable
 70
     0
  0
ENDTAB
  0
TABLE
  2
APPID
  5
9
330
0
100
AcDbSymbolTable
 70
     2
  0
APPID
  5
12
330
9
100
AcDbSymbolTableRecord
100
AcDbRegAppTableRecord
  2
ACAD
 70
     0
  0
ENDTAB
  0
TABLE
  2
DIMSTYLE
  5
A
330
0
100
AcDbSymbolTable
 70
     1
  0
DIMSTYLE
105
27
330
A
100
AcDbSymbolTableRecord
100
AcDbDimStyleTableRecord
  2
ISO-25
 70
     0
  3

  4

  5

  6

  7

 40
1.0
 41
2.5
 42
0.625
 43
3.75
 44
1.25
 45
0.0
 46
0.0
 47
0.0
 48
0.0
140
2.5
141
2.5
142
0.0
143
0.03937007874016
144
1.0
145
0.0
146
1.0
147
0.625
 71
     0
 72
     0
 73
     0
 74
     0
 75
     0
 76
     0
 77
     1
 78
     8
170
     0
171
     3
172
     1
173
     0
174
     0
175
     0
176
     0
177
     0
178
     0
270
     2
271
     2
272
     2
273
     2
274
     3
340
11
275
     0
280
     0
281
     0
282
     0
283
     0
284
     8
285
     0
286
     0
287
     3
288
     0
  0
ENDTAB
  0
TABLE
  2
BLOCK_RECORD
  5
1
330
0
100
AcDbSymbolTable
 70
     1
  0
BLOCK_RECORD
  5
1F
330
1
100
AcDbSymbolTableRecord
100
AcDbBlockTableRecord
  2
*MODEL_SPACE
  0
BLOCK_RECORD
  5
1B
330
1
100
AcDbSymbolTableRecord
100
AcDbBlockTableRecord
  2
*PAPER_SPACE
  0
ENDTAB
  0
ENDSEC
  0
SECTION
  2
BLOCKS
  0
BLOCK
  5
20
330
1F
100
AcDbEntity
  8
0
100
AcDbBlockBegin
  2
*MODEL_SPACE
 70
     0
 10
0.0
 20
0.0
 30
0.0
  3
*MODEL_SPACE
  1

  0
ENDBLK
  5
21
330
1F
100
AcDbEntity
  8
0
100
AcDbBlockEnd
  0
BLOCK
  5
1C
330
1B
100
AcDbEntity
 67
     1
  8
0
100
AcDbBlockBegin
  2
*PAPER_SPACE
  1

  0
ENDBLK
  5
1D
330
1B
100
AcDbEntity
 67
     1
  8
0
100
AcDbBlockEnd
  0
ENDSEC
  0
SECTION
  2
ENTITIES
  0
SPLINE
  5
100
100
AcDbEntity
  8
haotikum
 62
7
100
AcDbSpline
 70
8
 71
3
 72
8
 73
4
 74
0
 40
0
 40
0
 40
0
 40
0
 40
1
 40
1
 40
1
 40
1
 10
120.000390
 20
70.037920
 30
0.0
 10
120.761120
 20
70.330520
 30
0.0
 10
121.565760
 20
70.549960
 30
0.0
 10
122.414270
 20
70.696250
 30
0.0
  0
SPLINE
  5
101
100
AcDbEntity
  8
haotikum
 62
7
100
AcDbSpline
 70
8
 71
3
 72
8
 73
4
 74
0
 40
0
 40
0
 40
0
 40
0
 40
1
 40
1
 40
1
 40
1
 10
122.414270
 20
70.696250
 30
0.0
 10
123.292040
 20
70.871800
 30
0.0
 10
124.155190
 20
70.959580
 30
0.0
 10
125.003700
 20
70.959580
 30
0.0
  0
SPLINE
  5
102
100
AcDbEntity
  8
haotikum
 62
7
100
AcDbSpline
 70
8
 71
3
 72
8
 73
4
 74
0
 40
0
 40
0
 40
0
 40
0
 40
1
 40
1
 40
1
 40
1
 10
125.003700
 20
70.959580
 30
0.0
 10
126.817760
 20
70.959580
 30
0.0
 10
128.324620
 20
70.696250
 30
0.0
 10
129.524230
 20
70.169580
 30
0.0
  0
SPLINE
  5
103
100
AcDbEntity
  8
haotikum
 62
7
100
AcDbSpline
 70
8
 71
3
 72
8
 73
4
 74
0
 40
0
 40
0
 40
0
 40
0
 40
1
 40
1
 40
1
 40
1
 10
129.524230
 20
70.169580
 30
0.0
 10
130.723850
 20
69.672190
 30
0.0
 10
131.674780
 20
68.955320
 30
0.0
 10
132.377000
 20
68.019040
 30
0.0
  0
SPLINE
  5
104
100
AcDbEntity
  8
haotikum
 62
7
100
AcDbSpline
 70
8
 71
3
 72
8
 73
4
 74
0
 40
0
 40
0
 40
0
 40
0
 40
1
 40
1
 40
1
 40
1
 10
132.377000
 20
68.019040
 30
0.0
 10
133.108480
 20
67.112000
 30
0.0
 10
133.620510
 20
66.014780
 30
0.0
 10
133.913100
 20
64.727390
 30
0.0
  0
SPLINE
  5
105
100
AcDbEntity
  8
haotikum
 62
7
100
AcDbSpline
 70
8
 71
3
 72
8
 73
4
 74
0
 40
0
 40
0
 40
0
 40
0
 40
1
 40
1
 40
1
 40
1
 10
133.913100
 20
64.727390
 30
0.0
 10
134.205700
 20
63.439990
 30
0.0
 10
134.351990
 20
62.020910
 30
0.0
 10
134.351990
 20
60.470220
 30
0.0
  0
LWPOLYLINE
  5
106
100
AcDbEntity
  8
haotikum
 62
7
100
AcDbPolyline
 90
4
 70
1
 10
115.918740
 20
47.654640
 30
0.0
 10
115.918740
 20
81.010090
 30
0.0
 10
120.000390
 20
81.712310
 30
0.0
 10
120.000390
 20
70.037920
 30
0.0
  0
SPLINE
  5
107
100
AcDbEntity
  8
haotikum
 62
7
100
AcDbSpline
 70
8
 71
3
 72
8
 73
4
 74
0
 40
0
 40
0
 40
0
 40
0
 40
1
 40
1
 40
1
 40
1
 10
130.270340
 20
59.592450
 30
0.0
 10
130.270340
 20
60.996770
 30
0.0
 10
130.167940
 20
62.196460
 30
0.0
 10
129.963120
 20
63.191280
 30
0.0
  0
SPLINE
  5
108
100
AcDbEntity
  8
haotikum
 62
7
100
AcDbSpline
 70
8
 71
3
 72
8
 73
4
 74
0
 40
0
 40
0
 40
0
 40
0
 40
1
 40
1
 40
1
 40
1
 10
129.963120
 20
63.191280
 30
0.0
 10
129.787570
 20
64.186100
 30
0.0
 10
129.480350
 20
64.990720
 30
0.0
 10
129.041460
 20
65.605160
 30
0.0
  0
SPLINE
  5
109
100
AcDbEntity
  8
haotikum
 62
7
100
AcDbSpline
 70
8
 71
3
 72
8
 73
4
 74
0
 40
0
 40
0
 40
0
 40
0
 40
1
 40
1
 40
1
 40
1
 10
129.041460
 20
65.605160
 30
0.0
 10
128.602570
 20
66.219600
 30
0.0
 10
128.017400
 20
66.658490
 30
0.0
 10
127.285910
 20
66.921820
 30
0.0
  0
SPLINE
  5
10a
100
AcDbEntity
  8
haotikum
 62
7
100
AcDbSpline
 70
8
 71
3
 72
8
 73
4
 74
0
 40
0
 40
0
 40
0
 40
0
 40
1
 40
1
 40
1
 40
1
 10
127.285910
 20
66.921820
 30
0.0
 10
126.554430
 20
67.214420
 30
0.0
 10
125.647410
 20
67.360710
 30
0.0
 10
124.564810
 20
67.360710
 30
0.0
  0
SPLINE
  5
10b
100
AcDbEntity
  8
haotikum
 62
7
100
AcDbSpline
 70
8
 71
3
 72
8
 73
4
 74
0
 40
0
 40
0
 40
0
 40
0
 40
1
 40
1
 40
1
 40
1
 10
124.564810
 20
67.360710
 30
0.0
 10
124.125930
 20
67.360710
 30
0.0
 10
123.672420
 20
67.331440
 30
0.0
 10
123.204260
 20
67.272930
 30
0.0
  0
SPLINE
  5
10c
100
AcDbEntity
  8
haotikum
 62
7
100
AcDbSpline
 70
8
 71
3
 72
8
 73
4
 74
0
 40
0
 40
0
 40
0
 40
0
 40
1
 40
1
 40
1
 40
1
 10
123.204260
 20
67.272930
 30
0.0
 10
122.736110
 20
67.214420
 30
0.0
 10
122.282600
 20
67.141260
 30
0.0
 10
121.843710
 20
67.053490
 30
0.0
  0
SPLINE
  5
10d
100
AcDbEntity
  8
haotikum
 62
7
100
AcDbSpline
 70
8
 71
3
 72
8
 73
4
 74
0
 40
0
 40
0
 40
0
 40
0
 40
1
 40
1
 40
1
 40
1
 10
121.843710
 20
67.053490
 30
0.0
 10
121.434090
 20
66.994970
 30
0.0
 10
121.053720
 20
66.921820
 30
0.0
 10
120.702610
 20
66.834040
 30
0.0
  0
SPLINE
  5
10e
100
AcDbEntity
  8
haotikum
 62
7
100
AcDbSpline
 70
8
 71
3
 72
8
 73
4
 74
0
 40
0
 40
0
 40
0
 40
0
 40
1
 40
1
 40
1
 40
1
 10
120.702610
 20
66.834040
 30
0.0
 10
120.380760
 20
66.746270
 30
0.0
 10
120.146680
 20
66.673110
 30
0.0
 10
120.000390
 20
66.614600
 30
0.0
  0
LWPOLYLINE
  5
10f
100
AcDbEntity
  8
haotikum
 62
7
100
AcDbPolyline
 90
4
 70
1
 10
134.351990
 20
60.470220
 30
0.0
 10
134.351990
 20
47.654640
 30
0.0
 10
130.270340
 20
47.654640
 30
0.0
 10
130.270340
 20
59.592450
 30
0.0
  0
SPLINE
  5
110
100
AcDbEntity
  8
haotikum
 62
7
100
AcDbSpline
 70
8
 71
3
 72
8
 73
4
 74
0
 40
0
 40
0
 40
0
 40
0
 40
1
 40
1
 40
1
 40
1
 10
148.703590
 20
50.595190
 30
0.0
 10
149.669140
 20
50.595190
 30
0.0
 10
150.517650
 20
50.609830
 30
0.0
 10
151.249140
 20
50.639120
 30
0.0
  0
SPLINE
  5
111
100
AcDbEntity
  8
haotikum
 62
7
100
AcDbSpline
 70
8
 71
3
 72
8
 73
4
 74
0
 40
0
 40
0
 40
0
 40
0
 40
1
 40
1
 40
1
 40
1
 10
151.249140
 20
50.639120
 30
0.0
 10
152.009870
 20
50.697690
 30
0.0
 10
152.638950
 20
50.785350
 30
0.0
 10
153.136350
 20
50.902490
 30
0.0
  0
LWPOLYLINE
  5
112
100
AcDbEntity
  8
haotikum
 62
7
100
AcDbPolyline
 90
4
 70
1
 10
120.000390
 20
66.614600
 30
0.0
 10
120.000390
 20
47.654640
 30
0.0
 10
115.918740
 20
47.654640
 30
0.0
 10
115.918740
 20
47.654640
 30
0.0
  0
SPLINE
  5
113
100
AcDbEntity
  8
haotikum
 62
7
100
AcDbSpline
 70
8
 71
3
 72
8
 73
4
 74
0
 40
0
 40
0
 40
0
 40
0
 40
1
 40
1
 40
1
 40
1
 10
153.136350
 20
57.705200
 30
0.0
 10
152.843750
 20
57.851490
 30
0.0
 10
152.360980
 20
57.968530
 30
0.0
 10
151.688020
 20
58.056310
 30
0.0
  0
SPLINE
  5
114
100
AcDbEntity
  8
haotikum
 62
7
100
AcDbSpline
 70
8
 71
3
 72
8
 73
4
 74
0
 40
0
 40
0
 40
0
 40
0
 40
1
 40
1
 40
1
 40
1
 10
151.688020
 20
58.056310
 30
0.0
 10
151.044320
 20
58.173350
 30
0.0
 10
150.254320
 20
58.231860
 30
0.0
 10
149.318030
 20
58.231860
 30
0.0
  0
SPLINE
  5
115
100
AcDbEntity
  8
haotikum
 62
7
100
AcDbSpline
 70
8
 71
3
 72
8
 73
4
 74
0
 40
0
 40
0
 40
0
 40
0
 40
1
 40
1
 40
1
 40
1
 10
149.318030
 20
58.231860
 30
0.0
 10
148.703590
 20
58.231860
 30
0.0
 10
148.045260
 20
58.187970
 30
0.0
 10
147.343040
 20
58.100200
 30
0.0
  0
SPLINE
  5
116
100
AcDbEntity
  8
haotikum
 62
7
100
AcDbSpline
 70
8
 71
3
 72
8
 73
4
 74
0
 40
0
 40
0
 40
0
 40
0
 40
1
 40
1
 40
1
 40
1
 10
147.343040
 20
58.100200
 30
0.0
 10
146.670090
 20
58.012420
 30
0.0
 10
146.041000
 20
57.822240
 30
0.0
 10
145.455830
 20
57.529640
 30
0.0
  0
SPLINE
  5
117
100
AcDbEntity
  8
haotikum
 62
7
100
AcDbSpline
 70
8
 71
3
 72
8
 73
4
 74
0
 40
0
 40
0
 40
0
 40
0
 40
1
 40
1
 40
1
 40
1
 10
145.455830
 20
57.529640
 30
0.0
 10
144.899900
 20
57.266310
 30
0.0
 10
144.431770
 20
56.885940
 30
0.0
 10
144.051390
 20
56.388540
 30
0.0
  0
SPLINE
  5
118
100
AcDbEntity
  8
haotikum
 62
7
100
AcDbSpline
 70
8
 71
3
 72
8
 73
4
 74
0
 40
0
 40
0
 40
0
 40
0
 40
1
 40
1
 40
1
 40
1
 10
144.051390
 20
56.388540
 30
0.0
 10
143.671010
 20
55.920380
 30
0.0
 10
143.480840
 20
55.291320
 30
0.0
 10
143.480840
 20
54.501320
 30
0.0
  0
SPLINE
  5
119
100
AcDbEntity
  8
haotikum
 62
7
100
AcDbSpline
 70
8
 71
3
 72
8
 73
4
 74
0
 40
0
 40
0
 40
0
 40
0
 40
1
 40
1
 40
1
 40
1
 10
143.480840
 20
54.501320
 30
0.0
 10
143.480840
 20
53.038370
 30
0.0
 10
143.948990
 20
52.014290
 30
0.0
 10
144.885280
 20
51.429110
 30
0.0
  0
SPLINE
  5
11a
100
AcDbEntity
  8
haotikum
 62
7
100
AcDbSpline
 70
8
 71
3
 72
8
 73
4
 74
0
 40
0
 40
0
 40
0
 40
0
 40
1
 40
1
 40
1
 40
1
 10
144.885280
 20
51.429110
 30
0.0
 10
145.821560
 20
50.873200
 30
0.0
 10
147.094330
 20
50.595190
 30
0.0
 10
148.703590
 20
50.595190
 30
0.0
  0
LWPOLYLINE
  5
11b
100
AcDbEntity
  8
haotikum
 62
7
100
AcDbPolyline
 90
2
 70
1
 10
153.136350
 20
50.902490
 30
0.0
 10
153.136350
 20
57.705200
 30
0.0
  0
SPLINE
  5
11c
100
AcDbEntity
  8
haotikum
 62
7
100
AcDbSpline
 70
8
 71
3
 72
8
 73
4
 74
0
 40
0
 40
0
 40
0
 40
0
 40
1
 40
1
 40
1
 40
1
 10
148.352480
 20
71.047360
 30
0.0
 10
149.990990
 20
71.047360
 30
0.0
 10
151.366180
 20
70.827920
 30
0.0
 10
152.478020
 20
70.389030
 30
0.0
  0
SPLINE
  5
11d
100
AcDbEntity
  8
haotikum
 62
7
100
AcDbSpline
 70
8
 71
3
 72
8
 73
4
 74
0
 40
0
 40
0
 40
0
 40
0
 40
1
 40
1
 40
1
 40
1
 10
152.478020
 20
70.389030
 30
0.0
 10
153.619130
 20
69.979400
 30
0.0
 10
154.526160
 20
69.379590
 30
0.0
 10
155.199120
 20
68.589590
 30
0.0
  0
SPLINE
  5
11e
100
AcDbEntity
  8
haotikum
 62
7
100
AcDbSpline
 70
8
 71
3
 72
8
 73
4
 74
0
 40
0
 40
0
 40
0
 40
0
 40
1
 40
1
 40
1
 40
1
 10
155.199120
 20
68.589590
 30
0.0
 10
155.901340
 20
67.828860
 30
0.0
 10
156.398740
 20
66.907200
 30
0.0
 10
156.691330
 20
65.824610
 30
0.0
  0
SPLINE
  5
11f
100
AcDbEntity
  8
haotikum
 62
7
100
AcDbSpline
 70
8
 71
3
 72
8
 73
4
 74
0
 40
0
 40
0
 40
0
 40
0
 40
1
 40
1
 40
1
 40
1
 10
156.691330
 20
65.824610
 30
0.0
 10
156.983930
 20
64.771280
 30
0.0
 10
157.130220
 20
63.600910
 30
0.0
 10
157.130220
 20
62.313510
 30
0.0
  0
LWPOLYLINE
  5
120
100
AcDbEntity
  8
haotikum
 62
7
100
AcDbPolyline
 90
3
 70
1
 10
148.703590
 20
50.595190
 30
0.0
 10
148.703590
 20
50.595190
 30
0.0
 10
148.703590
 20
50.595190
 30
0.0
  0
SPLINE
  5
121
100
AcDbEntity
  8
haotikum
 62
7
100
AcDbSpline
 70
8
 71
3
 72
8
 73
4
 74
0
 40
0
 40
0
 40
0
 40
0
 40
1
 40
1
 40
1
 40
1
 10
157.130220
 20
48.049720
 30
0.0
 10
156.779110
 20
47.991150
 30
0.0
 10
156.281710
 20
47.903300
 30
0.0
 10
155.638010
 20
47.786350
 30
0.0
  0
SPLINE
  5
122
100
AcDbEntity
  8
haotikum
 62
7
100
AcDbSpline
 70
8
 71
3
 72
8
 73
4
 74
0
 40
0
 40
0
 40
0
 40
0
 40
1
 40
1
 40
1
 40
1
 10
155.638010
 20
47.786350
 30
0.0
 10
155.023560
 20
47.698500
 30
0.0
 10
154.321340
 20
47.610840
 30
0.0
 10
153.531350
 20
47.522980
 30
0.0
  0
SPLINE
  5
123
100
AcDbEntity
  8
haotikum
 62
7
100
AcDbSpline
 70
8
 71
3
 72
8
 73
4
 74
0
 40
0
 40
0
 40
0
 40
0
 40
1
 40
1
 40
1
 40
1
 10
153.531350
 20
47.522980
 30
0.0
 10
152.741350
 20
47.435320
 30
0.0
 10
151.878200
 20
47.362110
 30
0.0
 10
150.941920
 20
47.303540
 30
0.0
  0
SPLINE
  5
124
100
AcDbEntity
  8
haotikum
 62
7
100
AcDbSpline
 70
8
 71
3
 72
8
 73
4
 74
0
 40
0
 40
0
 40
0
 40
0
 40
1
 40
1
 40
1
 40
1
 10
150.941920
 20
47.303540
 30
0.0
 10
150.034880
 20
47.215880
 30
0.0
 10
149.127860
 20
47.171950
 30
0.0
 10
148.220820
 20
47.171950
 30
0.0
  0
SPLINE
  5
125
100
AcDbEntity
  8
haotikum
 62
7
100
AcDbSpline
 70
8
 71
3
 72
8
 73
4
 74
0
 40
0
 40
0
 40
0
 40
0
 40
1
 40
1
 40
1
 40
1
 10
148.220820
 20
47.171950
 30
0.0
 10
146.933420
 20
47.171950
 30
0.0
 10
145.748430
 20
47.303540
 30
0.0
 10
144.665830
 20
47.566910
 30
0.0
  0
SPLINE
  5
126
100
AcDbEntity
  8
haotikum
 62
7
100
AcDbSpline
 70
8
 71
3
 72
8
 73
4
 74
0
 40
0
 40
0
 40
0
 40
0
 40
1
 40
1
 40
1
 40
1
 10
144.665830
 20
47.566910
 30
0.0
 10
143.583240
 20
47.830280
 30
0.0
 10
142.646950
 20
48.239880
 30
0.0
 10
141.856960
 20
48.795710
 30
0.0
  0
SPLINE
  5
127
100
AcDbEntity
  8
haotikum
 62
7
100
AcDbSpline
 70
8
 71
3
 72
8
 73
4
 74
0
 40
0
 40
0
 40
0
 40
0
 40
1
 40
1
 40
1
 40
1
 10
141.856960
 20
48.795710
 30
0.0
 10
141.066960
 20
49.381030
 30
0.0
 10
140.452520
 20
50.141660
 30
0.0
 10
140.013630
 20
51.078000
 30
0.0
  0
SPLINE
  5
128
100
AcDbEntity
  8
haotikum
 62
7
100
AcDbSpline
 70
8
 71
3
 72
8
 73
4
 74
0
 40
0
 40
0
 40
0
 40
0
 40
1
 40
1
 40
1
 40
1
 10
140.013630
 20
51.078000
 30
0.0
 10
139.574740
 20
52.014290
 30
0.0
 10
139.355300
 20
53.140770
 30
0.0
 10
139.355300
 20
54.457430
 30
0.0
  0
SPLINE
  5
129
100
AcDbEntity
  8
haotikum
 62
7
100
AcDbSpline
 70
8
 71
3
 72
8
 73
4
 74
0
 40
0
 40
0
 40
0
 40
0
 40
1
 40
1
 40
1
 40
1
 10
139.355300
 20
54.457430
 30
0.0
 10
139.355300
 20
55.715580
 30
0.0
 10
139.604000
 20
56.798160
 30
0.0
 10
140.101410
 20
57.705200
 30
0.0
  0
SPLINE
  5
12a
100
AcDbEntity
  8
haotikum
 62
7
100
AcDbSpline
 70
8
 71
3
 72
8
 73
4
 74
0
 40
0
 40
0
 40
0
 40
0
 40
1
 40
1
 40
1
 40
1
 10
140.101410
 20
57.705200
 30
0.0
 10
140.628070
 20
58.612240
 30
0.0
 10
141.330290
 20
59.343700
 30
0.0
 10
142.208070
 20
59.899630
 30
0.0
  0
SPLINE
  5
12b
100
AcDbEntity
  8
haotikum
 62
7
100
AcDbSpline
 70
8
 71
3
 72
8
 73
4
 74
0
 40
0
 40
0
 40
0
 40
0
 40
1
 40
1
 40
1
 40
1
 10
142.208070
 20
59.899630
 30
0.0
 10
143.085840
 20
60.455560
 30
0.0
 10
144.109900
 20
60.865180
 30
0.0
 10
145.280270
 20
61.128520
 30
0.0
  0
SPLINE
  5
12c
100
AcDbEntity
  8
haotikum
 62
7
100
AcDbSpline
 70
8
 71
3
 72
8
 73
4
 74
0
 40
0
 40
0
 40
0
 40
0
 40
1
 40
1
 40
1
 40
1
 10
145.280270
 20
61.128520
 30
0.0
 10
146.450650
 20
61.391850
 30
0.0
 10
147.679530
 20
61.523510
 30
0.0
 10
148.966920
 20
61.523510
 30
0.0
  0
SPLINE
  5
12d
100
AcDbEntity
  8
haotikum
 62
7
100
AcDbSpline
 70
8
 71
3
 72
8
 73
4
 74
0
 40
0
 40
0
 40
0
 40
0
 40
1
 40
1
 40
1
 40
1
 10
148.966920
 20
61.523510
 30
0.0
 10
149.376550
 20
61.523510
 30
0.0
 10
149.800810
 20
61.494250
 30
0.0
 10
150.239700
 20
61.435740
 30
0.0
  0
SPLINE
  5
12e
100
AcDbEntity
  8
haotikum
 62
7
100
AcDbSpline
 70
8
 71
3
 72
8
 73
4
 74
0
 40
0
 40
0
 40
0
 40
0
 40
1
 40
1
 40
1
 40
1
 10
150.239700
 20
61.435740
 30
0.0
 10
150.678580
 20
61.406470
 30
0.0
 10
151.088200
 20
61.347960
 30
0.0
 10
151.468580
 20
61.260180
 30
0.0
  0
SPLINE
  5
12f
100
AcDbEntity
  8
haotikum
 62
7
100
AcDbSpline
 70
8
 71
3
 72
8
 73
4
 74
0
 40
0
 40
0
 40
0
 40
0
 40
1
 40
1
 40
1
 40
1
 10
151.468580
 20
61.260180
 30
0.0
 10
151.878200
 20
61.201670
 30
0.0
 10
152.229310
 20
61.143140
 30
0.0
 10
152.521910
 20
61.084630
 30
0.0
  0
SPLINE
  5
130
100
AcDbEntity
  8
haotikum
 62
7
100
AcDbSpline
 70
8
 71
3
 72
8
 73
4
 74
0
 40
0
 40
0
 40
0
 40
0
 40
1
 40
1
 40
1
 40
1
 10
152.521910
 20
61.084630
 30
0.0
 10
152.814510
 20
61.026110
 30
0.0
 10
153.019310
 20
60.982230
 30
0.0
 10
153.136350
 20
60.952960
 30
0.0
  0
LWPOLYLINE
  5
131
100
AcDbEntity
  8
haotikum
 62
7
100
AcDbPolyline
 90
2
 70
1
 10
157.130220
 20
62.313510
 30
0.0
 10
157.130220
 20
48.049720
 30
0.0
  0
SPLINE
  5
132
100
AcDbEntity
  8
haotikum
 62
7
100
AcDbSpline
 70
8
 71
3
 72
8
 73
4
 74
0
 40
0
 40
0
 40
0
 40
0
 40
1
 40
1
 40
1
 40
1
 10
153.136350
 20
62.094070
 30
0.0
 10
153.136350
 20
62.767020
 30
0.0
 10
153.063200
 20
63.425350
 30
0.0
 10
152.916910
 20
64.069060
 30
0.0
  0
SPLINE
  5
133
100
AcDbEntity
  8
haotikum
 62
7
100
AcDbSpline
 70
8
 71
3
 72
8
 73
4
 74
0
 40
0
 40
0
 40
0
 40
0
 40
1
 40
1
 40
1
 40
1
 10
152.916910
 20
64.069060
 30
0.0
 10
152.770620
 20
64.742010
 30
0.0
 10
152.507290
 20
65.327210
 30
0.0
 10
152.126910
 20
65.824610
 30
0.0
  0
SPLINE
  5
134
100
AcDbEntity
  8
haotikum
 62
7
100
AcDbSpline
 70
8
 71
3
 72
8
 73
4
 74
0
 40
0
 40
0
 40
0
 40
0
 40
1
 40
1
 40
1
 40
1
 10
152.126910
 20
65.824610
 30
0.0
 10
151.746530
 20
66.351270
 30
0.0
 10
151.219870
 20
66.760890
 30
0.0
 10
150.546920
 20
67.053490
 30
0.0
  0
SPLINE
  5
135
100
AcDbEntity
  8
haotikum
 62
7
100
AcDbSpline
 70
8
 71
3
 72
8
 73
4
 74
0
 40
0
 40
0
 40
0
 40
0
 40
1
 40
1
 40
1
 40
1
 10
150.546920
 20
67.053490
 30
0.0
 10
149.903210
 20
67.375330
 30
0.0
 10
149.054700
 20
67.536260
 30
0.0
 10
148.001370
 20
67.536260
 30
0.0
  0
SPLINE
  5
136
100
AcDbEntity
  8
haotikum
 62
7
100
AcDbSpline
 70
8
 71
3
 72
8
 73
4
 74
0
 40
0
 40
0
 40
0
 40
0
 40
1
 40
1
 40
1
 40
1
 10
148.001370
 20
67.536260
 30
0.0
 10
146.655450
 20
67.536260
 30
0.0
 10
145.470450
 20
67.433860
 30
0.0
 10
144.446390
 20
67.229040
 30
0.0
  0
SPLINE
  5
137
100
AcDbEntity
  8
haotikum
 62
7
100
AcDbSpline
 70
8
 71
3
 72
8
 73
4
 74
0
 40
0
 40
0
 40
0
 40
0
 40
1
 40
1
 40
1
 40
1
 10
144.446390
 20
67.229040
 30
0.0
 10
143.451570
 20
67.053490
 30
0.0
 10
142.705460
 20
66.863310
 30
0.0
 10
142.208070
 20
66.658490
 30
0.0
  0
LWPOLYLINE
  5
138
100
AcDbEntity
  8
haotikum
 62
7
100
AcDbPolyline
 90
2
 70
1
 10
153.136350
 20
60.952960
 30
0.0
 10
153.136350
 20
62.094070
 30
0.0
  0
SPLINE
  5
139
100
AcDbEntity
  8
haotikum
 62
7
100
AcDbSpline
 70
8
 71
3
 72
8
 73
4
 74
0
 40
0
 40
0
 40
0
 40
0
 40
1
 40
1
 40
1
 40
1
 10
141.725290
 20
70.037920
 30
0.0
 10
142.251950
 20
70.271990
 30
0.0
 10
143.129730
 20
70.491440
 30
0.0
 10
144.358610
 20
70.696250
 30
0.0
  0
SPLINE
  5
13a
100
AcDbEntity
  8
haotikum
 62
7
100
AcDbSpline
 70
8
 71
3
 72
8
 73
4
 74
0
 40
0
 40
0
 40
0
 40
0
 40
1
 40
1
 40
1
 40
1
 10
144.358610
 20
70.696250
 30
0.0
 10
145.587490
 20
70.930320
 30
0.0
 10
146.918780
 20
71.047360
 30
0.0
 10
148.352480
 20
71.047360
 30
0.0
  0
LWPOLYLINE
  5
13b
100
AcDbEntity
  8
haotikum
 62
7
100
AcDbPolyline
 90
2
 70
1
 10
142.208070
 20
66.658490
 30
0.0
 10
141.725290
 20
70.037920
 30
0.0
  0
SPLINE
  5
13c
100
AcDbEntity
  8
haotikum
 62
7
100
AcDbSpline
 70
8
 71
3
 72
8
 73
4
 74
0
 40
0
 40
0
 40
0
 40
0
 40
1
 40
1
 40
1
 40
1
 10
184.033910
 20
59.065750
 30
0.0
 10
184.033910
 20
57.251690
 30
0.0
 10
183.770740
 20
55.613160
 30
0.0
 10
183.244000
 20
54.150210
 30
0.0
  0
SPLINE
  5
13d
100
AcDbEntity
  8
haotikum
 62
7
100
AcDbSpline
 70
8
 71
3
 72
8
 73
4
 74
0
 40
0
 40
0
 40
0
 40
0
 40
1
 40
1
 40
1
 40
1
 10
183.244000
 20
54.150210
 30
0.0
 10
182.717250
 20
52.687260
 30
0.0
 10
181.971220
 20
51.429110
 30
0.0
 10
181.005670
 20
50.375750
 30
0.0
  0
SPLINE
  5
13e
100
AcDbEntity
  8
haotikum
 62
7
100
AcDbSpline
 70
8
 71
3
 72
8
 73
4
 74
0
 40
0
 40
0
 40
0
 40
0
 40
1
 40
1
 40
1
 40
1
 10
181.005670
 20
50.375750
 30
0.0
 10
180.069390
 20
49.322460
 30
0.0
 10
178.942900
 20
48.503250
 30
0.0
 10
177.626240
 20
47.917940
 30
0.0
  0
SPLINE
  5
13f
100
AcDbEntity
  8
haotikum
 62
7
100
AcDbSpline
 70
8
 71
3
 72
8
 73
4
 74
0
 40
0
 40
0
 40
0
 40
0
 40
1
 40
1
 40
1
 40
1
 10
177.626240
 20
47.917940
 30
0.0
 10
176.309580
 20
47.362110
 30
0.0
 10
174.875880
 20
47.084090
 30
0.0
 10
173.325150
 20
47.084090
 30
0.0
  0
SPLINE
  5
140
100
AcDbEntity
  8
haotikum
 62
7
100
AcDbSpline
 70
8
 71
3
 72
8
 73
4
 74
0
 40
0
 40
0
 40
0
 40
0
 40
1
 40
1
 40
1
 40
1
 10
173.325150
 20
47.084090
 30
0.0
 10
171.774420
 20
47.084090
 30
0.0
 10
170.340720
 20
47.362110
 30
0.0
 10
169.024060
 20
47.917940
 30
0.0
  0
SPLINE
  5
141
100
AcDbEntity
  8
haotikum
 62
7
100
AcDbSpline
 70
8
 71
3
 72
8
 73
4
 74
0
 40
0
 40
0
 40
0
 40
0
 40
1
 40
1
 40
1
 40
1
 10
169.024060
 20
47.917940
 30
0.0
 10
167.707400
 20
48.503250
 30
0.0
 10
166.566290
 20
49.322460
 30
0.0
 10
165.600740
 20
50.375750
 30
0.0
  0
SPLINE
  5
142
100
AcDbEntity
  8
haotikum
 62
7
100
AcDbSpline
 70
8
 71
3
 72
8
 73
4
 74
0
 40
0
 40
0
 40
0
 40
0
 40
1
 40
1
 40
1
 40
1
 10
165.600740
 20
50.375750
 30
0.0
 10
164.664460
 20
51.429110
 30
0.0
 10
163.932970
 20
52.687260
 30
0.0
 10
163.406310
 20
54.150210
 30
0.0
  0
SPLINE
  5
143
100
AcDbEntity
  8
haotikum
 62
7
100
AcDbSpline
 70
8
 71
3
 72
8
 73
4
 74
0
 40
0
 40
0
 40
0
 40
0
 40
1
 40
1
 40
1
 40
1
 10
163.406310
 20
54.150210
 30
0.0
 10
162.879640
 20
55.613160
 30
0.0
 10
162.616310
 20
57.251690
 30
0.0
 10
162.616310
 20
59.065750
 30
0.0
  0
SPLINE
  5
144
100
AcDbEntity
  8
haotikum
 62
7
100
AcDbSpline
 70
8
 71
3
 72
8
 73
4
 74
0
 40
0
 40
0
 40
0
 40
0
 40
1
 40
1
 40
1
 40
1
 10
162.616310
 20
59.065750
 30
0.0
 10
162.616310
 20
60.850560
 30
0.0
 10
162.879640
 20
62.474440
 30
0.0
 10
163.406310
 20
63.937390
 30
0.0
  0
SPLINE
  5
145
100
AcDbEntity
  8
haotikum
 62
7
100
AcDbSpline
 70
8
 71
3
 72
8
 73
4
 74
0
 40
0
 40
0
 40
0
 40
0
 40
1
 40
1
 40
1
 40
1
 10
163.406310
 20
63.937390
 30
0.0
 10
163.932970
 20
65.429610
 30
0.0
 10
164.664460
 20
66.702380
 30
0.0
 10
165.600740
 20
67.755710
 30
0.0
  0
SPLINE
  5
146
100
AcDbEntity
  8
haotikum
 62
7
100
AcDbSpline
 70
8
 71
3
 72
8
 73
4
 74
0
 40
0
 40
0
 40
0
 40
0
 40
1
 40
1
 40
1
 40
1
 10
165.600740
 20
67.755710
 30
0.0
 10
166.566290
 20
68.809040
 30
0.0
 10
167.707400
 20
69.613660
 30
0.0
 10
169.024060
 20
70.169590
 30
0.0
  0
SPLINE
  5
147
100
AcDbEntity
  8
haotikum
 62
7
100
AcDbSpline
 70
8
 71
3
 72
8
 73
4
 74
0
 40
0
 40
0
 40
0
 40
0
 40
1
 40
1
 40
1
 40
1
 10
169.024060
 20
70.169590
 30
0.0
 10
170.340720
 20
70.754770
 30
0.0
 10
171.774420
 20
71.047360
 30
0.0
 10
173.325150
 20
71.047360
 30
0.0
  0
SPLINE
  5
148
100
AcDbEntity
  8
haotikum
 62
7
100
AcDbSpline
 70
8
 71
3
 72
8
 73
4
 74
0
 40
0
 40
0
 40
0
 40
0
 40
1
 40
1
 40
1
 40
1
 10
173.325150
 20
71.047360
 30
0.0
 10
174.875880
 20
71.047360
 30
0.0
 10
176.309580
 20
70.754770
 30
0.0
 10
177.626240
 20
70.169590
 30
0.0
  0
SPLINE
  5
149
100
AcDbEntity
  8
haotikum
 62
7
100
AcDbSpline
 70
8
 71
3
 72
8
 73
4
 74
0
 40
0
 40
0
 40
0
 40
0
 40
1
 40
1
 40
1
 40
1
 10
177.626240
 20
70.169590
 30
0.0
 10
178.942900
 20
69.613660
 30
0.0
 10
180.069390
 20
68.809040
 30
0.0
 10
181.005670
 20
67.755710
 30
0.0
  0
SPLINE
  5
14a
100
AcDbEntity
  8
haotikum
 62
7
100
AcDbSpline
 70
8
 71
3
 72
8
 73
4
 74
0
 40
0
 40
0
 40
0
 40
0
 40
1
 40
1
 40
1
 40
1
 10
181.005670
 20
67.755710
 30
0.0
 10
181.971220
 20
66.702380
 30
0.0
 10
182.717250
 20
65.429610
 30
0.0
 10
183.244000
 20
63.937390
 30
0.0
  0
SPLINE
  5
14b
100
AcDbEntity
  8
haotikum
 62
7
100
AcDbSpline
 70
8
 71
3
 72
8
 73
4
 74
0
 40
0
 40
0
 40
0
 40
0
 40
1
 40
1
 40
1
 40
1
 10
183.244000
 20
63.937390
 30
0.0
 10
183.770740
 20
62.474440
 30
0.0
 10
184.033910
 20
60.850560
 30
0.0
 10
184.033910
 20
59.065750
 30
0.0
  0
LWPOLYLINE
  5
14c
100
AcDbEntity
  8
haotikum
 62
7
100
AcDbPolyline
 90
3
 70
1
 10
148.352480
 20
71.047360
 30
0.0
 10
148.352480
 20
71.047360
 30
0.0
 10
148.352480
 20
71.047360
 30
0.0
  0
SPLINE
  5
14d
100
AcDbEntity
  8
haotikum
 62
7
100
AcDbSpline
 70
8
 71
3
 72
8
 73
4
 74
0
 40
0
 40
0
 40
0
 40
0
 40
1
 40
1
 40
1
 40
1
 10
179.776790
 20
59.065750
 30
0.0
 10
179.776790
 20
61.640560
 30
0.0
 10
179.191610
 20
63.674060
 30
0.0
 10
178.021240
 20
65.166280
 30
0.0
  0
SPLINE
  5
14e
100
AcDbEntity
  8
haotikum
 62
7
100
AcDbSpline
 70
8
 71
3
 72
8
 73
4
 74
0
 40
0
 40
0
 40
0
 40
0
 40
1
 40
1
 40
1
 40
1
 10
178.021240
 20
65.166280
 30
0.0
 10
176.880140
 20
66.687760
 30
0.0
 10
175.314770
 20
67.448490
 30
0.0
 10
173.325150
 20
67.448490
 30
0.0
  0
SPLINE
  5
14f
100
AcDbEntity
  8
haotikum
 62
7
100
AcDbSpline
 70
8
 71
3
 72
8
 73
4
 74
0
 40
0
 40
0
 40
0
 40
0
 40
1
 40
1
 40
1
 40
1
 10
173.325150
 20
67.448490
 30
0.0
 10
171.335540
 20
67.448490
 30
0.0
 10
169.755540
 20
66.687760
 30
0.0
 10
168.585170
 20
65.166280
 30
0.0
  0
SPLINE
  5
150
100
AcDbEntity
  8
haotikum
 62
7
100
AcDbSpline
 70
8
 71
3
 72
8
 73
4
 74
0
 40
0
 40
0
 40
0
 40
0
 40
1
 40
1
 40
1
 40
1
 10
168.585170
 20
65.166280
 30
0.0
 10
167.444070
 20
63.674060
 30
0.0
 10
166.873510
 20
61.640560
 30
0.0
 10
166.873510
 20
59.065750
 30
0.0
  0
SPLINE
  5
151
100
AcDbEntity
  8
haotikum
 62
7
100
AcDbSpline
 70
8
 71
3
 72
8
 73
4
 74
0
 40
0
 40
0
 40
0
 40
0
 40
1
 40
1
 40
1
 40
1
 10
166.873510
 20
59.065750
 30
0.0
 10
166.873510
 20
56.490940
 30
0.0
 10
167.444070
 20
54.442810
 30
0.0
 10
168.585170
 20
52.921330
 30
0.0
  0
SPLINE
  5
152
100
AcDbEntity
  8
haotikum
 62
7
100
AcDbSpline
 70
8
 71
3
 72
8
 73
4
 74
0
 40
0
 40
0
 40
0
 40
0
 40
1
 40
1
 40
1
 40
1
 10
168.585170
 20
52.921330
 30
0.0
 10
169.755540
 20
51.429110
 30
0.0
 10
171.335540
 20
50.683050
 30
0.0
 10
173.325150
 20
50.683050
 30
0.0
  0
SPLINE
  5
153
100
AcDbEntity
  8
haotikum
 62
7
100
AcDbSpline
 70
8
 71
3
 72
8
 73
4
 74
0
 40
0
 40
0
 40
0
 40
0
 40
1
 40
1
 40
1
 40
1
 10
173.325150
 20
50.683050
 30
0.0
 10
175.314770
 20
50.683050
 30
0.0
 10
176.880140
 20
51.429110
 30
0.0
 10
178.021240
 20
52.921330
 30
0.0
  0
SPLINE
  5
154
100
AcDbEntity
  8
haotikum
 62
7
100
AcDbSpline
 70
8
 71
3
 72
8
 73
4
 74
0
 40
0
 40
0
 40
0
 40
0
 40
1
 40
1
 40
1
 40
1
 10
178.021240
 20
52.921330
 30
0.0
 10
179.191610
 20
54.442810
 30
0.0
 10
179.776790
 20
56.490940
 30
0.0
 10
179.776790
 20
59.065750
 30
0.0
  0
LWPOLYLINE
  5
155
100
AcDbEntity
  8
haotikum
 62
7
100
AcDbPolyline
 90
3
 70
1
 10
184.033910
 20
59.065750
 30
0.0
 10
184.033910
 20
59.065750
 30
0.0
 10
184.033910
 20
59.065750
 30
0.0
  0
LWPOLYLINE
  5
156
100
AcDbEntity
  8
haotikum
 62
7
100
AcDbPolyline
 90
3
 70
1
 10
179.776790
 20
59.065750
 30
0.0
 10
179.776790
 20
59.065750
 30
0.0
 10
179.776790
 20
59.065750
 30
0.0
  0
SPLINE
  5
157
100
AcDbEntity
  8
haotikum
 62
7
100
AcDbSpline
 70
8
 71
3
 72
8
 73
4
 74
0
 40
0
 40
0
 40
0
 40
0
 40
1
 40
1
 40
1
 40
1
 10
193.601730
 20
56.520240
 30
0.0
 10
193.601730
 20
55.379090
 30
0.0
 10
193.689510
 20
54.428100
 30
0.0
 10
193.865060
 20
53.667470
 30
0.0
  0
SPLINE
  5
158
100
AcDbEntity
  8
haotikum
 62
7
100
AcDbSpline
 70
8
 71
3
 72
8
 73
4
 74
0
 40
0
 40
0
 40
0
 40
0
 40
1
 40
1
 40
1
 40
1
 10
193.865060
 20
53.667470
 30
0.0
 10
194.040620
 20
52.935930
 30
0.0
 10
194.303950
 20
52.350810
 30
0.0
 10
194.655060
 20
51.911920
 30
0.0
  0
SPLINE
  5
159
100
AcDbEntity
  8
haotikum
 62
7
100
AcDbSpline
 70
8
 71
3
 72
8
 73
4
 74
0
 40
0
 40
0
 40
0
 40
0
 40
1
 40
1
 40
1
 40
1
 10
194.655060
 20
51.911920
 30
0.0
 10
195.006170
 20
51.502320
 30
0.0
 10
195.445050
 20
51.209660
 30
0.0
 10
195.971720
 20
51.034150
 30
0.0
  0
SPLINE
  5
15a
100
AcDbEntity
  8
haotikum
 62
7
100
AcDbSpline
 70
8
 71
3
 72
8
 73
4
 74
0
 40
0
 40
0
 40
0
 40
0
 40
1
 40
1
 40
1
 40
1
 10
195.971720
 20
51.034150
 30
0.0
 10
196.498380
 20
50.858630
 30
0.0
 10
197.112820
 20
50.770780
 30
0.0
 10
197.815040
 20
50.770780
 30
0.0
  0
SPLINE
  5
15b
100
AcDbEntity
  8
haotikum
 62
7
100
AcDbSpline
 70
8
 71
3
 72
8
 73
4
 74
0
 40
0
 40
0
 40
0
 40
0
 40
1
 40
1
 40
1
 40
1
 10
197.815040
 20
50.770780
 30
0.0
 10
199.043930
 20
50.770780
 30
0.0
 10
200.024100
 20
50.902360
 30
0.0
 10
200.755590
 20
51.165740
 30
0.0
  0
SPLINE
  5
15c
100
AcDbEntity
  8
haotikum
 62
7
100
AcDbSpline
 70
8
 71
3
 72
8
 73
4
 74
0
 40
0
 40
0
 40
0
 40
0
 40
1
 40
1
 40
1
 40
1
 10
200.755590
 20
51.165740
 30
0.0
 10
201.516320
 20
51.458390
 30
0.0
 10
202.042980
 20
51.663190
 30
0.0
 10
202.335580
 20
51.780140
 30
0.0
  0
LWPOLYLINE
  5
15d
100
AcDbEntity
  8
haotikum
 62
7
100
AcDbPolyline
 90
5
 70
1
 10
193.601730
 20
70.476800
 30
0.0
 10
202.247800
 20
70.476800
 30
0.0
 10
202.247800
 20
67.053480
 30
0.0
 10
193.601730
 20
67.053480
 30
0.0
 10
193.601730
 20
56.520240
 30
0.0
  0
SPLINE
  5
15e
100
AcDbEntity
  8
haotikum
 62
7
100
AcDbSpline
 70
8
 71
3
 72
8
 73
4
 74
0
 40
0
 40
0
 40
0
 40
0
 40
1
 40
1
 40
1
 40
1
 10
203.125570
 20
48.400830
 30
0.0
 10
202.715950
 20
48.196030
 30
0.0
 10
201.999090
 20
47.947300
 30
0.0
 10
200.975030
 20
47.654640
 30
0.0
  0
SPLINE
  5
15f
100
AcDbEntity
  8
haotikum
 62
7
100
AcDbSpline
 70
8
 71
3
 72
8
 73
4
 74
0
 40
0
 40
0
 40
0
 40
0
 40
1
 40
1
 40
1
 40
1
 10
200.975030
 20
47.654640
 30
0.0
 10
199.950970
 20
47.332900
 30
0.0
 10
198.780590
 20
47.171830
 30
0.0
 10
197.463930
 20
47.171830
 30
0.0
  0
SPLINE
  5
160
100
AcDbEntity
  8
haotikum
 62
7
100
AcDbSpline
 70
8
 71
3
 72
8
 73
4
 74
0
 40
0
 40
0
 40
0
 40
0
 40
1
 40
1
 40
1
 40
1
 10
197.463930
 20
47.171830
 30
0.0
 10
195.913210
 20
47.171830
 30
0.0
 10
194.625790
 20
47.362180
 30
0.0
 10
193.601730
 20
47.742500
 30
0.0
  0
SPLINE
  5
161
100
AcDbEntity
  8
haotikum
 62
7
100
AcDbSpline
 70
8
 71
3
 72
8
 73
4
 74
0
 40
0
 40
0
 40
0
 40
0
 40
1
 40
1
 40
1
 40
1
 10
193.601730
 20
47.742500
 30
0.0
 10
192.606910
 20
48.152100
 30
0.0
 10
191.802290
 20
48.751860
 30
0.0
 10
191.187850
 20
49.541970
 30
0.0
  0
SPLINE
  5
162
100
AcDbEntity
  8
haotikum
 62
7
100
AcDbSpline
 70
8
 71
3
 72
8
 73
4
 74
0
 40
0
 40
0
 40
0
 40
0
 40
1
 40
1
 40
1
 40
1
 10
191.187850
 20
49.541970
 30
0.0
 10
190.573410
 20
50.331890
 30
0.0
 10
190.134520
 20
51.297520
 30
0.0
 10
189.871190
 20
52.438470
 30
0.0
  0
SPLINE
  5
163
100
AcDbEntity
  8
haotikum
 62
7
100
AcDbSpline
 70
8
 71
3
 72
8
 73
4
 74
0
 40
0
 40
0
 40
0
 40
0
 40
1
 40
1
 40
1
 40
1
 10
189.871190
 20
52.438470
 30
0.0
 10
189.637120
 20
53.608900
 30
0.0
 10
189.520080
 20
54.954850
 30
0.0
 10
189.520080
 20
56.476310
 30
0.0
  0
LWPOLYLINE
  5
164
100
AcDbEntity
  8
haotikum
 62
7
100
AcDbPolyline
 90
2
 70
1
 10
202.335580
 20
51.780140
 30
0.0
 10
203.125570
 20
48.400830
 30
0.0
  0
LWPOLYLINE
  5
165
100
AcDbEntity
  8
haotikum
 62
7
100
AcDbPolyline
 90
6
 70
1
 10
189.520080
 20
56.476310
 30
0.0
 10
189.520080
 20
76.840660
 30
0.0
 10
193.601730
 20
77.542880
 30
0.0
 10
193.601730
 20
70.476800
 30
0.0
 10
193.601730
 20
70.476800
 30
0.0
 10
193.601730
 20
70.476800
 30
0.0
  0
SPLINE
  5
166
100
AcDbEntity
  8
haotikum
 62
7
100
AcDbSpline
 70
8
 71
3
 72
8
 73
4
 74
0
 40
0
 40
0
 40
0
 40
0
 40
1
 40
1
 40
1
 40
1
 10
209.445540
 20
74.602340
 30
0.0
 10
208.714060
 20
74.602340
 30
0.0
 10
208.084990
 20
74.836410
 30
0.0
 10
207.558330
 20
75.304560
 30
0.0
  0
SPLINE
  5
167
100
AcDbEntity
  8
haotikum
 62
7
100
AcDbSpline
 70
8
 71
3
 72
8
 73
4
 74
0
 40
0
 40
0
 40
0
 40
0
 40
1
 40
1
 40
1
 40
1
 10
207.558330
 20
75.304560
 30
0.0
 10
207.060920
 20
75.801960
 30
0.0
 10
206.812220
 20
76.460290
 30
0.0
 10
206.812220
 20
77.279550
 30
0.0
  0
SPLINE
  5
168
100
AcDbEntity
  8
haotikum
 62
7
100
AcDbSpline
 70
8
 71
3
 72
8
 73
4
 74
0
 40
0
 40
0
 40
0
 40
0
 40
1
 40
1
 40
1
 40
1
 10
206.812220
 20
77.279550
 30
0.0
 10
206.812220
 20
78.098810
 30
0.0
 10
207.060920
 20
78.742510
 30
0.0
 10
207.558330
 20
79.210650
 30
0.0
  0
SPLINE
  5
169
100
AcDbEntity
  8
haotikum
 62
7
100
AcDbSpline
 70
8
 71
3
 72
8
 73
4
 74
0
 40
0
 40
0
 40
0
 40
0
 40
1
 40
1
 40
1
 40
1
 10
207.558330
 20
79.210650
 30
0.0
 10
208.084990
 20
79.708060
 30
0.0
 10
208.714060
 20
79.956760
 30
0.0
 10
209.445540
 20
79.956760
 30
0.0
  0
SPLINE
  5
16a
100
AcDbEntity
  8
haotikum
 62
7
100
AcDbSpline
 70
8
 71
3
 72
8
 73
4
 74
0
 40
0
 40
0
 40
0
 40
0
 40
1
 40
1
 40
1
 40
1
 10
209.445540
 20
79.956760
 30
0.0
 10
210.177030
 20
79.956760
 30
0.0
 10
210.791470
 20
79.708060
 30
0.0
 10
211.288870
 20
79.210650
 30
0.0
  0
SPLINE
  5
16b
100
AcDbEntity
  8
haotikum
 62
7
100
AcDbSpline
 70
8
 71
3
 72
8
 73
4
 74
0
 40
0
 40
0
 40
0
 40
0
 40
1
 40
1
 40
1
 40
1
 10
211.288870
 20
79.210650
 30
0.0
 10
211.815530
 20
78.742510
 30
0.0
 10
212.078860
 20
78.098810
 30
0.0
 10
212.078860
 20
77.279550
 30
0.0
  0
SPLINE
  5
16c
100
AcDbEntity
  8
haotikum
 62
7
100
AcDbSpline
 70
8
 71
3
 72
8
 73
4
 74
0
 40
0
 40
0
 40
0
 40
0
 40
1
 40
1
 40
1
 40
1
 10
212.078860
 20
77.279550
 30
0.0
 10
212.078860
 20
76.460290
 30
0.0
 10
211.815530
 20
75.801960
 30
0.0
 10
211.288870
 20
75.304560
 30
0.0
  0
SPLINE
  5
16d
100
AcDbEntity
  8
haotikum
 62
7
100
AcDbSpline
 70
8
 71
3
 72
8
 73
4
 74
0
 40
0
 40
0
 40
0
 40
0
 40
1
 40
1
 40
1
 40
1
 10
211.288870
 20
75.304560
 30
0.0
 10
210.791470
 20
74.836410
 30
0.0
 10
210.177030
 20
74.602340
 30
0.0
 10
209.445540
 20
74.602340
 30
0.0
  0
LWPOLYLINE
  5
16e
100
AcDbEntity
  8
haotikum
 62
7
100
AcDbPolyline
 90
6
 70
1
 10
211.508310
 20
47.654640
 30
0.0
 10
207.426660
 20
47.654640
 30
0.0
 10
207.426660
 20
70.476800
 30
0.0
 10
211.508310
 20
70.476800
 30
0.0
 10
211.508310
 20
47.654640
 30
0.0
 10
211.508310
 20
47.654640
 30
0.0
  0
SPLINE
  5
16f
100
AcDbEntity
  8
haotikum
 62
7
100
AcDbSpline
 70
8
 71
3
 72
8
 73
4
 74
0
 40
0
 40
0
 40
0
 40
0
 40
1
 40
1
 40
1
 40
1
 10
226.781580
 20
60.206850
 30
0.0
 10
227.659360
 20
59.533880
 30
0.0
 10
228.581020
 20
58.700030
 30
0.0
 10
229.546570
 20
57.705120
 30
0.0
  0
SPLINE
  5
170
100
AcDbEntity
  8
haotikum
 62
7
100
AcDbSpline
 70
8
 71
3
 72
8
 73
4
 74
0
 40
0
 40
0
 40
0
 40
0
 40
1
 40
1
 40
1
 40
1
 10
229.546570
 20
57.705120
 30
0.0
 10
230.541390
 20
56.710400
 30
0.0
 10
231.506940
 20
55.627820
 30
0.0
 10
232.443230
 20
54.457390
 30
0.0
  0
SPLINE
  5
171
100
AcDbEntity
  8
haotikum
 62
7
100
AcDbSpline
 70
8
 71
3
 72
8
 73
4
 74
0
 40
0
 40
0
 40
0
 40
0
 40
1
 40
1
 40
1
 40
1
 10
232.443230
 20
54.457390
 30
0.0
 10
233.408780
 20
53.316250
 30
0.0
 10
234.315820
 20
52.146010
 30
0.0
 10
235.164320
 20
50.946300
 30
0.0
  0
SPLINE
  5
172
100
AcDbEntity
  8
haotikum
 62
7
100
AcDbSpline
 70
8
 71
3
 72
8
 73
4
 74
0
 40
0
 40
0
 40
0
 40
0
 40
1
 40
1
 40
1
 40
1
 10
235.164320
 20
50.946300
 30
0.0
 10
236.012830
 20
49.776060
 30
0.0
 10
236.729690
 20
48.678850
 30
0.0
 10
237.314870
 20
47.654640
 30
0.0
  0
LWPOLYLINE
  5
173
100
AcDbEntity
  8
haotikum
 62
7
100
AcDbPolyline
 90
2
 70
1
 10
209.445540
 20
74.602340
 30
0.0
 10
209.445540
 20
74.602340
 30
0.0
  0
SPLINE
  5
174
100
AcDbEntity
  8
haotikum
 62
7
100
AcDbSpline
 70
8
 71
3
 72
8
 73
4
 74
0
 40
0
 40
0
 40
0
 40
0
 40
1
 40
1
 40
1
 40
1
 10
232.531000
 20
47.654640
 30
0.0
 10
231.916560
 20
48.678850
 30
0.0
 10
231.199720
 20
49.717490
 30
0.0
 10
230.380460
 20
50.770780
 30
0.0
  0
SPLINE
  5
175
100
AcDbEntity
  8
haotikum
 62
7
100
AcDbSpline
 70
8
 71
3
 72
8
 73
4
 74
0
 40
0
 40
0
 40
0
 40
0
 40
1
 40
1
 40
1
 40
1
 10
230.380460
 20
50.770780
 30
0.0
 10
229.590460
 20
51.853360
 30
0.0
 10
228.756580
 20
52.877360
 30
0.0
 10
227.878800
 20
53.842990
 30
0.0
  0
SPLINE
  5
176
100
AcDbEntity
  8
haotikum
 62
7
100
AcDbSpline
 70
8
 71
3
 72
8
 73
4
 74
0
 40
0
 40
0
 40
0
 40
0
 40
1
 40
1
 40
1
 40
1
 10
227.878800
 20
53.842990
 30
0.0
 10
227.001030
 20
54.837710
 30
0.0
 10
226.108630
 20
55.744770
 30
0.0
 10
225.201590
 20
56.564170
 30
0.0
  0
SPLINE
  5
177
100
AcDbEntity
  8
haotikum
 62
7
100
AcDbSpline
 70
8
 71
3
 72
8
 73
4
 74
0
 40
0
 40
0
 40
0
 40
0
 40
1
 40
1
 40
1
 40
1
 10
225.201590
 20
56.564170
 30
0.0
 10
224.294550
 20
57.383370
 30
0.0
 10
223.431420
 20
58.070990
 30
0.0
 10
222.612160
 20
58.626820
 30
0.0
  0
LWPOLYLINE
  5
178
100
AcDbEntity
  8
haotikum
 62
7
100
AcDbPolyline
 90
2
 70
1
 10
237.314870
 20
47.654640
 30
0.0
 10
232.531000
 20
47.654640
 30
0.0
  0
SPLINE
  5
179
100
AcDbEntity
  8
haotikum
 62
7
100
AcDbSpline
 70
8
 71
3
 72
8
 73
4
 74
0
 40
0
 40
0
 40
0
 40
0
 40
1
 40
1
 40
1
 40
1
 10
222.612160
 20
60.909110
 30
0.0
 10
223.314380
 20
61.611370
 30
0.0
 10
224.089750
 20
62.386660
 30
0.0
 10
224.938260
 20
63.235170
 30
0.0
  0
SPLINE
  5
17a
100
AcDbEntity
  8
haotikum
 62
7
100
AcDbSpline
 70
8
 71
3
 72
8
 73
4
 74
0
 40
0
 40
0
 40
0
 40
0
 40
1
 40
1
 40
1
 40
1
 10
224.938260
 20
63.235170
 30
0.0
 10
225.786770
 20
64.083680
 30
0.0
 10
226.620650
 20
64.946830
 30
0.0
 10
227.439910
 20
65.824600
 30
0.0
  0
SPLINE
  5
17b
100
AcDbEntity
  8
haotikum
 62
7
100
AcDbSpline
 70
8
 71
3
 72
8
 73
4
 74
0
 40
0
 40
0
 40
0
 40
0
 40
1
 40
1
 40
1
 40
1
 10
227.439910
 20
65.824600
 30
0.0
 10
228.259180
 20
66.702380
 30
0.0
 10
229.034530
 20
67.536260
 30
0.0
 10
229.766020
 20
68.326260
 30
0.0
  0
SPLINE
  5
17c
100
AcDbEntity
  8
haotikum
 62
7
100
AcDbSpline
 70
8
 71
3
 72
8
 73
4
 74
0
 40
0
 40
0
 40
0
 40
0
 40
1
 40
1
 40
1
 40
1
 10
229.766020
 20
68.326260
 30
0.0
 10
230.497500
 20
69.145520
 30
0.0
 10
231.126560
 20
69.862360
 30
0.0
 10
231.653230
 20
70.476800
 30
0.0
  0
LWPOLYLINE
  5
17d
100
AcDbEntity
  8
haotikum
 62
7
100
AcDbPolyline
 90
6
 70
1
 10
222.612160
 20
58.626820
 30
0.0
 10
222.612160
 20
47.654640
 30
0.0
 10
218.530510
 20
47.654640
 30
0.0
 10
218.530510
 20
81.010090
 30
0.0
 10
222.612160
 20
81.712310
 30
0.0
 10
222.612160
 20
60.909110
 30
0.0
  0
SPLINE
  5
17e
100
AcDbEntity
  8
haotikum
 62
7
100
AcDbSpline
 70
8
 71
3
 72
8
 73
4
 74
0
 40
0
 40
0
 40
0
 40
0
 40
1
 40
1
 40
1
 40
1
 10
236.437100
 20
70.476800
 30
0.0
 10
235.764140
 20
69.745320
 30
0.0
 10
235.032660
 20
68.940700
 30
0.0
 10
234.242660
 20
68.062930
 30
0.0
  0
SPLINE
  5
17f
100
AcDbEntity
  8
haotikum
 62
7
100
AcDbSpline
 70
8
 71
3
 72
8
 73
4
 74
0
 40
0
 40
0
 40
0
 40
0
 40
1
 40
1
 40
1
 40
1
 10
234.242660
 20
68.062930
 30
0.0
 10
233.452670
 20
67.185150
 30
0.0
 10
232.633400
 20
66.292760
 30
0.0
 10
231.784900
 20
65.385720
 30
0.0
  0
SPLINE
  5
180
100
AcDbEntity
  8
haotikum
 62
7
100
AcDbSpline
 70
8
 71
3
 72
8
 73
4
 74
0
 40
0
 40
0
 40
0
 40
0
 40
1
 40
1
 40
1
 40
1
 10
231.784900
 20
65.385720
 30
0.0
 10
230.936390
 20
64.507940
 30
0.0
 10
230.073240
 20
63.615550
 30
0.0
 10
229.195460
 20
62.708510
 30
0.0
  0
SPLINE
  5
181
100
AcDbEntity
  8
haotikum
 62
7
100
AcDbSpline
 70
8
 71
3
 72
8
 73
4
 74
0
 40
0
 40
0
 40
0
 40
0
 40
1
 40
1
 40
1
 40
1
 10
229.195460
 20
62.708510
 30
0.0
 10
228.346950
 20
61.830810
 30
0.0
 10
227.542320
 20
60.996770
 30
0.0
 10
226.781580
 20
60.206850
 30
0.0
  0
LWPOLYLINE
  5
182
100
AcDbEntity
  8
haotikum
 62
7
100
AcDbPolyline
 90
2
 70
1
 10
231.653230
 20
70.476800
 30
0.0
 10
236.437100
 20
70.476800
 30
0.0
  0
SPLINE
  5
183
100
AcDbEntity
  8
haotikum
 62
7
100
AcDbSpline
 70
8
 71
3
 72
8
 73
4
 74
0
 40
0
 40
0
 40
0
 40
0
 40
1
 40
1
 40
1
 40
1
 10
259.610320
 20
48.313010
 30
0.0
 10
258.674040
 20
48.078920
 30
0.0
 10
257.430510
 20
47.830190
 30
0.0
 10
255.879780
 20
47.566820
 30
0.0
  0
SPLINE
  5
184
100
AcDbEntity
  8
haotikum
 62
7
100
AcDbSpline
 70
8
 71
3
 72
8
 73
4
 74
0
 40
0
 40
0
 40
0
 40
0
 40
1
 40
1
 40
1
 40
1
 10
255.879780
 20
47.566820
 30
0.0
 10
254.358300
 20
47.303650
 30
0.0
 10
252.588130
 20
47.171860
 30
0.0
 10
250.569250
 20
47.171860
 30
0.0
  0
SPLINE
  5
185
100
AcDbEntity
  8
haotikum
 62
7
100
AcDbSpline
 70
8
 71
3
 72
8
 73
4
 74
0
 40
0
 40
0
 40
0
 40
0
 40
1
 40
1
 40
1
 40
1
 10
250.569250
 20
47.171860
 30
0.0
 10
248.813700
 20
47.171860
 30
0.0
 10
247.336110
 20
47.420590
 30
0.0
 10
246.136490
 20
47.918050
 30
0.0
  0
SPLINE
  5
186
100
AcDbEntity
  8
haotikum
 62
7
100
AcDbSpline
 70
8
 71
3
 72
8
 73
4
 74
0
 40
0
 40
0
 40
0
 40
0
 40
1
 40
1
 40
1
 40
1
 10
246.136490
 20
47.918050
 30
0.0
 10
244.936870
 20
48.444600
 30
0.0
 10
243.971320
 20
49.176140
 30
0.0
 10
243.239840
 20
50.112490
 30
0.0
  0
SPLINE
  5
187
100
AcDbEntity
  8
haotikum
 62
7
100
AcDbSpline
 70
8
 71
3
 72
8
 73
4
 74
0
 40
0
 40
0
 40
0
 40
0
 40
1
 40
1
 40
1
 40
1
 10
243.239840
 20
50.112490
 30
0.0
 10
242.508360
 20
51.048730
 30
0.0
 10
241.981700
 20
52.145950
 30
0.0
 10
241.659850
 20
53.404100
 30
0.0
  0
SPLINE
  5
188
100
AcDbEntity
  8
haotikum
 62
7
100
AcDbSpline
 70
8
 71
3
 72
8
 73
4
 74
0
 40
0
 40
0
 40
0
 40
0
 40
1
 40
1
 40
1
 40
1
 10
241.659850
 20
53.404100
 30
0.0
 10
241.338000
 20
54.691490
 30
0.0
 10
241.177070
 20
56.110570
 30
0.0
 10
241.177070
 20
57.661300
 30
0.0
  0
LWPOLYLINE
  5
189
100
AcDbEntity
  8
haotikum
 62
7
100
AcDbPolyline
 90
3
 70
1
 10
226.781580
 20
60.206850
 30
0.0
 10
226.781580
 20
60.206850
 30
0.0
 10
226.781580
 20
60.206850
 30
0.0
  0
SPLINE
  5
18a
100
AcDbEntity
  8
haotikum
 62
7
100
AcDbSpline
 70
8
 71
3
 72
8
 73
4
 74
0
 40
0
 40
0
 40
0
 40
0
 40
1
 40
1
 40
1
 40
1
 10
245.258720
 20
58.539080
 30
0.0
 10
245.258720
 20
55.759460
 30
0.0
 10
245.697610
 20
53.769830
 30
0.0
 10
246.575380
 20
52.570210
 30
0.0
  0
SPLINE
  5
18b
100
AcDbEntity
  8
haotikum
 62
7
100
AcDbSpline
 70
8
 71
3
 72
8
 73
4
 74
0
 40
0
 40
0
 40
0
 40
0
 40
1
 40
1
 40
1
 40
1
 10
246.575380
 20
52.570210
 30
0.0
 10
247.453150
 20
51.370600
 30
0.0
 10
248.930750
 20
50.770780
 30
0.0
 10
251.008140
 20
50.770780
 30
0.0
  0
SPLINE
  5
18c
100
AcDbEntity
  8
haotikum
 62
7
100
AcDbSpline
 70
8
 71
3
 72
8
 73
4
 74
0
 40
0
 40
0
 40
0
 40
0
 40
1
 40
1
 40
1
 40
1
 10
251.008140
 20
50.770780
 30
0.0
 10
251.447020
 20
50.770780
 30
0.0
 10
251.900530
 20
50.785400
 30
0.0
 10
252.368690
 20
50.814670
 30
0.0
  0
SPLINE
  5
18d
100
AcDbEntity
  8
haotikum
 62
7
100
AcDbSpline
 70
8
 71
3
 72
8
 73
4
 74
0
 40
0
 40
0
 40
0
 40
0
 40
1
 40
1
 40
1
 40
1
 10
252.368690
 20
50.814670
 30
0.0
 10
252.836840
 20
50.843930
 30
0.0
 10
253.275730
 20
50.873180
 30
0.0
 10
253.685350
 20
50.902440
 30
0.0
  0
SPLINE
  5
18e
100
AcDbEntity
  8
haotikum
 62
7
100
AcDbSpline
 70
8
 71
3
 72
8
 73
4
 74
0
 40
0
 40
0
 40
0
 40
0
 40
1
 40
1
 40
1
 40
1
 10
253.685350
 20
50.902440
 30
0.0
 10
254.094970
 20
50.960950
 30
0.0
 10
254.460720
 20
51.004840
 30
0.0
 10
254.782560
 20
51.034110
 30
0.0
  0
SPLINE
  5
18f
100
AcDbEntity
  8
haotikum
 62
7
100
AcDbSpline
 70
8
 71
3
 72
8
 73
4
 74
0
 40
0
 40
0
 40
0
 40
0
 40
1
 40
1
 40
1
 40
1
 10
254.782560
 20
51.034110
 30
0.0
 10
255.133670
 20
51.092620
 30
0.0
 10
255.382380
 20
51.151150
 30
0.0
 10
255.528670
 20
51.209660
 30
0.0
  0
LWPOLYLINE
  5
190
100
AcDbEntity
  8
haotikum
 62
7
100
AcDbPolyline
 90
4
 70
1
 10
241.177070
 20
57.661300
 30
0.0
 10
241.177070
 20
70.476800
 30
0.0
 10
245.258720
 20
70.476800
 30
0.0
 10
245.258720
 20
58.539080
 30
0.0
  0
SPLINE
  5
191
100
AcDbEntity
  8
haotikum
 62
7
100
AcDbSpline
 70
8
 71
3
 72
8
 73
4
 74
0
 40
0
 40
0
 40
0
 40
0
 40
1
 40
1
 40
1
 40
1
 10
266.632510
 20
69.818470
 30
0.0
 10
267.568800
 20
70.052550
 30
0.0
 10
268.797680
 20
70.301250
 30
0.0
 10
270.319160
 20
70.564580
 30
0.0
  0
SPLINE
  5
192
100
AcDbEntity
  8
haotikum
 62
7
100
AcDbSpline
 70
8
 71
3
 72
8
 73
4
 74
0
 40
0
 40
0
 40
0
 40
0
 40
1
 40
1
 40
1
 40
1
 10
270.319160
 20
70.564580
 30
0.0
 10
271.869890
 20
70.827910
 30
0.0
 10
273.654700
 20
70.959580
 30
0.0
 10
275.673580
 20
70.959580
 30
0.0
  0
SPLINE
  5
193
100
AcDbEntity
  8
haotikum
 62
7
100
AcDbSpline
 70
8
 71
3
 72
8
 73
4
 74
0
 40
0
 40
0
 40
0
 40
0
 40
1
 40
1
 40
1
 40
1
 10
275.673580
 20
70.959580
 30
0.0
 10
277.136530
 20
70.959580
 30
0.0
 10
278.365410
 20
70.754770
 30
0.0
 10
279.360230
 20
70.345140
 30
0.0
  0
SPLINE
  5
194
100
AcDbEntity
  8
haotikum
 62
7
100
AcDbSpline
 70
8
 71
3
 72
8
 73
4
 74
0
 40
0
 40
0
 40
0
 40
0
 40
1
 40
1
 40
1
 40
1
 10
279.360230
 20
70.345140
 30
0.0
 10
280.355050
 20
69.964770
 30
0.0
 10
281.188930
 20
69.394220
 30
0.0
 10
281.861890
 20
68.633480
 30
0.0
  0
SPLINE
  5
195
100
AcDbEntity
  8
haotikum
 62
7
100
AcDbSpline
 70
8
 71
3
 72
8
 73
4
 74
0
 40
0
 40
0
 40
0
 40
0
 40
1
 40
1
 40
1
 40
1
 10
281.861890
 20
68.633480
 30
0.0
 10
282.066710
 20
68.779770
 30
0.0
 10
282.388550
 20
68.984590
 30
0.0
 10
282.827440
 20
69.247920
 30
0.0
  0
SPLINE
  5
196
100
AcDbEntity
  8
haotikum
 62
7
100
AcDbSpline
 70
8
 71
3
 72
8
 73
4
 74
0
 40
0
 40
0
 40
0
 40
0
 40
1
 40
1
 40
1
 40
1
 10
282.827440
 20
69.247920
 30
0.0
 10
283.266320
 20
69.511250
 30
0.0
 10
283.807610
 20
69.759960
 30
0.0
 10
284.451320
 20
69.994030
 30
0.0
  0
SPLINE
  5
197
100
AcDbEntity
  8
haotikum
 62
7
100
AcDbSpline
 70
8
 71
3
 72
8
 73
4
 74
0
 40
0
 40
0
 40
0
 40
0
 40
1
 40
1
 40
1
 40
1
 10
284.451320
 20
69.994030
 30
0.0
 10
285.095030
 20
70.257360
 30
0.0
 10
285.811870
 20
70.476800
 30
0.0
 10
286.601870
 20
70.652360
 30
0.0
  0
SPLINE
  5
198
100
AcDbEntity
  8
haotikum
 62
7
100
AcDbSpline
 70
8
 71
3
 72
8
 73
4
 74
0
 40
0
 40
0
 40
0
 40
0
 40
1
 40
1
 40
1
 40
1
 10
286.601870
 20
70.652360
 30
0.0
 10
287.391780
 20
70.857170
 30
0.0
 10
288.240470
 20
70.959580
 30
0.0
 10
289.147330
 20
70.959580
 30
0.0
  0
SPLINE
  5
199
100
AcDbEntity
  8
haotikum
 62
7
100
AcDbSpline
 70
8
 71
3
 72
8
 73
4
 74
0
 40
0
 40
0
 40
0
 40
0
 40
1
 40
1
 40
1
 40
1
 10
289.147330
 20
70.959580
 30
0.0
 10
290.902880
 20
70.959580
 30
0.0
 10
292.336680
 20
70.696250
 30
0.0
 10
293.448540
 20
70.169580
 30
0.0
  0
SPLINE
  5
19a
100
AcDbEntity
  8
haotikum
 62
7
100
AcDbSpline
 70
8
 71
3
 72
8
 73
4
 74
0
 40
0
 40
0
 40
0
 40
0
 40
1
 40
1
 40
1
 40
1
 10
293.448540
 20
70.169580
 30
0.0
 10
294.560400
 20
69.672180
 30
0.0
 10
295.423530
 20
68.955320
 30
0.0
 10
296.037930
 20
68.019040
 30
0.0
  0
SPLINE
  5
19b
100
AcDbEntity
  8
haotikum
 62
7
100
AcDbSpline
 70
8
 71
3
 72
8
 73
4
 74
0
 40
0
 40
0
 40
0
 40
0
 40
1
 40
1
 40
1
 40
1
 10
296.037930
 20
68.019040
 30
0.0
 10
296.681620
 20
67.082750
 30
0.0
 10
297.105870
 20
65.970890
 30
0.0
 10
297.310670
 20
64.683500
 30
0.0
  0
SPLINE
  5
19c
100
AcDbEntity
  8
haotikum
 62
7
100
AcDbSpline
 70
8
 71
3
 72
8
 73
4
 74
0
 40
0
 40
0
 40
0
 40
0
 40
1
 40
1
 40
1
 40
1
 10
297.310670
 20
64.683500
 30
0.0
 10
297.544750
 20
63.396100
 30
0.0
 10
297.661900
 20
61.991660
 30
0.0
 10
297.661900
 20
60.470180
 30
0.0
  0
LWPOLYLINE
  5
19d
100
AcDbEntity
  8
haotikum
 62
7
100
AcDbPolyline
 90
6
 70
1
 10
255.528670
 20
51.209660
 30
0.0
 10
255.528670
 20
70.476800
 30
0.0
 10
259.610320
 20
70.476800
 30
0.0
 10
259.610320
 20
48.313010
 30
0.0
 10
259.610320
 20
48.313010
 30
0.0
 10
259.610320
 20
48.313010
 30
0.0
  0
SPLINE
  5
19e
100
AcDbEntity
  8
haotikum
 62
7
100
AcDbSpline
 70
8
 71
3
 72
8
 73
4
 74
0
 40
0
 40
0
 40
0
 40
0
 40
1
 40
1
 40
1
 40
1
 10
293.580130
 20
59.592410
 30
0.0
 10
293.580130
 20
60.938330
 30
0.0
 10
293.507110
 20
62.094060
 30
0.0
 10
293.360680
 20
63.059620
 30
0.0
  0
SPLINE
  5
19f
100
AcDbEntity
  8
haotikum
 62
7
100
AcDbSpline
 70
8
 71
3
 72
8
 73
4
 74
0
 40
0
 40
0
 40
0
 40
0
 40
1
 40
1
 40
1
 40
1
 10
293.360680
 20
63.059620
 30
0.0
 10
293.243740
 20
64.025170
 30
0.0
 10
292.995010
 20
64.829790
 30
0.0
 10
292.614700
 20
65.473490
 30
0.0
  0
SPLINE
  5
1a0
100
AcDbEntity
  8
haotikum
 62
7
100
AcDbSpline
 70
8
 71
3
 72
8
 73
4
 74
0
 40
0
 40
0
 40
0
 40
0
 40
1
 40
1
 40
1
 40
1
 10
292.614700
 20
65.473490
 30
0.0
 10
292.263470
 20
66.117200
 30
0.0
 10
291.766010
 20
66.585330
 30
0.0
 10
291.122320
 20
66.877930
 30
0.0
  0
SPLINE
  5
1a1
100
AcDbEntity
  8
haotikum
 62
7
100
AcDbSpline
 70
8
 71
3
 72
8
 73
4
 74
0
 40
0
 40
0
 40
0
 40
0
 40
1
 40
1
 40
1
 40
1
 10
291.122320
 20
66.877930
 30
0.0
 10
290.507920
 20
67.199780
 30
0.0
 10
289.703360
 20
67.360710
 30
0.0
 10
288.708440
 20
67.360710
 30
0.0
  0
SPLINE
  5
1a2
100
AcDbEntity
  8
haotikum
 62
7
100
AcDbSpline
 70
8
 71
3
 72
8
 73
4
 74
0
 40
0
 40
0
 40
0
 40
0
 40
1
 40
1
 40
1
 40
1
 10
288.708440
 20
67.360710
 30
0.0
 10
287.333410
 20
67.360710
 30
0.0
 10
286.192240
 20
67.170530
 30
0.0
 10
285.285200
 20
66.790150
 30
0.0
  0
SPLINE
  5
1a3
100
AcDbEntity
  8
haotikum
 62
7
100
AcDbSpline
 70
8
 71
3
 72
8
 73
4
 74
0
 40
0
 40
0
 40
0
 40
0
 40
1
 40
1
 40
1
 40
1
 10
285.285200
 20
66.790150
 30
0.0
 10
284.407430
 20
66.439040
 30
0.0
 10
283.807610
 20
66.117200
 30
0.0
 10
283.485770
 20
65.824600
 30
0.0
  0
SPLINE
  5
1a4
100
AcDbEntity
  8
haotikum
 62
7
100
AcDbSpline
 70
8
 71
3
 72
8
 73
4
 74
0
 40
0
 40
0
 40
0
 40
0
 40
1
 40
1
 40
1
 40
1
 10
283.485770
 20
65.824600
 30
0.0
 10
283.719830
 20
65.063870
 30
0.0
 10
283.895390
 20
64.229990
 30
0.0
 10
284.012430
 20
63.322950
 30
0.0
  0
SPLINE
  5
1a5
100
AcDbEntity
  8
haotikum
 62
7
100
AcDbSpline
 70
8
 71
3
 72
8
 73
4
 74
0
 40
0
 40
0
 40
0
 40
0
 40
1
 40
1
 40
1
 40
1
 10
284.012430
 20
63.322950
 30
0.0
 10
284.129480
 20
62.415910
 30
0.0
 10
284.187990
 20
61.465000
 30
0.0
 10
284.187990
 20
60.470180
 30
0.0
  0
LWPOLYLINE
  5
1a6
100
AcDbEntity
  8
haotikum
 62
7
100
AcDbPolyline
 90
4
 70
1
 10
297.661900
 20
60.470180
 30
0.0
 10
297.661900
 20
47.654640
 30
0.0
 10
293.580130
 20
47.654640
 30
0.0
 10
293.580130
 20
59.592410
 30
0.0
  0
SPLINE
  5
1a7
100
AcDbEntity
  8
haotikum
 62
7
100
AcDbSpline
 70
8
 71
3
 72
8
 73
4
 74
0
 40
0
 40
0
 40
0
 40
0
 40
1
 40
1
 40
1
 40
1
 10
280.106340
 20
59.592410
 30
0.0
 10
280.106340
 20
60.938330
 30
0.0
 10
280.033200
 20
62.094060
 30
0.0
 10
279.886900
 20
63.059620
 30
0.0
  0
SPLINE
  5
1a8
100
AcDbEntity
  8
haotikum
 62
7
100
AcDbSpline
 70
8
 71
3
 72
8
 73
4
 74
0
 40
0
 40
0
 40
0
 40
0
 40
1
 40
1
 40
1
 40
1
 10
279.886900
 20
63.059620
 30
0.0
 10
279.740610
 20
64.025170
 30
0.0
 10
279.477270
 20
64.829790
 30
0.0
 10
279.096900
 20
65.473490
 30
0.0
  0
SPLINE
  5
1a9
100
AcDbEntity
  8
haotikum
 62
7
100
AcDbSpline
 70
8
 71
3
 72
8
 73
4
 74
0
 40
0
 40
0
 40
0
 40
0
 40
1
 40
1
 40
1
 40
1
 10
279.096900
 20
65.473490
 30
0.0
 10
278.745790
 20
66.117200
 30
0.0
 10
278.248390
 20
66.585330
 30
0.0
 10
277.604680
 20
66.877930
 30
0.0
  0
SPLINE
  5
1aa
100
AcDbEntity
  8
haotikum
 62
7
100
AcDbSpline
 70
8
 71
3
 72
8
 73
4
 74
0
 40
0
 40
0
 40
0
 40
0
 40
1
 40
1
 40
1
 40
1
 10
277.604680
 20
66.877930
 30
0.0
 10
276.990240
 20
67.199780
 30
0.0
 10
276.200250
 20
67.360710
 30
0.0
 10
275.234690
 20
67.360710
 30
0.0
  0
SPLINE
  5
1ab
100
AcDbEntity
  8
haotikum
 62
7
100
AcDbSpline
 70
8
 71
3
 72
8
 73
4
 74
0
 40
0
 40
0
 40
0
 40
0
 40
1
 40
1
 40
1
 40
1
 10
275.234690
 20
67.360710
 30
0.0
 10
274.825070
 20
67.360710
 30
0.0
 10
274.386190
 20
67.346080
 30
0.0
 10
273.918050
 20
67.316820
 30
0.0
  0
SPLINE
  5
1ac
100
AcDbEntity
  8
haotikum
 62
7
100
AcDbSpline
 70
8
 71
3
 72
8
 73
4
 74
0
 40
0
 40
0
 40
0
 40
0
 40
1
 40
1
 40
1
 40
1
 10
273.918050
 20
67.316820
 30
0.0
 10
273.449900
 20
67.287550
 30
0.0
 10
272.996370
 20
67.243660
 30
0.0
 10
272.557480
 20
67.185150
 30
0.0
  0
SPLINE
  5
1ad
100
AcDbEntity
  8
haotikum
 62
7
100
AcDbSpline
 70
8
 71
3
 72
8
 73
4
 74
0
 40
0
 40
0
 40
0
 40
0
 40
1
 40
1
 40
1
 40
1
 10
272.557480
 20
67.185150
 30
0.0
 10
272.147860
 20
67.155890
 30
0.0
 10
271.767510
 20
67.112000
 30
0.0
 10
271.416400
 20
67.053490
 30
0.0
  0
SPLINE
  5
1ae
100
AcDbEntity
  8
haotikum
 62
7
100
AcDbSpline
 70
8
 71
3
 72
8
 73
4
 74
0
 40
0
 40
0
 40
0
 40
0
 40
1
 40
1
 40
1
 40
1
 10
271.416400
 20
67.053490
 30
0.0
 10
271.065270
 20
66.994970
 30
0.0
 10
270.831200
 20
66.951090
 30
0.0
 10
270.714180
 20
66.921820
 30
0.0
  0
LWPOLYLINE
  5
1af
100
AcDbEntity
  8
haotikum
 62
7
100
AcDbPolyline
 90
4
 70
1
 10
284.187990
 20
60.470180
 30
0.0
 10
284.187990
 20
47.654640
 30
0.0
 10
280.106340
 20
47.654640
 30
0.0
 10
280.106340
 20
59.592410
 30
0.0
  0
LWPOLYLINE
  5
1b0
100
AcDbEntity
  8
haotikum
 62
7
100
AcDbPolyline
 90
6
 70
1
 10
270.714180
 20
66.921820
 30
0.0
 10
270.714180
 20
47.654640
 30
0.0
 10
266.632520
 20
47.654640
 30
0.0
 10
266.632520
 20
69.818470
 30
0.0
 10
266.632510
 20
69.818470
 30
0.0
 10
266.632510
 20
69.818470
 30
0.0
  0
ENDSEC
  0
SECTION
  2
OBJECTS
  0
DICTIONARY
  5
C
330
0
100
AcDbDictionary
  3
ACAD_GROUP
350
D
  3
ACAD_MLINESTYLE
350
17
  0
DICTIONARY
  5
D
330
C
100
AcDbDictionary
  0
DICTIONARY
  5
1A
330
C
100
AcDbDictionary
  0
DICTIONARY
  5
17
330
C
100
AcDbDictionary
  3
STANDARD
350
18
  0
DICTIONARY
  5
19
330
C
100
AcDbDictionary
  0
ENDSEC
  0
EOF
