  0
SECTION
  2
HEADER
  9
$ACADVER
  1
AC1014
  9
$HANDSEED
  5
FFFF
  9
$MEASUREMENT
 70
     1
  0
ENDSEC
  0
SECTION
  2
TABLES
  0
TABLE
  2
VPORT
  5
8
330
0
100
AcDbSymbolTable
 70
     4
  0
VPORT
  5
2E
330
8
100
AcDbSymbolTableRecord
100
AcDbViewportTableRecord
  2
*ACTIVE
 70
     0
 10
0.0
 20
0.0
 11
1.0
 21
1.0
 12
210.0
 22
148.5
 13
0.0
 23
0.0
 14
10.0
 24
10.0
 15
10.0
 25
10.0
 16
0.0
 26
0.0
 36
1.0
 17
0.0
 27
0.0
 37
0.0
 40
341.0
 41
1.24
 42
50.0
 43
0.0
 44
0.0
 50
0.0
 51
0.0
 71
     0
 72
   100
 73
     1
 74
     3
 75
     0
 76
     0
 77
     0
 78
     0
  0
ENDTAB
  0
TABLE
  2
LTYPE
  5
5
330
0
100
AcDbSymbolTable
 70
     1
  0
LTYPE
  5
14
330
5
100
AcDbSymbolTableRecord
100
AcDbLinetypeTableRecord
  2
BYBLOCK
 70
     0
  3

 72
    65
 73
     0
 40
0.0
  0
LTYPE
  5
15
330
5
100
AcDbSymbolTableRecord
100
AcDbLinetypeTableRecord
  2
BYLAYER
 70
     0
  3

 72
    65
 73
     0
 40
0.0
  0
LTYPE
  5
16
330
5
100
AcDbSymbolTableRecord
100
AcDbLinetypeTableRecord
  2
CONTINUOUS
 70
     0
  3
Solid line
 72
    65
 73
     0
 40
0.0
  0
ENDTAB
  0
TABLE
  2
LAYER
  5
2
100
AcDbSymbolTable
 70
1
  0
LAYER
  5
50
100
AcDbSymbolTableRecord
100
AcDbLayerTableRecord
  2
0
 70
0
  6
CONTINUOUS
  0
ENDTAB
  0
TABLE
  2
STYLE
  5
3
330
0
100
AcDbSymbolTable
 70
     1
  0
STYLE
  5
11
330
3
100
AcDbSymbolTableRecord
100
AcDbTextStyleTableRecord
  2
STANDARD
 70
     0
 40
0.0
 41
1.0
 50
0.0
 71
     0
 42
2.5
  3
txt
  4

  0
ENDTAB
  0
TABLE
  2
VIEW
  5
6
330
0
100
AcDbSymbolTable
 70
     0
  0
ENDTAB
  0
TABLE
  2
UCS
  5
7
330
0
100
AcDbSymbolTable
 70
     0
  0
ENDTAB
  0
TABLE
  2
APPID
  5
9
330
0
100
AcDbSymbolTable
 70
     2
  0
APPID
  5
12
330
9
100
AcDbSymbolTableRecord
100
AcDbRegAppTableRecord
  2
ACAD
 70
     0
  0
ENDTAB
  0
TABLE
  2
DIMSTYLE
  5
A
330
0
100
AcDbSymbolTable
 70
     1
  0
DIMSTYLE
105
27
330
A
100
AcDbSymbolTableRecord
100
AcDbDimStyleTableRecord
  2
ISO-25
 70
     0
  3

  4

  5

  6

  7

 40
1.0
 41
2.5
 42
0.625
 43
3.75
 44
1.25
 45
0.0
 46
0.0
 47
0.0
 48
0.0
140
2.5
141
2.5
142
0.0
143
0.03937007874016
144
1.0
145
0.0
146
1.0
147
0.625
 71
     0
 72
     0
 73
     0
 74
     0
 75
     0
 76
     0
 77
     1
 78
     8
170
     0
171
     3
172
     1
173
     0
174
     0
175
     0
176
     0
177
     0
178
     0
270
     2
271
     2
272
     2
273
     2
274
     3
340
11
275
     0
280
     0
281
     0
282
     0
283
     0
284
     8
285
     0
286
     0
287
     3
288
     0
  0
ENDTAB
  0
TABLE
  2
BLOCK_RECORD
  5
1
330
0
100
AcDbSymbolTable
 70
     1
  0
BLOCK_RECORD
  5
1F
330
1
100
AcDbSymbolTableRecord
100
AcDbBlockTableRecord
  2
*MODEL_SPACE
  0
BLOCK_RECORD
  5
1B
330
1
100
AcDbSymbolTableRecord
100
AcDbBlockTableRecord
  2
*PAPER_SPACE
  0
ENDTAB
  0
ENDSEC
  0
SECTION
  2
BLOCKS
  0
BLOCK
  5
20
330
1F
100
AcDbEntity
  8
0
100
AcDbBlockBegin
  2
*MODEL_SPACE
 70
     0
 10
0.0
 20
0.0
 30
0.0
  3
*MODEL_SPACE
  1

  0
ENDBLK
  5
21
330
1F
100
AcDbEntity
  8
0
100
AcDbBlockEnd
  0
BLOCK
  5
1C
330
1B
100
AcDbEntity
 67
     1
  8
0
100
AcDbBlockBegin
  2
*PAPER_SPACE
  1

  0
ENDBLK
  5
1D
330
1B
100
AcDbEntity
 67
     1
  8
0
100
AcDbBlockEnd
  0
ENDSEC
  0
SECTION
  2
ENTITIES
  0
LWPOLYLINE
  5
100
100
AcDbEntity
  8
0
 62
7
100
AcDbPolyline
 90
5
 70
1
 10
25.281177
 20
82.515632
 30
0.0
 10
19.993468
 20
82.515632
 30
0.0
 10
19.993468
 20
71.940216
 30
0.0
 10
25.281177
 20
71.940216
 30
0.0
 10
25.281177
 20
82.515632
 30
0.0
  0
LWPOLYLINE
  5
101
100
AcDbEntity
  8
0
 62
7
100
AcDbPolyline
 90
5
 70
1
 10
35.387808
 20
82.515632
 30
0.0
 10
30.100099
 20
82.515632
 30
0.0
 10
30.100099
 20
71.940216
 30
0.0
 10
35.387808
 20
71.940216
 30
0.0
 10
35.387808
 20
82.515632
 30
0.0
  0
LWPOLYLINE
  5
102
100
AcDbEntity
  8
0
 62
7
100
AcDbPolyline
 90
5
 70
1
 10
55.601070
 20
82.515632
 30
0.0
 10
50.313361
 20
82.515632
 30
0.0
 10
50.313361
 20
71.940216
 30
0.0
 10
55.601070
 20
71.940216
 30
0.0
 10
55.601070
 20
82.515632
 30
0.0
  0
LWPOLYLINE
  5
103
100
AcDbEntity
  8
0
 62
7
100
AcDbPolyline
 90
5
 70
1
 10
65.707680
 20
82.515632
 30
0.0
 10
60.419971
 20
82.515632
 30
0.0
 10
60.419971
 20
71.940216
 30
0.0
 10
65.707680
 20
71.940216
 30
0.0
 10
65.707680
 20
82.515632
 30
0.0
  0
LWPOLYLINE
  5
104
100
AcDbEntity
  8
0
 62
7
100
AcDbPolyline
 90
5
 70
1
 10
45.494439
 20
82.515632
 30
0.0
 10
40.206730
 20
82.515632
 30
0.0
 10
40.206730
 20
71.940216
 30
0.0
 10
45.494439
 20
71.940216
 30
0.0
 10
45.494439
 20
82.515632
 30
0.0
  0
LWPOLYLINE
  5
105
100
AcDbEntity
  8
0
 62
7
100
AcDbPolyline
 90
5
 70
1
 10
71.940220
 20
25.288432
 30
0.0
 10
71.940220
 20
20.000720
 30
0.0
 10
82.515636
 20
20.000720
 30
0.0
 10
82.515636
 20
25.288432
 30
0.0
 10
71.940220
 20
25.288432
 30
0.0
  0
LWPOLYLINE
  5
106
100
AcDbEntity
  8
0
 62
7
100
AcDbPolyline
 90
5
 70
1
 10
71.940220
 20
35.395064
 30
0.0
 10
71.940220
 20
30.107352
 30
0.0
 10
82.515636
 20
30.107352
 30
0.0
 10
82.515636
 20
35.395064
 30
0.0
 10
71.940220
 20
35.395064
 30
0.0
  0
LWPOLYLINE
  5
107
100
AcDbEntity
  8
0
 62
7
100
AcDbPolyline
 90
5
 70
1
 10
71.940220
 20
55.608320
 30
0.0
 10
71.940220
 20
50.320616
 30
0.0
 10
82.515636
 20
50.320616
 30
0.0
 10
82.515636
 20
55.608320
 30
0.0
 10
71.940220
 20
55.608320
 30
0.0
  0
LWPOLYLINE
  5
108
100
AcDbEntity
  8
0
 62
7
100
AcDbPolyline
 90
5
 70
1
 10
71.940220
 20
65.714936
 30
0.0
 10
71.940220
 20
60.427224
 30
0.0
 10
82.515636
 20
60.427224
 30
0.0
 10
82.515636
 20
65.714936
 30
0.0
 10
71.940220
 20
65.714936
 30
0.0
  0
LWPOLYLINE
  5
109
100
AcDbEntity
  8
0
 62
7
100
AcDbPolyline
 90
5
 70
1
 10
25.281177
 20
13.775416
 30
0.0
 10
19.993468
 20
13.775416
 30
0.0
 10
19.993468
 20
3.200000
 30
0.0
 10
25.281177
 20
3.200000
 30
0.0
 10
25.281177
 20
13.775416
 30
0.0
  0
LWPOLYLINE
  5
10a
100
AcDbEntity
  8
0
 62
7
100
AcDbPolyline
 90
5
 70
1
 10
35.387808
 20
13.775416
 30
0.0
 10
30.100099
 20
13.775416
 30
0.0
 10
30.100099
 20
3.200000
 30
0.0
 10
35.387808
 20
3.200000
 30
0.0
 10
35.387808
 20
13.775416
 30
0.0
  0
LWPOLYLINE
  5
10b
100
AcDbEntity
  8
0
 62
7
100
AcDbPolyline
 90
5
 70
1
 10
55.601070
 20
13.775416
 30
0.0
 10
50.313361
 20
13.775416
 30
0.0
 10
50.313361
 20
3.200000
 30
0.0
 10
55.601070
 20
3.200000
 30
0.0
 10
55.601070
 20
13.775416
 30
0.0
  0
LWPOLYLINE
  5
10c
100
AcDbEntity
  8
0
 62
7
100
AcDbPolyline
 90
5
 70
1
 10
65.707680
 20
13.775416
 30
0.0
 10
60.419971
 20
13.775416
 30
0.0
 10
60.419971
 20
3.200000
 30
0.0
 10
65.707680
 20
3.200000
 30
0.0
 10
65.707680
 20
13.775416
 30
0.0
  0
LWPOLYLINE
  5
10d
100
AcDbEntity
  8
0
 62
7
100
AcDbPolyline
 90
5
 70
1
 10
3.200000
 20
25.288432
 30
0.0
 10
3.200000
 20
20.000720
 30
0.0
 10
13.775418
 20
20.000720
 30
0.0
 10
13.775418
 20
25.288432
 30
0.0
 10
3.200000
 20
25.288432
 30
0.0
  0
LWPOLYLINE
  5
10e
100
AcDbEntity
  8
0
 62
7
100
AcDbPolyline
 90
5
 70
1
 10
3.200000
 20
35.395064
 30
0.0
 10
3.200000
 20
30.107352
 30
0.0
 10
13.775418
 20
30.107352
 30
0.0
 10
13.775418
 20
35.395064
 30
0.0
 10
3.200000
 20
35.395064
 30
0.0
  0
LWPOLYLINE
  5
10f
100
AcDbEntity
  8
0
 62
7
100
AcDbPolyline
 90
5
 70
1
 10
3.200000
 20
55.608320
 30
0.0
 10
3.200000
 20
50.320616
 30
0.0
 10
13.775418
 20
50.320616
 30
0.0
 10
13.775418
 20
55.608320
 30
0.0
 10
3.200000
 20
55.608320
 30
0.0
  0
LWPOLYLINE
  5
110
100
AcDbEntity
  8
0
 62
7
100
AcDbPolyline
 90
5
 70
1
 10
3.200000
 20
65.714936
 30
0.0
 10
3.200000
 20
60.427224
 30
0.0
 10
13.775418
 20
60.427224
 30
0.0
 10
13.775418
 20
65.714936
 30
0.0
 10
3.200000
 20
65.714936
 30
0.0
  0
LWPOLYLINE
  5
111
100
AcDbEntity
  8
0
 62
7
100
AcDbPolyline
 90
5
 70
1
 10
3.200000
 20
45.501688
 30
0.0
 10
3.200000
 20
40.213984
 30
0.0
 10
13.775418
 20
40.213984
 30
0.0
 10
13.775418
 20
45.501688
 30
0.0
 10
3.200000
 20
45.501688
 30
0.0
  0
LWPOLYLINE
  5
112
100
AcDbEntity
  8
0
 62
7
100
AcDbPolyline
 90
5
 70
1
 10
45.494439
 20
13.775416
 30
0.0
 10
40.206730
 20
13.775416
 30
0.0
 10
40.206730
 20
3.200000
 30
0.0
 10
45.494439
 20
3.200000
 30
0.0
 10
45.494439
 20
13.775416
 30
0.0
  0
LWPOLYLINE
  5
113
100
AcDbEntity
  8
0
 62
7
100
AcDbPolyline
 90
5
 70
1
 10
71.940220
 20
45.501688
 30
0.0
 10
71.940220
 20
40.213984
 30
0.0
 10
82.515636
 20
40.213984
 30
0.0
 10
82.515636
 20
45.501688
 30
0.0
 10
71.940220
 20
45.501688
 30
0.0
  0
LWPOLYLINE
  5
114
100
AcDbEntity
  8
0
 62
1
100
AcDbPolyline
 90
10
 70
1
 10
19.988476
 20
71.940216
 30
0.0
 10
13.775418
 20
65.727160
 30
0.0
 10
13.775418
 20
19.988472
 30
0.0
 10
19.988476
 20
13.775416
 30
0.0
 10
65.727160
 20
13.775416
 30
0.0
 10
71.940220
 20
19.988472
 30
0.0
 10
71.940220
 20
65.727160
 30
0.0
 10
65.727160
 20
71.940216
 30
0.0
 10
19.988476
 20
71.940216
 30
0.0
 10
19.988476
 20
71.940216
 30
0.0
  0
SPLINE
  5
115
100
AcDbEntity
  8
0
 62
7
100
AcDbSpline
 70
8
 71
3
 72
8
 73
4
 74
0
 40
0
 40
0
 40
0
 40
0
 40
1
 40
1
 40
1
 40
1
 10
46.856257
 20
44.856040
 30
0.0
 10
46.856257
 20
43.981432
 30
0.0
 10
47.043654
 20
43.160376
 30
0.0
 10
47.418510
 20
42.392896
 30
0.0
  0
SPLINE
  5
116
100
AcDbEntity
  8
0
 62
7
100
AcDbSpline
 70
8
 71
3
 72
8
 73
4
 74
0
 40
0
 40
0
 40
0
 40
0
 40
1
 40
1
 40
1
 40
1
 10
47.418510
 20
42.392896
 30
0.0
 10
47.793324
 20
41.625400
 30
0.0
 10
48.284150
 20
40.947136
 30
0.0
 10
48.891031
 20
40.358128
 30
0.0
  0
SPLINE
  5
117
100
AcDbEntity
  8
0
 62
7
100
AcDbSpline
 70
8
 71
3
 72
8
 73
4
 74
0
 40
0
 40
0
 40
0
 40
0
 40
1
 40
1
 40
1
 40
1
 10
48.891031
 20
40.358128
 30
0.0
 10
49.515721
 20
39.786968
 30
0.0
 10
50.229667
 20
39.331824
 30
0.0
 10
51.032891
 20
38.992688
 30
0.0
  0
SPLINE
  5
118
100
AcDbEntity
  8
0
 62
7
100
AcDbSpline
 70
8
 71
3
 72
8
 73
4
 74
0
 40
0
 40
0
 40
0
 40
0
 40
1
 40
1
 40
1
 40
1
 10
51.032891
 20
38.992688
 30
0.0
 10
51.853925
 20
38.671408
 30
0.0
 10
52.701734
 20
38.510768
 30
0.0
 10
53.576343
 20
38.510792
 30
0.0
  0
SPLINE
  5
119
100
AcDbEntity
  8
0
 62
7
100
AcDbSpline
 70
8
 71
3
 72
8
 73
4
 74
0
 40
0
 40
0
 40
0
 40
0
 40
1
 40
1
 40
1
 40
1
 10
53.576343
 20
38.510792
 30
0.0
 10
54.272417
 20
38.510768
 30
0.0
 10
54.932830
 20
38.608928
 30
0.0
 10
55.557563
 20
38.805296
 30
0.0
  0
SPLINE
  5
11a
100
AcDbEntity
  8
0
 62
7
100
AcDbSpline
 70
8
 71
3
 72
8
 73
4
 74
0
 40
0
 40
0
 40
0
 40
0
 40
1
 40
1
 40
1
 40
1
 10
55.557563
 20
38.805296
 30
0.0
 10
56.182253
 20
39.019464
 30
0.0
 10
56.753410
 20
39.313976
 30
0.0
 10
57.271034
 20
39.688808
 30
0.0
  0
SPLINE
  5
11b
100
AcDbEntity
  8
0
 62
7
100
AcDbSpline
 70
8
 71
3
 72
8
 73
4
 74
0
 40
0
 40
0
 40
0
 40
0
 40
1
 40
1
 40
1
 40
1
 10
57.271034
 20
39.688808
 30
0.0
 10
57.788638
 20
40.063624
 30
0.0
 10
58.243782
 20
40.509840
 30
0.0
 10
58.636469
 20
41.027464
 30
0.0
  0
SPLINE
  5
11c
100
AcDbEntity
  8
0
 62
7
100
AcDbSpline
 70
8
 71
3
 72
8
 73
4
 74
0
 40
0
 40
0
 40
0
 40
0
 40
1
 40
1
 40
1
 40
1
 10
58.636469
 20
41.027464
 30
0.0
 10
59.029134
 20
41.545072
 30
0.0
 10
59.332564
 20
42.116224
 30
0.0
 10
59.546758
 20
42.740960
 30
0.0
  0
LWPOLYLINE
  5
11d
100
AcDbEntity
  8
0
 62
7
100
AcDbPolyline
 90
10
 70
1
 10
42.593433
 20
27.126880
 30
0.0
 10
42.593433
 20
21.839176
 30
0.0
 10
53.102754
 20
21.839176
 30
0.0
 10
53.300938
 20
21.839176
 30
0.0
 10
63.744163
 20
21.839176
 30
0.0
 10
63.744163
 20
27.126880
 30
0.0
 10
53.300938
 20
27.126880
 30
0.0
 10
53.102754
 20
27.126880
 30
0.0
 10
42.593433
 20
27.126880
 30
0.0
 10
42.593433
 20
27.126880
 30
0.0
  0
SPLINE
  5
11e
100
AcDbEntity
  8
0
 62
7
100
AcDbSpline
 70
8
 71
3
 72
8
 73
4
 74
0
 40
0
 40
0
 40
0
 40
0
 40
1
 40
1
 40
1
 40
1
 10
63.776926
 20
42.740960
 30
0.0
 10
63.527029
 20
41.527216
 30
0.0
 10
63.080810
 20
40.402752
 30
0.0
 10
62.438269
 20
39.367528
 30
0.0
  0
SPLINE
  5
11f
100
AcDbEntity
  8
0
 62
7
100
AcDbSpline
 70
8
 71
3
 72
8
 73
4
 74
0
 40
0
 40
0
 40
0
 40
0
 40
1
 40
1
 40
1
 40
1
 10
62.438269
 20
39.367528
 30
0.0
 10
61.813536
 20
38.350128
 30
0.0
 10
61.046036
 20
37.457688
 30
0.0
 10
60.135767
 20
36.690208
 30
0.0
  0
SPLINE
  5
120
100
AcDbEntity
  8
0
 62
7
100
AcDbSpline
 70
8
 71
3
 72
8
 73
4
 74
0
 40
0
 40
0
 40
0
 40
0
 40
1
 40
1
 40
1
 40
1
 10
60.135767
 20
36.690208
 30
0.0
 10
59.225457
 20
35.940544
 30
0.0
 10
58.199154
 20
35.351536
 30
0.0
 10
57.056861
 20
34.923168
 30
0.0
  0
SPLINE
  5
121
100
AcDbEntity
  8
0
 62
7
100
AcDbSpline
 70
8
 71
3
 72
8
 73
4
 74
0
 40
0
 40
0
 40
0
 40
0
 40
1
 40
1
 40
1
 40
1
 10
57.056861
 20
34.923168
 30
0.0
 10
55.914526
 20
34.494800
 30
0.0
 10
54.700806
 20
34.280624
 30
0.0
 10
53.415702
 20
34.280624
 30
0.0
  0
SPLINE
  5
122
100
AcDbEntity
  8
0
 62
7
100
AcDbSpline
 70
8
 71
3
 72
8
 73
4
 74
0
 40
0
 40
0
 40
0
 40
0
 40
1
 40
1
 40
1
 40
1
 10
53.415702
 20
34.280624
 30
0.0
 10
51.952086
 20
34.280624
 30
0.0
 10
50.568800
 20
34.557280
 30
0.0
 10
49.265845
 20
35.110584
 30
0.0
  0
SPLINE
  5
123
100
AcDbEntity
  8
0
 62
7
100
AcDbSpline
 70
8
 71
3
 72
8
 73
4
 74
0
 40
0
 40
0
 40
0
 40
0
 40
1
 40
1
 40
1
 40
1
 10
49.265845
 20
35.110584
 30
0.0
 10
47.962890
 20
35.663888
 30
0.0
 10
46.820554
 20
36.413536
 30
0.0
 10
45.838881
 20
37.359528
 30
0.0
  0
SPLINE
  5
124
100
AcDbEntity
  8
0
 62
7
100
AcDbSpline
 70
8
 71
3
 72
8
 73
4
 74
0
 40
0
 40
0
 40
0
 40
0
 40
1
 40
1
 40
1
 40
1
 10
45.838881
 20
37.359528
 30
0.0
 10
44.857186
 20
38.323376
 30
0.0
 10
44.071834
 20
39.447832
 30
0.0
 10
43.482846
 20
40.732960
 30
0.0
  0
SPLINE
  5
125
100
AcDbEntity
  8
0
 62
7
100
AcDbSpline
 70
8
 71
3
 72
8
 73
4
 74
0
 40
0
 40
0
 40
0
 40
0
 40
1
 40
1
 40
1
 40
1
 10
43.482846
 20
40.732960
 30
0.0
 10
42.911668
 20
42.018064
 30
0.0
 10
42.626090
 20
43.392424
 30
0.0
 10
42.626090
 20
44.856040
 30
0.0
  0
LWPOLYLINE
  5
126
100
AcDbEntity
  8
0
 62
7
100
AcDbPolyline
 90
2
 70
0
 10
59.546758
 20
42.740960
 30
0.0
 10
63.776926
 20
42.740960
 30
0.0
  0
SPLINE
  5
127
100
AcDbEntity
  8
0
 62
7
100
AcDbSpline
 70
8
 71
3
 72
8
 73
4
 74
0
 40
0
 40
0
 40
0
 40
0
 40
1
 40
1
 40
1
 40
1
 10
42.626090
 20
53.316376
 30
0.0
 10
42.626090
 20
54.779952
 30
0.0
 10
42.911668
 20
56.154312
 30
0.0
 10
43.482846
 20
57.439432
 30
0.0
  0
SPLINE
  5
128
100
AcDbEntity
  8
0
 62
7
100
AcDbSpline
 70
8
 71
3
 72
8
 73
4
 74
0
 40
0
 40
0
 40
0
 40
0
 40
1
 40
1
 40
1
 40
1
 10
43.482846
 20
57.439432
 30
0.0
 10
44.071834
 20
58.724536
 30
0.0
 10
44.857186
 20
59.840080
 30
0.0
 10
45.838881
 20
60.786088
 30
0.0
  0
SPLINE
  5
129
100
AcDbEntity
  8
0
 62
7
100
AcDbSpline
 70
8
 71
3
 72
8
 73
4
 74
0
 40
0
 40
0
 40
0
 40
0
 40
1
 40
1
 40
1
 40
1
 10
45.838881
 20
60.786088
 30
0.0
 10
46.820554
 20
61.749888
 30
0.0
 10
47.962890
 20
62.508464
 30
0.0
 10
49.265845
 20
63.061816
 30
0.0
  0
SPLINE
  5
12a
100
AcDbEntity
  8
0
 62
7
100
AcDbSpline
 70
8
 71
3
 72
8
 73
4
 74
0
 40
0
 40
0
 40
0
 40
0
 40
1
 40
1
 40
1
 40
1
 10
49.265845
 20
63.061816
 30
0.0
 10
50.568800
 20
63.615096
 30
0.0
 10
51.952086
 20
63.891752
 30
0.0
 10
53.415702
 20
63.891792
 30
0.0
  0
SPLINE
  5
12b
100
AcDbEntity
  8
0
 62
7
100
AcDbSpline
 70
8
 71
3
 72
8
 73
4
 74
0
 40
0
 40
0
 40
0
 40
0
 40
1
 40
1
 40
1
 40
1
 10
53.415702
 20
63.891792
 30
0.0
 10
54.700806
 20
63.891752
 30
0.0
 10
55.914526
 20
63.677576
 30
0.0
 10
57.056861
 20
63.249232
 30
0.0
  0
SPLINE
  5
12c
100
AcDbEntity
  8
0
 62
7
100
AcDbSpline
 70
8
 71
3
 72
8
 73
4
 74
0
 40
0
 40
0
 40
0
 40
0
 40
1
 40
1
 40
1
 40
1
 10
57.056861
 20
63.249232
 30
0.0
 10
58.199154
 20
62.820824
 30
0.0
 10
59.225457
 20
62.222888
 30
0.0
 10
60.135767
 20
61.455432
 30
0.0
  0
SPLINE
  5
12d
100
AcDbEntity
  8
0
 62
7
100
AcDbSpline
 70
8
 71
3
 72
8
 73
4
 74
0
 40
0
 40
0
 40
0
 40
0
 40
1
 40
1
 40
1
 40
1
 10
60.135767
 20
61.455432
 30
0.0
 10
61.046036
 20
60.705736
 30
0.0
 10
61.813536
 20
59.813296
 30
0.0
 10
62.438269
 20
58.778096
 30
0.0
  0
SPLINE
  5
12e
100
AcDbEntity
  8
0
 62
7
100
AcDbSpline
 70
8
 71
3
 72
8
 73
4
 74
0
 40
0
 40
0
 40
0
 40
0
 40
1
 40
1
 40
1
 40
1
 10
62.438269
 20
58.778096
 30
0.0
 10
63.080810
 20
57.742848
 30
0.0
 10
63.527029
 20
56.627304
 30
0.0
 10
63.776926
 20
55.431456
 30
0.0
  0
LWPOLYLINE
  5
12f
100
AcDbEntity
  8
0
 62
7
100
AcDbPolyline
 90
2
 70
0
 10
42.626090
 20
44.856040
 30
0.0
 10
42.626090
 20
53.316376
 30
0.0
  0
SPLINE
  5
130
100
AcDbEntity
  8
0
 62
7
100
AcDbSpline
 70
8
 71
3
 72
8
 73
4
 74
0
 40
0
 40
0
 40
0
 40
0
 40
1
 40
1
 40
1
 40
1
 10
59.546758
 20
55.431456
 30
0.0
 10
59.332564
 20
56.038280
 30
0.0
 10
59.029134
 20
56.600528
 30
0.0
 10
58.636469
 20
57.118152
 30
0.0
  0
SPLINE
  5
131
100
AcDbEntity
  8
0
 62
7
100
AcDbSpline
 70
8
 71
3
 72
8
 73
4
 74
0
 40
0
 40
0
 40
0
 40
0
 40
1
 40
1
 40
1
 40
1
 10
58.636469
 20
57.118152
 30
0.0
 10
58.243782
 20
57.635760
 30
0.0
 10
57.788638
 20
58.081976
 30
0.0
 10
57.271034
 20
58.456832
 30
0.0
  0
SPLINE
  5
132
100
AcDbEntity
  8
0
 62
7
100
AcDbSpline
 70
8
 71
3
 72
8
 73
4
 74
0
 40
0
 40
0
 40
0
 40
0
 40
1
 40
1
 40
1
 40
1
 10
57.271034
 20
58.456832
 30
0.0
 10
56.753410
 20
58.831624
 30
0.0
 10
56.182253
 20
59.126128
 30
0.0
 10
55.557563
 20
59.340344
 30
0.0
  0
SPLINE
  5
133
100
AcDbEntity
  8
0
 62
7
100
AcDbSpline
 70
8
 71
3
 72
8
 73
4
 74
0
 40
0
 40
0
 40
0
 40
0
 40
1
 40
1
 40
1
 40
1
 10
55.557563
 20
59.340344
 30
0.0
 10
54.932830
 20
59.554496
 30
0.0
 10
54.272417
 20
59.661584
 30
0.0
 10
53.576343
 20
59.661624
 30
0.0
  0
SPLINE
  5
134
100
AcDbEntity
  8
0
 62
7
100
AcDbSpline
 70
8
 71
3
 72
8
 73
4
 74
0
 40
0
 40
0
 40
0
 40
0
 40
1
 40
1
 40
1
 40
1
 10
53.576343
 20
59.661624
 30
0.0
 10
52.701734
 20
59.661584
 30
0.0
 10
51.853925
 20
59.492000
 30
0.0
 10
51.032891
 20
59.152928
 30
0.0
  0
SPLINE
  5
135
100
AcDbEntity
  8
0
 62
7
100
AcDbSpline
 70
8
 71
3
 72
8
 73
4
 74
0
 40
0
 40
0
 40
0
 40
0
 40
1
 40
1
 40
1
 40
1
 10
51.032891
 20
59.152928
 30
0.0
 10
50.229667
 20
58.831624
 30
0.0
 10
49.515721
 20
58.376480
 30
0.0
 10
48.891031
 20
57.787496
 30
0.0
  0
SPLINE
  5
136
100
AcDbEntity
  8
0
 62
7
100
AcDbSpline
 70
8
 71
3
 72
8
 73
4
 74
0
 40
0
 40
0
 40
0
 40
0
 40
1
 40
1
 40
1
 40
1
 10
48.891031
 20
57.787496
 30
0.0
 10
48.284150
 20
57.216312
 30
0.0
 10
47.793324
 20
56.546976
 30
0.0
 10
47.418510
 20
55.779496
 30
0.0
  0
SPLINE
  5
137
100
AcDbEntity
  8
0
 62
7
100
AcDbSpline
 70
8
 71
3
 72
8
 73
4
 74
0
 40
0
 40
0
 40
0
 40
0
 40
1
 40
1
 40
1
 40
1
 10
47.418510
 20
55.779496
 30
0.0
 10
47.043674
 20
55.011976
 30
0.0
 10
46.856257
 20
54.190944
 30
0.0
 10
46.856257
 20
53.316376
 30
0.0
  0
LWPOLYLINE
  5
138
100
AcDbEntity
  8
0
 62
7
100
AcDbPolyline
 90
2
 70
0
 10
63.776926
 20
55.431456
 30
0.0
 10
59.546758
 20
55.431456
 30
0.0
  0
LWPOLYLINE
  5
139
100
AcDbEntity
  8
0
 62
7
100
AcDbPolyline
 90
2
 70
0
 10
46.856257
 20
53.316376
 30
0.0
 10
46.856257
 20
44.856040
 30
0.0
  0
LWPOLYLINE
  5
13a
100
AcDbEntity
  8
0
 62
7
100
AcDbPolyline
 90
10
 70
0
 10
24.482056
 20
61.424192
 30
0.0
 10
35.548322
 20
50.357920
 30
0.0
 10
35.548322
 20
47.814472
 30
0.0
 10
24.482056
 20
36.748208
 30
0.0
 10
21.938605
 20
36.748208
 30
0.0
 10
21.938605
 20
39.291656
 30
0.0
 10
31.733134
 20
49.086208
 30
0.0
 10
21.938605
 20
58.880736
 30
0.0
 10
21.938605
 20
61.424192
 30
0.0
 10
24.482056
 20
61.424192
 30
0.0
  0
SPLINE
  5
13b
100
AcDbEntity
  8
0
 62
7
100
AcDbSpline
 70
8
 71
3
 72
8
 73
4
 74
0
 40
0
 40
0
 40
0
 40
0
 40
1
 40
1
 40
1
 40
1
 10
91.293612
 20
52.954168
 30
0.0
 10
91.944132
 20
53.204360
 30
0.0
 10
92.632188
 20
53.392008
 30
0.0
 10
93.357764
 20
53.517120
 30
0.0
  0
SPLINE
  5
13c
100
AcDbEntity
  8
0
 62
7
100
AcDbSpline
 70
8
 71
3
 72
8
 73
4
 74
0
 40
0
 40
0
 40
0
 40
0
 40
1
 40
1
 40
1
 40
1
 10
93.357764
 20
53.517120
 30
0.0
 10
94.108364
 20
53.667288
 30
0.0
 10
94.846444
 20
53.742288
 30
0.0
 10
95.572044
 20
53.742312
 30
0.0
  0
SPLINE
  5
13d
100
AcDbEntity
  8
0
 62
7
100
AcDbSpline
 70
8
 71
3
 72
8
 73
4
 74
0
 40
0
 40
0
 40
0
 40
0
 40
1
 40
1
 40
1
 40
1
 10
95.572044
 20
53.742312
 30
0.0
 10
97.123268
 20
53.742288
 30
0.0
 10
98.411804
 20
53.517096
 30
0.0
 10
99.437636
 20
53.066752
 30
0.0
  0
SPLINE
  5
13e
100
AcDbEntity
  8
0
 62
7
100
AcDbSpline
 70
8
 71
3
 72
8
 73
4
 74
0
 40
0
 40
0
 40
0
 40
0
 40
1
 40
1
 40
1
 40
1
 10
99.437636
 20
53.066752
 30
0.0
 10
100.463436
 20
52.641408
 30
0.0
 10
101.276596
 20
52.028416
 30
0.0
 10
101.877092
 20
51.227792
 30
0.0
  0
SPLINE
  5
13f
100
AcDbEntity
  8
0
 62
7
100
AcDbSpline
 70
8
 71
3
 72
8
 73
4
 74
0
 40
0
 40
0
 40
0
 40
0
 40
1
 40
1
 40
1
 40
1
 10
101.877092
 20
51.227792
 30
0.0
 10
102.502564
 20
50.452152
 30
0.0
 10
102.940404
 20
49.513896
 30
0.0
 10
103.190644
 20
48.413040
 30
0.0
  0
SPLINE
  5
140
100
AcDbEntity
  8
0
 62
7
100
AcDbSpline
 70
8
 71
3
 72
8
 73
4
 74
0
 40
0
 40
0
 40
0
 40
0
 40
1
 40
1
 40
1
 40
1
 10
103.190644
 20
48.413040
 30
0.0
 10
103.440812
 20
47.312136
 30
0.0
 10
103.565924
 20
46.098672
 30
0.0
 10
103.565940
 20
44.772624
 30
0.0
  0
LWPOLYLINE
  5
141
100
AcDbEntity
  8
0
 62
7
100
AcDbPolyline
 90
4
 70
0
 10
87.803324
 20
33.813864
 30
0.0
 10
87.803324
 20
62.336680
 30
0.0
 10
91.293612
 20
62.937152
 30
0.0
 10
91.293612
 20
52.954168
 30
0.0
  0
SPLINE
  5
142
100
AcDbEntity
  8
0
 62
7
100
AcDbSpline
 70
8
 71
3
 72
8
 73
4
 74
0
 40
0
 40
0
 40
0
 40
0
 40
1
 40
1
 40
1
 40
1
 10
100.075652
 20
44.022040
 30
0.0
 10
100.075628
 20
45.222984
 30
0.0
 10
99.988092
 20
46.248800
 30
0.0
 10
99.812940
 20
47.099488
 30
0.0
  0
SPLINE
  5
143
100
AcDbEntity
  8
0
 62
7
100
AcDbSpline
 70
8
 71
3
 72
8
 73
4
 74
0
 40
0
 40
0
 40
0
 40
0
 40
1
 40
1
 40
1
 40
1
 10
99.812940
 20
47.099488
 30
0.0
 10
99.662764
 20
47.950152
 30
0.0
 10
99.400092
 20
48.638216
 30
0.0
 10
99.024796
 20
49.163640
 30
0.0
  0
SPLINE
  5
144
100
AcDbEntity
  8
0
 62
7
100
AcDbSpline
 70
8
 71
3
 72
8
 73
4
 74
0
 40
0
 40
0
 40
0
 40
0
 40
1
 40
1
 40
1
 40
1
 10
99.024796
 20
49.163640
 30
0.0
 10
98.649492
 20
49.689048
 30
0.0
 10
98.149084
 20
50.064352
 30
0.0
 10
97.523612
 20
50.289544
 30
0.0
  0
SPLINE
  5
145
100
AcDbEntity
  8
0
 62
7
100
AcDbSpline
 70
8
 71
3
 72
8
 73
4
 74
0
 40
0
 40
0
 40
0
 40
0
 40
1
 40
1
 40
1
 40
1
 10
97.523612
 20
50.289544
 30
0.0
 10
96.898100
 20
50.539736
 30
0.0
 10
96.122476
 20
50.664824
 30
0.0
 10
95.196748
 20
50.664840
 30
0.0
  0
SPLINE
  5
146
100
AcDbEntity
  8
0
 62
7
100
AcDbSpline
 70
8
 71
3
 72
8
 73
4
 74
0
 40
0
 40
0
 40
0
 40
0
 40
1
 40
1
 40
1
 40
1
 10
95.196748
 20
50.664840
 30
0.0
 10
94.821428
 20
50.664824
 30
0.0
 10
94.433628
 20
50.639880
 30
0.0
 10
94.033324
 20
50.589720
 30
0.0
  0
SPLINE
  5
147
100
AcDbEntity
  8
0
 62
7
100
AcDbSpline
 70
8
 71
3
 72
8
 73
4
 74
0
 40
0
 40
0
 40
0
 40
0
 40
1
 40
1
 40
1
 40
1
 10
94.033324
 20
50.589720
 30
0.0
 10
93.632980
 20
50.539560
 30
0.0
 10
93.245180
 20
50.477192
 30
0.0
 10
92.869884
 20
50.402112
 30
0.0
  0
SPLINE
  5
148
100
AcDbEntity
  8
0
 62
7
100
AcDbSpline
 70
8
 71
3
 72
8
 73
4
 74
0
 40
0
 40
0
 40
0
 40
0
 40
1
 40
1
 40
1
 40
1
 10
92.869884
 20
50.402112
 30
0.0
 10
92.519604
 20
50.351952
 30
0.0
 10
92.194340
 20
50.289584
 30
0.0
 10
91.894108
 20
50.214504
 30
0.0
  0
SPLINE
  5
149
100
AcDbEntity
  8
0
 62
7
100
AcDbSpline
 70
8
 71
3
 72
8
 73
4
 74
0
 40
0
 40
0
 40
0
 40
0
 40
1
 40
1
 40
1
 40
1
 10
91.894108
 20
50.214504
 30
0.0
 10
91.618868
 20
50.139384
 30
0.0
 10
91.418724
 20
50.076808
 30
0.0
 10
91.293612
 20
50.026896
 30
0.0
  0
LWPOLYLINE
  5
14a
100
AcDbEntity
  8
0
 62
7
100
AcDbPolyline
 90
4
 70
0
 10
103.565940
 20
44.772624
 30
0.0
 10
103.565940
 20
33.813864
 30
0.0
 10
100.075652
 20
33.813864
 30
0.0
 10
100.075652
 20
44.022040
 30
0.0
  0
SPLINE
  5
14b
100
AcDbEntity
  8
0
 62
7
100
AcDbSpline
 70
8
 71
3
 72
8
 73
4
 74
0
 40
0
 40
0
 40
0
 40
0
 40
1
 40
1
 40
1
 40
1
 10
115.812444
 20
36.328384
 30
0.0
 10
116.638092
 20
36.328384
 30
0.0
 10
117.363668
 20
36.341104
 30
0.0
 10
117.989188
 20
36.365824
 30
0.0
  0
SPLINE
  5
14c
100
AcDbEntity
  8
0
 62
7
100
AcDbSpline
 70
8
 71
3
 72
8
 73
4
 74
0
 40
0
 40
0
 40
0
 40
0
 40
1
 40
1
 40
1
 40
1
 10
117.989188
 20
36.365824
 30
0.0
 10
118.639700
 20
36.415984
 30
0.0
 10
119.177628
 20
36.491032
 30
0.0
 10
119.602972
 20
36.591016
 30
0.0
  0
LWPOLYLINE
  5
14d
100
AcDbEntity
  8
0
 62
7
100
AcDbPolyline
 90
3
 70
0
 10
91.293612
 20
50.026896
 30
0.0
 10
91.293612
 20
33.813936
 30
0.0
 10
87.803324
 20
33.813936
 30
0.0
  0
SPLINE
  5
14e
100
AcDbEntity
  8
0
 62
7
100
AcDbSpline
 70
8
 71
3
 72
8
 73
4
 74
0
 40
0
 40
0
 40
0
 40
0
 40
1
 40
1
 40
1
 40
1
 10
119.602972
 20
42.408152
 30
0.0
 10
119.352756
 20
42.533152
 30
0.0
 10
118.939940
 20
42.633320
 30
0.0
 10
118.364484
 20
42.708408
 30
0.0
  0
SPLINE
  5
14f
100
AcDbEntity
  8
0
 62
7
100
AcDbSpline
 70
8
 71
3
 72
8
 73
4
 74
0
 40
0
 40
0
 40
0
 40
0
 40
1
 40
1
 40
1
 40
1
 10
118.364484
 20
42.708408
 30
0.0
 10
117.814036
 20
42.808448
 30
0.0
 10
117.138500
 20
42.858576
 30
0.0
 10
116.337852
 20
42.858576
 30
0.0
  0
SPLINE
  5
150
100
AcDbEntity
  8
0
 62
7
100
AcDbSpline
 70
8
 71
3
 72
8
 73
4
 74
0
 40
0
 40
0
 40
0
 40
0
 40
1
 40
1
 40
1
 40
1
 10
116.337852
 20
42.858576
 30
0.0
 10
115.812428
 20
42.858576
 30
0.0
 10
115.249476
 20
42.820896
 30
0.0
 10
114.649020
 20
42.746056
 30
0.0
  0
SPLINE
  5
151
100
AcDbEntity
  8
0
 62
7
100
AcDbSpline
 70
8
 71
3
 72
8
 73
4
 74
0
 40
0
 40
0
 40
0
 40
0
 40
1
 40
1
 40
1
 40
1
 10
114.649020
 20
42.746056
 30
0.0
 10
114.073548
 20
42.670936
 30
0.0
 10
113.535620
 20
42.508360
 30
0.0
 10
113.035212
 20
42.258168
 30
0.0
  0
SPLINE
  5
152
100
AcDbEntity
  8
0
 62
7
100
AcDbSpline
 70
8
 71
3
 72
8
 73
4
 74
0
 40
0
 40
0
 40
0
 40
0
 40
1
 40
1
 40
1
 40
1
 10
113.035212
 20
42.258168
 30
0.0
 10
112.559828
 20
42.032976
 30
0.0
 10
112.159524
 20
41.707720
 30
0.0
 10
111.834268
 20
41.282376
 30
0.0
  0
SPLINE
  5
153
100
AcDbEntity
  8
0
 62
7
100
AcDbSpline
 70
8
 71
3
 72
8
 73
4
 74
0
 40
0
 40
0
 40
0
 40
0
 40
1
 40
1
 40
1
 40
1
 10
111.834268
 20
41.282376
 30
0.0
 10
111.508988
 20
40.882056
 30
0.0
 10
111.346364
 20
40.344120
 30
0.0
 10
111.346380
 20
39.668584
 30
0.0
  0
SPLINE
  5
154
100
AcDbEntity
  8
0
 62
7
100
AcDbSpline
 70
8
 71
3
 72
8
 73
4
 74
0
 40
0
 40
0
 40
0
 40
0
 40
1
 40
1
 40
1
 40
1
 10
111.346380
 20
39.668584
 30
0.0
 10
111.346364
 20
38.417600
 30
0.0
 10
111.746684
 20
37.541888
 30
0.0
 10
112.547332
 20
37.041488
 30
0.0
  0
SPLINE
  5
155
100
AcDbEntity
  8
0
 62
7
100
AcDbSpline
 70
8
 71
3
 72
8
 73
4
 74
0
 40
0
 40
0
 40
0
 40
0
 40
1
 40
1
 40
1
 40
1
 10
112.547332
 20
37.041488
 30
0.0
 10
113.347972
 20
36.566120
 30
0.0
 10
114.436332
 20
36.328424
 30
0.0
 10
115.812444
 20
36.328424
 30
0.0
  0
SPLINE
  5
156
100
AcDbEntity
  8
0
 62
7
100
AcDbSpline
 70
8
 71
3
 72
8
 73
4
 74
0
 40
0
 40
0
 40
0
 40
0
 40
1
 40
1
 40
1
 40
1
 10
115.512212
 20
53.817400
 30
0.0
 10
116.913308
 20
53.817376
 30
0.0
 10
118.089252
 20
53.629792
 30
0.0
 10
119.040020
 20
53.254448
 30
0.0
  0
SPLINE
  5
157
100
AcDbEntity
  8
0
 62
7
100
AcDbSpline
 70
8
 71
3
 72
8
 73
4
 74
0
 40
0
 40
0
 40
0
 40
0
 40
1
 40
1
 40
1
 40
1
 10
119.040020
 20
53.254448
 30
0.0
 10
120.015796
 20
52.904144
 30
0.0
 10
120.791420
 20
52.391240
 30
0.0
 10
121.366892
 20
51.715720
 30
0.0
  0
SPLINE
  5
158
100
AcDbEntity
  8
0
 62
7
100
AcDbSpline
 70
8
 71
3
 72
8
 73
4
 74
0
 40
0
 40
0
 40
0
 40
0
 40
1
 40
1
 40
1
 40
1
 10
121.366892
 20
51.715720
 30
0.0
 10
121.967340
 20
51.065184
 30
0.0
 10
122.392684
 20
50.277064
 30
0.0
 10
122.642900
 20
49.351336
 30
0.0
  0
SPLINE
  5
159
100
AcDbEntity
  8
0
 62
7
100
AcDbSpline
 70
8
 71
3
 72
8
 73
4
 74
0
 40
0
 40
0
 40
0
 40
0
 40
1
 40
1
 40
1
 40
1
 10
122.642900
 20
49.351336
 30
0.0
 10
122.893092
 20
48.450608
 30
0.0
 10
123.018196
 20
47.449808
 30
0.0
 10
123.018196
 20
46.348928
 30
0.0
  0
LWPOLYLINE
  5
15a
100
AcDbEntity
  8
0
 62
7
100
AcDbPolyline
 90
2
 70
0
 10
119.602972
 20
36.591016
 30
0.0
 10
119.602972
 20
42.408152
 30
0.0
  0
SPLINE
  5
15b
100
AcDbEntity
  8
0
 62
7
100
AcDbSpline
 70
8
 71
3
 72
8
 73
4
 74
0
 40
0
 40
0
 40
0
 40
0
 40
1
 40
1
 40
1
 40
1
 10
123.018196
 20
34.151688
 30
0.0
 10
122.717940
 20
34.101528
 30
0.0
 10
122.292620
 20
34.026472
 30
0.0
 10
121.742188
 20
33.926496
 30
0.0
  0
SPLINE
  5
15c
100
AcDbEntity
  8
0
 62
7
100
AcDbSpline
 70
8
 71
3
 72
8
 73
4
 74
0
 40
0
 40
0
 40
0
 40
0
 40
1
 40
1
 40
1
 40
1
 10
121.742188
 20
33.926496
 30
0.0
 10
121.216740
 20
33.851376
 30
0.0
 10
120.616268
 20
33.776320
 30
0.0
 10
119.940748
 20
33.701320
 30
0.0
  0
SPLINE
  5
15d
100
AcDbEntity
  8
0
 62
7
100
AcDbSpline
 70
8
 71
3
 72
8
 73
4
 74
0
 40
0
 40
0
 40
0
 40
0
 40
1
 40
1
 40
1
 40
1
 10
119.940748
 20
33.701320
 30
0.0
 10
119.265196
 20
33.626280
 30
0.0
 10
118.527092
 20
33.563632
 30
0.0
 10
117.726468
 20
33.513712
 30
0.0
  0
SPLINE
  5
15e
100
AcDbEntity
  8
0
 62
7
100
AcDbSpline
 70
8
 71
3
 72
8
 73
4
 74
0
 40
0
 40
0
 40
0
 40
0
 40
1
 40
1
 40
1
 40
1
 10
117.726468
 20
33.513712
 30
0.0
 10
116.950844
 20
33.438672
 30
0.0
 10
116.175228
 20
33.401192
 30
0.0
 10
115.399604
 20
33.401192
 30
0.0
  0
SPLINE
  5
15f
100
AcDbEntity
  8
0
 62
7
100
AcDbSpline
 70
8
 71
3
 72
8
 73
4
 74
0
 40
0
 40
0
 40
0
 40
0
 40
1
 40
1
 40
1
 40
1
 10
115.399604
 20
33.401192
 30
0.0
 10
114.298724
 20
33.401192
 30
0.0
 10
113.285404
 20
33.513712
 30
0.0
 10
112.359676
 20
33.738952
 30
0.0
  0
SPLINE
  5
160
100
AcDbEntity
  8
0
 62
7
100
AcDbSpline
 70
8
 71
3
 72
8
 73
4
 74
0
 40
0
 40
0
 40
0
 40
0
 40
1
 40
1
 40
1
 40
1
 10
112.359676
 20
33.738952
 30
0.0
 10
111.433948
 20
33.964144
 30
0.0
 10
110.633308
 20
34.314424
 30
0.0
 10
109.957772
 20
34.789808
 30
0.0
  0
SPLINE
  5
161
100
AcDbEntity
  8
0
 62
7
100
AcDbSpline
 70
8
 71
3
 72
8
 73
4
 74
0
 40
0
 40
0
 40
0
 40
0
 40
1
 40
1
 40
1
 40
1
 10
109.957772
 20
34.789808
 30
0.0
 10
109.282212
 20
35.290192
 30
0.0
 10
108.756804
 20
35.940712
 30
0.0
 10
108.381500
 20
36.741352
 30
0.0
  0
SPLINE
  5
162
100
AcDbEntity
  8
0
 62
7
100
AcDbSpline
 70
8
 71
3
 72
8
 73
4
 74
0
 40
0
 40
0
 40
0
 40
0
 40
1
 40
1
 40
1
 40
1
 10
108.381500
 20
36.741352
 30
0.0
 10
108.006204
 20
37.542000
 30
0.0
 10
107.818548
 20
38.505272
 30
0.0
 10
107.818548
 20
39.631168
 30
0.0
  0
SPLINE
  5
163
100
AcDbEntity
  8
0
 62
7
100
AcDbSpline
 70
8
 71
3
 72
8
 73
4
 74
0
 40
0
 40
0
 40
0
 40
0
 40
1
 40
1
 40
1
 40
1
 10
107.818548
 20
39.631168
 30
0.0
 10
107.818548
 20
40.707032
 30
0.0
 10
108.031220
 20
41.632760
 30
0.0
 10
108.456564
 20
42.408384
 30
0.0
  0
SPLINE
  5
164
100
AcDbEntity
  8
0
 62
7
100
AcDbSpline
 70
8
 71
3
 72
8
 73
4
 74
0
 40
0
 40
0
 40
0
 40
0
 40
1
 40
1
 40
1
 40
1
 10
108.456564
 20
42.408384
 30
0.0
 10
108.906932
 20
43.184008
 30
0.0
 10
109.507404
 20
43.809496
 30
0.0
 10
110.258004
 20
44.284888
 30
0.0
  0
SPLINE
  5
165
100
AcDbEntity
  8
0
 62
7
100
AcDbSpline
 70
8
 71
3
 72
8
 73
4
 74
0
 40
0
 40
0
 40
0
 40
0
 40
1
 40
1
 40
1
 40
1
 10
110.258004
 20
44.284888
 30
0.0
 10
111.008604
 20
44.760248
 30
0.0
 10
111.884292
 20
45.110552
 30
0.0
 10
112.885108
 20
45.335720
 30
0.0
  0
SPLINE
  5
166
100
AcDbEntity
  8
0
 62
7
100
AcDbSpline
 70
8
 71
3
 72
8
 73
4
 74
0
 40
0
 40
0
 40
0
 40
0
 40
1
 40
1
 40
1
 40
1
 10
112.885108
 20
45.335720
 30
0.0
 10
113.885900
 20
45.560896
 30
0.0
 10
114.936740
 20
45.673480
 30
0.0
 10
116.037620
 20
45.673496
 30
0.0
  0
SPLINE
  5
167
100
AcDbEntity
  8
0
 62
7
100
AcDbSpline
 70
8
 71
3
 72
8
 73
4
 74
0
 40
0
 40
0
 40
0
 40
0
 40
1
 40
1
 40
1
 40
1
 10
116.037620
 20
45.673496
 30
0.0
 10
116.387900
 20
45.673480
 30
0.0
 10
116.750676
 20
45.648536
 30
0.0
 10
117.125996
 20
45.598376
 30
0.0
  0
SPLINE
  5
168
100
AcDbEntity
  8
0
 62
7
100
AcDbSpline
 70
8
 71
3
 72
8
 73
4
 74
0
 40
0
 40
0
 40
0
 40
0
 40
1
 40
1
 40
1
 40
1
 10
117.125996
 20
45.598376
 30
0.0
 10
117.501276
 20
45.573416
 30
0.0
 10
117.851556
 20
45.523256
 30
0.0
 10
118.176836
 20
45.448200
 30
0.0
  0
SPLINE
  5
169
100
AcDbEntity
  8
0
 62
7
100
AcDbSpline
 70
8
 71
3
 72
8
 73
4
 74
0
 40
0
 40
0
 40
0
 40
0
 40
1
 40
1
 40
1
 40
1
 10
118.176836
 20
45.448200
 30
0.0
 10
118.527092
 20
45.398120
 30
0.0
 10
118.827348
 20
45.348160
 30
0.0
 10
119.077564
 20
45.298032
 30
0.0
  0
SPLINE
  5
16a
100
AcDbEntity
  8
0
 62
7
100
AcDbSpline
 70
8
 71
3
 72
8
 73
4
 74
0
 40
0
 40
0
 40
0
 40
0
 40
1
 40
1
 40
1
 40
1
 10
119.077564
 20
45.298032
 30
0.0
 10
119.327740
 20
45.247872
 30
0.0
 10
119.502884
 20
45.210472
 30
0.0
 10
119.602972
 20
45.185512
 30
0.0
  0
LWPOLYLINE
  5
16b
100
AcDbEntity
  8
0
 62
7
100
AcDbPolyline
 90
2
 70
0
 10
123.018196
 20
46.348928
 30
0.0
 10
123.018196
 20
34.151688
 30
0.0
  0
SPLINE
  5
16c
100
AcDbEntity
  8
0
 62
7
100
AcDbSpline
 70
8
 71
3
 72
8
 73
4
 74
0
 40
0
 40
0
 40
0
 40
0
 40
1
 40
1
 40
1
 40
1
 10
119.602972
 20
46.161280
 30
0.0
 10
119.602948
 20
46.736736
 30
0.0
 10
119.540332
 20
47.299688
 30
0.0
 10
119.415364
 20
47.850136
 30
0.0
  0
SPLINE
  5
16d
100
AcDbEntity
  8
0
 62
7
100
AcDbSpline
 70
8
 71
3
 72
8
 73
4
 74
0
 40
0
 40
0
 40
0
 40
0
 40
1
 40
1
 40
1
 40
1
 10
119.415364
 20
47.850136
 30
0.0
 10
119.290148
 20
48.425584
 30
0.0
 10
119.065068
 20
48.925976
 30
0.0
 10
118.739828
 20
49.351336
 30
0.0
  0
SPLINE
  5
16e
100
AcDbEntity
  8
0
 62
7
100
AcDbSpline
 70
8
 71
3
 72
8
 73
4
 74
0
 40
0
 40
0
 40
0
 40
0
 40
1
 40
1
 40
1
 40
1
 10
118.739828
 20
49.351336
 30
0.0
 10
118.414548
 20
49.801680
 30
0.0
 10
117.964188
 20
50.151960
 30
0.0
 10
117.388756
 20
50.402176
 30
0.0
  0
SPLINE
  5
16f
100
AcDbEntity
  8
0
 62
7
100
AcDbSpline
 70
8
 71
3
 72
8
 73
4
 74
0
 40
0
 40
0
 40
0
 40
0
 40
1
 40
1
 40
1
 40
1
 10
117.388756
 20
50.402176
 30
0.0
 10
116.838308
 20
50.677392
 30
0.0
 10
116.112724
 20
50.814992
 30
0.0
 10
115.212020
 20
50.815016
 30
0.0
  0
SPLINE
  5
170
100
AcDbEntity
  8
0
 62
7
100
AcDbSpline
 70
8
 71
3
 72
8
 73
4
 74
0
 40
0
 40
0
 40
0
 40
0
 40
1
 40
1
 40
1
 40
1
 10
115.212020
 20
50.815016
 30
0.0
 10
114.061076
 20
50.814992
 30
0.0
 10
113.047780
 20
50.727456
 30
0.0
 10
112.172068
 20
50.552304
 30
0.0
  0
SPLINE
  5
171
100
AcDbEntity
  8
0
 62
7
100
AcDbSpline
 70
8
 71
3
 72
8
 73
4
 74
0
 40
0
 40
0
 40
0
 40
0
 40
1
 40
1
 40
1
 40
1
 10
112.172068
 20
50.552304
 30
0.0
 10
111.321380
 20
50.402128
 30
0.0
 10
110.683388
 20
50.239520
 30
0.0
 10
110.258044
 20
50.064416
 30
0.0
  0
LWPOLYLINE
  5
172
100
AcDbEntity
  8
0
 62
7
100
AcDbPolyline
 90
2
 70
0
 10
119.602972
 20
45.185512
 30
0.0
 10
119.602972
 20
46.161280
 30
0.0
  0
SPLINE
  5
173
100
AcDbEntity
  8
0
 62
7
100
AcDbSpline
 70
8
 71
3
 72
8
 73
4
 74
0
 40
0
 40
0
 40
0
 40
0
 40
1
 40
1
 40
1
 40
1
 10
109.845228
 20
52.954216
 30
0.0
 10
110.295572
 20
53.154296
 30
0.0
 10
111.046172
 20
53.342016
 30
0.0
 10
112.097004
 20
53.517160
 30
0.0
  0
SPLINE
  5
174
100
AcDbEntity
  8
0
 62
7
100
AcDbSpline
 70
8
 71
3
 72
8
 73
4
 74
0
 40
0
 40
0
 40
0
 40
0
 40
1
 40
1
 40
1
 40
1
 10
112.097004
 20
53.517160
 30
0.0
 10
113.147844
 20
53.717248
 30
0.0
 10
114.286268
 20
53.817376
 30
0.0
 10
115.512252
 20
53.817400
 30
0.0
  0
SPLINE
  5
175
100
AcDbEntity
  8
0
 62
7
100
AcDbSpline
 70
8
 71
3
 72
8
 73
4
 74
0
 40
0
 40
0
 40
0
 40
0
 40
1
 40
1
 40
1
 40
1
 10
146.004740
 20
43.571680
 30
0.0
 10
146.004716
 20
42.020432
 30
0.0
 10
145.779540
 20
40.619296
 30
0.0
 10
145.329204
 20
39.368312
 30
0.0
  0
SPLINE
  5
176
100
AcDbEntity
  8
0
 62
7
100
AcDbSpline
 70
8
 71
3
 72
8
 73
4
 74
0
 40
0
 40
0
 40
0
 40
0
 40
1
 40
1
 40
1
 40
1
 10
145.329204
 20
39.368312
 30
0.0
 10
144.878812
 20
38.117304
 30
0.0
 10
144.240820
 20
37.041440
 30
0.0
 10
143.415180
 20
36.140736
 30
0.0
  0
SPLINE
  5
177
100
AcDbEntity
  8
0
 62
7
100
AcDbSpline
 70
8
 71
3
 72
8
 73
4
 74
0
 40
0
 40
0
 40
0
 40
0
 40
1
 40
1
 40
1
 40
1
 10
143.415180
 20
36.140736
 30
0.0
 10
142.614508
 20
35.240000
 30
0.0
 10
141.651236
 20
34.539448
 30
0.0
 10
140.525356
 20
34.039056
 30
0.0
  0
SPLINE
  5
178
100
AcDbEntity
  8
0
 62
7
100
AcDbSpline
 70
8
 71
3
 72
8
 73
4
 74
0
 40
0
 40
0
 40
0
 40
0
 40
1
 40
1
 40
1
 40
1
 10
140.525356
 20
34.039056
 30
0.0
 10
139.399460
 20
33.563672
 30
0.0
 10
138.173468
 20
33.325984
 30
0.0
 10
136.847420
 20
33.325984
 30
0.0
  0
SPLINE
  5
179
100
AcDbEntity
  8
0
 62
7
100
AcDbSpline
 70
8
 71
3
 72
8
 73
4
 74
0
 40
0
 40
0
 40
0
 40
0
 40
1
 40
1
 40
1
 40
1
 10
136.847420
 20
33.325984
 30
0.0
 10
135.521348
 20
33.325984
 30
0.0
 10
134.295380
 20
33.563672
 30
0.0
 10
133.169476
 20
34.039056
 30
0.0
  0
SPLINE
  5
17a
100
AcDbEntity
  8
0
 62
7
100
AcDbSpline
 70
8
 71
3
 72
8
 73
4
 74
0
 40
0
 40
0
 40
0
 40
0
 40
1
 40
1
 40
1
 40
1
 10
133.169476
 20
34.039056
 30
0.0
 10
132.043580
 20
34.539448
 30
0.0
 10
131.067804
 20
35.240000
 30
0.0
 10
130.242140
 20
36.140736
 30
0.0
  0
SPLINE
  5
17b
100
AcDbEntity
  8
0
 62
7
100
AcDbSpline
 70
8
 71
3
 72
8
 73
4
 74
0
 40
0
 40
0
 40
0
 40
0
 40
1
 40
1
 40
1
 40
1
 10
130.242140
 20
36.140736
 30
0.0
 10
129.441492
 20
37.041440
 30
0.0
 10
128.816004
 20
38.117304
 30
0.0
 10
128.365636
 20
39.368312
 30
0.0
  0
SPLINE
  5
17c
100
AcDbEntity
  8
0
 62
7
100
AcDbSpline
 70
8
 71
3
 72
8
 73
4
 74
0
 40
0
 40
0
 40
0
 40
0
 40
1
 40
1
 40
1
 40
1
 10
128.365636
 20
39.368312
 30
0.0
 10
127.915276
 20
40.619296
 30
0.0
 10
127.690100
 20
42.020432
 30
0.0
 10
127.690100
 20
43.571680
 30
0.0
  0
SPLINE
  5
17d
100
AcDbEntity
  8
0
 62
7
100
AcDbSpline
 70
8
 71
3
 72
8
 73
4
 74
0
 40
0
 40
0
 40
0
 40
0
 40
1
 40
1
 40
1
 40
1
 10
127.690100
 20
43.571680
 30
0.0
 10
127.690100
 20
45.097880
 30
0.0
 10
127.915276
 20
46.486496
 30
0.0
 10
128.365636
 20
47.737504
 30
0.0
  0
SPLINE
  5
17e
100
AcDbEntity
  8
0
 62
7
100
AcDbSpline
 70
8
 71
3
 72
8
 73
4
 74
0
 40
0
 40
0
 40
0
 40
0
 40
1
 40
1
 40
1
 40
1
 10
128.365636
 20
47.737504
 30
0.0
 10
128.816004
 20
49.013512
 30
0.0
 10
129.441492
 20
50.101872
 30
0.0
 10
130.242140
 20
51.002624
 30
0.0
  0
SPLINE
  5
17f
100
AcDbEntity
  8
0
 62
7
100
AcDbSpline
 70
8
 71
3
 72
8
 73
4
 74
0
 40
0
 40
0
 40
0
 40
0
 40
1
 40
1
 40
1
 40
1
 10
130.242140
 20
51.002624
 30
0.0
 10
131.067804
 20
51.903312
 30
0.0
 10
132.043580
 20
52.591368
 30
0.0
 10
133.169476
 20
53.066752
 30
0.0
  0
SPLINE
  5
180
100
AcDbEntity
  8
0
 62
7
100
AcDbSpline
 70
8
 71
3
 72
8
 73
4
 74
0
 40
0
 40
0
 40
0
 40
0
 40
1
 40
1
 40
1
 40
1
 10
133.169476
 20
53.066752
 30
0.0
 10
134.295380
 20
53.567144
 30
0.0
 10
135.521348
 20
53.817336
 30
0.0
 10
136.847420
 20
53.817352
 30
0.0
  0
SPLINE
  5
181
100
AcDbEntity
  8
0
 62
7
100
AcDbSpline
 70
8
 71
3
 72
8
 73
4
 74
0
 40
0
 40
0
 40
0
 40
0
 40
1
 40
1
 40
1
 40
1
 10
136.847420
 20
53.817352
 30
0.0
 10
138.173468
 20
53.817336
 30
0.0
 10
139.399460
 20
53.567144
 30
0.0
 10
140.525356
 20
53.066752
 30
0.0
  0
SPLINE
  5
182
100
AcDbEntity
  8
0
 62
7
100
AcDbSpline
 70
8
 71
3
 72
8
 73
4
 74
0
 40
0
 40
0
 40
0
 40
0
 40
1
 40
1
 40
1
 40
1
 10
140.525356
 20
53.066752
 30
0.0
 10
141.651236
 20
52.591368
 30
0.0
 10
142.614508
 20
51.903312
 30
0.0
 10
143.415180
 20
51.002624
 30
0.0
  0
SPLINE
  5
183
100
AcDbEntity
  8
0
 62
7
100
AcDbSpline
 70
8
 71
3
 72
8
 73
4
 74
0
 40
0
 40
0
 40
0
 40
0
 40
1
 40
1
 40
1
 40
1
 10
143.415180
 20
51.002624
 30
0.0
 10
144.240820
 20
50.101872
 30
0.0
 10
144.878812
 20
49.013512
 30
0.0
 10
145.329204
 20
47.737504
 30
0.0
  0
SPLINE
  5
184
100
AcDbEntity
  8
0
 62
7
100
AcDbSpline
 70
8
 71
3
 72
8
 73
4
 74
0
 40
0
 40
0
 40
0
 40
0
 40
1
 40
1
 40
1
 40
1
 10
145.329204
 20
47.737504
 30
0.0
 10
145.779540
 20
46.486496
 30
0.0
 10
146.004716
 20
45.097880
 30
0.0
 10
146.004740
 20
43.571680
 30
0.0
  0
SPLINE
  5
185
100
AcDbEntity
  8
0
 62
7
100
AcDbSpline
 70
8
 71
3
 72
8
 73
4
 74
0
 40
0
 40
0
 40
0
 40
0
 40
1
 40
1
 40
1
 40
1
 10
142.364340
 20
43.571680
 30
0.0
 10
142.364316
 20
45.773416
 30
0.0
 10
141.863908
 20
47.512312
 30
0.0
 10
140.863140
 20
48.788344
 30
0.0
  0
SPLINE
  5
186
100
AcDbEntity
  8
0
 62
7
100
AcDbSpline
 70
8
 71
3
 72
8
 73
4
 74
0
 40
0
 40
0
 40
0
 40
0
 40
1
 40
1
 40
1
 40
1
 10
140.863140
 20
48.788344
 30
0.0
 10
139.887340
 20
50.089368
 30
0.0
 10
138.548772
 20
50.739888
 30
0.0
 10
136.847420
 20
50.739904
 30
0.0
  0
SPLINE
  5
187
100
AcDbEntity
  8
0
 62
7
100
AcDbSpline
 70
8
 71
3
 72
8
 73
4
 74
0
 40
0
 40
0
 40
0
 40
0
 40
1
 40
1
 40
1
 40
1
 10
136.847420
 20
50.739904
 30
0.0
 10
135.146044
 20
50.739888
 30
0.0
 10
133.794972
 20
50.089368
 30
0.0
 10
132.794180
 20
48.788344
 30
0.0
  0
SPLINE
  5
188
100
AcDbEntity
  8
0
 62
7
100
AcDbSpline
 70
8
 71
3
 72
8
 73
4
 74
0
 40
0
 40
0
 40
0
 40
0
 40
1
 40
1
 40
1
 40
1
 10
132.794180
 20
48.788344
 30
0.0
 10
131.818404
 20
47.512312
 30
0.0
 10
131.330500
 20
45.773416
 30
0.0
 10
131.330516
 20
43.571680
 30
0.0
  0
SPLINE
  5
189
100
AcDbEntity
  8
0
 62
7
100
AcDbSpline
 70
8
 71
3
 72
8
 73
4
 74
0
 40
0
 40
0
 40
0
 40
0
 40
1
 40
1
 40
1
 40
1
 10
131.330516
 20
43.571680
 30
0.0
 10
131.330500
 20
41.369896
 30
0.0
 10
131.818404
 20
39.618504
 30
0.0
 10
132.794180
 20
38.317472
 30
0.0
  0
SPLINE
  5
18a
100
AcDbEntity
  8
0
 62
7
100
AcDbSpline
 70
8
 71
3
 72
8
 73
4
 74
0
 40
0
 40
0
 40
0
 40
0
 40
1
 40
1
 40
1
 40
1
 10
132.794180
 20
38.317472
 30
0.0
 10
133.794972
 20
37.041440
 30
0.0
 10
135.146044
 20
36.403448
 30
0.0
 10
136.847420
 20
36.403448
 30
0.0
  0
SPLINE
  5
18b
100
AcDbEntity
  8
0
 62
7
100
AcDbSpline
 70
8
 71
3
 72
8
 73
4
 74
0
 40
0
 40
0
 40
0
 40
0
 40
1
 40
1
 40
1
 40
1
 10
136.847420
 20
36.403448
 30
0.0
 10
138.548772
 20
36.403448
 30
0.0
 10
139.887340
 20
37.041440
 30
0.0
 10
140.863140
 20
38.317472
 30
0.0
  0
SPLINE
  5
18c
100
AcDbEntity
  8
0
 62
7
100
AcDbSpline
 70
8
 71
3
 72
8
 73
4
 74
0
 40
0
 40
0
 40
0
 40
0
 40
1
 40
1
 40
1
 40
1
 10
140.863140
 20
38.317472
 30
0.0
 10
141.863908
 20
39.618504
 30
0.0
 10
142.364316
 20
41.369896
 30
0.0
 10
142.364340
 20
43.571680
 30
0.0
  0
LWPOLYLINE
  5
18d
100
AcDbEntity
  8
0
 62
7
100
AcDbPolyline
 90
2
 70
0
 10
110.258044
 20
50.064416
 30
0.0
 10
109.845228
 20
52.954216
 30
0.0
  0
SPLINE
  5
18e
100
AcDbEntity
  8
0
 62
7
100
AcDbSpline
 70
8
 71
3
 72
8
 73
4
 74
0
 40
0
 40
0
 40
0
 40
0
 40
1
 40
1
 40
1
 40
1
 10
154.180420
 20
41.394936
 30
0.0
 10
154.180404
 20
40.419144
 30
0.0
 10
154.255540
 20
39.606000
 30
0.0
 10
154.405596
 20
38.955488
 30
0.0
  0
SPLINE
  5
18f
100
AcDbEntity
  8
0
 62
7
100
AcDbSpline
 70
8
 71
3
 72
8
 73
4
 74
0
 40
0
 40
0
 40
0
 40
0
 40
1
 40
1
 40
1
 40
1
 10
154.405596
 20
38.955488
 30
0.0
 10
154.555764
 20
38.329968
 30
0.0
 10
154.780892
 20
37.829584
 30
0.0
 10
155.081132
 20
37.454288
 30
0.0
  0
SPLINE
  5
190
100
AcDbEntity
  8
0
 62
7
100
AcDbSpline
 70
8
 71
3
 72
8
 73
4
 74
0
 40
0
 40
0
 40
0
 40
0
 40
1
 40
1
 40
1
 40
1
 10
155.081132
 20
37.454288
 30
0.0
 10
155.381364
 20
37.104008
 30
0.0
 10
155.756668
 20
36.853792
 30
0.0
 10
156.207036
 20
36.703688
 30
0.0
  0
SPLINE
  5
191
100
AcDbEntity
  8
0
 62
7
100
AcDbSpline
 70
8
 71
3
 72
8
 73
4
 74
0
 40
0
 40
0
 40
0
 40
0
 40
1
 40
1
 40
1
 40
1
 10
156.207036
 20
36.703688
 30
0.0
 10
156.657396
 20
36.553512
 30
0.0
 10
157.182804
 20
36.478488
 30
0.0
 10
157.783300
 20
36.478512
 30
0.0
  0
SPLINE
  5
192
100
AcDbEntity
  8
0
 62
7
100
AcDbSpline
 70
8
 71
3
 72
8
 73
4
 74
0
 40
0
 40
0
 40
0
 40
0
 40
1
 40
1
 40
1
 40
1
 10
157.783300
 20
36.478512
 30
0.0
 10
158.834140
 20
36.478488
 30
0.0
 10
159.672300
 20
36.591032
 30
0.0
 10
160.297820
 20
36.816272
 30
0.0
  0
SPLINE
  5
193
100
AcDbEntity
  8
0
 62
7
100
AcDbSpline
 70
8
 71
3
 72
8
 73
4
 74
0
 40
0
 40
0
 40
0
 40
0
 40
1
 40
1
 40
1
 40
1
 10
160.297820
 20
36.816272
 30
0.0
 10
160.948308
 20
37.066464
 30
0.0
 10
161.398676
 20
37.241616
 30
0.0
 10
161.648892
 20
37.341696
 30
0.0
  0
LWPOLYLINE
  5
194
100
AcDbEntity
  8
0
 62
7
100
AcDbPolyline
 90
5
 70
0
 10
154.180420
 20
53.329472
 30
0.0
 10
161.573828
 20
53.329472
 30
0.0
 10
161.573828
 20
50.402128
 30
0.0
 10
154.180420
 20
50.402128
 30
0.0
 10
154.180420
 20
41.394936
 30
0.0
  0
SPLINE
  5
195
100
AcDbEntity
  8
0
 62
7
100
AcDbSpline
 70
8
 71
3
 72
8
 73
4
 74
0
 40
0
 40
0
 40
0
 40
0
 40
1
 40
1
 40
1
 40
1
 10
162.324428
 20
34.451880
 30
0.0
 10
161.974124
 20
34.276752
 30
0.0
 10
161.361156
 20
34.064080
 30
0.0
 10
160.485468
 20
33.813864
 30
0.0
  0
SPLINE
  5
196
100
AcDbEntity
  8
0
 62
7
100
AcDbSpline
 70
8
 71
3
 72
8
 73
4
 74
0
 40
0
 40
0
 40
0
 40
0
 40
1
 40
1
 40
1
 40
1
 10
160.485468
 20
33.813864
 30
0.0
 10
159.609740
 20
33.538648
 30
0.0
 10
158.608940
 20
33.401048
 30
0.0
 10
157.483060
 20
33.401048
 30
0.0
  0
SPLINE
  5
197
100
AcDbEntity
  8
0
 62
7
100
AcDbSpline
 70
8
 71
3
 72
8
 73
4
 74
0
 40
0
 40
0
 40
0
 40
0
 40
1
 40
1
 40
1
 40
1
 10
157.483060
 20
33.401048
 30
0.0
 10
156.156988
 20
33.401048
 30
0.0
 10
155.056108
 20
33.563696
 30
0.0
 10
154.180420
 20
33.888928
 30
0.0
  0
SPLINE
  5
198
100
AcDbEntity
  8
0
 62
7
100
AcDbSpline
 70
8
 71
3
 72
8
 73
4
 74
0
 40
0
 40
0
 40
0
 40
0
 40
1
 40
1
 40
1
 40
1
 10
154.180420
 20
33.888928
 30
0.0
 10
153.329740
 20
34.239208
 30
0.0
 10
152.641676
 20
34.752120
 30
0.0
 10
152.116268
 20
35.427656
 30
0.0
  0
SPLINE
  5
199
100
AcDbEntity
  8
0
 62
7
100
AcDbSpline
 70
8
 71
3
 72
8
 73
4
 74
0
 40
0
 40
0
 40
0
 40
0
 40
1
 40
1
 40
1
 40
1
 10
152.116268
 20
35.427656
 30
0.0
 10
151.590844
 20
36.103192
 30
0.0
 10
151.215540
 20
36.928856
 30
0.0
 10
150.990372
 20
37.904648
 30
0.0
  0
SPLINE
  5
19a
100
AcDbEntity
  8
0
 62
7
100
AcDbSpline
 70
8
 71
3
 72
8
 73
4
 74
0
 40
0
 40
0
 40
0
 40
0
 40
1
 40
1
 40
1
 40
1
 10
150.990372
 20
37.904648
 30
0.0
 10
150.790284
 20
38.905440
 30
0.0
 10
150.690132
 20
40.056344
 30
0.0
 10
150.690132
 20
41.357400
 30
0.0
  0
LWPOLYLINE
  5
19b
100
AcDbEntity
  8
0
 62
7
100
AcDbPolyline
 90
2
 70
0
 10
161.648892
 20
37.341696
 30
0.0
 10
162.324428
 20
34.451880
 30
0.0
  0
LWPOLYLINE
  5
19c
100
AcDbEntity
  8
0
 62
7
100
AcDbPolyline
 90
4
 70
0
 10
150.690132
 20
41.357400
 30
0.0
 10
150.690132
 20
58.771328
 30
0.0
 10
154.180420
 20
59.371800
 30
0.0
 10
154.180420
 20
53.329472
 30
0.0
  0
SPLINE
  5
19d
100
AcDbEntity
  8
0
 62
7
100
AcDbSpline
 70
8
 71
3
 72
8
 73
4
 74
0
 40
0
 40
0
 40
0
 40
0
 40
1
 40
1
 40
1
 40
1
 10
167.741644
 20
56.857304
 30
0.0
 10
167.116148
 20
56.857280
 30
0.0
 10
166.578220
 20
57.057384
 30
0.0
 10
166.127852
 20
57.457776
 30
0.0
  0
SPLINE
  5
19e
100
AcDbEntity
  8
0
 62
7
100
AcDbSpline
 70
8
 71
3
 72
8
 73
4
 74
0
 40
0
 40
0
 40
0
 40
0
 40
1
 40
1
 40
1
 40
1
 10
166.127852
 20
57.457776
 30
0.0
 10
165.702508
 20
57.883096
 30
0.0
 10
165.489836
 20
58.446048
 30
0.0
 10
165.489836
 20
59.146624
 30
0.0
  0
SPLINE
  5
19f
100
AcDbEntity
  8
0
 62
7
100
AcDbSpline
 70
8
 71
3
 72
8
 73
4
 74
0
 40
0
 40
0
 40
0
 40
0
 40
1
 40
1
 40
1
 40
1
 10
165.489836
 20
59.146624
 30
0.0
 10
165.489836
 20
59.847160
 30
0.0
 10
165.702508
 20
60.397592
 30
0.0
 10
166.127852
 20
60.797936
 30
0.0
  0
SPLINE
  5
1a0
100
AcDbEntity
  8
0
 62
7
100
AcDbSpline
 70
8
 71
3
 72
8
 73
4
 74
0
 40
0
 40
0
 40
0
 40
0
 40
1
 40
1
 40
1
 40
1
 10
166.127852
 20
60.797936
 30
0.0
 10
166.578220
 20
61.223256
 30
0.0
 10
167.116148
 20
61.435928
 30
0.0
 10
167.741644
 20
61.435952
 30
0.0
  0
SPLINE
  5
1a1
100
AcDbEntity
  8
0
 62
7
100
AcDbSpline
 70
8
 71
3
 72
8
 73
4
 74
0
 40
0
 40
0
 40
0
 40
0
 40
1
 40
1
 40
1
 40
1
 10
167.741644
 20
61.435952
 30
0.0
 10
168.367132
 20
61.435928
 30
0.0
 10
168.892564
 20
61.223256
 30
0.0
 10
169.317908
 20
60.797936
 30
0.0
  0
SPLINE
  5
1a2
100
AcDbEntity
  8
0
 62
7
100
AcDbSpline
 70
8
 71
3
 72
8
 73
4
 74
0
 40
0
 40
0
 40
0
 40
0
 40
1
 40
1
 40
1
 40
1
 10
169.317908
 20
60.797936
 30
0.0
 10
169.768276
 20
60.397592
 30
0.0
 10
169.993444
 20
59.847160
 30
0.0
 10
169.993444
 20
59.146624
 30
0.0
  0
SPLINE
  5
1a3
100
AcDbEntity
  8
0
 62
7
100
AcDbSpline
 70
8
 71
3
 72
8
 73
4
 74
0
 40
0
 40
0
 40
0
 40
0
 40
1
 40
1
 40
1
 40
1
 10
169.993444
 20
59.146624
 30
0.0
 10
169.993444
 20
58.446048
 30
0.0
 10
169.768276
 20
57.883096
 30
0.0
 10
169.317908
 20
57.457776
 30
0.0
  0
SPLINE
  5
1a4
100
AcDbEntity
  8
0
 62
7
100
AcDbSpline
 70
8
 71
3
 72
8
 73
4
 74
0
 40
0
 40
0
 40
0
 40
0
 40
1
 40
1
 40
1
 40
1
 10
169.317908
 20
57.457776
 30
0.0
 10
168.892564
 20
57.057432
 30
0.0
 10
168.367132
 20
56.857280
 30
0.0
 10
167.741644
 20
56.857304
 30
0.0
  0
SPLINE
  5
1a5
100
AcDbEntity
  8
0
 62
7
100
AcDbSpline
 70
8
 71
3
 72
8
 73
4
 74
0
 40
0
 40
0
 40
0
 40
0
 40
1
 40
1
 40
1
 40
1
 10
182.600020
 20
44.547448
 30
0.0
 10
183.350596
 20
43.971976
 30
0.0
 10
184.138740
 20
43.258920
 30
0.0
 10
184.964412
 20
42.408232
 30
0.0
  0
SPLINE
  5
1a6
100
AcDbEntity
  8
0
 62
7
100
AcDbSpline
 70
8
 71
3
 72
8
 73
4
 74
0
 40
0
 40
0
 40
0
 40
0
 40
1
 40
1
 40
1
 40
1
 10
184.964412
 20
42.408232
 30
0.0
 10
185.815076
 20
41.557544
 30
0.0
 10
186.640740
 20
40.631816
 30
0.0
 10
187.441380
 20
39.631024
 30
0.0
  0
SPLINE
  5
1a7
100
AcDbEntity
  8
0
 62
7
100
AcDbSpline
 70
8
 71
3
 72
8
 73
4
 74
0
 40
0
 40
0
 40
0
 40
0
 40
1
 40
1
 40
1
 40
1
 10
187.441380
 20
39.631024
 30
0.0
 10
188.267028
 20
38.655232
 30
0.0
 10
189.042652
 20
37.654432
 30
0.0
 10
189.768252
 20
36.628616
 30
0.0
  0
SPLINE
  5
1a8
100
AcDbEntity
  8
0
 62
7
100
AcDbSpline
 70
8
 71
3
 72
8
 73
4
 74
0
 40
0
 40
0
 40
0
 40
0
 40
1
 40
1
 40
1
 40
1
 10
189.768252
 20
36.628616
 30
0.0
 10
190.493804
 20
35.627824
 30
0.0
 10
191.106804
 20
34.689576
 30
0.0
 10
191.607212
 20
33.813864
 30
0.0
  0
LWPOLYLINE
  5
1a9
100
AcDbEntity
  8
0
 62
7
100
AcDbPolyline
 90
5
 70
0
 10
169.505556
 20
33.813864
 30
0.0
 10
166.015268
 20
33.813864
 30
0.0
 10
166.015268
 20
53.329472
 30
0.0
 10
169.505556
 20
53.329472
 30
0.0
 10
169.505556
 20
33.813864
 30
0.0
  0
SPLINE
  5
1aa
100
AcDbEntity
  8
0
 62
7
100
AcDbSpline
 70
8
 71
3
 72
8
 73
4
 74
0
 40
0
 40
0
 40
0
 40
0
 40
1
 40
1
 40
1
 40
1
 10
187.516444
 20
33.813864
 30
0.0
 10
186.991020
 20
34.689576
 30
0.0
 10
186.378028
 20
35.577784
 30
0.0
 10
185.677484
 20
36.478512
 30
0.0
  0
SPLINE
  5
1ab
100
AcDbEntity
  8
0
 62
7
100
AcDbSpline
 70
8
 71
3
 72
8
 73
4
 74
0
 40
0
 40
0
 40
0
 40
0
 40
1
 40
1
 40
1
 40
1
 10
185.677484
 20
36.478512
 30
0.0
 10
185.001932
 20
37.404240
 30
0.0
 10
184.288852
 20
38.279928
 30
0.0
 10
183.538268
 20
39.105592
 30
0.0
  0
SPLINE
  5
1ac
100
AcDbEntity
  8
0
 62
7
100
AcDbSpline
 70
8
 71
3
 72
8
 73
4
 74
0
 40
0
 40
0
 40
0
 40
0
 40
1
 40
1
 40
1
 40
1
 10
183.538268
 20
39.105592
 30
0.0
 10
182.787652
 20
39.956280
 30
0.0
 10
182.024548
 20
40.731904
 30
0.0
 10
181.248948
 20
41.432464
 30
0.0
  0
SPLINE
  5
1ad
100
AcDbEntity
  8
0
 62
7
100
AcDbSpline
 70
8
 71
3
 72
8
 73
4
 74
0
 40
0
 40
0
 40
0
 40
0
 40
1
 40
1
 40
1
 40
1
 10
181.248948
 20
41.432464
 30
0.0
 10
180.473300
 20
42.133016
 30
0.0
 10
179.735220
 20
42.720992
 30
0.0
 10
179.034668
 20
43.196376
 30
0.0
  0
LWPOLYLINE
  5
1ae
100
AcDbEntity
  8
0
 62
7
100
AcDbPolyline
 90
2
 70
0
 10
191.607212
 20
33.813864
 30
0.0
 10
187.516444
 20
33.813864
 30
0.0
  0
SPLINE
  5
1af
100
AcDbEntity
  8
0
 62
7
100
AcDbSpline
 70
8
 71
3
 72
8
 73
4
 74
0
 40
0
 40
0
 40
0
 40
0
 40
1
 40
1
 40
1
 40
1
 10
179.034668
 20
45.147920
 30
0.0
 10
179.635140
 20
45.748392
 30
0.0
 10
180.298172
 20
46.411432
 30
0.0
 10
181.023756
 20
47.137032
 30
0.0
  0
SPLINE
  5
1b0
100
AcDbEntity
  8
0
 62
7
100
AcDbSpline
 70
8
 71
3
 72
8
 73
4
 74
0
 40
0
 40
0
 40
0
 40
0
 40
1
 40
1
 40
1
 40
1
 10
181.023756
 20
47.137032
 30
0.0
 10
181.749332
 20
47.862592
 30
0.0
 10
182.462388
 20
48.600672
 30
0.0
 10
183.162972
 20
49.351288
 30
0.0
  0
SPLINE
  5
1b1
100
AcDbEntity
  8
0
 62
7
100
AcDbSpline
 70
8
 71
3
 72
8
 73
4
 74
0
 40
0
 40
0
 40
0
 40
0
 40
1
 40
1
 40
1
 40
1
 10
183.162972
 20
49.351288
 30
0.0
 10
183.863508
 20
50.101872
 30
0.0
 10
184.526540
 20
50.814952
 30
0.0
 10
185.152060
 20
51.490512
 30
0.0
  0
SPLINE
  5
1b2
100
AcDbEntity
  8
0
 62
7
100
AcDbSpline
 70
8
 71
3
 72
8
 73
4
 74
0
 40
0
 40
0
 40
0
 40
0
 40
1
 40
1
 40
1
 40
1
 10
185.152060
 20
51.490512
 30
0.0
 10
185.777548
 20
52.191048
 30
0.0
 10
186.315484
 20
52.804040
 30
0.0
 10
186.765844
 20
53.329472
 30
0.0
  0
LWPOLYLINE
  5
1b3
100
AcDbEntity
  8
0
 62
7
100
AcDbPolyline
 90
6
 70
0
 10
179.034668
 20
43.196376
 30
0.0
 10
179.034668
 20
33.813864
 30
0.0
 10
175.544372
 20
33.813864
 30
0.0
 10
175.544372
 20
62.336680
 30
0.0
 10
179.034668
 20
62.937152
 30
0.0
 10
179.034668
 20
45.147920
 30
0.0
  0
SPLINE
  5
1b4
100
AcDbEntity
  8
0
 62
7
100
AcDbSpline
 70
8
 71
3
 72
8
 73
4
 74
0
 40
0
 40
0
 40
0
 40
0
 40
1
 40
1
 40
1
 40
1
 10
190.856612
 20
53.329472
 30
0.0
 10
190.281140
 20
52.703952
 30
0.0
 10
189.655644
 20
52.015896
 30
0.0
 10
188.980124
 20
51.265312
 30
0.0
  0
SPLINE
  5
1b5
100
AcDbEntity
  8
0
 62
7
100
AcDbSpline
 70
8
 71
3
 72
8
 73
4
 74
0
 40
0
 40
0
 40
0
 40
0
 40
1
 40
1
 40
1
 40
1
 10
188.980124
 20
51.265312
 30
0.0
 10
188.304572
 20
50.514712
 30
0.0
 10
187.604012
 20
49.751592
 30
0.0
 10
186.878428
 20
48.975992
 30
0.0
  0
SPLINE
  5
1b6
100
AcDbEntity
  8
0
 62
7
100
AcDbSpline
 70
8
 71
3
 72
8
 73
4
 74
0
 40
0
 40
0
 40
0
 40
0
 40
1
 40
1
 40
1
 40
1
 10
186.878428
 20
48.975992
 30
0.0
 10
186.152852
 20
48.225368
 30
0.0
 10
185.414748
 20
47.462272
 30
0.0
 10
184.664172
 20
46.686664
 30
0.0
  0
SPLINE
  5
1b7
100
AcDbEntity
  8
0
 62
7
100
AcDbSpline
 70
8
 71
3
 72
8
 73
4
 74
0
 40
0
 40
0
 40
0
 40
0
 40
1
 40
1
 40
1
 40
1
 10
184.664172
 20
46.686664
 30
0.0
 10
183.938572
 20
45.936048
 30
0.0
 10
183.250532
 20
45.222984
 30
0.0
 10
182.600020
 20
44.547448
 30
0.0
  0
SPLINE
  5
1b8
100
AcDbEntity
  8
0
 62
7
100
AcDbSpline
 70
8
 71
3
 72
8
 73
4
 74
0
 40
0
 40
0
 40
0
 40
0
 40
1
 40
1
 40
1
 40
1
 10
210.653116
 20
34.376816
 30
0.0
 10
209.852452
 20
34.176728
 30
0.0
 10
208.789092
 20
33.963992
 30
0.0
 10
207.463060
 20
33.738800
 30
0.0
  0
SPLINE
  5
1b9
100
AcDbEntity
  8
0
 62
7
100
AcDbSpline
 70
8
 71
3
 72
8
 73
4
 74
0
 40
0
 40
0
 40
0
 40
0
 40
1
 40
1
 40
1
 40
1
 10
207.463060
 20
33.738800
 30
0.0
 10
206.162012
 20
33.513632
 30
0.0
 10
204.648284
 20
33.401048
 30
0.0
 10
202.921932
 20
33.401048
 30
0.0
  0
SPLINE
  5
1ba
100
AcDbEntity
  8
0
 62
7
100
AcDbSpline
 70
8
 71
3
 72
8
 73
4
 74
0
 40
0
 40
0
 40
0
 40
0
 40
1
 40
1
 40
1
 40
1
 10
202.921932
 20
33.401048
 30
0.0
 10
201.420708
 20
33.401048
 30
0.0
 10
200.157204
 20
33.613720
 30
0.0
 10
199.131388
 20
34.039056
 30
0.0
  0
SPLINE
  5
1bb
100
AcDbEntity
  8
0
 62
7
100
AcDbSpline
 70
8
 71
3
 72
8
 73
4
 74
0
 40
0
 40
0
 40
0
 40
0
 40
1
 40
1
 40
1
 40
1
 10
199.131388
 20
34.039056
 30
0.0
 10
198.105572
 20
34.489400
 30
0.0
 10
197.279908
 20
35.114920
 30
0.0
 10
196.654412
 20
35.915560
 30
0.0
  0
SPLINE
  5
1bc
100
AcDbEntity
  8
0
 62
7
100
AcDbSpline
 70
8
 71
3
 72
8
 73
4
 74
0
 40
0
 40
0
 40
0
 40
0
 40
1
 40
1
 40
1
 40
1
 10
196.654412
 20
35.915560
 30
0.0
 10
196.028916
 20
36.716184
 30
0.0
 10
195.578556
 20
37.654432
 30
0.0
 10
195.303340
 20
38.730296
 30
0.0
  0
SPLINE
  5
1bd
100
AcDbEntity
  8
0
 62
7
100
AcDbSpline
 70
8
 71
3
 72
8
 73
4
 74
0
 40
0
 40
0
 40
0
 40
0
 40
1
 40
1
 40
1
 40
1
 10
195.303340
 20
38.730296
 30
0.0
 10
195.028100
 20
39.831176
 30
0.0
 10
194.890492
 20
41.044640
 30
0.0
 10
194.890492
 20
42.370712
 30
0.0
  0
LWPOLYLINE
  5
1be
100
AcDbEntity
  8
0
 62
7
100
AcDbPolyline
 90
2
 70
0
 10
186.765844
 20
53.329472
 30
0.0
 10
190.856612
 20
53.329472
 30
0.0
  0
SPLINE
  5
1bf
100
AcDbEntity
  8
0
 62
7
100
AcDbSpline
 70
8
 71
3
 72
8
 73
4
 74
0
 40
0
 40
0
 40
0
 40
0
 40
1
 40
1
 40
1
 40
1
 10
198.380804
 20
43.121312
 30
0.0
 10
198.380788
 20
40.744400
 30
0.0
 10
198.756084
 20
39.043048
 30
0.0
 10
199.506684
 20
38.017232
 30
0.0
  0
SPLINE
  5
1c0
100
AcDbEntity
  8
0
 62
7
100
AcDbSpline
 70
8
 71
3
 72
8
 73
4
 74
0
 40
0
 40
0
 40
0
 40
0
 40
1
 40
1
 40
1
 40
1
 10
199.506684
 20
38.017232
 30
0.0
 10
200.257284
 20
36.991400
 30
0.0
 10
201.520796
 20
36.478488
 30
0.0
 10
203.297236
 20
36.478512
 30
0.0
  0
SPLINE
  5
1c1
100
AcDbEntity
  8
0
 62
7
100
AcDbSpline
 70
8
 71
3
 72
8
 73
4
 74
0
 40
0
 40
0
 40
0
 40
0
 40
1
 40
1
 40
1
 40
1
 10
203.297236
 20
36.478512
 30
0.0
 10
203.672516
 20
36.478488
 30
0.0
 10
204.060332
 20
36.491232
 30
0.0
 10
204.460660
 20
36.515952
 30
0.0
  0
SPLINE
  5
1c2
100
AcDbEntity
  8
0
 62
7
100
AcDbSpline
 70
8
 71
3
 72
8
 73
4
 74
0
 40
0
 40
0
 40
0
 40
0
 40
1
 40
1
 40
1
 40
1
 10
204.460660
 20
36.515952
 30
0.0
 10
204.860956
 20
36.540912
 30
0.0
 10
205.236260
 20
36.566112
 30
0.0
 10
205.586556
 20
36.591072
 30
0.0
  0
SPLINE
  5
1c3
100
AcDbEntity
  8
0
 62
7
100
AcDbSpline
 70
8
 71
3
 72
8
 73
4
 74
0
 40
0
 40
0
 40
0
 40
0
 40
1
 40
1
 40
1
 40
1
 10
205.586556
 20
36.591072
 30
0.0
 10
205.936820
 20
36.641232
 30
0.0
 10
206.249572
 20
36.678640
 30
0.0
 10
206.524812
 20
36.703600
 30
0.0
  0
SPLINE
  5
1c4
100
AcDbEntity
  8
0
 62
7
100
AcDbSpline
 70
8
 71
3
 72
8
 73
4
 74
0
 40
0
 40
0
 40
0
 40
0
 40
1
 40
1
 40
1
 40
1
 10
206.524812
 20
36.703600
 30
0.0
 10
206.825028
 20
36.753760
 30
0.0
 10
207.037692
 20
36.803640
 30
0.0
 10
207.162828
 20
36.853768
 30
0.0
  0
LWPOLYLINE
  5
1c5
100
AcDbEntity
  8
0
 62
7
100
AcDbPolyline
 90
4
 70
0
 10
194.890492
 20
42.370712
 30
0.0
 10
194.890492
 20
53.329472
 30
0.0
 10
198.380804
 20
53.329472
 30
0.0
 10
198.380804
 20
43.121312
 30
0.0
  0
SPLINE
  5
1c6
100
AcDbEntity
  8
0
 62
7
100
AcDbSpline
 70
8
 71
3
 72
8
 73
4
 74
0
 40
0
 40
0
 40
0
 40
0
 40
1
 40
1
 40
1
 40
1
 10
216.666124
 20
52.766520
 30
0.0
 10
217.466748
 20
52.966608
 30
0.0
 10
218.517588
 20
53.179336
 30
0.0
 10
219.818636
 20
53.404536
 30
0.0
  0
SPLINE
  5
1c7
100
AcDbEntity
  8
0
 62
7
100
AcDbSpline
 70
8
 71
3
 72
8
 73
4
 74
0
 40
0
 40
0
 40
0
 40
0
 40
1
 40
1
 40
1
 40
1
 10
219.818636
 20
53.404536
 30
0.0
 10
221.144692
 20
53.629680
 30
0.0
 10
222.670916
 20
53.742288
 30
0.0
 10
224.397308
 20
53.742312
 30
0.0
  0
SPLINE
  5
1c8
100
AcDbEntity
  8
0
 62
7
100
AcDbSpline
 70
8
 71
3
 72
8
 73
4
 74
0
 40
0
 40
0
 40
0
 40
0
 40
1
 40
1
 40
1
 40
1
 10
224.397308
 20
53.742312
 30
0.0
 10
225.648292
 20
53.742288
 30
0.0
 10
226.699132
 20
53.567184
 30
0.0
 10
227.549820
 20
53.216880
 30
0.0
  0
SPLINE
  5
1c9
100
AcDbEntity
  8
0
 62
7
100
AcDbSpline
 70
8
 71
3
 72
8
 73
4
 74
0
 40
0
 40
0
 40
0
 40
0
 40
1
 40
1
 40
1
 40
1
 10
227.549820
 20
53.216880
 30
0.0
 10
228.400484
 20
52.891600
 30
0.0
 10
229.113564
 20
52.403720
 30
0.0
 10
229.689036
 20
51.753224
 30
0.0
  0
SPLINE
  5
1ca
100
AcDbEntity
  8
0
 62
7
100
AcDbSpline
 70
8
 71
3
 72
8
 73
4
 74
0
 40
0
 40
0
 40
0
 40
0
 40
1
 40
1
 40
1
 40
1
 10
229.689036
 20
51.753224
 30
0.0
 10
229.864164
 20
51.878224
 30
0.0
 10
230.139380
 20
52.053440
 30
0.0
 10
230.514684
 20
52.278632
 30
0.0
  0
SPLINE
  5
1cb
100
AcDbEntity
  8
0
 62
7
100
AcDbSpline
 70
8
 71
3
 72
8
 73
4
 74
0
 40
0
 40
0
 40
0
 40
0
 40
1
 40
1
 40
1
 40
1
 10
230.514684
 20
52.278632
 30
0.0
 10
230.889980
 20
52.503800
 30
0.0
 10
231.352844
 20
52.716472
 30
0.0
 10
231.903292
 20
52.916648
 30
0.0
  0
SPLINE
  5
1cc
100
AcDbEntity
  8
0
 62
7
100
AcDbSpline
 70
8
 71
3
 72
8
 73
4
 74
0
 40
0
 40
0
 40
0
 40
0
 40
1
 40
1
 40
1
 40
1
 10
231.903292
 20
52.916648
 30
0.0
 10
232.453724
 20
53.141800
 30
0.0
 10
233.066716
 20
53.329448
 30
0.0
 10
233.742276
 20
53.479600
 30
0.0
  0
SPLINE
  5
1cd
100
AcDbEntity
  8
0
 62
7
100
AcDbSpline
 70
8
 71
3
 72
8
 73
4
 74
0
 40
0
 40
0
 40
0
 40
0
 40
1
 40
1
 40
1
 40
1
 10
233.742276
 20
53.479600
 30
0.0
 10
234.417796
 20
53.654728
 30
0.0
 10
235.143372
 20
53.742288
 30
0.0
 10
235.919012
 20
53.742312
 30
0.0
  0
SPLINE
  5
1ce
100
AcDbEntity
  8
0
 62
7
100
AcDbSpline
 70
8
 71
3
 72
8
 73
4
 74
0
 40
0
 40
0
 40
0
 40
0
 40
1
 40
1
 40
1
 40
1
 10
235.919012
 20
53.742312
 30
0.0
 10
237.420196
 20
53.742288
 30
0.0
 10
238.646164
 20
53.517096
 30
0.0
 10
239.596956
 20
53.066752
 30
0.0
  0
SPLINE
  5
1cf
100
AcDbEntity
  8
0
 62
7
100
AcDbSpline
 70
8
 71
3
 72
8
 73
4
 74
0
 40
0
 40
0
 40
0
 40
0
 40
1
 40
1
 40
1
 40
1
 10
239.596956
 20
53.066752
 30
0.0
 10
240.547684
 20
52.641408
 30
0.0
 10
241.285764
 20
52.028416
 30
0.0
 10
241.811212
 20
51.227792
 30
0.0
  0
SPLINE
  5
1d0
100
AcDbEntity
  8
0
 62
7
100
AcDbSpline
 70
8
 71
3
 72
8
 73
4
 74
0
 40
0
 40
0
 40
0
 40
0
 40
1
 40
1
 40
1
 40
1
 10
241.811212
 20
51.227792
 30
0.0
 10
242.361620
 20
50.427128
 30
0.0
 10
242.724420
 20
49.476376
 30
0.0
 10
242.899596
 20
48.375520
 30
0.0
  0
SPLINE
  5
1d1
100
AcDbEntity
  8
0
 62
7
100
AcDbSpline
 70
8
 71
3
 72
8
 73
4
 74
0
 40
0
 40
0
 40
0
 40
0
 40
1
 40
1
 40
1
 40
1
 10
242.899596
 20
48.375520
 30
0.0
 10
243.099684
 20
47.274616
 30
0.0
 10
243.199812
 20
46.073656
 30
0.0
 10
243.199828
 20
44.772624
 30
0.0
  0
LWPOLYLINE
  5
1d2
100
AcDbEntity
  8
0
 62
7
100
AcDbPolyline
 90
4
 70
0
 10
207.162828
 20
36.853768
 30
0.0
 10
207.162828
 20
53.329448
 30
0.0
 10
210.653116
 20
53.329448
 30
0.0
 10
210.653116
 20
34.376792
 30
0.0
  0
SPLINE
  5
1d3
100
AcDbEntity
  8
0
 62
7
100
AcDbSpline
 70
8
 71
3
 72
8
 73
4
 74
0
 40
0
 40
0
 40
0
 40
0
 40
1
 40
1
 40
1
 40
1
 10
239.709540
 20
44.022040
 30
0.0
 10
239.709516
 20
45.172944
 30
0.0
 10
239.646900
 20
46.161240
 30
0.0
 10
239.521932
 20
46.986904
 30
0.0
  0
SPLINE
  5
1d4
100
AcDbEntity
  8
0
 62
7
100
AcDbSpline
 70
8
 71
3
 72
8
 73
4
 74
0
 40
0
 40
0
 40
0
 40
0
 40
1
 40
1
 40
1
 40
1
 10
239.521932
 20
46.986904
 30
0.0
 10
239.421892
 20
47.812544
 30
0.0
 10
239.209156
 20
48.500608
 30
0.0
 10
238.883916
 20
49.051056
 30
0.0
  0
SPLINE
  5
1d5
100
AcDbEntity
  8
0
 62
7
100
AcDbSpline
 70
8
 71
3
 72
8
 73
4
 74
0
 40
0
 40
0
 40
0
 40
0
 40
1
 40
1
 40
1
 40
1
 10
238.883916
 20
49.051056
 30
0.0
 10
238.583660
 20
49.601488
 30
0.0
 10
238.158316
 20
50.001808
 30
0.0
 10
237.607908
 20
50.252024
 30
0.0
  0
SPLINE
  5
1d6
100
AcDbEntity
  8
0
 62
7
100
AcDbSpline
 70
8
 71
3
 72
8
 73
4
 74
0
 40
0
 40
0
 40
0
 40
0
 40
1
 40
1
 40
1
 40
1
 10
237.607908
 20
50.252024
 30
0.0
 10
237.082460
 20
50.527216
 30
0.0
 10
236.394404
 20
50.664824
 30
0.0
 10
235.543756
 20
50.664840
 30
0.0
  0
SPLINE
  5
1d7
100
AcDbEntity
  8
0
 62
7
100
AcDbSpline
 70
8
 71
3
 72
8
 73
4
 74
0
 40
0
 40
0
 40
0
 40
0
 40
1
 40
1
 40
1
 40
1
 10
235.543756
 20
50.664840
 30
0.0
 10
234.367788
 20
50.664824
 30
0.0
 10
233.392020
 20
50.502192
 30
0.0
 10
232.616420
 20
50.176960
 30
0.0
  0
SPLINE
  5
1d8
100
AcDbEntity
  8
0
 62
7
100
AcDbSpline
 70
8
 71
3
 72
8
 73
4
 74
0
 40
0
 40
0
 40
0
 40
0
 40
1
 40
1
 40
1
 40
1
 10
232.616420
 20
50.176960
 30
0.0
 10
231.865796
 20
49.876696
 30
0.0
 10
231.352884
 20
49.601488
 30
0.0
 10
231.077676
 20
49.351288
 30
0.0
  0
SPLINE
  5
1d9
100
AcDbEntity
  8
0
 62
7
100
AcDbSpline
 70
8
 71
3
 72
8
 73
4
 74
0
 40
0
 40
0
 40
0
 40
0
 40
1
 40
1
 40
1
 40
1
 10
231.077676
 20
49.351288
 30
0.0
 10
231.277756
 20
48.700752
 30
0.0
 10
231.427956
 20
47.987696
 30
0.0
 10
231.528036
 20
47.212072
 30
0.0
  0
SPLINE
  5
1da
100
AcDbEntity
  8
0
 62
7
100
AcDbSpline
 70
8
 71
3
 72
8
 73
4
 74
0
 40
0
 40
0
 40
0
 40
0
 40
1
 40
1
 40
1
 40
1
 10
231.528036
 20
47.212072
 30
0.0
 10
231.628084
 20
46.436456
 30
0.0
 10
231.678212
 20
45.623312
 30
0.0
 10
231.678212
 20
44.772624
 30
0.0
  0
LWPOLYLINE
  5
1db
100
AcDbEntity
  8
0
 62
7
100
AcDbPolyline
 90
4
 70
0
 10
243.199828
 20
44.772624
 30
0.0
 10
243.199828
 20
33.813864
 30
0.0
 10
239.709540
 20
33.813864
 30
0.0
 10
239.709540
 20
44.022040
 30
0.0
  0
SPLINE
  5
1dc
100
AcDbEntity
  8
0
 62
7
100
AcDbSpline
 70
8
 71
3
 72
8
 73
4
 74
0
 40
0
 40
0
 40
0
 40
0
 40
1
 40
1
 40
1
 40
1
 10
228.187916
 20
44.022040
 30
0.0
 10
228.187900
 20
45.172944
 30
0.0
 10
228.125356
 20
46.161240
 30
0.0
 10
228.000308
 20
46.986904
 30
0.0
  0
SPLINE
  5
1dd
100
AcDbEntity
  8
0
 62
7
100
AcDbSpline
 70
8
 71
3
 72
8
 73
4
 74
0
 40
0
 40
0
 40
0
 40
0
 40
1
 40
1
 40
1
 40
1
 10
228.000308
 20
46.986904
 30
0.0
 10
227.875100
 20
47.812544
 30
0.0
 10
227.650012
 20
48.500608
 30
0.0
 10
227.324772
 20
49.051056
 30
0.0
  0
SPLINE
  5
1de
100
AcDbEntity
  8
0
 62
7
100
AcDbSpline
 70
8
 71
3
 72
8
 73
4
 74
0
 40
0
 40
0
 40
0
 40
0
 40
1
 40
1
 40
1
 40
1
 10
227.324772
 20
49.051056
 30
0.0
 10
227.024516
 20
49.601488
 30
0.0
 10
226.599172
 20
50.001808
 30
0.0
 10
226.048748
 20
50.252024
 30
0.0
  0
SPLINE
  5
1df
100
AcDbEntity
  8
0
 62
7
100
AcDbSpline
 70
8
 71
3
 72
8
 73
4
 74
0
 40
0
 40
0
 40
0
 40
0
 40
1
 40
1
 40
1
 40
1
 10
226.048748
 20
50.252024
 30
0.0
 10
225.523316
 20
50.527216
 30
0.0
 10
224.847780
 20
50.664824
 30
0.0
 10
224.022132
 20
50.664840
 30
0.0
  0
SPLINE
  5
1e0
100
AcDbEntity
  8
0
 62
7
100
AcDbSpline
 70
8
 71
3
 72
8
 73
4
 74
0
 40
0
 40
0
 40
0
 40
0
 40
1
 40
1
 40
1
 40
1
 10
224.022132
 20
50.664840
 30
0.0
 10
223.671836
 20
50.664824
 30
0.0
 10
223.296532
 20
50.652120
 30
0.0
 10
222.896236
 20
50.627400
 30
0.0
  0
SPLINE
  5
1e1
100
AcDbEntity
  8
0
 62
7
100
AcDbSpline
 70
8
 71
3
 72
8
 73
4
 74
0
 40
0
 40
0
 40
0
 40
0
 40
1
 40
1
 40
1
 40
1
 10
222.896236
 20
50.627400
 30
0.0
 10
222.495892
 20
50.602440
 30
0.0
 10
222.108092
 20
50.564760
 30
0.0
 10
221.732788
 20
50.514880
 30
0.0
  0
SPLINE
  5
1e2
100
AcDbEntity
  8
0
 62
7
100
AcDbSpline
 70
8
 71
3
 72
8
 73
4
 74
0
 40
0
 40
0
 40
0
 40
0
 40
1
 40
1
 40
1
 40
1
 10
221.732788
 20
50.514880
 30
0.0
 10
221.382508
 20
50.489920
 30
0.0
 10
221.057252
 20
50.452240
 30
0.0
 10
220.757020
 20
50.402352
 30
0.0
  0
SPLINE
  5
1e3
100
AcDbEntity
  8
0
 62
7
100
AcDbSpline
 70
8
 71
3
 72
8
 73
4
 74
0
 40
0
 40
0
 40
0
 40
0
 40
1
 40
1
 40
1
 40
1
 10
220.757020
 20
50.402352
 30
0.0
 10
220.456756
 20
50.352192
 30
0.0
 10
220.256612
 20
50.314792
 30
0.0
 10
220.156548
 20
50.289832
 30
0.0
  0
LWPOLYLINE
  5
1e4
100
AcDbEntity
  8
0
 62
7
100
AcDbPolyline
 90
4
 70
0
 10
231.678212
 20
44.772624
 30
0.0
 10
231.678212
 20
33.813864
 30
0.0
 10
228.187916
 20
33.813864
 30
0.0
 10
228.187916
 20
44.022040
 30
0.0
  0
SPLINE
  5
1e5
100
AcDbEntity
  8
0
 62
7
100
AcDbSpline
 70
8
 71
3
 72
8
 73
4
 74
0
 40
0
 40
0
 40
0
 40
0
 40
1
 40
1
 40
1
 40
1
 10
224.369308
 20
29.301504
 30
0.0
 10
224.195868
 20
29.301504
 30
0.0
 10
224.034380
 20
29.269344
 30
0.0
 10
223.884764
 20
29.204632
 30
0.0
  0
SPLINE
  5
1e6
100
AcDbEntity
  8
0
 62
7
100
AcDbSpline
 70
8
 71
3
 72
8
 73
4
 74
0
 40
0
 40
0
 40
0
 40
0
 40
1
 40
1
 40
1
 40
1
 10
223.884764
 20
29.204632
 30
0.0
 10
223.735012
 20
29.143272
 30
0.0
 10
223.605972
 20
29.056576
 30
0.0
 10
223.497148
 20
28.944392
 30
0.0
  0
SPLINE
  5
1e7
100
AcDbEntity
  8
0
 62
7
100
AcDbSpline
 70
8
 71
3
 72
8
 73
4
 74
0
 40
0
 40
0
 40
0
 40
0
 40
1
 40
1
 40
1
 40
1
 10
223.497148
 20
28.944392
 30
0.0
 10
223.388436
 20
28.835680
 30
0.0
 10
223.301716
 20
28.707952
 30
0.0
 10
223.236932
 20
28.561880
 30
0.0
  0
SPLINE
  5
1e8
100
AcDbEntity
  8
0
 62
7
100
AcDbSpline
 70
8
 71
3
 72
8
 73
4
 74
0
 40
0
 40
0
 40
0
 40
0
 40
1
 40
1
 40
1
 40
1
 10
223.236932
 20
28.561880
 30
0.0
 10
223.175812
 20
28.415728
 30
0.0
 10
223.144924
 20
28.259256
 30
0.0
 10
223.144924
 20
28.092632
 30
0.0
  0
LWPOLYLINE
  5
1e9
100
AcDbEntity
  8
0
 62
7
100
AcDbPolyline
 90
4
 70
0
 10
220.156548
 20
50.289832
 30
0.0
 10
220.156548
 20
33.814152
 30
0.0
 10
216.666252
 20
33.814152
 30
0.0
 10
216.666252
 20
52.766808
 30
0.0
  0
SPLINE
  5
1ea
100
AcDbEntity
  8
0
 62
7
100
AcDbSpline
 70
8
 71
3
 72
8
 73
4
 74
0
 40
0
 40
0
 40
0
 40
0
 40
1
 40
1
 40
1
 40
1
 10
223.144924
 20
24.869224
 30
0.0
 10
223.144924
 20
24.702760
 30
0.0
 10
223.175564
 20
24.546208
 30
0.0
 10
223.236932
 20
24.399992
 30
0.0
  0
SPLINE
  5
1eb
100
AcDbEntity
  8
0
 62
7
100
AcDbSpline
 70
8
 71
3
 72
8
 73
4
 74
0
 40
0
 40
0
 40
0
 40
0
 40
1
 40
1
 40
1
 40
1
 10
223.236932
 20
24.399992
 30
0.0
 10
223.301652
 20
24.253840
 30
0.0
 10
223.388156
 20
24.124688
 30
0.0
 10
223.497148
 20
24.012360
 30
0.0
  0
SPLINE
  5
1ec
100
AcDbEntity
  8
0
 62
7
100
AcDbSpline
 70
8
 71
3
 72
8
 73
4
 74
0
 40
0
 40
0
 40
0
 40
0
 40
1
 40
1
 40
1
 40
1
 10
223.497148
 20
24.012360
 30
0.0
 10
223.605868
 20
23.903640
 30
0.0
 10
223.735036
 20
23.816920
 30
0.0
 10
223.884764
 20
23.752120
 30
0.0
  0
SPLINE
  5
1ed
100
AcDbEntity
  8
0
 62
7
100
AcDbSpline
 70
8
 71
3
 72
8
 73
4
 74
0
 40
0
 40
0
 40
0
 40
0
 40
1
 40
1
 40
1
 40
1
 10
223.884764
 20
23.752120
 30
0.0
 10
224.034508
 20
23.691000
 30
0.0
 10
224.195908
 20
23.660536
 30
0.0
 10
224.369308
 20
23.660536
 30
0.0
  0
SPLINE
  5
1ee
100
AcDbEntity
  8
0
 62
7
100
AcDbSpline
 70
8
 71
3
 72
8
 73
4
 74
0
 40
0
 40
0
 40
0
 40
0
 40
1
 40
1
 40
1
 40
1
 10
224.369308
 20
23.660536
 30
0.0
 10
224.512076
 20
23.660536
 30
0.0
 10
224.646356
 20
23.677496
 30
0.0
 10
224.772252
 20
23.716616
 30
0.0
  0
SPLINE
  5
1ef
100
AcDbEntity
  8
0
 62
7
100
AcDbSpline
 70
8
 71
3
 72
8
 73
4
 74
0
 40
0
 40
0
 40
0
 40
0
 40
1
 40
1
 40
1
 40
1
 10
224.772252
 20
23.716616
 30
0.0
 10
224.898100
 20
23.757416
 30
0.0
 10
225.011868
 20
23.813488
 30
0.0
 10
225.113964
 20
23.884976
 30
0.0
  0
SPLINE
  5
1f0
100
AcDbEntity
  8
0
 62
7
100
AcDbSpline
 70
8
 71
3
 72
8
 73
4
 74
0
 40
0
 40
0
 40
0
 40
0
 40
1
 40
1
 40
1
 40
1
 10
225.113964
 20
23.884976
 30
0.0
 10
225.219292
 20
23.956256
 30
0.0
 10
225.309396
 20
24.041280
 30
0.0
 10
225.384332
 20
24.139968
 30
0.0
  0
SPLINE
  5
1f1
100
AcDbEntity
  8
0
 62
7
100
AcDbSpline
 70
8
 71
3
 72
8
 73
4
 74
0
 40
0
 40
0
 40
0
 40
0
 40
1
 40
1
 40
1
 40
1
 10
225.384332
 20
24.139968
 30
0.0
 10
225.462572
 20
24.238536
 30
0.0
 10
225.522236
 20
24.347464
 30
0.0
 10
225.562844
 20
24.466368
 30
0.0
  0
LWPOLYLINE
  5
1f2
100
AcDbEntity
  8
0
 62
7
100
AcDbPolyline
 90
2
 70
0
 10
223.144924
 20
28.092632
 30
0.0
 10
223.144924
 20
24.869224
 30
0.0
  0
SPLINE
  5
1f3
100
AcDbEntity
  8
0
 62
7
100
AcDbSpline
 70
8
 71
3
 72
8
 73
4
 74
0
 40
0
 40
0
 40
0
 40
0
 40
1
 40
1
 40
1
 40
1
 10
226.368716
 20
24.466368
 30
0.0
 10
226.321116
 20
24.235152
 30
0.0
 10
226.237788
 20
24.020936
 30
0.0
 10
226.118924
 20
23.823720
 30
0.0
  0
SPLINE
  5
1f4
100
AcDbEntity
  8
0
 62
7
100
AcDbSpline
 70
8
 71
3
 72
8
 73
4
 74
0
 40
0
 40
0
 40
0
 40
0
 40
1
 40
1
 40
1
 40
1
 10
226.118924
 20
23.823720
 30
0.0
 10
226.000052
 20
23.626384
 30
0.0
 10
225.852020
 20
23.456504
 30
0.0
 10
225.675180
 20
23.313712
 30
0.0
  0
SPLINE
  5
1f5
100
AcDbEntity
  8
0
 62
7
100
AcDbSpline
 70
8
 71
3
 72
8
 73
4
 74
0
 40
0
 40
0
 40
0
 40
0
 40
1
 40
1
 40
1
 40
1
 10
225.675180
 20
23.313712
 30
0.0
 10
225.501740
 20
23.170944
 30
0.0
 10
225.304556
 20
23.058696
 30
0.0
 10
225.083524
 20
22.977080
 30
0.0
  0
SPLINE
  5
1f6
100
AcDbEntity
  8
0
 62
7
100
AcDbSpline
 70
8
 71
3
 72
8
 73
4
 74
0
 40
0
 40
0
 40
0
 40
0
 40
1
 40
1
 40
1
 40
1
 10
225.083524
 20
22.977080
 30
0.0
 10
224.862460
 20
22.895648
 30
0.0
 10
224.624508
 20
22.854616
 30
0.0
 10
224.369476
 20
22.854616
 30
0.0
  0
SPLINE
  5
1f7
100
AcDbEntity
  8
0
 62
7
100
AcDbSpline
 70
8
 71
3
 72
8
 73
4
 74
0
 40
0
 40
0
 40
0
 40
0
 40
1
 40
1
 40
1
 40
1
 10
224.369476
 20
22.854616
 30
0.0
 10
224.084020
 20
22.854616
 30
0.0
 10
223.816932
 20
22.907496
 30
0.0
 10
223.568724
 20
23.012824
 30
0.0
  0
SPLINE
  5
1f8
100
AcDbEntity
  8
0
 62
7
100
AcDbSpline
 70
8
 71
3
 72
8
 73
4
 74
0
 40
0
 40
0
 40
0
 40
0
 40
1
 40
1
 40
1
 40
1
 10
223.568724
 20
23.012824
 30
0.0
 10
223.323860
 20
23.118152
 30
0.0
 10
223.109708
 20
23.261152
 30
0.0
 10
222.926076
 20
23.441256
 30
0.0
  0
SPLINE
  5
1f9
100
AcDbEntity
  8
0
 62
7
100
AcDbSpline
 70
8
 71
3
 72
8
 73
4
 74
0
 40
0
 40
0
 40
0
 40
0
 40
1
 40
1
 40
1
 40
1
 10
222.926076
 20
23.441256
 30
0.0
 10
222.742492
 20
23.624840
 30
0.0
 10
222.597964
 20
23.839080
 30
0.0
 10
222.492572
 20
24.083904
 30
0.0
  0
SPLINE
  5
1fa
100
AcDbEntity
  8
0
 62
7
100
AcDbSpline
 70
8
 71
3
 72
8
 73
4
 74
0
 40
0
 40
0
 40
0
 40
0
 40
1
 40
1
 40
1
 40
1
 10
222.492572
 20
24.083904
 30
0.0
 10
222.390412
 20
24.328744
 30
0.0
 10
222.339436
 20
24.590504
 30
0.0
 10
222.339436
 20
24.869336
 30
0.0
  0
LWPOLYLINE
  5
1fb
100
AcDbEntity
  8
0
 62
7
100
AcDbPolyline
 90
2
 70
0
 10
225.562844
 20
24.466368
 30
0.0
 10
226.368716
 20
24.466368
 30
0.0
  0
SPLINE
  5
1fc
100
AcDbEntity
  8
0
 62
7
100
AcDbSpline
 70
8
 71
3
 72
8
 73
4
 74
0
 40
0
 40
0
 40
0
 40
0
 40
1
 40
1
 40
1
 40
1
 10
222.339436
 20
28.092768
 30
0.0
 10
222.339436
 20
28.371552
 30
0.0
 10
222.390396
 20
28.633400
 30
0.0
 10
222.492572
 20
28.878224
 30
0.0
  0
SPLINE
  5
1fd
100
AcDbEntity
  8
0
 62
7
100
AcDbSpline
 70
8
 71
3
 72
8
 73
4
 74
0
 40
0
 40
0
 40
0
 40
0
 40
1
 40
1
 40
1
 40
1
 10
222.492572
 20
28.878224
 30
0.0
 10
222.597900
 20
29.123088
 30
0.0
 10
222.742340
 20
29.335568
 30
0.0
 10
222.926076
 20
29.515776
 30
0.0
  0
SPLINE
  5
1fe
100
AcDbEntity
  8
0
 62
7
100
AcDbSpline
 70
8
 71
3
 72
8
 73
4
 74
0
 40
0
 40
0
 40
0
 40
0
 40
1
 40
1
 40
1
 40
1
 10
222.926076
 20
29.515776
 30
0.0
 10
223.109668
 20
29.699360
 30
0.0
 10
223.323900
 20
29.843888
 30
0.0
 10
223.568724
 20
29.949320
 30
0.0
  0
SPLINE
  5
1ff
100
AcDbEntity
  8
0
 62
7
100
AcDbSpline
 70
8
 71
3
 72
8
 73
4
 74
0
 40
0
 40
0
 40
0
 40
0
 40
1
 40
1
 40
1
 40
1
 10
223.568724
 20
29.949320
 30
0.0
 10
223.817060
 20
30.054656
 30
0.0
 10
224.083876
 20
30.107320
 30
0.0
 10
224.369476
 20
30.107320
 30
0.0
  0
SPLINE
  5
200
100
AcDbEntity
  8
0
 62
7
100
AcDbSpline
 70
8
 71
3
 72
8
 73
4
 74
0
 40
0
 40
0
 40
0
 40
0
 40
1
 40
1
 40
1
 40
1
 10
224.369476
 20
30.107320
 30
0.0
 10
224.624492
 20
30.107280
 30
0.0
 10
224.862524
 20
30.066520
 30
0.0
 10
225.083524
 20
29.984856
 30
0.0
  0
SPLINE
  5
201
100
AcDbEntity
  8
0
 62
7
100
AcDbSpline
 70
8
 71
3
 72
8
 73
4
 74
0
 40
0
 40
0
 40
0
 40
0
 40
1
 40
1
 40
1
 40
1
 10
225.083524
 20
29.984856
 30
0.0
 10
225.308060
 20
29.903424
 30
0.0
 10
225.506860
 20
29.789424
 30
0.0
 10
225.680276
 20
29.643120
 30
0.0
  0
SPLINE
  5
202
100
AcDbEntity
  8
0
 62
7
100
AcDbSpline
 70
8
 71
3
 72
8
 73
4
 74
0
 40
0
 40
0
 40
0
 40
0
 40
1
 40
1
 40
1
 40
1
 10
225.680276
 20
29.643120
 30
0.0
 10
225.853716
 20
29.500352
 30
0.0
 10
225.999884
 20
29.330304
 30
0.0
 10
226.118924
 20
29.133088
 30
0.0
  0
SPLINE
  5
203
100
AcDbEntity
  8
0
 62
7
100
AcDbSpline
 70
8
 71
3
 72
8
 73
4
 74
0
 40
0
 40
0
 40
0
 40
0
 40
1
 40
1
 40
1
 40
1
 10
226.118924
 20
29.133088
 30
0.0
 10
226.237788
 20
28.935752
 30
0.0
 10
226.321124
 20
28.723376
 30
0.0
 10
226.368716
 20
28.495544
 30
0.0
  0
LWPOLYLINE
  5
204
100
AcDbEntity
  8
0
 62
7
100
AcDbPolyline
 90
2
 70
0
 10
222.339436
 20
24.869336
 30
0.0
 10
222.339436
 20
28.092768
 30
0.0
  0
SPLINE
  5
205
100
AcDbEntity
  8
0
 62
7
100
AcDbSpline
 70
8
 71
3
 72
8
 73
4
 74
0
 40
0
 40
0
 40
0
 40
0
 40
1
 40
1
 40
1
 40
1
 10
225.562844
 20
28.495544
 30
0.0
 10
225.522044
 20
28.611240
 30
0.0
 10
225.462380
 20
28.718344
 30
0.0
 10
225.384332
 20
28.816864
 30
0.0
  0
SPLINE
  5
206
100
AcDbEntity
  8
0
 62
7
100
AcDbSpline
 70
8
 71
3
 72
8
 73
4
 74
0
 40
0
 40
0
 40
0
 40
0
 40
1
 40
1
 40
1
 40
1
 10
225.384332
 20
28.816864
 30
0.0
 10
225.309452
 20
28.915432
 30
0.0
 10
225.221052
 20
29.000456
 30
0.0
 10
225.119188
 20
29.071880
 30
0.0
  0
SPLINE
  5
207
100
AcDbEntity
  8
0
 62
7
100
AcDbSpline
 70
8
 71
3
 72
8
 73
4
 74
0
 40
0
 40
0
 40
0
 40
0
 40
1
 40
1
 40
1
 40
1
 10
225.119188
 20
29.071880
 30
0.0
 10
225.017028
 20
29.143160
 30
0.0
 10
224.901604
 20
29.199208
 30
0.0
 10
224.772356
 20
29.240240
 30
0.0
  0
SPLINE
  5
208
100
AcDbEntity
  8
0
 62
7
100
AcDbSpline
 70
8
 71
3
 72
8
 73
4
 74
0
 40
0
 40
0
 40
0
 40
0
 40
1
 40
1
 40
1
 40
1
 10
224.772356
 20
29.240240
 30
0.0
 10
224.646508
 20
29.281040
 30
0.0
 10
224.512140
 20
29.301360
 30
0.0
 10
224.369428
 20
29.301360
 30
0.0
  0
SPLINE
  5
209
100
AcDbEntity
  8
0
 62
7
100
AcDbSpline
 70
8
 71
3
 72
8
 73
4
 74
0
 40
0
 40
0
 40
0
 40
0
 40
1
 40
1
 40
1
 40
1
 10
230.367324
 20
30.107376
 30
0.0
 10
230.588388
 20
30.107328
 30
0.0
 10
230.795756
 20
30.064656
 30
0.0
 10
230.989580
 20
29.979624
 30
0.0
  0
SPLINE
  5
20a
100
AcDbEntity
  8
0
 62
7
100
AcDbSpline
 70
8
 71
3
 72
8
 73
4
 74
0
 40
0
 40
0
 40
0
 40
0
 40
1
 40
1
 40
1
 40
1
 10
230.989580
 20
29.979624
 30
0.0
 10
231.186916
 20
29.894592
 30
0.0
 10
231.358492
 20
29.778904
 30
0.0
 10
231.504708
 20
29.632808
 30
0.0
  0
SPLINE
  5
20b
100
AcDbEntity
  8
0
 62
7
100
AcDbSpline
 70
8
 71
3
 72
8
 73
4
 74
0
 40
0
 40
0
 40
0
 40
0
 40
1
 40
1
 40
1
 40
1
 10
231.504708
 20
29.632808
 30
0.0
 10
231.650860
 20
29.486656
 30
0.0
 10
231.766388
 20
29.314872
 30
0.0
 10
231.851516
 20
29.117680
 30
0.0
  0
SPLINE
  5
20c
100
AcDbEntity
  8
0
 62
7
100
AcDbSpline
 70
8
 71
3
 72
8
 73
4
 74
0
 40
0
 40
0
 40
0
 40
0
 40
1
 40
1
 40
1
 40
1
 10
231.851516
 20
29.117680
 30
0.0
 10
231.936548
 20
28.923944
 30
0.0
 10
231.978844
 20
28.716432
 30
0.0
 10
231.979060
 20
28.495448
 30
0.0
  0
LWPOLYLINE
  5
20d
100
AcDbEntity
  8
0
 62
7
100
AcDbPolyline
 90
2
 70
0
 10
226.368716
 20
28.495544
 30
0.0
 10
225.562844
 20
28.495544
 30
0.0
  0
SPLINE
  5
20e
100
AcDbEntity
  8
0
 62
7
100
AcDbSpline
 70
8
 71
3
 72
8
 73
4
 74
0
 40
0
 40
0
 40
0
 40
0
 40
1
 40
1
 40
1
 40
1
 10
231.979060
 20
27.689576
 30
0.0
 10
231.979036
 20
27.539832
 30
0.0
 10
231.933140
 20
27.392072
 30
0.0
 10
231.841364
 20
27.245856
 30
0.0
  0
SPLINE
  5
20f
100
AcDbEntity
  8
0
 62
7
100
AcDbSpline
 70
8
 71
3
 72
8
 73
4
 74
0
 40
0
 40
0
 40
0
 40
0
 40
1
 40
1
 40
1
 40
1
 10
231.841364
 20
27.245856
 30
0.0
 10
231.749364
 20
27.099704
 30
0.0
 10
231.627276
 20
26.956912
 30
0.0
 10
231.474148
 20
26.817424
 30
0.0
  0
SPLINE
  5
210
100
AcDbEntity
  8
0
 62
7
100
AcDbSpline
 70
8
 71
3
 72
8
 73
4
 74
0
 40
0
 40
0
 40
0
 40
0
 40
1
 40
1
 40
1
 40
1
 10
231.474148
 20
26.817424
 30
0.0
 10
231.324396
 20
26.678248
 30
0.0
 10
231.152820
 20
26.540368
 30
0.0
 10
230.959020
 20
26.404304
 30
0.0
  0
SPLINE
  5
211
100
AcDbEntity
  8
0
 62
7
100
AcDbSpline
 70
8
 71
3
 72
8
 73
4
 74
0
 40
0
 40
0
 40
0
 40
0
 40
1
 40
1
 40
1
 40
1
 10
230.959020
 20
26.404304
 30
0.0
 10
230.765276
 20
26.271688
 30
0.0
 10
230.567980
 20
26.139136
 30
0.0
 10
230.367364
 20
26.006480
 30
0.0
  0
SPLINE
  5
212
100
AcDbEntity
  8
0
 62
7
100
AcDbSpline
 70
8
 71
3
 72
8
 73
4
 74
0
 40
0
 40
0
 40
0
 40
0
 40
1
 40
1
 40
1
 40
1
 10
230.367364
 20
26.006480
 30
0.0
 10
230.166644
 20
25.873864
 30
0.0
 10
229.969540
 20
25.743064
 30
0.0
 10
229.775716
 20
25.613728
 30
0.0
  0
SPLINE
  5
213
100
AcDbEntity
  8
0
 62
7
100
AcDbSpline
 70
8
 71
3
 72
8
 73
4
 74
0
 40
0
 40
0
 40
0
 40
0
 40
1
 40
1
 40
1
 40
1
 10
229.775716
 20
25.613728
 30
0.0
 10
229.581972
 20
25.484712
 30
0.0
 10
229.408492
 20
25.355248
 30
0.0
 10
229.255484
 20
25.226120
 30
0.0
  0
SPLINE
  5
214
100
AcDbEntity
  8
0
 62
7
100
AcDbSpline
 70
8
 71
3
 72
8
 73
4
 74
0
 40
0
 40
0
 40
0
 40
0
 40
1
 40
1
 40
1
 40
1
 10
229.255484
 20
25.226120
 30
0.0
 10
229.105740
 20
25.100272
 30
0.0
 10
228.985116
 20
24.972856
 30
0.0
 10
228.893340
 20
24.843584
 30
0.0
  0
SPLINE
  5
215
100
AcDbEntity
  8
0
 62
7
100
AcDbSpline
 70
8
 71
3
 72
8
 73
4
 74
0
 40
0
 40
0
 40
0
 40
0
 40
1
 40
1
 40
1
 40
1
 10
228.893340
 20
24.843584
 30
0.0
 10
228.801756
 20
24.717736
 30
0.0
 10
228.755652
 20
24.592056
 30
0.0
 10
228.755652
 20
24.466152
 30
0.0
  0
LWPOLYLINE
  5
216
100
AcDbEntity
  8
0
 62
7
100
AcDbPolyline
 90
2
 70
0
 10
231.979060
 20
28.495448
 30
0.0
 10
231.979060
 20
27.689576
 30
0.0
  0
SPLINE
  5
217
100
AcDbEntity
  8
0
 62
7
100
AcDbSpline
 70
8
 71
3
 72
8
 73
4
 74
0
 40
0
 40
0
 40
0
 40
0
 40
1
 40
1
 40
1
 40
1
 10
227.949780
 20
24.670192
 30
0.0
 10
227.949780
 20
24.819936
 30
0.0
 10
227.995700
 20
24.969392
 30
0.0
 10
228.087476
 20
25.119008
 30
0.0
  0
SPLINE
  5
218
100
AcDbEntity
  8
0
 62
7
100
AcDbSpline
 70
8
 71
3
 72
8
 73
4
 74
0
 40
0
 40
0
 40
0
 40
0
 40
1
 40
1
 40
1
 40
1
 10
228.087476
 20
25.119008
 30
0.0
 10
228.179268
 20
25.268760
 30
0.0
 10
228.300124
 20
25.416520
 30
0.0
 10
228.449596
 20
25.562736
 30
0.0
  0
SPLINE
  5
219
100
AcDbEntity
  8
0
 62
7
100
AcDbSpline
 70
8
 71
3
 72
8
 73
4
 74
0
 40
0
 40
0
 40
0
 40
0
 40
1
 40
1
 40
1
 40
1
 10
228.449596
 20
25.562736
 30
0.0
 10
228.602516
 20
25.708888
 30
0.0
 10
228.776020
 20
25.851680
 30
0.0
 10
228.969844
 20
25.991168
 30
0.0
  0
SPLINE
  5
21a
100
AcDbEntity
  8
0
 62
7
100
AcDbSpline
 70
8
 71
3
 72
8
 73
4
 74
0
 40
0
 40
0
 40
0
 40
0
 40
1
 40
1
 40
1
 40
1
 10
228.969844
 20
25.991168
 30
0.0
 10
229.163588
 20
26.133936
 30
0.0
 10
229.360860
 20
26.273448
 30
0.0
 10
229.561476
 20
26.409384
 30
0.0
  0
SPLINE
  5
21b
100
AcDbEntity
  8
0
 62
7
100
AcDbSpline
 70
8
 71
3
 72
8
 73
4
 74
0
 40
0
 40
0
 40
0
 40
0
 40
1
 40
1
 40
1
 40
1
 10
229.561476
 20
26.409384
 30
0.0
 10
229.762196
 20
26.545384
 30
0.0
 10
229.959300
 20
26.678016
 30
0.0
 10
230.153108
 20
26.807208
 30
0.0
  0
SPLINE
  5
21c
100
AcDbEntity
  8
0
 62
7
100
AcDbSpline
 70
8
 71
3
 72
8
 73
4
 74
0
 40
0
 40
0
 40
0
 40
0
 40
1
 40
1
 40
1
 40
1
 10
230.153108
 20
26.807208
 30
0.0
 10
230.346852
 20
26.936224
 30
0.0
 10
230.518660
 20
27.060464
 30
0.0
 10
230.668260
 20
27.179528
 30
0.0
  0
SPLINE
  5
21d
100
AcDbEntity
  8
0
 62
7
100
AcDbSpline
 70
8
 71
3
 72
8
 73
4
 74
0
 40
0
 40
0
 40
0
 40
0
 40
1
 40
1
 40
1
 40
1
 10
230.668260
 20
27.179528
 30
0.0
 10
230.821180
 20
27.301992
 30
0.0
 10
230.943580
 20
27.417704
 30
0.0
 10
231.035476
 20
27.526360
 30
0.0
  0
SPLINE
  5
21e
100
AcDbEntity
  8
0
 62
7
100
AcDbSpline
 70
8
 71
3
 72
8
 73
4
 74
0
 40
0
 40
0
 40
0
 40
0
 40
1
 40
1
 40
1
 40
1
 10
231.035476
 20
27.526360
 30
0.0
 10
231.127060
 20
27.638672
 30
0.0
 10
231.173380
 20
27.745672
 30
0.0
 10
231.173380
 20
27.847680
 30
0.0
  0
LWPOLYLINE
  5
21f
100
AcDbEntity
  8
0
 62
7
100
AcDbPolyline
 90
6
 70
0
 10
228.755652
 20
24.466152
 30
0.0
 10
228.755652
 20
23.660320
 30
0.0
 10
231.979076
 20
23.660320
 30
0.0
 10
231.979076
 20
22.854456
 30
0.0
 10
227.949780
 20
22.854456
 30
0.0
 10
227.949780
 20
24.670192
 30
0.0
  0
SPLINE
  5
220
100
AcDbEntity
  8
0
 62
7
100
AcDbSpline
 70
8
 71
3
 72
8
 73
4
 74
0
 40
0
 40
0
 40
0
 40
0
 40
1
 40
1
 40
1
 40
1
 10
231.173380
 20
28.495448
 30
0.0
 10
231.173380
 20
28.607760
 30
0.0
 10
231.150100
 20
28.711272
 30
0.0
 10
231.106980
 20
28.806552
 30
0.0
  0
SPLINE
  5
221
100
AcDbEntity
  8
0
 62
7
100
AcDbSpline
 70
8
 71
3
 72
8
 73
4
 74
0
 40
0
 40
0
 40
0
 40
0
 40
1
 40
1
 40
1
 40
1
 10
231.106980
 20
28.806552
 30
0.0
 10
231.066180
 20
28.905120
 30
0.0
 10
231.008420
 20
28.990144
 30
0.0
 10
230.933548
 20
29.061552
 30
0.0
  0
SPLINE
  5
222
100
AcDbEntity
  8
0
 62
7
100
AcDbSpline
 70
8
 71
3
 72
8
 73
4
 74
0
 40
0
 40
0
 40
0
 40
0
 40
1
 40
1
 40
1
 40
1
 10
230.933548
 20
29.061552
 30
0.0
 10
230.862268
 20
29.136432
 30
0.0
 10
230.777244
 20
29.194168
 30
0.0
 10
230.678548
 20
29.234984
 30
0.0
  0
SPLINE
  5
223
100
AcDbEntity
  8
0
 62
7
100
AcDbSpline
 70
8
 71
3
 72
8
 73
4
 74
0
 40
0
 40
0
 40
0
 40
0
 40
1
 40
1
 40
1
 40
1
 10
230.678548
 20
29.234984
 30
0.0
 10
230.583372
 20
29.278984
 30
0.0
 10
230.479524
 20
29.301384
 30
0.0
 10
230.367420
 20
29.301384
 30
0.0
  0
LWPOLYLINE
  5
224
100
AcDbEntity
  8
0
 62
7
100
AcDbPolyline
 90
2
 70
0
 10
231.173380
 20
27.847680
 30
0.0
 10
231.173380
 20
28.495448
 30
0.0
  0
SPLINE
  5
225
100
AcDbEntity
  8
0
 62
7
100
AcDbSpline
 70
8
 71
3
 72
8
 73
4
 74
0
 40
0
 40
0
 40
0
 40
0
 40
1
 40
1
 40
1
 40
1
 10
229.561572
 20
29.301384
 30
0.0
 10
229.449268
 20
29.301384
 30
0.0
 10
229.343980
 20
29.278104
 30
0.0
 10
229.245348
 20
29.234984
 30
0.0
  0
SPLINE
  5
226
100
AcDbEntity
  8
0
 62
7
100
AcDbSpline
 70
8
 71
3
 72
8
 73
4
 74
0
 40
0
 40
0
 40
0
 40
0
 40
1
 40
1
 40
1
 40
1
 10
229.245348
 20
29.234984
 30
0.0
 10
229.150172
 20
29.194184
 30
0.0
 10
229.065148
 20
29.136424
 30
0.0
 10
228.990332
 20
29.061552
 30
0.0
  0
SPLINE
  5
227
100
AcDbEntity
  8
0
 62
7
100
AcDbSpline
 70
8
 71
3
 72
8
 73
4
 74
0
 40
0
 40
0
 40
0
 40
0
 40
1
 40
1
 40
1
 40
1
 10
228.990332
 20
29.061552
 30
0.0
 10
228.919052
 20
28.990272
 30
0.0
 10
228.861316
 20
28.905240
 30
0.0
 10
228.816900
 20
28.806552
 30
0.0
  0
SPLINE
  5
228
100
AcDbEntity
  8
0
 62
7
100
AcDbSpline
 70
8
 71
3
 72
8
 73
4
 74
0
 40
0
 40
0
 40
0
 40
0
 40
1
 40
1
 40
1
 40
1
 10
228.816900
 20
28.806552
 30
0.0
 10
228.776100
 20
28.711376
 30
0.0
 10
228.755780
 20
28.607528
 30
0.0
 10
228.755780
 20
28.495448
 30
0.0
  0
LWPOLYLINE
  5
229
100
AcDbEntity
  8
0
 62
7
100
AcDbPolyline
 90
2
 70
0
 10
230.367420
 20
29.301384
 30
0.0
 10
229.561572
 20
29.301384
 30
0.0
  0
SPLINE
  5
22a
100
AcDbEntity
  8
0
 62
7
100
AcDbSpline
 70
8
 71
3
 72
8
 73
4
 74
0
 40
0
 40
0
 40
0
 40
0
 40
1
 40
1
 40
1
 40
1
 10
227.949908
 20
28.495448
 30
0.0
 10
227.949908
 20
28.716496
 30
0.0
 10
227.992228
 20
28.923880
 30
0.0
 10
228.077236
 20
29.117680
 30
0.0
  0
SPLINE
  5
22b
100
AcDbEntity
  8
0
 62
7
100
AcDbSpline
 70
8
 71
3
 72
8
 73
4
 74
0
 40
0
 40
0
 40
0
 40
0
 40
1
 40
1
 40
1
 40
1
 10
228.077236
 20
29.117680
 30
0.0
 10
228.162268
 20
29.315024
 30
0.0
 10
228.277964
 20
29.486592
 30
0.0
 10
228.424052
 20
29.632808
 30
0.0
  0
SPLINE
  5
22c
100
AcDbEntity
  8
0
 62
7
100
AcDbSpline
 70
8
 71
3
 72
8
 73
4
 74
0
 40
0
 40
0
 40
0
 40
0
 40
1
 40
1
 40
1
 40
1
 10
228.424052
 20
29.632808
 30
0.0
 10
228.570204
 20
29.778960
 30
0.0
 10
228.740276
 20
29.894488
 30
0.0
 10
228.934100
 20
29.979624
 30
0.0
  0
SPLINE
  5
22d
100
AcDbEntity
  8
0
 62
7
100
AcDbSpline
 70
8
 71
3
 72
8
 73
4
 74
0
 40
0
 40
0
 40
0
 40
0
 40
1
 40
1
 40
1
 40
1
 10
228.934100
 20
29.979624
 30
0.0
 10
229.131436
 20
30.064648
 30
0.0
 10
229.340428
 20
30.106952
 30
0.0
 10
229.561436
 20
30.107376
 30
0.0
  0
LWPOLYLINE
  5
22e
100
AcDbEntity
  8
0
 62
7
100
AcDbPolyline
 90
2
 70
0
 10
228.755780
 20
28.495448
 30
0.0
 10
227.949908
 20
28.495448
 30
0.0
  0
SPLINE
  5
22f
100
AcDbEntity
  8
0
 62
7
100
AcDbSpline
 70
8
 71
3
 72
8
 73
4
 74
0
 40
0
 40
0
 40
0
 40
0
 40
1
 40
1
 40
1
 40
1
 10
233.560148
 20
28.092712
 30
0.0
 10
233.560148
 20
28.371504
 30
0.0
 10
233.613028
 20
28.633352
 30
0.0
 10
233.718140
 20
28.878168
 30
0.0
  0
SPLINE
  5
230
100
AcDbEntity
  8
0
 62
7
100
AcDbSpline
 70
8
 71
3
 72
8
 73
4
 74
0
 40
0
 40
0
 40
0
 40
0
 40
1
 40
1
 40
1
 40
1
 10
233.718140
 20
28.878168
 30
0.0
 10
233.823476
 20
29.123032
 30
0.0
 10
233.966476
 20
29.335496
 30
0.0
 10
234.146572
 20
29.515720
 30
0.0
  0
SPLINE
  5
231
100
AcDbEntity
  8
0
 62
7
100
AcDbSpline
 70
8
 71
3
 72
8
 73
4
 74
0
 40
0
 40
0
 40
0
 40
0
 40
1
 40
1
 40
1
 40
1
 10
234.146572
 20
29.515720
 30
0.0
 10
234.330164
 20
29.699312
 30
0.0
 10
234.544404
 20
29.843832
 30
0.0
 10
234.789244
 20
29.949248
 30
0.0
  0
SPLINE
  5
232
100
AcDbEntity
  8
0
 62
7
100
AcDbSpline
 70
8
 71
3
 72
8
 73
4
 74
0
 40
0
 40
0
 40
0
 40
0
 40
1
 40
1
 40
1
 40
1
 10
234.789244
 20
29.949248
 30
0.0
 10
235.034084
 20
30.054584
 30
0.0
 10
235.295868
 20
30.107456
 30
0.0
 10
235.574700
 20
30.107456
 30
0.0
  0
SPLINE
  5
233
100
AcDbEntity
  8
0
 62
7
100
AcDbSpline
 70
8
 71
3
 72
8
 73
4
 74
0
 40
0
 40
0
 40
0
 40
0
 40
1
 40
1
 40
1
 40
1
 10
235.574700
 20
30.107456
 30
0.0
 10
235.853492
 20
30.107416
 30
0.0
 10
236.115316
 20
30.054576
 30
0.0
 10
236.360140
 20
29.949248
 30
0.0
  0
SPLINE
  5
234
100
AcDbEntity
  8
0
 62
7
100
AcDbSpline
 70
8
 71
3
 72
8
 73
4
 74
0
 40
0
 40
0
 40
0
 40
0
 40
1
 40
1
 40
1
 40
1
 10
236.360140
 20
29.949248
 30
0.0
 10
236.605004
 20
29.843920
 30
0.0
 10
236.817460
 20
29.699184
 30
0.0
 10
236.997684
 20
29.515720
 30
0.0
  0
SPLINE
  5
235
100
AcDbEntity
  8
0
 62
7
100
AcDbSpline
 70
8
 71
3
 72
8
 73
4
 74
0
 40
0
 40
0
 40
0
 40
0
 40
1
 40
1
 40
1
 40
1
 10
236.997684
 20
29.515720
 30
0.0
 10
237.181276
 20
29.335512
 30
0.0
 10
237.325796
 20
29.122968
 30
0.0
 10
237.431212
 20
28.878168
 30
0.0
  0
SPLINE
  5
236
100
AcDbEntity
  8
0
 62
7
100
AcDbSpline
 70
8
 71
3
 72
8
 73
4
 74
0
 40
0
 40
0
 40
0
 40
0
 40
1
 40
1
 40
1
 40
1
 10
237.431212
 20
28.878168
 30
0.0
 10
237.536548
 20
28.633328
 30
0.0
 10
237.589420
 20
28.371520
 30
0.0
 10
237.589420
 20
28.092712
 30
0.0
  0
LWPOLYLINE
  5
237
100
AcDbEntity
  8
0
 62
7
100
AcDbPolyline
 90
2
 70
0
 10
229.561436
 20
30.107376
 30
0.0
 10
230.367284
 20
30.107376
 30
0.0
  0
LWPOLYLINE
  5
238
100
AcDbEntity
  8
0
 62
7
100
AcDbPolyline
 90
8
 70
0
 10
237.589420
 20
28.092712
 30
0.0
 10
237.589420
 20
22.854648
 30
0.0
 10
236.783556
 20
22.854648
 30
0.0
 10
236.783556
 20
26.078072
 30
0.0
 10
234.365996
 20
26.078072
 30
0.0
 10
234.365996
 20
22.854648
 30
0.0
 10
233.560124
 20
22.854648
 30
0.0
 10
233.560124
 20
28.092712
 30
0.0
  0
SPLINE
  5
239
100
AcDbEntity
  8
0
 62
7
100
AcDbSpline
 70
8
 71
3
 72
8
 73
4
 74
0
 40
0
 40
0
 40
0
 40
0
 40
1
 40
1
 40
1
 40
1
 10
236.783556
 20
28.092712
 30
0.0
 10
236.783556
 20
28.259168
 30
0.0
 10
236.751396
 20
28.415752
 30
0.0
 10
236.686684
 20
28.561968
 30
0.0
  0
SPLINE
  5
23a
100
AcDbEntity
  8
0
 62
7
100
AcDbSpline
 70
8
 71
3
 72
8
 73
4
 74
0
 40
0
 40
0
 40
0
 40
0
 40
1
 40
1
 40
1
 40
1
 10
236.686684
 20
28.561968
 30
0.0
 10
236.625564
 20
28.708120
 30
0.0
 10
236.538628
 20
28.835528
 30
0.0
 10
236.426444
 20
28.944456
 30
0.0
  0
SPLINE
  5
23b
100
AcDbEntity
  8
0
 62
7
100
AcDbSpline
 70
8
 71
3
 72
8
 73
4
 74
0
 40
0
 40
0
 40
0
 40
0
 40
1
 40
1
 40
1
 40
1
 10
236.426444
 20
28.944456
 30
0.0
 10
236.317732
 20
29.056768
 30
0.0
 10
236.190020
 20
29.143488
 30
0.0
 10
236.043908
 20
29.204696
 30
0.0
  0
SPLINE
  5
23c
100
AcDbEntity
  8
0
 62
7
100
AcDbSpline
 70
8
 71
3
 72
8
 73
4
 74
0
 40
0
 40
0
 40
0
 40
0
 40
1
 40
1
 40
1
 40
1
 10
236.043908
 20
29.204696
 30
0.0
 10
235.897756
 20
29.269416
 30
0.0
 10
235.741308
 20
29.301568
 30
0.0
 10
235.574700
 20
29.301568
 30
0.0
  0
SPLINE
  5
23d
100
AcDbEntity
  8
0
 62
7
100
AcDbSpline
 70
8
 71
3
 72
8
 73
4
 74
0
 40
0
 40
0
 40
0
 40
0
 40
1
 40
1
 40
1
 40
1
 10
235.574700
 20
29.301568
 30
0.0
 10
235.408244
 20
29.301568
 30
0.0
 10
235.251660
 20
29.269408
 30
0.0
 10
235.105452
 20
29.204696
 30
0.0
  0
SPLINE
  5
23e
100
AcDbEntity
  8
0
 62
7
100
AcDbSpline
 70
8
 71
3
 72
8
 73
4
 74
0
 40
0
 40
0
 40
0
 40
0
 40
1
 40
1
 40
1
 40
1
 10
235.105452
 20
29.204696
 30
0.0
 10
234.959292
 20
29.143576
 30
0.0
 10
234.830124
 20
29.056640
 30
0.0
 10
234.717836
 20
28.944456
 30
0.0
  0
SPLINE
  5
23f
100
AcDbEntity
  8
0
 62
7
100
AcDbSpline
 70
8
 71
3
 72
8
 73
4
 74
0
 40
0
 40
0
 40
0
 40
0
 40
1
 40
1
 40
1
 40
1
 10
234.717836
 20
28.944456
 30
0.0
 10
234.609124
 20
28.835744
 30
0.0
 10
234.522196
 20
28.708032
 30
0.0
 10
234.457596
 20
28.561968
 30
0.0
  0
SPLINE
  5
240
100
AcDbEntity
  8
0
 62
7
100
AcDbSpline
 70
8
 71
3
 72
8
 73
4
 74
0
 40
0
 40
0
 40
0
 40
0
 40
1
 40
1
 40
1
 40
1
 10
234.457596
 20
28.561968
 30
0.0
 10
234.396476
 20
28.415816
 30
0.0
 10
234.366012
 20
28.259320
 30
0.0
 10
234.366012
 20
28.092712
 30
0.0
  0
LWPOLYLINE
  5
241
100
AcDbEntity
  8
0
 62
7
100
AcDbPolyline
 90
2
 70
0
 10
236.783556
 20
26.883944
 30
0.0
 10
236.783556
 20
28.092712
 30
0.0
  0
SPLINE
  5
242
100
AcDbEntity
  8
0
 62
7
100
AcDbSpline
 70
8
 71
3
 72
8
 73
4
 74
0
 40
0
 40
0
 40
0
 40
0
 40
1
 40
1
 40
1
 40
1
 10
239.170556
 20
28.092712
 30
0.0
 10
239.170556
 20
28.371504
 30
0.0
 10
239.223436
 20
28.633352
 30
0.0
 10
239.328764
 20
28.878168
 30
0.0
  0
SPLINE
  5
243
100
AcDbEntity
  8
0
 62
7
100
AcDbSpline
 70
8
 71
3
 72
8
 73
4
 74
0
 40
0
 40
0
 40
0
 40
0
 40
1
 40
1
 40
1
 40
1
 10
239.328764
 20
28.878168
 30
0.0
 10
239.434092
 20
29.123032
 30
0.0
 10
239.577092
 20
29.335496
 30
0.0
 10
239.757196
 20
29.515720
 30
0.0
  0
SPLINE
  5
244
100
AcDbEntity
  8
0
 62
7
100
AcDbSpline
 70
8
 71
3
 72
8
 73
4
 74
0
 40
0
 40
0
 40
0
 40
0
 40
1
 40
1
 40
1
 40
1
 10
239.757196
 20
29.515720
 30
0.0
 10
239.940780
 20
29.699312
 30
0.0
 10
240.155020
 20
29.843832
 30
0.0
 10
240.399844
 20
29.949248
 30
0.0
  0
SPLINE
  5
245
100
AcDbEntity
  8
0
 62
7
100
AcDbSpline
 70
8
 71
3
 72
8
 73
4
 74
0
 40
0
 40
0
 40
0
 40
0
 40
1
 40
1
 40
1
 40
1
 10
240.399844
 20
29.949248
 30
0.0
 10
240.644684
 20
30.054584
 30
0.0
 10
240.906444
 20
30.107456
 30
0.0
 10
241.185276
 20
30.107456
 30
0.0
  0
SPLINE
  5
246
100
AcDbEntity
  8
0
 62
7
100
AcDbSpline
 70
8
 71
3
 72
8
 73
4
 74
0
 40
0
 40
0
 40
0
 40
0
 40
1
 40
1
 40
1
 40
1
 10
241.185276
 20
30.107456
 30
0.0
 10
241.464068
 20
30.107416
 30
0.0
 10
241.725916
 20
30.054576
 30
0.0
 10
241.970732
 20
29.949248
 30
0.0
  0
SPLINE
  5
247
100
AcDbEntity
  8
0
 62
7
100
AcDbSpline
 70
8
 71
3
 72
8
 73
4
 74
0
 40
0
 40
0
 40
0
 40
0
 40
1
 40
1
 40
1
 40
1
 10
241.970732
 20
29.949248
 30
0.0
 10
242.215596
 20
29.843920
 30
0.0
 10
242.428060
 20
29.699184
 30
0.0
 10
242.608284
 20
29.515720
 30
0.0
  0
SPLINE
  5
248
100
AcDbEntity
  8
0
 62
7
100
AcDbSpline
 70
8
 71
3
 72
8
 73
4
 74
0
 40
0
 40
0
 40
0
 40
0
 40
1
 40
1
 40
1
 40
1
 10
242.608284
 20
29.515720
 30
0.0
 10
242.791876
 20
29.335512
 30
0.0
 10
242.936396
 20
29.122968
 30
0.0
 10
243.041788
 20
28.878168
 30
0.0
  0
SPLINE
  5
249
100
AcDbEntity
  8
0
 62
7
100
AcDbSpline
 70
8
 71
3
 72
8
 73
4
 74
0
 40
0
 40
0
 40
0
 40
0
 40
1
 40
1
 40
1
 40
1
 10
243.041788
 20
28.878168
 30
0.0
 10
243.147124
 20
28.633328
 30
0.0
 10
243.200004
 20
28.371520
 30
0.0
 10
243.200004
 20
28.092712
 30
0.0
  0
LWPOLYLINE
  5
24a
100
AcDbEntity
  8
0
 62
7
100
AcDbPolyline
 90
3
 70
0
 10
234.366012
 20
28.092712
 30
0.0
 10
234.366012
 20
26.883944
 30
0.0
 10
236.783580
 20
26.883944
 30
0.0
  0
SPLINE
  5
24b
100
AcDbEntity
  8
0
 62
7
100
AcDbSpline
 70
8
 71
3
 72
8
 73
4
 74
0
 40
0
 40
0
 40
0
 40
0
 40
1
 40
1
 40
1
 40
1
 10
243.200004
 20
24.869280
 30
0.0
 10
243.200004
 20
24.590496
 30
0.0
 10
243.147124
 20
24.328624
 30
0.0
 10
243.041788
 20
24.083848
 30
0.0
  0
SPLINE
  5
24c
100
AcDbEntity
  8
0
 62
7
100
AcDbSpline
 70
8
 71
3
 72
8
 73
4
 74
0
 40
0
 40
0
 40
0
 40
0
 40
1
 40
1
 40
1
 40
1
 10
243.041788
 20
24.083848
 30
0.0
 10
242.936460
 20
23.838984
 30
0.0
 10
242.792004
 20
23.624808
 30
0.0
 10
242.608284
 20
23.441200
 30
0.0
  0
SPLINE
  5
24d
100
AcDbEntity
  8
0
 62
7
100
AcDbSpline
 70
8
 71
3
 72
8
 73
4
 74
0
 40
0
 40
0
 40
0
 40
0
 40
1
 40
1
 40
1
 40
1
 10
242.608284
 20
23.441200
 30
0.0
 10
242.428076
 20
23.260992
 30
0.0
 10
242.215532
 20
23.118160
 30
0.0
 10
241.970732
 20
23.012768
 30
0.0
  0
SPLINE
  5
24e
100
AcDbEntity
  8
0
 62
7
100
AcDbSpline
 70
8
 71
3
 72
8
 73
4
 74
0
 40
0
 40
0
 40
0
 40
0
 40
1
 40
1
 40
1
 40
1
 10
241.970732
 20
23.012768
 30
0.0
 10
241.725892
 20
22.907440
 30
0.0
 10
241.464084
 20
22.854560
 30
0.0
 10
241.185276
 20
22.854560
 30
0.0
  0
SPLINE
  5
24f
100
AcDbEntity
  8
0
 62
7
100
AcDbSpline
 70
8
 71
3
 72
8
 73
4
 74
0
 40
0
 40
0
 40
0
 40
0
 40
1
 40
1
 40
1
 40
1
 10
241.185276
 20
22.854560
 30
0.0
 10
240.906484
 20
22.854560
 30
0.0
 10
240.644620
 20
22.907440
 30
0.0
 10
240.399844
 20
23.012768
 30
0.0
  0
SPLINE
  5
250
100
AcDbEntity
  8
0
 62
7
100
AcDbSpline
 70
8
 71
3
 72
8
 73
4
 74
0
 40
0
 40
0
 40
0
 40
0
 40
1
 40
1
 40
1
 40
1
 10
240.399844
 20
23.012768
 30
0.0
 10
240.154980
 20
23.118096
 30
0.0
 10
239.940804
 20
23.261104
 30
0.0
 10
239.757196
 20
23.441200
 30
0.0
  0
SPLINE
  5
251
100
AcDbEntity
  8
0
 62
7
100
AcDbSpline
 70
8
 71
3
 72
8
 73
4
 74
0
 40
0
 40
0
 40
0
 40
0
 40
1
 40
1
 40
1
 40
1
 10
239.757196
 20
23.441200
 30
0.0
 10
239.576988
 20
23.624792
 30
0.0
 10
239.434156
 20
23.839024
 30
0.0
 10
239.328764
 20
24.083848
 30
0.0
  0
SPLINE
  5
252
100
AcDbEntity
  8
0
 62
7
100
AcDbSpline
 70
8
 71
3
 72
8
 73
4
 74
0
 40
0
 40
0
 40
0
 40
0
 40
1
 40
1
 40
1
 40
1
 10
239.328764
 20
24.083848
 30
0.0
 10
239.223428
 20
24.328688
 30
0.0
 10
239.170556
 20
24.590448
 30
0.0
 10
239.170556
 20
24.869280
 30
0.0
  0
LWPOLYLINE
  5
253
100
AcDbEntity
  8
0
 62
7
100
AcDbPolyline
 90
2
 70
0
 10
243.200004
 20
28.092712
 30
0.0
 10
243.200004
 20
24.869280
 30
0.0
  0
SPLINE
  5
254
100
AcDbEntity
  8
0
 62
7
100
AcDbSpline
 70
8
 71
3
 72
8
 73
4
 74
0
 40
0
 40
0
 40
0
 40
0
 40
1
 40
1
 40
1
 40
1
 10
241.185196
 20
23.660512
 30
0.0
 10
241.351652
 20
23.660512
 30
0.0
 10
241.508188
 20
23.690992
 30
0.0
 10
241.654404
 20
23.752096
 30
0.0
  0
SPLINE
  5
255
100
AcDbEntity
  8
0
 62
7
100
AcDbSpline
 70
8
 71
3
 72
8
 73
4
 74
0
 40
0
 40
0
 40
0
 40
0
 40
1
 40
1
 40
1
 40
1
 10
241.654404
 20
23.752096
 30
0.0
 10
241.800556
 20
23.816816
 30
0.0
 10
241.927988
 20
23.903536
 30
0.0
 10
242.036940
 20
24.012336
 30
0.0
  0
SPLINE
  5
256
100
AcDbEntity
  8
0
 62
7
100
AcDbSpline
 70
8
 71
3
 72
8
 73
4
 74
0
 40
0
 40
0
 40
0
 40
0
 40
1
 40
1
 40
1
 40
1
 10
242.036940
 20
24.012336
 30
0.0
 10
242.149244
 20
24.124648
 30
0.0
 10
242.235964
 20
24.253712
 30
0.0
 10
242.297180
 20
24.399968
 30
0.0
  0
SPLINE
  5
257
100
AcDbEntity
  8
0
 62
7
100
AcDbSpline
 70
8
 71
3
 72
8
 73
4
 74
0
 40
0
 40
0
 40
0
 40
0
 40
1
 40
1
 40
1
 40
1
 10
242.297180
 20
24.399968
 30
0.0
 10
242.361900
 20
24.546120
 30
0.0
 10
242.394044
 20
24.702592
 30
0.0
 10
242.394044
 20
24.869200
 30
0.0
  0
LWPOLYLINE
  5
258
100
AcDbEntity
  8
0
 62
7
100
AcDbPolyline
 90
2
 70
0
 10
239.170556
 20
24.869280
 30
0.0
 10
239.170556
 20
28.092712
 30
0.0
  0
SPLINE
  5
259
100
AcDbEntity
  8
0
 62
7
100
AcDbSpline
 70
8
 71
3
 72
8
 73
4
 74
0
 40
0
 40
0
 40
0
 40
0
 40
1
 40
1
 40
1
 40
1
 10
239.976468
 20
24.869328
 30
0.0
 10
239.976468
 20
24.702872
 30
0.0
 10
240.006948
 20
24.546312
 30
0.0
 10
240.068468
 20
24.400096
 30
0.0
  0
SPLINE
  5
25a
100
AcDbEntity
  8
0
 62
7
100
AcDbSpline
 70
8
 71
3
 72
8
 73
4
 74
0
 40
0
 40
0
 40
0
 40
0
 40
1
 40
1
 40
1
 40
1
 10
240.068468
 20
24.400096
 30
0.0
 10
240.133188
 20
24.253944
 30
0.0
 10
240.219908
 20
24.124792
 30
0.0
 10
240.328692
 20
24.012464
 30
0.0
  0
SPLINE
  5
25b
100
AcDbEntity
  8
0
 62
7
100
AcDbSpline
 70
8
 71
3
 72
8
 73
4
 74
0
 40
0
 40
0
 40
0
 40
0
 40
1
 40
1
 40
1
 40
1
 10
240.328692
 20
24.012464
 30
0.0
 10
240.441004
 20
23.903744
 30
0.0
 10
240.570060
 20
23.817032
 30
0.0
 10
240.716340
 20
23.752224
 30
0.0
  0
SPLINE
  5
25c
100
AcDbEntity
  8
0
 62
7
100
AcDbSpline
 70
8
 71
3
 72
8
 73
4
 74
0
 40
0
 40
0
 40
0
 40
0
 40
1
 40
1
 40
1
 40
1
 10
240.716340
 20
23.752224
 30
0.0
 10
240.862492
 20
23.691104
 30
0.0
 10
241.018948
 20
23.660640
 30
0.0
 10
241.185556
 20
23.660640
 30
0.0
  0
SPLINE
  5
25d
100
AcDbEntity
  8
0
 62
7
100
AcDbSpline
 70
8
 71
3
 72
8
 73
4
 74
0
 40
0
 40
0
 40
0
 40
0
 40
1
 40
1
 40
1
 40
1
 10
241.185556
 20
29.301632
 30
0.0
 10
241.019092
 20
29.301632
 30
0.0
 10
240.862516
 20
29.269472
 30
0.0
 10
240.716340
 20
29.204760
 30
0.0
  0
SPLINE
  5
25e
100
AcDbEntity
  8
0
 62
7
100
AcDbSpline
 70
8
 71
3
 72
8
 73
4
 74
0
 40
0
 40
0
 40
0
 40
0
 40
1
 40
1
 40
1
 40
1
 10
240.716340
 20
29.204760
 30
0.0
 10
240.570188
 20
29.143640
 30
0.0
 10
240.441020
 20
29.056704
 30
0.0
 10
240.328692
 20
28.944520
 30
0.0
  0
SPLINE
  5
25f
100
AcDbEntity
  8
0
 62
7
100
AcDbSpline
 70
8
 71
3
 72
8
 73
4
 74
0
 40
0
 40
0
 40
0
 40
0
 40
1
 40
1
 40
1
 40
1
 10
240.328692
 20
28.944520
 30
0.0
 10
240.219972
 20
28.835808
 30
0.0
 10
240.133044
 20
28.708096
 30
0.0
 10
240.068468
 20
28.562032
 30
0.0
  0
SPLINE
  5
260
100
AcDbEntity
  8
0
 62
7
100
AcDbSpline
 70
8
 71
3
 72
8
 73
4
 74
0
 40
0
 40
0
 40
0
 40
0
 40
1
 40
1
 40
1
 40
1
 10
240.068468
 20
28.562032
 30
0.0
 10
240.007348
 20
28.415880
 30
0.0
 10
239.976468
 20
28.259384
 30
0.0
 10
239.976468
 20
28.092776
 30
0.0
  0
LWPOLYLINE
  5
261
100
AcDbEntity
  8
0
 62
7
100
AcDbPolyline
 90
4
 70
0
 10
242.394044
 20
24.869200
 30
0.0
 10
242.394044
 20
26.985848
 30
0.0
 10
239.976468
 20
25.073216
 30
0.0
 10
239.976468
 20
24.869328
 30
0.0
  0
SPLINE
  5
262
100
AcDbEntity
  8
0
 62
7
100
AcDbSpline
 70
8
 71
3
 72
8
 73
4
 74
0
 40
0
 40
0
 40
0
 40
0
 40
1
 40
1
 40
1
 40
1
 10
242.394044
 20
28.092832
 30
0.0
 10
242.394044
 20
28.259288
 30
0.0
 10
242.361884
 20
28.415872
 30
0.0
 10
242.297180
 20
28.562088
 30
0.0
  0
SPLINE
  5
263
100
AcDbEntity
  8
0
 62
7
100
AcDbSpline
 70
8
 71
3
 72
8
 73
4
 74
0
 40
0
 40
0
 40
0
 40
0
 40
1
 40
1
 40
1
 40
1
 10
242.297180
 20
28.562088
 30
0.0
 10
242.236060
 20
28.708240
 30
0.0
 10
242.149124
 20
28.835648
 30
0.0
 10
242.036940
 20
28.944576
 30
0.0
  0
SPLINE
  5
264
100
AcDbEntity
  8
0
 62
7
100
AcDbSpline
 70
8
 71
3
 72
8
 73
4
 74
0
 40
0
 40
0
 40
0
 40
0
 40
1
 40
1
 40
1
 40
1
 10
242.036940
 20
28.944576
 30
0.0
 10
241.928220
 20
29.056888
 30
0.0
 10
241.800516
 20
29.143608
 30
0.0
 10
241.654404
 20
29.204816
 30
0.0
  0
SPLINE
  5
265
100
AcDbEntity
  8
0
 62
7
100
AcDbSpline
 70
8
 71
3
 72
8
 73
4
 74
0
 40
0
 40
0
 40
0
 40
0
 40
1
 40
1
 40
1
 40
1
 10
241.654404
 20
29.204816
 30
0.0
 10
241.508252
 20
29.269536
 30
0.0
 10
241.351796
 20
29.301688
 30
0.0
 10
241.185196
 20
29.301688
 30
0.0
  0
LWPOLYLINE
  5
266
100
AcDbEntity
  8
0
 62
7
100
AcDbPolyline
 90
4
 70
0
 10
239.976468
 20
28.092776
 30
0.0
 10
239.976468
 20
26.103648
 30
0.0
 10
242.394044
 20
28.016272
 30
0.0
 10
242.394044
 20
28.092832
 30
0.0
  0
ENDSEC
  0
SECTION
  2
OBJECTS
  0
DICTIONARY
  5
C
330
0
100
AcDbDictionary
  3
ACAD_GROUP
350
D
  3
ACAD_MLINESTYLE
350
17
  0
DICTIONARY
  5
D
330
C
100
AcDbDictionary
  0
DICTIONARY
  5
1A
330
C
100
AcDbDictionary
  0
DICTIONARY
  5
17
330
C
100
AcDbDictionary
  3
STANDARD
350
18
  0
DICTIONARY
  5
19
330
C
100
AcDbDictionary
  0
ENDSEC
  0
EOF
